<svg width="428" height="400" viewBox="0 0 428 400" fill="none" xmlns="http://www.w3.org/2000/svg">
<path d="M423.338 373.241V397.859H417.659C417.957 395.268 417.957 392.652 417.659 390.062C417.12 387.168 410.95 379.694 411.137 373.28L423.338 373.241Z" fill="#EBEBEB"/>
<path d="M377.908 373.241V397.859H372.229C372.527 395.268 372.527 392.652 372.229 390.062C371.69 387.168 365.521 379.694 365.707 373.28L377.908 373.241Z" fill="#E0E0E0"/>
<path d="M333.438 373.241V397.859H339.126C338.834 395.268 338.834 392.652 339.126 390.062C339.675 387.168 345.835 379.694 345.658 373.28L333.438 373.241Z" fill="#EBEBEB"/>
<path d="M294.127 373.241V397.859H299.806C299.513 395.268 299.513 392.652 299.806 390.062C300.345 387.168 306.514 379.694 306.328 373.28L294.127 373.241Z" fill="#E0E0E0"/>
<path d="M291.145 251.846H427.203V374.025H291.145V251.846Z" fill="#F5F5F5"/>
<path d="M327.799 251.846L326.789 374.025H291.146V251.846H327.799Z" fill="#E0E0E0"/>
<path d="M333.731 260.84H421.082V291.932H333.731V260.84Z" fill="#EBEBEB"/>
<path d="M333.731 298.121H421.082V329.212H333.731V298.121Z" fill="#EBEBEB"/>
<path d="M333.731 335.411H421.082V366.503H333.731V335.411Z" fill="#EBEBEB"/>
<path d="M387.599 216.743L391.365 251.709H343.09L339.088 216.743H387.599Z" fill="#E0E0E0"/>
<path d="M385.607 219.254L389.275 249.845H345.708L342.187 219.254H385.607Z" fill="white"/>
<path d="M378.281 224.403L380.537 244.706H353.045L351.633 224.403H378.281Z" fill="#EBEBEB"/>
<path d="M340.814 231.798L330.84 251.846L343.09 251.709L340.814 231.798Z" fill="#EBEBEB"/>
<path d="M374.211 278.004C374.209 278.637 374.395 279.256 374.745 279.783C375.095 280.31 375.594 280.722 376.178 280.965C376.762 281.209 377.405 281.274 378.026 281.151C378.647 281.029 379.217 280.725 379.665 280.279C380.114 279.832 380.419 279.262 380.543 278.641C380.667 278.021 380.605 277.378 380.363 276.793C380.121 276.208 379.711 275.708 379.185 275.356C378.659 275.004 378.041 274.817 377.408 274.817C376.562 274.817 375.75 275.152 375.151 275.75C374.551 276.347 374.213 277.158 374.211 278.004Z" fill="#E0E0E0"/>
<path d="M374.211 315.667C374.211 316.3 374.398 316.918 374.749 317.444C375.101 317.969 375.6 318.379 376.184 318.621C376.769 318.863 377.412 318.927 378.032 318.803C378.652 318.68 379.222 318.375 379.669 317.928C380.116 317.481 380.421 316.911 380.544 316.291C380.667 315.671 380.604 315.028 380.362 314.444C380.12 313.859 379.71 313.36 379.184 313.009C378.659 312.657 378.04 312.47 377.408 312.47C376.988 312.468 376.571 312.55 376.183 312.71C375.794 312.871 375.441 313.106 375.144 313.403C374.847 313.701 374.612 314.054 374.451 314.442C374.291 314.831 374.209 315.247 374.211 315.667Z" fill="#E0E0E0"/>
<path d="M374.211 353.32C374.211 353.953 374.398 354.571 374.749 355.097C375.101 355.623 375.6 356.033 376.184 356.275C376.769 356.517 377.412 356.58 378.032 356.456C378.652 356.333 379.222 356.029 379.669 355.581C380.116 355.134 380.421 354.565 380.544 353.944C380.667 353.324 380.604 352.681 380.362 352.097C380.12 351.513 379.71 351.013 379.184 350.662C378.659 350.311 378.04 350.123 377.408 350.123C376.56 350.123 375.747 350.46 375.147 351.06C374.547 351.659 374.211 352.472 374.211 353.32Z" fill="#E0E0E0"/>
<path d="M333.869 53.2325L411.01 52.4871L408.862 153.02L331.721 153.304L333.869 53.2325Z" fill="#E0E0E0"/>
<path d="M338.842 57.7146L406.371 55.9688L404.419 147.145L336.91 147.978L338.842 57.7146Z" fill="#FAFAFA"/>
<path d="M350.367 71.3382L395.18 70.5928L393.807 134.326L349.042 133.365L350.367 71.3382Z" fill="#EBEBEB"/>
<path d="M393.807 134.326L349.739 100.625L395.18 70.5928L393.807 134.326Z" fill="#F5F5F5"/>
<path d="M1.91402 0.827798L69.5996 0.170654L67.7067 88.3748L0.0406703 88.62L1.91402 0.827798Z" fill="#E0E0E0"/>
<path d="M6.28848 4.77058L65.5293 3.23071L63.8129 83.2156L4.59167 83.9414L6.28848 4.77058Z" fill="#FAFAFA"/>
<path d="M16.4022 16.717L55.7031 16.0598L54.5065 71.9659L15.235 71.1322L16.4022 16.717Z" fill="#EBEBEB"/>
<path d="M54.5065 71.9659L15.8431 42.4043L55.7031 16.0598L54.5065 71.9659Z" fill="#F5F5F5"/>
<path d="M77.7304 332.439C78.0149 333.302 67.9223 371.671 67.9223 371.671L60.9978 370.23L70.5215 332.439H77.7304Z" fill="#EBEBEB"/>
<path d="M24.0709 326.956L37.9199 371.671H29.838L16.5677 330.134L24.0709 326.956Z" fill="#F5F5F5"/>
<path d="M11.3805 320.032L27.25 371.671H19.1681L3.87732 323.21L11.3805 320.032Z" fill="#EBEBEB"/>
<path d="M72.8281 368.503L64.7462 396.486H24.0721L16.5689 368.503H72.8281Z" fill="#E0E0E0"/>
<path d="M51.8479 368.503C51.8832 368.407 51.9127 368.309 51.9362 368.209L52.1519 367.356C52.3383 366.571 52.5933 365.463 52.9268 364.05L55.7221 351.83L64.8534 311.077L64.6082 311.283H71.7289L71.4837 310.969C67.8645 327.005 64.618 341.374 62.2935 351.751C61.1558 356.92 60.2338 361.088 59.5865 364.011C59.2922 365.433 59.047 366.542 58.8803 367.336C58.8117 367.699 58.7528 367.984 58.7136 368.199C58.6978 368.3 58.6978 368.403 58.7136 368.503C58.7489 368.407 58.7784 368.309 58.8018 368.209C58.8607 367.993 58.9293 367.709 59.0176 367.356C59.2138 366.571 59.4786 365.463 59.8219 364.05C60.4986 361.108 61.4696 356.979 62.676 351.83C65.0594 341.453 68.3451 327.103 72.0133 311.077L72.0918 310.773H64.4415L64.3924 310.969C60.8713 327.005 57.7033 341.374 55.4181 351.751C54.3097 356.92 53.4074 361.088 52.7797 364.011C52.4854 365.433 52.2598 366.542 52.0931 367.336L51.9264 368.199C51.8841 368.296 51.8576 368.398 51.8479 368.503Z" fill="#E0E0E0"/>
<path d="M12.0962 397.653C12.0962 397.79 105.214 397.908 220.028 397.908C334.841 397.908 427.959 397.79 427.959 397.653C427.959 397.516 334.861 397.398 219.979 397.398C105.096 397.398 12.0962 397.516 12.0962 397.653Z" fill="#263238"/>
<path d="M38.8726 129.951C39.097 129.857 39.3303 129.784 39.569 129.736C40.2696 129.578 40.9966 129.578 41.6973 129.736C42.8329 130.028 43.8887 130.571 44.7869 131.324C46.0083 132.382 47.066 133.615 47.9254 134.983C49.9361 138.063 51.5152 142.319 53.3591 147.282C55.4928 152.949 57.339 158.721 58.8909 164.574C59.1795 165.114 59.5652 165.596 60.0286 165.996C60.2677 166.214 60.5509 166.377 60.859 166.475C61.1671 166.574 61.4927 166.604 61.8137 166.565C62.4436 166.405 63.0129 166.064 63.4516 165.584C63.9126 165.162 64.3442 164.711 64.7757 164.25C65.6274 163.314 66.5347 162.429 67.4926 161.602C68.4185 160.711 69.6505 160.209 70.9352 160.199C71.5778 160.309 72.1902 160.553 72.7326 160.914C73.275 161.276 73.7353 161.747 74.0836 162.298C74.7799 163.49 75.155 164.842 75.1723 166.222C75.339 169.027 74.5249 171.861 74.0345 174.794C73.5441 177.726 72.9262 180.738 72.3574 183.807C72.0631 185.347 71.7787 186.897 71.4845 188.466L71.0431 190.84C70.9083 191.254 70.864 191.693 70.9131 192.126C70.9621 192.559 71.1035 192.977 71.3275 193.351C71.4749 193.548 71.6784 193.695 71.9113 193.774C72.1441 193.853 72.3954 193.859 72.632 193.792C73.0556 193.669 73.4518 193.466 73.7992 193.194L75.7608 191.703C77.0958 190.694 78.484 189.758 79.9194 188.898C81.3563 188.004 82.9253 187.342 84.5684 186.936C85.3812 186.745 86.2273 186.745 87.0401 186.936C87.8495 187.141 88.5633 187.619 89.0605 188.29C90.0043 189.746 90.4674 191.461 90.3846 193.194C90.3818 194.978 90.2077 196.759 89.8648 198.51C89.1573 202.11 88.1568 205.646 86.8733 209.083C86.4999 209.962 86.2141 210.875 86.02 211.81C85.9731 212.074 85.9811 212.346 86.0435 212.607C86.1059 212.869 86.2215 213.115 86.3829 213.33C86.4702 213.432 86.5653 213.527 86.6674 213.614C86.7785 213.714 86.9086 213.791 87.0499 213.84C87.3489 213.885 87.6537 213.815 87.9032 213.644C88.718 213.121 89.4772 212.516 90.1689 211.839L92.2678 209.877C93.6423 208.547 95.1361 207.345 96.7305 206.288C97.5249 205.765 98.3949 205.369 99.31 205.111C99.7445 204.976 100.203 204.935 100.654 204.991C101.106 205.047 101.54 205.198 101.929 205.434C102.686 205.984 103.214 206.795 103.41 207.71C103.646 208.646 103.764 209.608 103.763 210.574C103.754 212.558 103.507 214.533 103.027 216.459C102.058 220.371 100.626 224.155 98.7607 227.728C96.904 231.392 94.7832 234.916 92.4149 238.272C91.2297 239.975 89.9527 241.612 88.5897 243.176C87.2755 244.804 85.9416 246.422 84.6077 248.08V248.139L84.8431 248.041L78.6051 247.138C76.5383 246.892 74.4856 246.538 72.4555 246.079C68.4534 245.179 64.5203 243.996 60.6858 242.538C56.9027 241.139 53.2978 239.299 49.9459 237.056C48.3001 235.966 46.7948 234.678 45.4636 233.221C44.8072 232.507 44.2437 231.712 43.7864 230.857C43.3186 230.048 43.165 229.095 43.3549 228.179C43.4811 227.741 43.6995 227.335 43.9956 226.988C44.2916 226.641 44.6584 226.362 45.0713 226.169C45.9239 225.752 46.8324 225.461 47.7685 225.306C49.6603 225.019 51.5741 224.904 53.4866 224.962H56.3506C57.3352 225.001 58.3211 224.938 59.293 224.776C59.5945 224.737 59.8689 224.582 60.058 224.344C60.1299 224.211 60.1733 224.064 60.1855 223.913C60.2004 223.779 60.2004 223.644 60.1855 223.511C60.1557 223.245 60.0736 222.988 59.944 222.754C59.8143 222.52 59.6398 222.314 59.4303 222.147C58.6582 221.588 57.8337 221.105 56.9685 220.706C53.7043 219.027 50.5845 217.082 47.641 214.889C46.2164 213.827 44.9021 212.624 43.7178 211.3C42.4932 210.075 41.6837 208.497 41.4031 206.788C41.321 205.956 41.5289 205.121 41.9916 204.424C42.4605 203.733 43.0854 203.162 43.8158 202.757C45.2949 201.943 46.894 201.371 48.5532 201.06C50.1929 200.729 51.8498 200.49 53.5161 200.344L55.9877 200.109C56.4287 200.083 56.8596 199.966 57.2529 199.765C57.4721 199.652 57.652 199.476 57.7693 199.259C57.8865 199.042 57.9355 198.794 57.9101 198.549C57.8199 198.124 57.6415 197.723 57.3863 197.372C57.1312 197.02 56.8051 196.726 56.4291 196.509L54.4674 195.057L50.6913 192.184L43.3941 186.642C41.05 184.808 38.5489 183.258 36.7835 181.061C35.8802 180.034 35.2584 178.791 34.9788 177.452C34.8648 176.808 34.8879 176.148 35.0468 175.514C35.2057 174.881 35.4967 174.287 35.9007 173.774C36.3288 173.301 36.8837 172.96 37.4994 172.793C38.1149 172.61 38.7508 172.505 39.3924 172.479C40.656 172.446 41.9204 172.492 43.1783 172.616C43.806 172.616 44.4338 172.705 45.0517 172.715C45.6955 172.763 46.3394 172.623 46.9054 172.312C47.1759 172.129 47.4036 171.89 47.5729 171.611C47.7422 171.331 47.849 171.019 47.8862 170.694C47.9587 170.084 47.9221 169.467 47.7783 168.87C44.971 163.551 42.434 158.094 40.1771 152.52C38.2154 147.616 36.5186 143.398 35.9105 139.769C35.6132 138.185 35.5471 136.566 35.7144 134.963C35.8415 133.798 36.2341 132.677 36.8619 131.687C37.2418 131.082 37.7593 130.574 38.3724 130.206C38.5811 130.079 38.801 129.97 39.0295 129.883C38.7921 129.947 38.5645 130.042 38.3528 130.167C37.7216 130.528 37.1841 131.032 36.7835 131.638C36.1432 132.636 35.7374 133.766 35.5967 134.944C35.4057 136.56 35.4553 138.196 35.7438 139.799C36.3323 143.437 37.9996 147.645 39.9515 152.549C42.161 158.188 44.6555 163.71 47.4252 169.095C47.5609 169.647 47.5942 170.219 47.5233 170.782C47.4966 171.06 47.4111 171.329 47.2724 171.57C47.1337 171.812 46.9451 172.022 46.7191 172.185C46.2073 172.456 45.6288 172.575 45.0517 172.528C44.4436 172.528 43.8256 172.469 43.1979 172.42C41.9239 172.292 40.6431 172.243 39.363 172.273C38.6983 172.3 38.0393 172.408 37.4014 172.597C36.727 172.776 36.1158 173.14 35.6359 173.646C35.2083 174.196 34.9003 174.829 34.7314 175.504C34.5625 176.18 34.5365 176.883 34.6551 177.57C34.9402 178.975 35.5896 180.28 36.5383 181.355C38.3528 183.611 40.8734 185.181 43.1979 187.025L50.4854 192.576L54.2517 195.44L56.1642 196.901C56.4872 197.117 56.7806 197.374 57.0371 197.666C57.2733 197.947 57.4292 198.285 57.4883 198.647C57.5055 198.81 57.4724 198.975 57.3935 199.118C57.3147 199.262 57.1937 199.378 57.047 199.451C56.7002 199.619 56.3234 199.716 55.9386 199.736L53.467 199.971C51.7873 200.114 50.1172 200.353 48.4649 200.687C46.7489 201.004 45.0937 201.589 43.5609 202.423C42.7789 202.873 42.1085 203.493 41.5992 204.238C41.088 205.018 40.8532 205.947 40.9323 206.876C41.2237 208.684 42.0703 210.357 43.3549 211.662C44.5731 213.01 45.9199 214.235 47.3762 215.321C50.3391 217.535 53.4784 219.504 56.7625 221.206C57.597 221.584 58.392 222.044 59.1361 222.579C59.2989 222.704 59.4349 222.86 59.536 223.039C59.6371 223.217 59.7012 223.415 59.7246 223.619C59.7343 223.716 59.7343 223.815 59.7246 223.913C59.7246 223.991 59.7245 224.178 59.6559 224.168C59.5299 224.281 59.3725 224.352 59.2047 224.374C58.2841 224.523 57.3513 224.582 56.4192 224.55H53.5553C51.6133 224.48 49.669 224.595 47.7489 224.894C46.7591 225.048 45.7995 225.356 44.9046 225.806C44.4315 226.032 44.0119 226.356 43.6737 226.757C43.3355 227.158 43.0864 227.626 42.9429 228.13C42.7204 229.161 42.8881 230.237 43.4137 231.151C43.8876 232.043 44.4744 232.871 45.1595 233.613C46.5165 235.103 48.0516 236.421 49.7301 237.536C53.1114 239.811 56.7533 241.671 60.5779 243.078C64.4427 244.552 68.4089 245.745 72.4456 246.648C74.4819 247.11 76.5412 247.463 78.6149 247.707L84.8627 248.619H85.0098L85.0981 248.502H85.1471L89.1292 243.598C90.4915 242.03 91.7716 240.393 92.9642 238.694C95.3509 235.313 97.4881 231.763 99.359 228.071C101.233 224.459 102.672 220.636 103.645 216.684C104.141 214.732 104.395 212.726 104.4 210.711C104.399 209.699 104.274 208.691 104.028 207.71C103.796 206.682 103.196 205.775 102.341 205.16C101.894 204.883 101.393 204.706 100.873 204.638C100.352 204.57 99.8223 204.614 99.3198 204.767C98.3598 205.039 97.447 205.456 96.6128 206.003C94.9917 207.075 93.4747 208.297 92.0814 209.652L89.9825 211.613C89.3148 212.261 88.5856 212.843 87.8051 213.349C87.665 213.45 87.4971 213.505 87.3245 213.506C87.3245 213.506 87.1774 213.418 87.1087 213.369L86.893 213.153C86.7741 212.988 86.6902 212.8 86.6463 212.601C86.6025 212.402 86.5996 212.196 86.6379 211.996C86.824 211.098 87.1 210.22 87.4618 209.377C88.7513 205.915 89.7551 202.352 90.4631 198.726C90.8114 196.945 90.9855 195.135 90.9829 193.321C91.0606 191.488 90.5596 189.676 89.5509 188.143C88.9918 187.398 88.1964 186.866 87.2951 186.632C86.4144 186.426 85.4982 186.426 84.6175 186.632C82.932 187.031 81.3201 187.693 79.8409 188.594C78.388 189.457 76.9863 190.403 75.6431 191.428L73.6815 192.919C73.3891 193.156 73.057 193.338 72.7007 193.459C72.5425 193.505 72.374 193.502 72.2179 193.449C72.0618 193.396 71.9256 193.297 71.8277 193.164C71.6342 192.872 71.5224 192.534 71.5041 192.184C71.4941 191.794 71.537 191.405 71.6316 191.026C71.7787 190.232 71.916 189.447 72.0631 188.663C72.3574 187.093 72.6418 185.534 72.9263 184.004C73.4853 180.924 74.0443 177.923 74.5838 174.99C75.1232 172.057 75.8785 169.213 75.7117 166.32C75.6829 164.886 75.2842 163.484 74.5544 162.249C74.1765 161.652 73.6758 161.142 73.0856 160.753C72.4955 160.364 71.8293 160.105 71.1314 159.993C70.4367 159.936 69.74 160.076 69.1207 160.396C68.5187 160.688 67.9553 161.053 67.4435 161.484C66.4734 162.322 65.5562 163.22 64.6973 164.172C64.2788 164.629 63.8472 165.071 63.4026 165.496C63.0035 165.919 62.4938 166.221 61.9314 166.369C61.6539 166.4 61.373 166.371 61.1074 166.285C60.8419 166.199 60.5978 166.057 60.3915 165.869C59.962 165.498 59.6031 165.053 59.3322 164.554C57.761 158.691 55.8884 152.913 53.722 147.243C51.8585 142.29 50.2499 138.023 48.2001 134.944C47.3237 133.568 46.2459 132.331 45.0026 131.275C44.0878 130.517 43.0104 129.98 41.8542 129.706C41.1447 129.539 40.406 129.539 39.6965 129.706C39.4099 129.74 39.1313 129.823 38.8726 129.951Z" fill="#263238"/>
<path d="M44.0229 143.29C44.0399 143.402 44.0729 143.511 44.121 143.614L44.4544 144.536C44.7781 145.37 45.2293 146.556 45.7982 148.057C46.9948 151.147 48.6916 155.57 50.7905 161.013L67.0817 203.816C73.4177 220.49 79.2241 235.663 83.5201 246.569C85.6582 252.023 87.4433 256.427 88.6595 259.467C89.2676 260.958 89.7482 262.125 90.0915 262.949C90.2582 263.331 90.3759 263.626 90.474 263.861L90.6211 264.155C90.6032 264.047 90.5702 263.941 90.523 263.841C90.4445 263.606 90.3268 263.302 90.1895 262.919C89.8659 262.076 89.4147 260.899 88.8458 259.389C87.6492 256.299 85.9525 251.885 83.8535 246.442L67.5623 203.659C61.2263 186.936 55.4297 171.822 51.124 160.915C48.9858 155.462 47.2007 151.048 45.9845 148.018C45.3764 146.527 44.8958 145.35 44.5525 144.526C44.3858 144.153 44.2681 143.849 44.17 143.624L44.0229 143.29Z" fill="#263238"/>
<path d="M43.4922 177.177C44.2671 177.732 45.0873 178.221 45.9442 178.639L51.9468 181.973C54.3007 183.278 56.4389 184.445 58.018 185.239C58.848 185.711 59.7259 186.092 60.6367 186.377C59.8553 185.832 59.0359 185.344 58.1847 184.916L52.2018 181.532C49.8479 180.228 47.6999 179.09 46.1109 178.315C45.2763 177.853 44.3994 177.472 43.4922 177.177Z" fill="#263238"/>
<path d="M61.4322 185.749C61.5597 185.808 63.894 181.355 66.6403 175.804C69.3866 170.253 71.5443 165.702 71.3972 165.633C71.2501 165.564 68.9354 170.027 66.1793 175.579C63.4232 181.13 61.3047 185.681 61.4322 185.749Z" fill="#263238"/>
<path d="M70.0031 211.868C70.7868 211.289 71.5097 210.632 72.1609 209.907C73.4359 208.632 75.1033 206.817 76.9178 204.718C78.7323 202.619 80.2035 200.638 81.2431 199.167C81.8544 198.407 82.3837 197.586 82.8223 196.715C82.1487 197.415 81.5259 198.162 80.9587 198.951C79.8406 200.363 78.3007 202.296 76.5255 204.385C74.7502 206.474 73.1025 208.308 71.9059 209.652C71.2168 210.342 70.5808 211.083 70.0031 211.868Z" fill="#263238"/>
<path d="M52.065 207.651C52.9025 207.986 53.7693 208.242 54.6543 208.416C56.2628 208.818 58.4991 209.338 60.9707 209.887C63.4424 210.436 65.6982 210.868 67.3263 211.221C68.2004 211.441 69.0939 211.576 69.9941 211.623C69.1565 211.291 68.2896 211.038 67.4048 210.868C65.7963 210.466 63.56 209.887 61.0786 209.387C58.5972 208.887 56.3609 208.406 54.7328 208.063C53.8581 207.844 52.965 207.706 52.065 207.651Z" fill="#263238"/>
<path d="M56.7031 231.681C57.7919 232.058 58.9063 232.356 60.0378 232.573C62.1171 233.054 64.9419 233.692 68.1589 234.358C71.376 235.025 74.2301 235.614 76.3193 236.006C77.4381 236.273 78.576 236.454 79.7227 236.546C78.6349 236.165 77.5202 235.867 76.3879 235.653C74.3184 235.173 71.4839 234.535 68.2668 233.868C65.0498 233.201 62.2054 232.613 60.1163 232.22C58.9942 231.953 57.853 231.772 56.7031 231.681Z" fill="#263238"/>
<path d="M79.2131 236.271C79.4863 236.082 79.7336 235.857 79.9487 235.604C80.3999 235.153 81.0276 234.486 81.8025 233.642C83.3424 231.955 85.4119 229.572 87.5892 226.855C89.7666 224.138 91.64 221.588 92.9445 219.715C93.6016 218.783 94.1116 218.018 94.4549 217.479C94.6595 217.213 94.8246 216.919 94.9453 216.606C94.6995 216.83 94.4821 217.084 94.298 217.361L92.6502 219.509C91.2771 221.323 89.3645 223.824 87.1871 226.531C85.0097 229.239 82.9991 231.661 81.5279 233.397C80.694 234.303 79.9208 235.263 79.2131 236.271Z" fill="#263238"/>
<path d="M89.0215 301.975C106.048 288.244 108.52 264.773 106.382 243.97C106.019 240.498 106.156 236.8 104.293 233.858C102.429 230.916 98.4078 229.101 95.3968 230.778C92.8957 232.171 91.9835 235.261 90.7085 237.84C89.0021 241.288 86.3571 244.185 83.0778 246.197C80.9396 247.501 78.2424 248.394 75.9768 247.334C72.8578 245.883 72.2203 241.763 72.0045 238.301L70.7981 218.94C70.5823 215.468 70.3469 211.937 69.0424 208.73C67.738 205.523 65.1192 202.629 61.7943 201.923C58.4693 201.217 54.4971 203.414 54.0361 206.827C54.0038 208.268 54.0693 209.71 54.2322 211.143C54.2322 212.584 53.6732 214.222 52.3393 214.713C51.0054 215.203 49.5342 214.33 48.416 213.389C44.6007 210.142 41.8741 205.807 39.2945 201.482C36.715 197.156 34.2139 192.723 30.7027 189.133C27.1914 185.543 22.5129 182.827 17.5304 182.885C12.5479 182.944 7.48694 186.367 6.56498 191.32C5.64302 196.273 8.83065 201.05 12.2046 204.787C17.2139 210.343 23.002 215.143 29.3884 219.038C30.6349 219.6 31.6667 220.55 32.3308 221.745C33.243 224.001 31.2127 226.443 28.9862 227.365C26.4656 228.395 23.6408 228.346 20.9632 228.827C18.2856 229.307 15.4413 230.719 14.5978 233.338C13.4208 236.977 16.6379 240.479 19.7176 242.715C25.8557 247.176 32.7126 250.553 39.9909 252.699C42.6097 253.455 45.3461 254.082 47.5235 255.73C49.7009 257.378 51.1525 260.409 50.0736 262.929C48.9947 265.45 45.866 266.46 43.208 266.146C40.55 265.832 38.0195 264.548 35.4106 263.763C30.5065 262.292 24.4059 263.047 21.6792 267.362C19.8647 270.207 19.9432 273.983 21.179 277.171C22.5575 280.266 24.5418 283.054 27.0148 285.37C35.1753 293.912 45.4582 300.133 56.8118 303.397C68.1107 306.467 78.3896 306.801 89.1 302.034" fill="#FF725E"/>
<g opacity="0.1">
<path d="M89.0215 301.975C106.048 288.244 108.52 264.773 106.382 243.97C106.019 240.498 106.156 236.8 104.293 233.858C102.429 230.916 98.4078 229.101 95.3968 230.778C92.8957 232.171 91.9835 235.261 90.7085 237.84C89.0021 241.288 86.3571 244.185 83.0778 246.197C80.9396 247.501 78.2424 248.394 75.9768 247.334C72.8578 245.883 72.2203 241.763 72.0045 238.301L70.7981 218.94C70.5823 215.468 70.3469 211.937 69.0424 208.73C67.738 205.523 65.1192 202.629 61.7943 201.923C58.4693 201.217 54.4971 203.414 54.0361 206.827C54.0038 208.268 54.0693 209.71 54.2322 211.143C54.2322 212.584 53.6732 214.222 52.3393 214.713C51.0054 215.203 49.5342 214.33 48.416 213.389C44.6007 210.142 41.8741 205.807 39.2945 201.482C36.715 197.156 34.2139 192.723 30.7027 189.133C27.1914 185.543 22.5129 182.827 17.5304 182.885C12.5479 182.944 7.48694 186.367 6.56498 191.32C5.64302 196.273 8.83065 201.05 12.2046 204.787C17.2139 210.343 23.002 215.143 29.3884 219.038C30.6349 219.6 31.6667 220.55 32.3308 221.745C33.243 224.001 31.2127 226.443 28.9862 227.365C26.4656 228.395 23.6408 228.346 20.9632 228.827C18.2856 229.307 15.4413 230.719 14.5978 233.338C13.4208 236.977 16.6379 240.479 19.7176 242.715C25.8557 247.176 32.7126 250.553 39.9909 252.699C42.6097 253.455 45.3461 254.082 47.5235 255.73C49.7009 257.378 51.1525 260.409 50.0736 262.929C48.9947 265.45 45.866 266.46 43.208 266.146C40.55 265.832 38.0195 264.548 35.4106 263.763C30.5065 262.292 24.4059 263.047 21.6792 267.362C19.8647 270.207 19.9432 273.983 21.179 277.171C22.5575 280.266 24.5418 283.054 27.0148 285.37C35.1753 293.912 45.4582 300.133 56.8118 303.397C68.1107 306.467 78.3896 306.801 89.1 302.034" fill="black"/>
</g>
<path d="M90.3555 317.433C88.7213 307.832 86.1727 298.409 82.7444 289.293C78.5017 278.172 73.6257 267.304 68.1402 256.74L63.8736 248.403C62.4613 245.667 61.0685 242.96 59.5385 240.39C56.5931 235.471 53.381 230.717 49.9167 226.149C46.631 221.765 43.3649 217.724 40.2754 213.967C37.1859 210.211 34.2238 206.778 31.3991 203.757C26.9626 198.968 22.1548 194.538 17.0204 190.506C15.206 189.084 13.7641 188.025 12.7735 187.319L11.6456 186.524C11.5213 186.43 11.3902 186.344 11.2533 186.269C11.3563 186.387 11.4751 186.489 11.6064 186.573L12.6951 187.427C13.6759 188.162 15.0784 189.251 16.8635 190.712C21.9255 194.803 26.6729 199.269 31.0656 204.071C33.8609 207.102 36.7935 210.554 39.8929 214.311C42.9922 218.067 46.2191 222.157 49.4754 226.512C52.9211 231.065 56.1104 235.806 59.0285 240.714C60.5487 243.274 61.9709 245.961 63.3342 248.698L67.6007 257.035C73.0719 267.577 77.954 278.416 82.2246 289.499C85.6637 298.576 88.2479 307.954 89.9435 317.511" fill="#263238"/>
<path d="M59.3514 240.361C59.4897 239.872 59.5719 239.368 59.5966 238.86C59.7045 237.88 59.832 236.487 59.9595 234.741C60.2047 231.269 60.3911 226.443 60.5774 221.137C60.7638 215.831 61.0188 211.015 61.3228 207.543C61.47 205.817 61.5975 204.414 61.7054 203.443C61.7935 202.942 61.8231 202.432 61.7936 201.923C61.634 202.405 61.5223 202.901 61.4602 203.404C61.2836 204.385 61.0776 205.768 60.8717 207.504C60.4499 210.966 60.1263 215.782 59.8909 221.108C59.6555 226.434 59.5672 231.092 59.4593 234.721C59.3907 236.359 59.3416 237.732 59.2926 238.841C59.2635 239.348 59.2832 239.857 59.3514 240.361Z" fill="#263238"/>
<path d="M14.2734 235.094C14.8669 235.187 15.4683 235.22 16.0683 235.192C17.2159 235.192 18.8735 235.192 20.9724 235.33C25.0722 235.496 30.7805 235.908 36.9694 236.654C43.1583 237.399 48.8077 238.311 52.8487 239.096C54.8691 239.469 56.4973 239.822 57.6252 240.077C58.2036 240.23 58.7944 240.331 59.3906 240.381C58.839 240.148 58.2679 239.964 57.684 239.831C56.5757 239.518 54.9574 239.106 52.9369 238.664C48.9156 237.772 43.2956 236.781 37.0478 236.026C31.7154 235.375 26.3532 234.999 20.9822 234.898C18.9225 234.898 17.2551 234.898 16.0781 234.957C15.4737 234.949 14.8698 234.995 14.2734 235.094Z" fill="#263238"/>
<path d="M82.1367 288.489C82.2531 288.318 82.3424 288.129 82.4015 287.93L83.0586 286.263C83.6177 284.821 84.3729 282.703 85.2655 280.084C87.0603 274.836 89.3162 267.51 91.6996 259.398C94.0829 251.287 96.2603 243.941 97.9473 238.664C98.7712 236.095 99.4578 233.986 99.958 232.416L100.497 230.72C100.574 230.525 100.623 230.32 100.645 230.112C100.533 230.286 100.444 230.474 100.38 230.671C100.203 231.122 99.9874 231.651 99.7324 232.338C99.1733 233.78 98.4181 235.898 97.5158 238.517C95.7209 243.764 93.465 251.091 91.0915 259.212C88.7179 267.333 86.5209 274.66 84.8339 279.937C84.01 282.506 83.3333 284.615 82.8723 286.184L82.3329 287.881C82.2396 288.074 82.1735 288.278 82.1367 288.489Z" fill="#263238"/>
<path d="M21.6797 273.483C21.8697 273.584 22.0752 273.654 22.2878 273.689L24.0434 274.15L30.5168 275.768C35.9897 277.132 43.5125 279.103 51.8297 281.3C60.147 283.497 67.6992 285.4 73.2016 286.655C75.9478 287.283 78.1743 287.773 79.7239 288.077L81.509 288.421C81.7141 288.472 81.9253 288.495 82.1367 288.489C81.9466 288.398 81.7455 288.332 81.5384 288.293L79.773 287.832L73.2996 286.214C67.8365 284.85 60.3039 282.869 51.9867 280.672C43.6694 278.475 36.1172 276.572 30.6247 275.317C27.8784 274.689 25.6421 274.209 24.1023 273.905L22.3172 273.561C22.1085 273.511 21.8945 273.484 21.6797 273.483Z" fill="#263238"/>
<path d="M85.0582 31.2231H322.914V357.146H85.0582V31.2231Z" fill="#455A64"/>
<path d="M94.464 337.765H138.512H303.102V44.3953H94.464V301.269V337.765Z" fill="#E0E0E0"/>
<path d="M97.7592 332.321H141.415H304.523V40.521H97.7592V296.022V332.321Z" fill="#EBEBEB"/>
<path d="M119.975 309.616L143.789 329.006H308.379V41.2568H99.7414V293.207L119.975 309.616Z" fill="#FAFAFA"/>
<path d="M119.974 309.586C119.974 309.586 119.553 309.223 118.699 308.527L114.884 305.408L99.7893 293.119V293.177C99.7893 251.787 99.8677 159.787 99.9364 41.2273L99.7108 41.4627H306.534H308.348L308.093 41.2077C308.093 149.391 308.093 249.188 308.152 328.957L308.348 328.751L143.759 328.869H143.818L125.928 314.363L121.446 310.744C120.465 309.939 119.945 309.547 119.945 309.547L121.416 310.773L125.898 314.49L143.729 329.065L308.378 329.202H308.584V328.997C308.584 249.227 308.584 149.43 308.633 41.247V40.9919H306.563H99.7403H99.5048V41.2175C99.5735 159.817 99.6324 251.777 99.652 293.168L114.805 305.398L118.64 308.606L119.974 309.586Z" fill="#263238"/>
<path d="M232.209 21.1501H175.175C171.494 21.1501 167.964 22.6123 165.361 25.215C162.759 27.8178 161.296 31.3478 161.296 35.0286V50.4175H246.686V35.6171C246.683 31.7793 245.157 28.0996 242.442 25.3868C239.727 22.674 236.047 21.1501 232.209 21.1501Z" fill="#FF725E"/>
<path d="M225.766 21.1501L228.885 5.35913H179.717L182.453 21.1501H225.766Z" fill="#FF725E"/>
<path d="M251.412 122.252H286.555V87.0996H251.412V122.252ZM285.574 121.271H252.393V88.0804H285.574V121.271Z" fill="#FF725E"/>
<path d="M127.193 95.5934C127.193 95.7307 151.664 95.8484 181.834 95.8484C212.003 95.8484 236.484 95.7307 236.484 95.5934C236.484 95.4561 212.023 95.3384 181.834 95.3384C151.644 95.3384 127.193 95.4463 127.193 95.5934Z" fill="#263238"/>
<path d="M127.193 102.891C127.193 103.038 151.664 103.146 181.834 103.146C212.003 103.146 236.484 103.038 236.484 102.891C236.484 102.744 212.023 102.636 181.834 102.636C151.644 102.636 127.193 102.753 127.193 102.891Z" fill="#263238"/>
<path d="M127.193 110.198C127.193 110.335 151.664 110.453 181.834 110.453C212.003 110.453 236.484 110.335 236.484 110.198C236.484 110.06 212.023 109.943 181.834 109.943C151.644 109.943 127.193 110.06 127.193 110.198Z" fill="#263238"/>
<path d="M127.193 117.505C127.193 117.642 151.664 117.76 181.834 117.76C212.003 117.76 236.484 117.642 236.484 117.505C236.484 117.367 212.023 117.25 181.834 117.25C151.644 117.25 127.193 117.348 127.193 117.505Z" fill="#263238"/>
<path d="M251.412 176.422H286.555V141.27H251.412V176.422ZM285.574 175.441H252.393V142.251H285.574V175.441Z" fill="#FF725E"/>
<path d="M279.572 159.572L274.904 154.56L267.126 160.778L249.324 143.496L245.058 148.528L267.469 170.635L279.572 159.572Z" fill="#FF725E"/>
<path d="M127.193 149.764C127.193 149.901 151.664 150.019 181.834 150.019C212.003 150.019 236.484 149.901 236.484 149.764C236.484 149.626 212.023 149.509 181.834 149.509C151.644 149.509 127.193 149.626 127.193 149.764Z" fill="#263238"/>
<path d="M127.193 157.071C127.193 157.208 151.664 157.326 181.834 157.326C212.003 157.326 236.484 157.208 236.484 157.071C236.484 156.933 212.023 156.816 181.834 156.816C151.644 156.816 127.193 156.924 127.193 157.071Z" fill="#263238"/>
<path d="M127.193 164.368C127.193 164.515 151.664 164.623 181.834 164.623C212.003 164.623 236.484 164.515 236.484 164.368C236.484 164.221 212.023 164.113 181.834 164.113C151.644 164.113 127.193 164.23 127.193 164.368Z" fill="#263238"/>
<path d="M127.193 171.675C127.193 171.812 151.664 171.93 181.834 171.93C212.003 171.93 236.484 171.812 236.484 171.675C236.484 171.538 212.023 171.42 181.834 171.42C151.644 171.42 127.193 171.538 127.193 171.675Z" fill="#263238"/>
<path d="M251.412 228.846H286.555V193.694H251.412V228.846ZM285.574 227.865H252.393V194.675H285.574V227.865Z" fill="#FF725E"/>
<path d="M279.572 211.996L274.904 206.984L267.126 213.202L249.324 195.92L245.058 200.952L267.469 223.059L279.572 211.996Z" fill="#FF725E"/>
<path d="M127.193 202.188C127.193 202.325 151.664 202.443 181.834 202.443C212.003 202.443 236.484 202.325 236.484 202.188C236.484 202.05 212.023 201.933 181.834 201.933C151.644 201.933 127.193 202.041 127.193 202.188Z" fill="#263238"/>
<path d="M127.193 209.485C127.193 209.632 151.664 209.74 181.834 209.74C212.003 209.74 236.484 209.632 236.484 209.485C236.484 209.338 212.023 209.23 181.834 209.23C151.644 209.23 127.193 209.348 127.193 209.485Z" fill="#263238"/>
<path d="M127.193 216.792C127.193 216.939 151.664 217.047 181.834 217.047C212.003 217.047 236.484 216.939 236.484 216.792C236.484 216.645 212.023 216.537 181.834 216.537C151.644 216.537 127.193 216.655 127.193 216.792Z" fill="#263238"/>
<path d="M127.193 224.099C127.193 224.236 151.664 224.354 181.834 224.354C212.003 224.354 236.484 224.236 236.484 224.099C236.484 223.962 212.023 223.844 181.834 223.844C151.644 223.844 127.193 223.962 127.193 224.099Z" fill="#263238"/>
<path d="M251.412 279.466H286.555V244.313H251.412V279.466ZM285.574 278.485H252.393V245.294H285.574V278.485Z" fill="#FF725E"/>
<path d="M279.572 262.615L274.904 257.603L267.126 263.822L249.324 246.54L245.058 251.562L267.469 273.669L279.572 262.615Z" fill="#FF725E"/>
<path d="M127.193 252.798C127.193 252.945 151.664 253.052 181.834 253.052C212.003 253.052 236.484 252.945 236.484 252.798C236.484 252.65 212.023 252.542 181.834 252.542C151.644 252.542 127.193 252.699 127.193 252.798Z" fill="#263238"/>
<path d="M127.193 260.105C127.193 260.242 151.664 260.36 181.834 260.36C212.003 260.36 236.484 260.242 236.484 260.105C236.484 259.967 212.023 259.85 181.834 259.85C151.644 259.85 127.193 259.967 127.193 260.105Z" fill="#263238"/>
<path d="M127.193 267.412C127.193 267.549 151.664 267.667 181.834 267.667C212.003 267.667 236.484 267.549 236.484 267.412C236.484 267.274 212.023 267.156 181.834 267.156C151.644 267.156 127.193 267.264 127.193 267.412Z" fill="#263238"/>
<path d="M127.193 274.709C127.193 274.856 151.664 274.964 181.834 274.964C212.003 274.964 236.484 274.856 236.484 274.709C236.484 274.562 212.023 274.454 181.834 274.454C151.644 274.454 127.193 274.571 127.193 274.709Z" fill="#263238"/>
<path d="M137.247 281.368L160.119 328.741H143.789L137.247 281.368Z" fill="#E0E0E0"/>
<path d="M143.789 329.006L137.247 281.633L99.741 293.207L143.789 329.006Z" fill="#FAFAFA"/>
<path d="M143.789 329.006L131.176 318.62L99.8979 293.011L99.8096 293.442L114.296 288.989L137.276 281.859L136.972 281.663C138.934 295.394 140.611 307.213 141.798 315.589C142.985 323.739 143.593 327.947 143.76 329.006C143.763 328.935 143.763 328.862 143.76 328.791L143.671 328.143C143.593 327.525 143.485 326.662 143.338 325.564C143.034 323.259 142.602 319.954 142.053 315.756C140.915 307.311 139.326 295.433 137.473 281.555V281.28L137.208 281.359L114.169 288.46L99.6919 292.932L99.2407 293.07L99.6036 293.364C112.266 303.574 123.339 312.499 131.264 318.865L140.513 326.29L142.985 328.251L143.612 328.751L143.789 329.006Z" fill="#263238"/>
<g opacity="0.3">
<path d="M183.119 5.35913L185.826 21.1501H182.452L179.716 5.35913H184.021" fill="black"/>
</g>
<path d="M327.132 171.9C325.95 171.989 324.761 171.839 323.638 171.459C322.515 171.079 321.479 170.476 320.594 169.687C319.709 168.898 318.992 167.939 318.486 166.866C317.979 165.794 317.694 164.631 317.648 163.446C317.461 158.64 317.295 153.785 317.295 153.785C317.295 153.785 310.017 153.108 309.448 145.938C308.879 138.769 309.164 122.114 309.164 122.114C313.153 120.102 317.608 119.191 322.067 119.478C326.526 119.764 330.828 121.236 334.527 123.743L334.086 149.087V162.73C334.076 167.261 331.693 171.557 327.132 171.9Z" fill="#FFBE9D"/>
<path d="M316.667 137.111C317.199 136.347 317.999 135.812 318.908 135.612C319.817 135.412 320.768 135.562 321.571 136.032C322.386 136.599 322.974 137.436 323.229 138.395C323.484 139.355 323.39 140.373 322.964 141.27C322.592 141.935 322.087 142.516 321.479 142.975C320.871 143.434 320.174 143.762 319.433 143.937C318.776 144.08 318.193 144.458 317.794 145C317.395 145.541 317.207 146.21 317.265 146.88C317.567 148.773 318.452 150.525 319.796 151.892C322.017 154.153 324.975 155.544 328.133 155.815C331.203 156.178 334.714 155.54 336.499 153.02C337.803 151.186 337.892 148.783 337.941 146.537C338.052 141.227 338.163 135.918 338.274 130.608C338.39 128.695 338.268 126.774 337.911 124.89C337.536 122.99 336.457 121.302 334.89 120.163C333.135 119.005 330.918 118.907 328.927 118.27C326.426 117.456 324.308 115.808 321.973 114.611C319.639 113.415 316.785 112.699 314.441 113.876C312.754 114.719 311.626 116.396 309.998 117.328C307.663 118.652 304.495 118.309 303.367 121.781C302.97 122.968 302.97 124.252 303.367 125.439C304.946 130.098 310.714 131.981 314.872 129.971C314.951 130.755 314.176 132.511 315.009 135.002C315.274 135.807 315.363 137.013 316.608 137.042" fill="#263238"/>
<path d="M336.549 122.252C335.405 119.974 334.625 117.532 334.234 115.013C334.049 113.752 334.157 112.465 334.55 111.252C334.943 110.039 335.61 108.933 336.5 108.02C337.812 106.88 339.509 106.281 341.247 106.343C342.897 106.437 344.479 107.039 345.774 108.066C347.07 109.093 348.017 110.495 348.485 112.081C348.889 113.679 348.827 115.36 348.305 116.925C347.784 118.489 346.825 119.871 345.543 120.908C344.231 121.915 342.677 122.558 341.037 122.772C339.398 122.985 337.731 122.762 336.205 122.124" fill="#263238"/>
<path d="M335.136 119.653C335.189 120.533 335.568 121.362 336.198 121.979C336.829 122.595 337.667 122.955 338.549 122.987C338.549 122.84 337.49 122.556 336.587 121.614C335.685 120.673 335.273 119.613 335.136 119.653Z" fill="#FF725E"/>
<path d="M337.5 121.418C338.062 122.007 338.727 122.489 339.462 122.84C340.247 123.288 341.128 123.54 342.031 123.576C342.605 123.607 343.177 123.5 343.701 123.265C344.225 123.029 344.685 122.672 345.043 122.222C345.359 121.749 345.57 121.214 345.661 120.652C345.753 120.09 345.722 119.515 345.572 118.966C345.345 118.095 344.933 117.282 344.366 116.583C343.896 115.92 343.319 115.34 342.659 114.866C343.096 115.544 343.567 116.199 344.072 116.828C344.564 117.511 344.917 118.284 345.111 119.103C345.234 119.586 345.254 120.09 345.171 120.581C345.089 121.072 344.904 121.541 344.631 121.957C344.317 122.34 343.919 122.646 343.469 122.85C343.018 123.054 342.526 123.151 342.031 123.134C341.193 123.121 340.369 122.92 339.619 122.546C338.344 121.889 337.549 121.34 337.5 121.418Z" fill="#263238"/>
<path d="M349.739 129.549C349.591 129.798 349.476 130.065 349.396 130.344C349.141 131.078 348.781 131.772 348.327 132.403C348.024 132.859 347.601 133.222 347.103 133.451C346.606 133.68 346.055 133.765 345.512 133.698C344.861 133.514 344.27 133.166 343.794 132.686C343.318 132.207 342.974 131.613 342.795 130.961C342.442 129.59 342.197 128.193 342.059 126.783C341.921 125.574 341.445 124.429 340.686 123.478C340.143 122.852 339.402 122.43 338.587 122.281C338.292 122.209 337.982 122.237 337.704 122.36C337.704 122.36 338.028 122.36 338.548 122.477C339.285 122.681 339.937 123.114 340.411 123.713C341.08 124.635 341.49 125.719 341.598 126.852C341.711 128.295 341.951 129.726 342.314 131.128C342.517 131.864 342.911 132.533 343.458 133.065C344.004 133.598 344.683 133.975 345.423 134.159C346.101 134.267 346.795 134.135 347.385 133.786C347.875 133.489 348.296 133.091 348.621 132.619C349.07 131.944 349.402 131.198 349.602 130.412C349.702 130.136 349.749 129.843 349.739 129.549Z" fill="#263238"/>
<path d="M353.281 190.055C353.281 190.055 356.959 216.949 353.281 220.362C349.603 223.775 346.082 222.638 346.082 222.638L339.089 216.753L337.716 190.016L353.281 190.055Z" fill="#FFBE9D"/>
<path d="M277.316 114.562L272.648 109.55L264.87 115.769L247.068 98.4868L242.802 103.518L265.213 125.626L277.316 114.562Z" fill="#FF725E"/>
<path d="M255.386 115.926L262.154 120.271C262.458 117.593 264.498 114.945 264.4 116.288C264.302 117.632 264.4 124.606 264.4 124.606L276.454 149.999C278.092 154.02 281.417 156.551 283.898 157.149L295.188 160.503L290.784 175.402L275.091 170.203C273.088 169.54 271.268 168.416 269.778 166.922C268.287 165.428 267.168 163.606 266.509 161.602L255.72 128.725C255.003 126.607 254.427 124.445 253.994 122.252C253.523 119.496 255.386 115.926 255.386 115.926Z" fill="#FFBE9D"/>
<path d="M310.831 393.661L311.007 386.138L325.111 386.364L324.984 397.378L324.101 397.427C320.178 397.574 304.279 397.928 301.69 397.104C298.806 396.172 310.831 393.661 310.831 393.661Z" fill="#FF725E"/>
<g opacity="0.5">
<path d="M319.864 397.192C320.102 396.018 320.761 394.971 321.718 394.25C322.66 393.517 323.844 393.167 325.033 393.269L324.974 397.192H319.864Z" fill="white"/>
</g>
<g opacity="0.4">
<path d="M304.995 395.103C304.995 395.103 300.778 396.241 301.288 396.947C301.798 397.653 317.903 397.928 325.023 397.379V397.065L306.231 396.937C306.231 396.937 305.77 395.152 304.995 395.103Z" fill="white"/>
</g>
<path d="M325.189 397.055H324.944H324.248L321.678 397.123C319.51 397.172 316.519 397.192 313.214 397.123C309.908 397.055 306.907 396.966 304.749 396.859L302.18 396.711L301.483 396.662H301.248H301.493H302.189L304.749 396.76C306.917 396.829 309.908 396.927 313.214 396.976C316.519 397.025 319.51 396.976 321.678 396.976H324.238H325.219L325.189 397.055Z" fill="#263238"/>
<path d="M306.173 397.153C306.071 396.727 305.916 396.315 305.712 395.927C305.465 395.569 305.179 395.24 304.859 394.946C305.276 395.142 305.625 395.459 305.859 395.857C306.094 396.254 306.203 396.712 306.173 397.172V397.153Z" fill="#263238"/>
<path d="M310.37 395.103C310.37 395.103 310.135 394.887 309.929 394.563C309.723 394.24 309.605 393.946 309.644 393.926C309.684 393.906 309.88 394.142 310.076 394.465C310.272 394.789 310.409 395.083 310.37 395.103Z" fill="#263238"/>
<path d="M311.518 394.524C311.518 394.524 311.273 394.407 311.028 394.181C310.782 393.955 310.625 393.749 310.655 393.72C310.684 393.691 310.91 393.838 311.145 394.054C311.381 394.269 311.557 394.485 311.518 394.524Z" fill="#263238"/>
<path d="M312.264 393.2C312.028 393.286 311.776 393.313 311.528 393.279C311.279 393.308 311.027 393.277 310.792 393.19C311.03 393.115 311.28 393.088 311.528 393.112C311.777 393.084 312.029 393.114 312.264 393.2Z" fill="#263238"/>
<path d="M312.527 392.268C312.28 392.42 311.994 392.498 311.703 392.494C311.413 392.536 311.116 392.492 310.85 392.366C311.131 392.339 311.413 392.339 311.694 392.366C311.968 392.308 312.247 392.275 312.527 392.268Z" fill="#263238"/>
<path d="M309.898 393.867C309.6 393.922 309.294 393.922 308.996 393.867C308.663 393.823 308.334 393.747 308.015 393.642C307.825 393.582 307.641 393.503 307.466 393.406C307.411 393.377 307.362 393.337 307.323 393.288C307.285 393.239 307.256 393.182 307.24 393.122C307.229 393.054 307.237 392.984 307.263 392.919C307.288 392.855 307.332 392.8 307.388 392.759C307.737 392.597 308.131 392.56 308.505 392.655C308.878 392.75 309.207 392.97 309.437 393.279C309.569 393.462 309.666 393.668 309.722 393.887C309.739 393.968 309.739 394.051 309.722 394.132C309.628 393.855 309.492 393.593 309.32 393.357C309.117 393.117 308.853 392.937 308.555 392.837C308.198 392.714 307.807 392.735 307.466 392.896C307.329 393.004 307.378 393.171 307.535 393.269C307.697 393.36 307.868 393.436 308.045 393.494C308.364 393.605 308.692 393.69 309.026 393.749C309.565 393.838 309.898 393.838 309.898 393.867Z" fill="#263238"/>
<path d="M309.674 393.936C309.564 393.746 309.529 393.522 309.576 393.308C309.613 393.072 309.704 392.847 309.841 392.651C309.918 392.518 310.028 392.407 310.16 392.328C310.293 392.249 310.442 392.205 310.596 392.2C310.642 392.209 310.686 392.227 310.724 392.254C310.763 392.28 310.796 392.314 310.822 392.353C310.847 392.392 310.865 392.436 310.873 392.482C310.882 392.528 310.881 392.576 310.871 392.621C310.849 392.765 310.795 392.903 310.714 393.024C310.595 393.225 310.446 393.406 310.272 393.563C310.132 393.726 309.954 393.851 309.753 393.926C309.753 393.926 309.929 393.769 310.184 393.485C310.331 393.317 310.462 393.136 310.576 392.945C310.704 392.759 310.792 392.415 310.576 392.366C310.361 392.317 310.115 392.563 309.978 392.739C309.847 392.914 309.753 393.115 309.704 393.328C309.676 393.529 309.667 393.733 309.674 393.936Z" fill="#263238"/>
<path d="M324.955 393.19C324.955 393.19 324.553 393.19 323.915 393.19C323.084 393.269 322.292 393.582 321.63 394.092C320.969 394.602 320.466 395.289 320.179 396.074C319.953 396.672 319.924 397.055 319.894 397.055C319.875 396.961 319.875 396.864 319.894 396.77C319.926 396.514 319.982 396.261 320.061 396.015C320.333 395.196 320.845 394.477 321.53 393.952C322.216 393.427 323.044 393.121 323.906 393.073C324.163 393.044 324.423 393.044 324.68 393.073C324.779 393.093 324.872 393.133 324.955 393.19Z" fill="#263238"/>
<path d="M323.582 387.305C323.67 388.267 323.696 389.234 323.66 390.199C323.692 391.181 323.662 392.163 323.572 393.141C323.483 392.163 323.457 391.18 323.494 390.199C323.47 389.233 323.5 388.268 323.582 387.305Z" fill="#263238"/>
<path d="M318.119 395.79C317.439 395.93 316.744 395.986 316.05 395.956C315.357 395.986 314.664 395.92 313.99 395.76C313.99 395.711 314.971 395.76 316.05 395.76C317.129 395.76 318.109 395.74 318.119 395.79Z" fill="#263238"/>
<path d="M320.875 395.819C320.875 395.819 320.797 396.015 320.708 396.231C320.62 396.447 320.551 396.623 320.502 396.623C320.453 396.623 320.434 396.398 320.551 396.152C320.669 395.907 320.846 395.789 320.875 395.819Z" fill="#263238"/>
<path d="M321.943 394.544C321.943 394.544 321.885 394.72 321.728 394.867C321.571 395.015 321.433 395.103 321.404 395.073C321.374 395.044 321.463 394.887 321.61 394.75C321.757 394.612 321.904 394.505 321.943 394.544Z" fill="#263238"/>
<path d="M323.445 393.936C323.445 393.936 323.239 393.936 323.033 394.044C322.827 394.152 322.68 394.22 322.641 394.191C322.601 394.161 322.719 393.965 322.984 393.887C323.249 393.808 323.455 393.936 323.445 393.936Z" fill="#263238"/>
<path d="M324.504 393.71C324.504 393.71 324.445 393.828 324.327 393.867C324.21 393.906 324.102 393.916 324.082 393.867C324.063 393.818 324.151 393.749 324.269 393.71C324.386 393.671 324.494 393.661 324.504 393.71Z" fill="#263238"/>
<path d="M360.617 391.258L355.831 385.442L366.678 376.409L373.76 384.844L373.132 385.452C370.278 388.11 358.42 398.761 355.929 399.821C353.133 401.007 360.617 391.258 360.617 391.258Z" fill="#FF725E"/>
<g opacity="0.5">
<path d="M369.729 388.051C369.129 387.003 368.937 385.77 369.19 384.589C369.43 383.421 370.103 382.388 371.073 381.695L373.652 384.706L369.729 388.051Z" fill="white"/>
</g>
<g opacity="0.4">
<path d="M357.096 396.182C357.096 396.182 354.644 399.801 355.487 399.997C356.331 400.193 368.748 389.875 373.76 384.844L373.544 384.618L359.214 396.78C359.214 396.78 357.753 395.682 357.096 396.182Z" fill="white"/>
</g>
<path d="M373.711 384.471L373.544 384.647L373.034 385.128L371.131 386.854C369.523 388.296 367.267 390.268 364.727 392.386C362.186 394.505 359.823 396.378 358.136 397.712L356.096 399.271L355.537 399.683L355.331 399.821L355.517 399.654L356.056 399.212L358.018 397.614C359.715 396.26 362.039 394.377 364.58 392.259C367.12 390.14 369.386 388.188 371.014 386.766L372.975 385.079L373.505 384.618L373.711 384.471Z" fill="#263238"/>
<path d="M359.361 396.947C359.004 396.686 358.615 396.472 358.204 396.309C357.78 396.202 357.346 396.136 356.909 396.113C357.346 395.953 357.826 395.953 358.263 396.113C358.718 396.249 359.108 396.545 359.361 396.947Z" fill="#263238"/>
<path d="M361.205 392.651C361.205 392.7 360.881 392.651 360.519 392.523C360.156 392.396 359.861 392.278 359.881 392.229C359.901 392.18 360.205 392.229 360.568 392.357C360.799 392.408 361.016 392.508 361.205 392.651Z" fill="#263238"/>
<path d="M361.695 391.454C361.695 391.454 361.43 391.533 361.097 391.523C360.764 391.513 360.509 391.464 360.509 391.415C360.509 391.366 360.783 391.337 361.107 391.346C361.309 391.337 361.51 391.374 361.695 391.454Z" fill="#263238"/>
<path d="M361.402 390.012C361.402 390.012 361.206 390.287 360.892 390.552C360.715 390.731 360.506 390.874 360.274 390.974C360.274 390.974 360.471 390.689 360.784 390.424C361.098 390.16 361.363 389.934 361.402 390.012Z" fill="#263238"/>
<path d="M360.99 389.091C360.883 389.36 360.721 389.603 360.513 389.804C360.305 390.005 360.056 390.16 359.784 390.258C359.974 390.052 360.177 389.859 360.392 389.679C360.716 389.365 360.902 389.032 360.99 389.091Z" fill="#263238"/>
<path d="M360.049 391.974C359.854 392.208 359.618 392.404 359.352 392.553C359.074 392.733 358.778 392.884 358.469 393.004C358.287 393.086 358.096 393.149 357.901 393.19C357.777 393.211 357.651 393.183 357.548 393.112C357.493 393.07 357.453 393.014 357.43 392.949C357.407 392.885 357.404 392.815 357.42 392.749C357.571 392.39 357.843 392.096 358.189 391.916C358.535 391.737 358.933 391.685 359.313 391.768C359.537 391.812 359.748 391.906 359.931 392.043C360 392.087 360.059 392.143 360.107 392.209C359.856 392.057 359.581 391.947 359.293 391.886C358.982 391.832 358.662 391.87 358.371 391.994C358.022 392.129 357.74 392.397 357.587 392.739C357.587 392.916 357.695 393.014 357.881 392.984C358.062 392.944 358.239 392.888 358.411 392.818C358.713 392.705 359.005 392.568 359.284 392.406C359.764 392.219 360.029 391.974 360.049 391.974Z" fill="#263238"/>
<path d="M359.921 392.2C359.921 392.2 359.666 392.121 359.431 391.788C359.304 391.585 359.224 391.358 359.195 391.121C359.173 390.968 359.187 390.812 359.236 390.665C359.286 390.518 359.369 390.386 359.48 390.277C359.564 390.232 359.663 390.222 359.755 390.25C359.847 390.277 359.924 390.34 359.97 390.424C360.045 390.547 360.092 390.684 360.107 390.827C360.136 391.058 360.136 391.292 360.107 391.523C360.107 391.739 360.054 391.951 359.951 392.141C359.951 392.141 359.951 391.896 359.951 391.523C359.953 391.299 359.933 391.076 359.892 390.856C359.892 390.63 359.715 390.317 359.509 390.424C359.303 390.532 359.293 390.876 359.293 391.101C359.311 391.318 359.374 391.529 359.48 391.719C359.609 391.895 359.757 392.056 359.921 392.2Z" fill="#263238"/>
<path d="M371.014 381.695C371.014 381.695 370.68 381.921 370.239 382.382C369.664 382.989 369.268 383.742 369.091 384.559C368.929 385.379 368.997 386.228 369.287 387.011C369.513 387.619 369.758 387.943 369.729 387.992C369.655 387.927 369.592 387.851 369.542 387.767C369.396 387.555 369.275 387.328 369.18 387.09C368.84 386.291 368.752 385.409 368.925 384.559C369.102 383.711 369.529 382.936 370.151 382.333C370.336 382.152 370.54 381.991 370.759 381.852C370.833 381.784 370.919 381.731 371.014 381.695Z" fill="#263238"/>
<path d="M366.128 378.115C366.825 378.791 367.48 379.508 368.09 380.263C368.737 380.982 369.346 381.735 369.914 382.519C369.213 381.851 368.558 381.137 367.952 380.381C367.306 379.657 366.697 378.901 366.128 378.115Z" fill="#263238"/>
<path d="M367.521 388.12C367.102 388.67 366.615 389.164 366.07 389.591C365.561 390.064 364.99 390.467 364.373 390.787C364.373 390.787 365.089 390.199 365.952 389.463C366.815 388.728 367.482 388.051 367.521 388.12Z" fill="#263238"/>
<path d="M369.64 386.344C369.64 386.344 369.708 386.54 369.767 386.766C369.826 386.992 369.914 387.158 369.875 387.188C369.836 387.217 369.679 387.07 369.6 386.805C369.522 386.54 369.591 386.335 369.64 386.344Z" fill="#263238"/>
<path d="M369.611 384.677C369.66 384.677 369.68 384.853 369.66 385.059C369.641 385.265 369.592 385.432 369.543 385.432C369.494 385.432 369.474 385.255 369.543 385.049C369.611 384.844 369.562 384.677 369.611 384.677Z" fill="#263238"/>
<path d="M370.377 383.265C370.377 383.314 370.249 383.431 370.142 383.618C370.034 383.804 369.985 383.99 369.936 383.99C369.887 383.99 369.857 383.765 369.994 383.529C370.132 383.294 370.357 383.225 370.377 383.265Z" fill="#263238"/>
<path d="M371.014 382.372C371.014 382.372 371.014 382.509 371.014 382.617C371.014 382.725 370.867 382.794 370.827 382.774C370.788 382.755 370.827 382.637 370.827 382.529C370.827 382.421 370.974 382.352 371.014 382.372Z" fill="#263238"/>
<path d="M331.261 233.662C331.261 233.662 335.959 253.533 334.625 257.466C333.291 261.399 324.689 263.665 324.689 263.665L324.983 318.09L372.572 376.938L355.016 391.297C355.016 391.297 303.484 332.361 298.943 321.66C294.402 310.959 301.885 232.75 301.885 232.75L331.261 233.662Z" fill="#263238"/>
<path d="M306.957 225.56L304.633 390.846L328.829 390.993L340.981 256.348C343.551 253.896 347.17 249.698 346.67 240.331L346.082 229.454L306.957 225.56Z" fill="#263238"/>
<path d="M332.457 327.29C332.422 327.203 332.376 327.12 332.32 327.045C332.192 326.868 332.045 326.642 331.859 326.368L330.064 323.827L323.492 314.726V314.853C324.022 309.115 324.66 302.161 325.346 294.658C326.229 284.85 326.935 275.925 327.357 269.461C327.573 266.234 327.71 263.625 327.788 261.821C327.788 260.958 327.847 260.261 327.857 259.732C327.887 259.491 327.887 259.247 327.857 259.006C327.81 259.245 327.78 259.488 327.769 259.732C327.769 260.252 327.671 260.948 327.602 261.811C327.455 263.665 327.259 266.254 327.004 269.442C326.494 275.886 325.729 284.782 324.846 294.609C324.189 302.142 323.522 309.086 323.081 314.853V314.922V314.981L329.799 323.965L331.692 326.446L332.202 327.084C332.408 327.241 332.457 327.3 332.457 327.29Z" fill="#455A64"/>
<path d="M325.043 259.006C327.208 258.891 329.357 258.562 331.457 258.025C333.594 257.664 335.69 257.092 337.715 256.319C335.571 256.593 333.445 256.996 331.349 257.525C329.221 257.898 327.115 258.393 325.043 259.006Z" fill="#455A64"/>
<path d="M308.468 315.471C310.557 314.604 312.755 314.03 315 313.764C317.262 313.673 319.527 313.895 321.729 314.422C321.153 314.059 320.514 313.809 319.845 313.686C318.246 313.269 316.589 313.123 314.941 313.254C313.304 313.386 311.7 313.787 310.194 314.441C309.562 314.678 308.977 315.027 308.468 315.471Z" fill="#455A64"/>
<path d="M299.924 323.102C299.816 323.19 306.623 332.331 315.136 343.512C323.65 354.694 330.643 363.707 330.751 363.629C330.859 363.55 324.052 354.399 315.538 343.208C307.025 332.017 300.032 323.013 299.924 323.102Z" fill="#455A64"/>
<path d="M303.201 237.83C303.48 238.546 303.952 239.171 304.564 239.635C305.265 240.249 306.086 240.711 306.974 240.993C307.862 241.275 308.799 241.37 309.725 241.272C310.652 241.174 311.548 240.886 312.358 240.426C313.168 239.965 313.874 239.342 314.431 238.595C314.95 238.022 315.291 237.309 315.412 236.545C315.035 237.173 314.622 237.779 314.176 238.36C313.055 239.719 311.445 240.583 309.694 240.766C307.942 240.95 306.188 240.438 304.81 239.341C304.247 238.866 303.71 238.361 303.201 237.83Z" fill="#455A64"/>
<path d="M336.283 152.784C340.27 148.996 342.621 143.801 342.836 138.305C343.05 132.81 341.111 127.447 337.431 123.36" fill="#263238"/>
<path d="M349.887 168.203C349.887 168.203 355.144 174.146 356.232 196.872C356.232 196.872 341.255 199.716 340.981 198.902C340.706 198.088 349.887 168.203 349.887 168.203Z" fill="#FF725E"/>
<g opacity="0.3">
<path d="M349.887 168.203C349.887 168.203 355.144 174.146 356.232 196.872C356.232 196.872 341.255 199.716 340.981 198.902C340.706 198.088 349.887 168.203 349.887 168.203Z" fill="black"/>
</g>
<path d="M347.454 234.397H301.464L302.21 227.208C302.21 227.208 307.467 199.883 307.428 199.52L306.604 197.784C305.529 195.53 304.954 193.07 304.919 190.573C304.883 188.076 305.388 185.601 306.398 183.317L283.839 175.618L289.351 157.041C299.571 158.757 315.019 160.69 315.019 160.69L317.314 160.876C317.314 160.876 333.262 161.71 333.605 161.749C340.275 162.563 348.033 163.073 350.868 170.213C352.388 174.029 350.946 179.757 348.465 185.661L342.58 203.806C340.226 213.781 343.982 213.3 346.052 223.344C346.385 224.854 347.484 233.005 347.454 234.397Z" fill="#FF725E"/>
<g opacity="0.3">
<path d="M347.454 234.397H301.464L302.21 227.208C302.21 227.208 307.467 199.883 307.428 199.52L306.604 197.784C305.529 195.53 304.954 193.07 304.919 190.573C304.883 188.076 305.388 185.601 306.398 183.317L283.839 175.618L289.351 157.041C299.571 158.757 315.019 160.69 315.019 160.69L317.314 160.876C317.314 160.876 333.262 161.71 333.605 161.749C340.275 162.563 348.033 163.073 350.868 170.213C352.388 174.029 350.946 179.757 348.465 185.661L342.58 203.806C340.226 213.781 343.982 213.3 346.052 223.344C346.385 224.854 347.484 233.005 347.454 234.397Z" fill="black"/>
</g>
<path d="M284.093 175.922C284.404 176.097 284.733 176.238 285.074 176.343C285.722 176.579 286.673 176.902 287.85 177.324C290.204 178.119 293.48 179.168 297.089 180.325C300.698 181.483 303.955 182.63 306.211 183.572C307.368 184.043 308.28 184.455 308.918 184.729C309.227 184.901 309.556 185.032 309.898 185.122C309.614 184.895 309.304 184.701 308.976 184.543C308.359 184.219 307.466 183.748 306.328 183.238C303.355 181.943 300.313 180.81 297.217 179.845C293.597 178.688 290.351 177.687 287.928 176.981C286.742 176.628 285.771 176.353 285.104 176.167C284.778 176.043 284.439 175.961 284.093 175.922Z" fill="#263238"/>
<path d="M286.762 166.025C286.762 166.163 300.366 166.28 317.167 166.28C333.968 166.28 347.572 166.163 347.572 166.025C347.572 165.888 333.978 165.77 317.167 165.77C300.356 165.77 286.762 165.888 286.762 166.025Z" fill="#FAFAFA"/>
<path d="M285.379 175.058C285.379 175.196 300.513 175.313 319.178 175.313C337.843 175.313 352.967 175.196 352.967 175.058C352.967 174.921 337.843 174.803 319.178 174.803C300.513 174.803 285.379 174.921 285.379 175.058Z" fill="#FAFAFA"/>
<path d="M349.132 185.337C350.051 185.587 351.007 185.673 351.957 185.592C352.903 185.673 353.855 185.586 354.771 185.337C353.855 185.088 352.903 185.002 351.957 185.082C351.007 185.002 350.051 185.088 349.132 185.337Z" fill="#FAFAFA"/>
<path d="M304.996 185.651C304.996 185.789 314.893 185.906 327.094 185.906C339.295 185.906 349.191 185.789 349.191 185.651C349.191 185.514 339.305 185.396 327.094 185.396C314.883 185.396 304.996 185.504 304.996 185.651Z" fill="#FAFAFA"/>
<path d="M305.977 196.234C305.977 196.381 314.863 196.489 325.809 196.489C336.754 196.489 345.65 196.381 345.65 196.234C345.65 196.087 336.774 195.979 325.809 195.979C314.843 195.979 305.977 196.097 305.977 196.234Z" fill="#FAFAFA"/>
<path d="M306.251 206.052C306.251 206.189 314.293 206.307 324.219 206.307C334.145 206.307 342.207 206.189 342.207 206.052C342.207 205.915 334.155 205.797 324.219 205.797C314.283 205.797 306.251 205.905 306.251 206.052Z" fill="#FAFAFA"/>
<path d="M304.671 213.987C304.671 214.134 313.283 214.242 323.905 214.242C334.527 214.242 343.139 214.134 343.139 213.987C343.139 213.84 334.527 213.732 323.905 213.732C313.283 213.732 304.671 213.849 304.671 213.987Z" fill="#FAFAFA"/>
<path d="M302.18 224.109C302.18 224.256 311.988 224.364 324.062 224.364C336.135 224.364 345.943 224.256 345.943 224.109C345.943 223.962 336.135 223.854 324.062 223.854C311.988 223.854 302.18 223.971 302.18 224.109Z" fill="#FAFAFA"/>
<path d="M342.885 202.953C343.07 202.676 343.209 202.371 343.297 202.05L344.277 199.539C345.091 197.421 346.239 194.498 347.416 191.232C348.593 187.966 349.584 184.984 350.201 182.797C350.506 181.699 350.741 180.835 350.868 180.188C350.963 179.869 351.019 179.54 351.035 179.207C350.581 180.346 350.188 181.508 349.858 182.689C349.152 184.847 348.122 187.809 346.916 191.065C345.709 194.322 344.65 197.264 343.973 199.422C343.61 200.501 343.336 201.383 343.159 201.991C343.027 202.299 342.935 202.622 342.885 202.953Z" fill="#263238"/>
</svg>
