<?xml version="1.0" encoding="UTF-8" standalone="no"?>
<svg
   xmlns:dc="http://purl.org/dc/elements/1.1/"
   xmlns:cc="http://creativecommons.org/ns#"
   xmlns:rdf="http://www.w3.org/1999/02/22-rdf-syntax-ns#"
   xmlns:svg="http://www.w3.org/2000/svg"
   xmlns="http://www.w3.org/2000/svg"
   id="svg35"
   xml:space="preserve"
   viewBox="0 0 1024 768"
   y="0px"
   x="0px"
   version="1.1"><metadata
     id="metadata41"><rdf:RDF><cc:Work
         rdf:about=""><dc:format>image/svg+xml</dc:format><dc:type
           rdf:resource="http://purl.org/dc/dcmitype/StillImage" /></cc:Work></rdf:RDF></metadata><defs
     id="defs39" /><g
     transform="translate(-7.0143,-0.0919)"
     id="logo-group"><path
       stroke-miterlimit="2"
       d="m 404.89,423.08 c 1.6928,0.6624 3.496,0.9568 5.4096,0.9568 2.024,0 3.7536,-0.2944 5.152,-0.92 1.3984,-0.5888 2.4288,-1.4352 3.0912,-2.4656 0.6624,-1.0304 1.0304,-2.1712 1.0304,-3.4224 0,-1.5088 -0.4048,-2.7232 -1.2144,-3.6064 -0.8096,-0.8832 -1.7664,-1.5824 -2.8704,-2.024 -1.1408,-0.4416 -2.6496,-0.8832 -4.5264,-1.3616 -1.6928,-0.4048 -3.0544,-0.8096 -4.0112,-1.1776 -0.9936,-0.368 -1.8032,-0.8832 -2.4656,-1.5824 -0.6624,-0.6624 -0.9936,-1.5824 -0.9936,-2.76 0,-1.5088 0.5888,-2.76 1.84,-3.7168 1.2144,-0.9568 3.0176,-1.4352 5.4096,-1.4352 1.1776,0 2.392,0.184 3.6432,0.552 1.2512,0.368 2.392,0.92 3.4224,1.6192 l 0.6992,-1.5088 c -1.0304,-0.6992 -2.208,-1.2512 -3.5696,-1.6928 -1.3984,-0.4048 -2.7968,-0.6256 -4.1952,-0.6256 -2.0608,0 -3.7536,0.3312 -5.1152,0.92 -1.3616,0.6256 -2.3552,1.472 -3.0176,2.5024 -0.6624,1.0304 -0.9936,2.1712 -0.9936,3.4224 0,1.5456 0.368,2.7968 1.1776,3.7168 0.8096,0.92 1.7664,1.5824 2.9072,2.024 1.1408,0.4416 2.6496,0.92 4.5632,1.3616 1.656,0.4048 2.9808,0.7728 3.9744,1.1408 0.9568,0.368 1.8032,0.92 2.4656,1.5824 0.6624,0.6992 0.9936,1.6192 0.9936,2.76 0,1.5088 -0.6256,2.7232 -1.8768,3.6432 -1.2512,0.9568 -3.128,1.3984 -5.5568,1.3984 -1.6928,0 -3.312,-0.2944 -4.8576,-0.8832 -1.5456,-0.5888 -2.76,-1.3984 -3.6432,-2.3552 l -0.8464,1.3984 c 0.9568,1.0304 2.2816,1.8768 3.9744,2.5392 z"
       style="font-variant-ligatures:none;fill:#0c5ea5;stroke:#0c5ea5;stroke-width:1.14999998;stroke-miterlimit:2"
       id="path557891" /><path
       stroke-miterlimit="2"
       d="m 434.9,422.64 -0.7728,-1.288 c -0.8096,0.736 -1.8032,1.0672 -2.9808,1.0672 -1.1776,0 -2.0976,-0.2944 -2.6864,-0.9568 -0.5888,-0.6624 -0.8832,-1.6192 -0.8832,-2.8704 v -12.365 h 6.1088 v -1.5824 h -6.1088 v -4.1952 h -1.84 v 4.1952 h -3.5328 v 1.5824 h 3.5328 v 12.549 c 0,1.656 0.4416,2.944 1.3616,3.864 0.8832,0.92 2.1712,1.3616 3.864,1.3616 0.736,0 1.472,-0.1104 2.1712,-0.3312 0.6992,-0.2208 1.288,-0.5888 1.7664,-1.0304 z"
       style="font-variant-ligatures:none;fill:#0c5ea5;stroke:#0c5ea5;stroke-width:1.14999998;stroke-miterlimit:2"
       id="path557893" /><path
       stroke-miterlimit="2"
       d="m 444.55,405.64 c -1.2512,0.736 -2.1712,1.8032 -2.76,3.2016 v -4.1952 h -1.7664 v 19.21 h 1.84 v -10.01 c 0,-2.3552 0.5888,-4.232 1.8032,-5.5568 1.1776,-1.3248 2.8704,-2.024 5.0048,-2.024 l 0.4416,0.0368 v -1.8032 c -1.8032,0 -3.312,0.4048 -4.5632,1.1408 z"
       style="font-variant-ligatures:none;fill:#0c5ea5;stroke:#0c5ea5;stroke-width:1.14999998;stroke-miterlimit:2"
       id="path557895" /><path
       stroke-miterlimit="2"
       d="m 454.19,404.64 v 19.21 h 1.84 v -19.21 z m -0.1472,-5.0784 c 0.2944,0.2944 0.6256,0.4048 1.0672,0.4048 0.4048,0 0.7728,-0.1472 1.0672,-0.4416 0.2944,-0.2944 0.4416,-0.6256 0.4416,-1.0672 0,-0.4048 -0.1472,-0.736 -0.4416,-1.0304 -0.2944,-0.2944 -0.6624,-0.4416 -1.0672,-0.4416 -0.4416,0 -0.7728,0.1472 -1.0672,0.4416 -0.29439,0.2944 -0.4416,0.6624 -0.4416,1.0672 0,0.4416 0.1472,0.7728 0.4416,1.0672 z"
       style="font-variant-ligatures:none;fill:#0c5ea5;stroke:#0c5ea5;stroke-width:1.14999998;stroke-miterlimit:2"
       id="path557897" /><path
       stroke-miterlimit="2"
       d="m 479.24,404.64 h -1.8768 l -7.728,17.186 -7.6544,-17.186 h -1.9504 l 8.648,19.21 h 1.8768 z"
       style="font-variant-ligatures:none;fill:#0c5ea5;stroke:#0c5ea5;stroke-width:1.14999998;stroke-miterlimit:2"
       id="path557899" /><path
       stroke-miterlimit="2"
       d="m 493.98,421.68 c -1.0672,0.4416 -2.2448,0.6624 -3.4592,0.6624 -1.9872,0 -3.6432,-0.5152 -5.0416,-1.5456 -1.3984,-1.0304 -2.3552,-2.4288 -2.7968,-4.1952 l 16.229,-3.1648 c -0.1104,-1.6928 -0.5152,-3.2016 -1.3248,-4.5632 -0.80959,-1.3616 -1.8768,-2.4288 -3.2016,-3.2016 -1.3248,-0.7728 -2.8336,-1.1776 -4.4896,-1.1776 -1.8032,0 -3.4224,0.4416 -4.8208,1.2512 -1.4352,0.8464 -2.5392,1.9872 -3.3488,3.4592 -0.80961,1.472 -1.1776,3.1648 -1.1776,5.0416 0,1.9136 0.40481,3.5696 1.2512,5.0416 0.8464,1.472 2.024,2.6496 3.5328,3.4592 1.5088,0.8464 3.2016,1.2512 5.152,1.2512 1.472,0 2.8336,-0.2576 4.1216,-0.7728 1.2144,-0.5152 2.2816,-1.288 3.128,-2.3552 l -1.0672,-1.2144 c -0.736,0.92 -1.6192,1.5824 -2.6864,2.024 z m -7.9856,-14.536 c 1.1408,-0.6624 2.4288,-1.0304 3.9008,-1.0304 1.2512,0 2.4288,0.2944 3.4592,0.8464 1.0304,0.552 1.84,1.3248 2.5024,2.2448 0.6256,0.9568 1.0304,2.024 1.2144,3.1648 l -14.646,2.8704 c -0.0736,-0.4784 -0.0736,-0.8464 -0.0736,-1.1408 0,-1.5088 0.2944,-2.9072 0.9568,-4.1216 0.6256,-1.2144 1.5088,-2.1712 2.6864,-2.8336 z"
       style="font-variant-ligatures:none;fill:#0c5ea5;stroke:#0c5ea5;stroke-width:1.14999998;stroke-miterlimit:2"
       id="path557901" /><path
       stroke-miterlimit="2"
       d="m 514.72,398.09 v 1.6928 h 16.486 V 398.09 Z m 0,25.76 h 1.8768 v -11.371 h 14.61 v -1.69 h -16.49 z"
       style="font-variant-ligatures:none;fill:#0c5ea5;stroke:#0c5ea5;stroke-width:1.14999998;stroke-miterlimit:2"
       id="path557903" /><path
       stroke-miterlimit="2"
       d="m 539.2,422.75 c 1.472,0.8464 3.0912,1.2512 4.9312,1.2512 1.8032,0 3.4224,-0.4048 4.8944,-1.2512 1.472,-0.8096 2.6128,-1.9872 3.4592,-3.4592 0.8096,-1.472 1.2512,-3.1648 1.2512,-5.0416 0,-1.84 -0.4416,-3.5328 -1.2512,-5.0048 -0.8464,-1.472 -1.9872,-2.6496 -3.4592,-3.496 -1.472,-0.8096 -3.0912,-1.2512 -4.8944,-1.2512 -1.84,0 -3.4592,0.4416 -4.9312,1.2512 -1.472,0.8464 -2.6128,2.024 -3.4224,3.496 -0.8464,1.472 -1.2512,3.1648 -1.2512,5.0048 0,1.8768 0.4048,3.5696 1.2512,5.0416 0.8096,1.472 1.9504,2.6496 3.4224,3.4592 z m 8.8688,-1.4352 c -1.1776,0.6992 -2.4656,1.0304 -3.9376,1.0304 -1.472,0 -2.7968,-0.3312 -3.9744,-1.0304 -1.1776,-0.6624 -2.0976,-1.6192 -2.76,-2.8704 -0.6624,-1.2144 -0.9936,-2.6128 -0.9936,-4.1952 0,-1.5456 0.3312,-2.944 0.9936,-4.1952 0.6624,-1.2144 1.5824,-2.1712 2.76,-2.8704 1.1776,-0.6624 2.5024,-1.0304 3.9744,-1.0304 1.472,0 2.76,0.368 3.9376,1.0304 1.1776,0.6992 2.0976,1.656 2.76,2.8704 0.6624,1.2512 1.0304,2.6496 1.0304,4.1952 0,1.5824 -0.368,2.9808 -1.0304,4.1952 -0.6624,1.2512 -1.5824,2.208 -2.76,2.8704 z"
       style="font-variant-ligatures:none;fill:#0c5ea5;stroke:#0c5ea5;stroke-width:1.14999998;stroke-miterlimit:2"
       id="path557905" /><path
       stroke-miterlimit="2"
       d="m 563.94,405.64 c -1.2512,0.736 -2.1712,1.8032 -2.76,3.2016 v -4.1952 h -1.7664 v 19.21 h 1.84 v -10.01 c 0,-2.3552 0.5888,-4.232 1.8032,-5.5568 1.1776,-1.3248 2.8704,-2.024 5.0048,-2.024 l 0.44161,0.0368 v -1.8032 c -1.8032,0 -3.312,0.4048 -4.5632,1.1408 z"
       style="font-variant-ligatures:none;fill:#0c5ea5;stroke:#0c5ea5;stroke-width:1.14999998;stroke-miterlimit:2"
       id="path557907" /><path
       stroke-miterlimit="2"
       d="m 585.37,423.08 c 1.6928,0.6624 3.496,0.9568 5.4096,0.9568 2.024,0 3.7536,-0.2944 5.152,-0.92 1.3984,-0.5888 2.4288,-1.4352 3.0912,-2.4656 0.6624,-1.0304 1.0304,-2.1712 1.0304,-3.4224 0,-1.5088 -0.4048,-2.7232 -1.2144,-3.6064 -0.8096,-0.8832 -1.7664,-1.5824 -2.8704,-2.024 -1.1408,-0.4416 -2.6496,-0.8832 -4.5264,-1.3616 -1.6928,-0.4048 -3.0544,-0.8096 -4.0112,-1.1776 -0.9936,-0.368 -1.8032,-0.8832 -2.4656,-1.5824 -0.6624,-0.6624 -0.9936,-1.5824 -0.9936,-2.76 0,-1.5088 0.5888,-2.76 1.84,-3.7168 1.2144,-0.9568 3.0176,-1.4352 5.4096,-1.4352 1.1776,0 2.392,0.184 3.6432,0.552 1.2512,0.368 2.392,0.92 3.4224,1.6192 l 0.6992,-1.5088 c -1.0304,-0.6992 -2.208,-1.2512 -3.5696,-1.6928 -1.3984,-0.4048 -2.7968,-0.6256 -4.1952,-0.6256 -2.0608,0 -3.7536,0.3312 -5.1152,0.92 -1.3616,0.6256 -2.3552,1.472 -3.0176,2.5024 -0.6624,1.0304 -0.9936,2.1712 -0.9936,3.4224 0,1.5456 0.368,2.7968 1.1776,3.7168 0.8096,0.92 1.7664,1.5824 2.9072,2.024 1.1408,0.4416 2.6496,0.92 4.5632,1.3616 1.656,0.4048 2.9808,0.7728 3.9744,1.1408 0.9568,0.368 1.8032,0.92 2.4656,1.5824 0.6624,0.6992 0.9936,1.6192 0.9936,2.76 0,1.5088 -0.6256,2.7232 -1.8768,3.6432 -1.2512,0.9568 -3.128,1.3984 -5.5568,1.3984 -1.6928,0 -3.312,-0.2944 -4.8576,-0.8832 -1.5456,-0.5888 -2.76,-1.3984 -3.6432,-2.3552 l -0.8464,1.3984 c 0.9568,1.0304 2.2816,1.8768 3.9744,2.5392 z"
       style="font-variant-ligatures:none;fill:#0c5ea5;stroke:#0c5ea5;stroke-width:1.14999998;stroke-miterlimit:2"
       id="path557909" /><path
       stroke-miterlimit="2"
       d="m 622.66,404.64 h -1.84 v 10.23 c 0,2.2816 -0.6624,4.1216 -1.9136,5.4464 -1.2512,1.3616 -2.9808,2.024 -5.1152,2.024 -2.024,0 -3.5696,-0.552 -4.6736,-1.6928 -1.104,-1.104 -1.656,-2.76 -1.656,-4.9312 v -11.077 h -1.84 v 11.224 c 0,2.6496 0.6992,4.6368 2.1344,6.0352 1.3984,1.3984 3.3856,2.0976 5.888,2.0976 1.6928,0 3.1648,-0.368 4.416,-1.104 1.2512,-0.736 2.1712,-1.8032 2.8336,-3.1648 v 4.1216 h 1.7664 z"
       style="font-variant-ligatures:none;fill:#0c5ea5;stroke:#0c5ea5;stroke-width:1.14999998;stroke-miterlimit:2"
       id="path557911" /><path
       stroke-miterlimit="2"
       d="m 633.11,422.75 c 1.472,0.8464 3.128,1.2512 5.0048,1.2512 1.5456,0 2.944,-0.2944 4.1952,-0.8832 1.2512,-0.5888 2.2816,-1.472 3.0912,-2.6496 l -1.3616,-0.9936 c -0.6992,0.9568 -1.5456,1.6928 -2.576,2.1712 -1.0304,0.4784 -2.1344,0.6992 -3.3488,0.6992 -1.5088,0 -2.8704,-0.3312 -4.048,-0.9936 -1.1776,-0.6624 -2.1344,-1.6192 -2.7968,-2.8704 -0.6624,-1.2144 -0.9936,-2.6128 -0.9936,-4.232 0,-1.5824 0.3312,-2.9808 0.9936,-4.232 0.6624,-1.2144 1.6192,-2.1712 2.7968,-2.8336 1.1776,-0.6624 2.5392,-1.0304 4.048,-1.0304 1.2144,0 2.3184,0.2576 3.3488,0.736 1.0304,0.4784 1.8768,1.1776 2.576,2.1344 l 1.3616,-0.9936 c -0.8096,-1.1408 -1.84,-2.024 -3.0912,-2.6128 -1.2512,-0.5888 -2.6496,-0.92 -4.1952,-0.92 -1.8768,0 -3.5328,0.4416 -5.0048,1.2512 -1.472,0.8096 -2.6496,1.9872 -3.4592,3.4592 -0.8464,1.472 -1.2512,3.1648 -1.2512,5.0416 0,1.8768 0.4048,3.5696 1.2512,5.0416 0.8096,1.472 1.9872,2.6496 3.4592,3.4592 z"
       style="font-variant-ligatures:none;fill:#0c5ea5;stroke:#0c5ea5;stroke-width:1.14999998;stroke-miterlimit:2"
       id="path557913" /><path
       stroke-miterlimit="2"
       d="m 653.16,422.75 c 1.472,0.8464 3.128,1.2512 5.0048,1.2512 1.5456,0 2.944,-0.2944 4.1952,-0.8832 1.2512,-0.5888 2.2816,-1.472 3.0912,-2.6496 l -1.3616,-0.9936 c -0.6992,0.9568 -1.5456,1.6928 -2.576,2.1712 -1.0304,0.4784 -2.1344,0.6992 -3.3488,0.6992 -1.5088,0 -2.8704,-0.3312 -4.048,-0.9936 -1.1776,-0.6624 -2.1344,-1.6192 -2.7968,-2.8704 -0.6624,-1.2144 -0.9936,-2.6128 -0.9936,-4.232 0,-1.5824 0.3312,-2.9808 0.9936,-4.232 0.6624,-1.2144 1.6192,-2.1712 2.7968,-2.8336 1.1776,-0.6624 2.5392,-1.0304 4.048,-1.0304 1.2144,0 2.3184,0.2576 3.3488,0.736 1.0304,0.4784 1.8768,1.1776 2.576,2.1344 l 1.3616,-0.9936 c -0.80959,-1.1408 -1.84,-2.024 -3.0912,-2.6128 -1.2512,-0.5888 -2.6496,-0.92 -4.1952,-0.92 -1.8768,0 -3.5328,0.4416 -5.0048,1.2512 -1.472,0.8096 -2.6496,1.9872 -3.4592,3.4592 -0.8464,1.472 -1.2512,3.1648 -1.2512,5.0416 0,1.8768 0.4048,3.5696 1.2512,5.0416 0.8096,1.472 1.9872,2.6496 3.4592,3.4592 z"
       style="font-variant-ligatures:none;fill:#0c5ea5;stroke:#0c5ea5;stroke-width:1.14999998;stroke-miterlimit:2"
       id="path557915" /><path
       stroke-miterlimit="2"
       d="m 681.94,421.68 c -1.0672,0.4416 -2.2448,0.6624 -3.4592,0.6624 -1.9872,0 -3.6432,-0.5152 -5.0416,-1.5456 -1.3984,-1.0304 -2.3552,-2.4288 -2.7968,-4.1952 l 16.229,-3.1648 c -0.1104,-1.6928 -0.5152,-3.2016 -1.3248,-4.5632 -0.8096,-1.3616 -1.8768,-2.4288 -3.2016,-3.2016 -1.3248,-0.7728 -2.8336,-1.1776 -4.4896,-1.1776 -1.8032,0 -3.4224,0.4416 -4.8208,1.2512 -1.4352,0.8464 -2.5392,1.9872 -3.3488,3.4592 -0.8096,1.472 -1.1776,3.1648 -1.1776,5.0416 0,1.9136 0.4048,3.5696 1.2512,5.0416 0.8464,1.472 2.024,2.6496 3.5328,3.4592 1.5088,0.8464 3.2016,1.2512 5.152,1.2512 1.472,0 2.8336,-0.2576 4.1216,-0.7728 1.2144,-0.5152 2.2816,-1.288 3.128,-2.3552 l -1.0672,-1.2144 c -0.736,0.92 -1.6192,1.5824 -2.6864,2.024 z m -7.9856,-14.536 c 1.1408,-0.6624 2.4288,-1.0304 3.9008,-1.0304 1.2512,0 2.4288,0.2944 3.4592,0.8464 1.0304,0.552 1.84,1.3248 2.5024,2.2448 0.6256,0.9568 1.0304,2.024 1.2144,3.1648 l -14.646,2.8704 c -0.0736,-0.4784 -0.0736,-0.8464 -0.0736,-1.1408 0,-1.5088 0.2944,-2.9072 0.9568,-4.1216 0.6256,-1.2144 1.5088,-2.1712 2.6864,-2.8336 z"
       style="font-variant-ligatures:none;fill:#0c5ea5;stroke:#0c5ea5;stroke-width:1.14999998;stroke-miterlimit:2"
       id="path557917" /><path
       stroke-miterlimit="2"
       d="m 693.04,423.3 c 1.3984,0.4784 2.8704,0.6992 4.416,0.6992 2.392,0 4.2688,-0.4784 5.5936,-1.4352 1.3248,-0.9568 1.9872,-2.208 1.9872,-3.8272 0,-1.1776 -0.3312,-2.1344 -0.9568,-2.8336 -0.6624,-0.6624 -1.4352,-1.1776 -2.3552,-1.472 -0.92,-0.2944 -2.1344,-0.5888 -3.6064,-0.8832 -1.3616,-0.2576 -2.4288,-0.5152 -3.1648,-0.736 -0.736,-0.2208 -1.3616,-0.5888 -1.8768,-1.0672 -0.5152,-0.4784 -0.7728,-1.1408 -0.7728,-2.024 0,-1.0672 0.4416,-1.9504 1.3616,-2.6128 0.8832,-0.6624 2.2448,-0.9936 4.048,-0.9936 1.0304,0 2.0608,0.1472 3.0912,0.4416 0.9936,0.2944 1.8768,0.736 2.6864,1.288 l 0.8464,-1.472 c -0.7728,-0.552 -1.7664,-0.9936 -2.944,-1.3616 -1.2144,-0.3312 -2.4288,-0.5152 -3.6432,-0.5152 -2.3552,0 -4.1584,0.5152 -5.4096,1.5088 -1.2512,0.9936 -1.8768,2.2448 -1.8768,3.7536 0,1.2512 0.3312,2.2448 0.9936,2.944 0.6624,0.736 1.4352,1.2512 2.392,1.5456 0.92,0.3312 2.1344,0.6256 3.68,0.8832 1.288,0.2576 2.3184,0.4784 3.0544,0.6992 0.736,0.2208 1.3248,0.5888 1.84,1.0304 0.5152,0.4784 0.7728,1.104 0.7728,1.9136 0,1.1408 -0.4784,2.024 -1.3984,2.6496 -0.92,0.6624 -2.3552,0.9568 -4.2688,0.9568 -1.3616,0 -2.6496,-0.2208 -3.9008,-0.6624 -1.2512,-0.4416 -2.2448,-0.9936 -3.0176,-1.656 l -0.8464,1.472 c 0.7728,0.736 1.8768,1.3248 3.2752,1.7664 z"
       style="font-variant-ligatures:none;fill:#0c5ea5;stroke:#0c5ea5;stroke-width:1.14999998;stroke-miterlimit:2"
       id="path557919" /><path
       stroke-miterlimit="2"
       d="m 710.65,423.3 c 1.3984,0.4784 2.8704,0.6992 4.416,0.6992 2.392,0 4.2688,-0.4784 5.5936,-1.4352 1.3248,-0.9568 1.9872,-2.208 1.9872,-3.8272 0,-1.1776 -0.3312,-2.1344 -0.9568,-2.8336 -0.6624,-0.6624 -1.4352,-1.1776 -2.3552,-1.472 -0.92,-0.2944 -2.1344,-0.5888 -3.6064,-0.8832 -1.3616,-0.2576 -2.4288,-0.5152 -3.1648,-0.736 -0.736,-0.2208 -1.3616,-0.5888 -1.8768,-1.0672 -0.5152,-0.4784 -0.7728,-1.1408 -0.7728,-2.024 0,-1.0672 0.4416,-1.9504 1.3616,-2.6128 0.8832,-0.6624 2.2448,-0.9936 4.048,-0.9936 1.0304,0 2.0608,0.1472 3.0912,0.4416 0.99361,0.2944 1.8768,0.736 2.6864,1.288 l 0.8464,-1.472 c -0.7728,-0.552 -1.7664,-0.9936 -2.944,-1.3616 -1.2144,-0.3312 -2.4288,-0.5152 -3.6432,-0.5152 -2.3552,0 -4.1584,0.5152 -5.4096,1.5088 -1.2512,0.9936 -1.8768,2.2448 -1.8768,3.7536 0,1.2512 0.3312,2.2448 0.9936,2.944 0.6624,0.736 1.4352,1.2512 2.392,1.5456 0.92,0.3312 2.1344,0.6256 3.68,0.8832 1.288,0.2576 2.3184,0.4784 3.0544,0.6992 0.736,0.2208 1.3248,0.5888 1.84,1.0304 0.5152,0.4784 0.7728,1.104 0.7728,1.9136 0,1.1408 -0.4784,2.024 -1.3984,2.6496 -0.92,0.6624 -2.3552,0.9568 -4.2688,0.9568 -1.3616,0 -2.6496,-0.2208 -3.9008,-0.6624 -1.2512,-0.4416 -2.2448,-0.9936 -3.0176,-1.656 l -0.8464,1.472 c 0.7728,0.736 1.8768,1.3248 3.2752,1.7664 z"
       style="font-variant-ligatures:none;fill:#0c5ea5;stroke:#0c5ea5;stroke-width:1.14999998;stroke-miterlimit:2"
       id="path557921" /><path
       stroke-miterlimit="2"
       d="m 405.97,375.97 c 2.1528,0.8424 4.446,1.2168 6.8796,1.2168 2.574,0 4.7736,-0.3744 6.552,-1.17 1.7784,-0.7488 3.0888,-1.8252 3.9312,-3.1356 0.84241,-1.3104 1.3104,-2.7612 1.3104,-4.3524 0,-1.9188 -0.51479,-3.4632 -1.5444,-4.5864 -1.02961,-1.1232 -2.2464,-2.0124 -3.6504,-2.574 -1.4508,-0.5616 -3.3696,-1.1232 -5.7564,-1.7316 -2.1528,-0.5148 -3.8844,-1.0296 -5.1012,-1.4976 -1.2636,-0.468 -2.2932,-1.1232 -3.1356,-2.0124 -0.84239,-0.8424 -1.2636,-2.0124 -1.2636,-3.51 0,-1.9188 0.7488,-3.51 2.34,-4.7268 1.5444,-1.2168 3.8376,-1.8252 6.8796,-1.8252 1.4976,0 3.042,0.234 4.6332,0.702 1.5912,0.468 3.042,1.17 4.3524,2.0592 l 0.8892,-1.9188 c -1.3104,-0.8892 -2.808,-1.5912 -4.5396,-2.1528 -1.7784,-0.5148 -3.5568,-0.7956 -5.3352,-0.7956 -2.6208,0 -4.7736,0.4212 -6.5052,1.17 -1.7316,0.7956 -2.9952,1.872 -3.8376,3.1824 -0.8424,1.3104 -1.2636,2.7612 -1.2636,4.3524 0,1.9656 0.468,3.5568 1.4976,4.7268 1.0296,1.17 2.2464,2.0124 3.6972,2.574 1.4508,0.5616 3.3696,1.17 5.8032,1.7316 2.106,0.5148 3.7908,0.9828 5.0544,1.4508 1.2168,0.468 2.2932,1.17 3.1356,2.0124 0.8424,0.8892 1.2636,2.0592 1.2636,3.51 0,1.9188 -0.7956,3.4632 -2.3868,4.6332 -1.5912,1.2168 -3.978,1.7784 -7.0668,1.7784 -2.1528,0 -4.212,-0.3744 -6.1776,-1.1232 -1.9656,-0.7488 -3.51,-1.7784 -4.6332,-2.9952 l -1.0764,1.7784 c 1.2168,1.3104 2.9016,2.3868 5.0544,3.2292 z"
       style="font-variant-ligatures:none;fill:#1e64ea;stroke:#1e64ea;stroke-width:1.95000005;stroke-miterlimit:2"
       id="path557924" /><path
       stroke-miterlimit="2"
       d="m 438.57,346.35 v 30.607 h 2.3868 V 346.35 h 11.794 v -2.1528 h -25.974 v 2.1528 z"
       style="font-variant-ligatures:none;fill:#1b58d4;stroke:#1b58d4;stroke-width:1.95000005;stroke-miterlimit:2"
       id="path557926" /><path
       stroke-miterlimit="2"
       d="m 475.9,365.49 c 2.4336,-0.702 4.3524,-1.9188 5.6628,-3.6972 1.3104,-1.7784 2.0124,-3.9312 2.0124,-6.552 0,-3.4164 -1.17,-6.1308 -3.51,-8.0964 -2.34,-1.9656 -5.5692,-2.9484 -9.6876,-2.9484 h -11.75 v 2.1528 h 11.747 c 3.4632,0 6.1308,0.7956 8.0028,2.34 1.8252,1.5444 2.7612,3.744 2.7612,6.552 0,2.8548 -0.936,5.0544 -2.7612,6.5988 -1.872,1.5444 -4.5396,2.2932 -8.0028,2.2932 h -11.75 v 12.823 h 2.3868 v -10.717 h 9.36 c 0.93599,0 2.0124,-0.0468 3.1824,-0.234 l 7.8156,10.951 h 2.7144 z"
       style="font-variant-ligatures:none;fill:#184dbf;stroke:#184dbf;stroke-width:1.95000005;stroke-miterlimit:2"
       id="path557928" /><path
       stroke-miterlimit="2"
       d="m 492.36,344.2 v 32.76 h 2.3868 V 344.2 Z"
       style="font-variant-ligatures:none;fill:#1541a9;stroke:#1541a9;stroke-width:1.95000005;stroke-miterlimit:2"
       id="path557930" /><path
       stroke-miterlimit="2"
       d="m 531.86,344.2 h -2.4804 l -13.244,29.671 -13.244,-29.671 h -2.6208 l 14.602,32.76 h 2.3868 z"
       style="font-variant-ligatures:none;fill:#123694;stroke:#123694;stroke-width:1.95000005;stroke-miterlimit:2"
       id="path557932" /><path
       stroke-miterlimit="2"
       d="m 558.34,359.27 h -21.2 v 2.106 h 21.2 z m 0,-15.07 h -21.2 v 2.1528 h 21.2 z m -21.2,30.607 v 2.1528 h 21.2 v -2.1528 z"
       style="font-variant-ligatures:none;fill:#0f2a7e;stroke:#0f2a7e;stroke-width:1.95000005;stroke-miterlimit:2"
       id="path557934" /><path
       stroke-miterlimit="2"
       d="m 592.54,344.2 h -2.3868 l -15.07,32.76 h 2.574 l 13.666,-30.139 13.712,30.139 h 2.574 z"
       style="font-variant-ligatures:none;fill:#1d18b7;stroke:#1d18b7;stroke-width:1.95000005;stroke-miterlimit:2"
       id="path557936" /><path
       stroke-miterlimit="2"
       d="m 618.25,375.04 c 2.574,1.4508 5.4756,2.1528 8.7048,2.1528 2.34,0 4.4928,-0.3744 6.5052,-1.17 2.0124,-0.7488 3.744,-1.9188 5.148,-3.4164 l -1.4976,-1.5444 c -2.6676,2.6208 -6.0372,3.9312 -10.062,3.9312 -2.7612,0 -5.2416,-0.6084 -7.488,-1.872 -2.2464,-1.2168 -4.0248,-2.9484 -5.2884,-5.148 -1.3104,-2.1996 -1.9188,-4.68 -1.9188,-7.3944 0,-2.7144 0.6084,-5.148 1.9188,-7.3476 1.2636,-2.1996 3.042,-3.9312 5.2884,-5.1948 2.2464,-1.2168 4.7268,-1.872 7.488,-1.872 4.0716,0 7.4412,1.3104 10.062,3.8844 l 1.4976,-1.5444 c -1.404,-1.4976 -3.1356,-2.6208 -5.1012,-3.3696 -2.0124,-0.7488 -4.212,-1.17 -6.552,-1.17 -3.2292,0 -6.1308,0.7488 -8.7048,2.1528 -2.574,1.4508 -4.5864,3.4164 -6.084,5.9436 -1.4976,2.5272 -2.1996,5.382 -2.1996,8.5176 0,3.1824 0.702,5.9904 2.1996,8.5176 1.4976,2.5272 3.51,4.5396 6.084,5.9436 z"
       style="font-variant-ligatures:none;fill:#2119c5;stroke:#2119c5;stroke-width:1.95000005;stroke-miterlimit:2"
       id="path557938" /><path
       stroke-miterlimit="2"
       d="m 657.72,344.2 h -2.3868 l -15.07,32.76 h 2.574 l 13.666,-30.139 13.712,30.139 h 2.574 z"
       style="font-variant-ligatures:none;fill:#1e21b3;stroke:#1e21b3;stroke-width:1.95000005;stroke-miterlimit:2"
       id="path557940" /><path
       stroke-miterlimit="2"
       d="m 706.91,352.15 c -1.4976,-2.4804 -3.5568,-4.3992 -6.1776,-5.85 -2.6208,-1.404 -5.6628,-2.106 -9.0324,-2.106 h -12.964 v 2.1528 h 12.776 c 2.9952,0 5.6628,0.6084 8.0028,1.8252 2.2932,1.2168 4.0716,2.9016 5.3352,5.0076 1.2168,2.1528 1.872,4.6332 1.872,7.3944 0,2.808 -0.65519,5.2416 -1.872,7.3944 -1.2636,2.1528 -3.042,3.8376 -5.3352,5.0544 -2.34,1.2168 -5.0076,1.7784 -8.0028,1.7784 h -10.4 v -14.21 h -2.3868 v 16.38 h 12.964 c 3.3696,0 6.4116,-0.702 9.0324,-2.106 2.6208,-1.404 4.68,-3.3228 6.1776,-5.8032 1.4508,-2.4804 2.1996,-5.2884 2.1996,-8.4708 0,-3.1356 -0.7488,-5.9436 -2.1996,-8.424 z"
       style="font-variant-ligatures:none;fill:#1b28a2;stroke:#1b28a2;stroke-width:1.95000005;stroke-miterlimit:2"
       id="path557942" /><path
       stroke-miterlimit="2"
       d="m 738.6,359.27 h -21.2 v 2.106 h 21.2 z m 0,-15.07 h -21.2 v 2.1528 h 21.2 z m -21.2,30.607 v 2.1528 h 21.2 v -2.1528 z"
       style="font-variant-ligatures:none;fill:#183091;stroke:#183091;stroke-width:1.95000005;stroke-miterlimit:2"
       id="path557944" /><path
       stroke-miterlimit="2"
       d="m 779.73,376.96 h 2.34 l -0.0468,-32.76 h -1.9656 l -14.648,25.319 -14.648,-25.319 h -2.0124 v 32.76 h 2.34 v -27.94 l 13.712,23.587 h 1.17 l 13.712,-23.681 z"
       style="font-variant-ligatures:none;fill:#153780;stroke:#153780;stroke-width:1.95000005;stroke-miterlimit:2"
       id="path557946" /><path
       stroke-miterlimit="2"
       d="m 793.45,344.2 v 32.76 h 2.3868 V 344.2 Z"
       style="font-variant-ligatures:none;fill:#113f6e;stroke:#113f6e;stroke-width:1.95000005;stroke-miterlimit:2"
       id="path557948" /><path
       stroke-miterlimit="2"
       d="m 812.4,375.04 c 2.574,1.4508 5.4756,2.1528 8.7048,2.1528 2.34,0 4.4928,-0.3744 6.5052,-1.17 2.0124,-0.7488 3.744,-1.9188 5.148,-3.4164 l -1.4976,-1.5444 c -2.6676,2.6208 -6.0372,3.9312 -10.062,3.9312 -2.7612,0 -5.2416,-0.6084 -7.488,-1.872 -2.2464,-1.2168 -4.0248,-2.9484 -5.2884,-5.148 -1.3104,-2.1996 -1.9188,-4.68 -1.9188,-7.3944 0,-2.7144 0.6084,-5.148 1.9188,-7.3476 1.2636,-2.1996 3.042,-3.9312 5.2884,-5.1948 2.2464,-1.2168 4.7268,-1.872 7.488,-1.872 4.0716,0 7.4412,1.3104 10.062,3.8844 l 1.4976,-1.5444 c -1.404,-1.4976 -3.1356,-2.6208 -5.1012,-3.3696 -2.0124,-0.7488 -4.212,-1.17 -6.552,-1.17 -3.2292,0 -6.1308,0.7488 -8.7048,2.1528 -2.574,1.4508 -4.5864,3.4164 -6.084,5.9436 -1.4976,2.5272 -2.1996,5.382 -2.1996,8.5176 0,3.1824 0.702,5.9904 2.1996,8.5176 1.4976,2.5272 3.51,4.5396 6.084,5.9436 z"
       style="font-variant-ligatures:none;fill:#0e465d;stroke:#0e465d;stroke-width:1.95000005;stroke-miterlimit:2"
       id="path557950" /><path
       stroke-miterlimit="2"
       d="m 842.34,375.97 c 2.1528,0.8424 4.446,1.2168 6.8796,1.2168 2.574,0 4.7736,-0.3744 6.552,-1.17 1.7784,-0.7488 3.0888,-1.8252 3.9312,-3.1356 0.84241,-1.3104 1.3104,-2.7612 1.3104,-4.3524 0,-1.9188 -0.5148,-3.4632 -1.5444,-4.5864 -1.0296,-1.1232 -2.2464,-2.0124 -3.6504,-2.574 -1.4508,-0.5616 -3.3696,-1.1232 -5.7564,-1.7316 -2.1528,-0.5148 -3.8844,-1.0296 -5.1012,-1.4976 -1.2636,-0.468 -2.2932,-1.1232 -3.1356,-2.0124 -0.84239,-0.8424 -1.2636,-2.0124 -1.2636,-3.51 0,-1.9188 0.74881,-3.51 2.34,-4.7268 1.5444,-1.2168 3.8376,-1.8252 6.8796,-1.8252 1.4976,0 3.042,0.234 4.6332,0.702 1.5912,0.468 3.042,1.17 4.3524,2.0592 l 0.88919,-1.9188 c -1.3104,-0.8892 -2.808,-1.5912 -4.5396,-2.1528 -1.7784,-0.5148 -3.5568,-0.7956 -5.3352,-0.7956 -2.6208,0 -4.7736,0.4212 -6.5052,1.17 -1.7316,0.7956 -2.9952,1.872 -3.8376,3.1824 -0.84241,1.3104 -1.2636,2.7612 -1.2636,4.3524 0,1.9656 0.468,3.5568 1.4976,4.7268 1.0296,1.17 2.2464,2.0124 3.6972,2.574 1.4508,0.5616 3.3696,1.17 5.8032,1.7316 2.106,0.5148 3.7908,0.9828 5.0544,1.4508 1.2168,0.468 2.2932,1.17 3.1356,2.0124 0.8424,0.8892 1.2636,2.0592 1.2636,3.51 0,1.9188 -0.79561,3.4632 -2.3868,4.6332 -1.5912,1.2168 -3.978,1.7784 -7.0668,1.7784 -2.1528,0 -4.212,-0.3744 -6.1776,-1.1232 -1.9656,-0.7488 -3.51,-1.7784 -4.6332,-2.9952 l -1.0764,1.7784 c 1.2168,1.3104 2.9016,2.3868 5.0544,3.2292 z"
       style="font-variant-ligatures:none;fill:#0b4e4c;stroke:#0b4e4c;stroke-width:1.95000005;stroke-miterlimit:2"
       id="path557952" /><path
       style="fill:#1366d3;stroke-width:1.005"
       d="m 263.15,331.13 c -0.11054,-0.0111 -14.809,5.2552 -43.652,15.64 -23.917,8.6098 -43.473,15.667 -43.459,15.681 0.014,0.014 1.9178,0.83985 4.2306,1.8356 2.3128,0.99575 7.7385,3.3276 12.056,5.1816 4.3183,1.854 21.982,9.439 39.254,16.855 17.272,7.4167 31.467,13.484 31.543,13.484 0.0771,-5.6e-4 9.8708,-4.1825 21.764,-9.2936 11.8932,-5.1111 28.062,-12.054 35.93,-15.428 7.8676,-3.3739 15.889,-6.8182 17.825,-7.6536 1.9361,-0.83537 5.3056,-2.286 7.4876,-3.223 2.1821,-0.93764 3.9874,-1.7239 4.0126,-1.7479 0.0251,-0.0235 -0.21402,-0.13578 -0.53084,-0.24977 -0.3216,-0.11357 -19.869,-7.1506 -43.436,-15.637 -23.577,-8.4872 -42.935,-15.437 -43.027,-15.445 z m 71.174,44.669 c -0.0229,-0.0112 -0.92198,0.3593 -1.9976,0.8242 l -1.9557,0.84432 -0.014,24.458 -0.014,24.458 h 4.0232 v -25.282 c 0,-13.905 -0.019,-25.291 -0.0419,-25.303 z m -124.6,7.7244 c -0.0145,0 -0.0201,5.0855 -0.0123,11.301 l 0.014,11.301 26.694,11.529 26.694,11.53 26.739,-11.418 26.739,-11.418 5.6e-4,-11.307 c 5.6e-4,-9.0237 -0.0134,-11.301 -0.0693,-11.278 -0.0386,0.0156 -12.064,5.1519 -26.724,11.414 l -26.654,11.385 -0.30732,-0.11567 c -0.16985,-0.0704 -12.185,-5.2562 -26.699,-11.527 -14.514,-6.2712 -26.401,-11.407 -26.416,-11.407 z m 122.63,45.034 h -2.5095 l -0.1084,0.15366 c -0.0598,0.0844 -1.1678,1.9848 -2.4626,4.2227 -1.2946,2.2379 -2.3541,4.0797 -2.3541,4.0931 0,0.0135 3.3443,0.024 7.4318,0.024 4.0874,0 7.4318,-0.008 7.4318,-0.019 0,-0.0106 -1.0455,-1.8278 -2.3229,-4.0372 -1.278,-2.21 -2.3849,-4.1127 -2.4597,-4.2277 l -0.13635,-0.20954 z"
       id="icon" /></g></svg>