<?xml version="1.0" encoding="UTF-8" standalone="no"?>
<svg
   xmlns:dc="http://purl.org/dc/elements/1.1/"
   xmlns:cc="http://creativecommons.org/ns#"
   xmlns:rdf="http://www.w3.org/1999/02/22-rdf-syntax-ns#"
   xmlns:svg="http://www.w3.org/2000/svg"
   xmlns="http://www.w3.org/2000/svg"
   id="svg4"
   xml:space="preserve"
   viewBox="0 0 1024 768"
   y="0px"
   x="0px"
   version="1.1"><metadata
     id="metadata10"><rdf:RDF><cc:Work
         rdf:about=""><dc:format>image/svg+xml</dc:format><dc:type
           rdf:resource="http://purl.org/dc/dcmitype/StillImage" /></cc:Work></rdf:RDF></metadata><defs
     id="defs8" /><path
     id="path2"
     d="m274.38 344.48c-0.09-0.01-11.06 3.92-32.58 11.67-17.85 6.42-32.44 11.69-32.43 11.7s1.43 0.63 3.16 1.37c1.72 0.74 5.77 2.48 8.99 3.87 3.23 1.38 16.41 7.04 29.3 12.58 12.89 5.53 23.48 10.06 23.54 10.06s7.36-3.12 16.24-6.94c8.88-3.81 20.94-8.99 26.81-11.51s11.86-5.09 13.3-5.71c1.45-0.63 3.96-1.71 5.59-2.41s2.98-1.28 3-1.3-0.16-0.1-0.4-0.19c-0.24-0.08-14.83-5.33-32.42-11.67-17.59-6.33-32.03-11.52-32.1-11.52zm127.08 2.83c-2.42 0-4.41 0.39-6.01 1.08-1.6 0.73-2.76 1.73-3.54 2.94s-1.17 2.54-1.17 4.01c0 1.82 0.43 3.29 1.38 4.37 0.96 1.08 2.08 1.85 3.42 2.37s3.11 1.08 5.35 1.6c1.95 0.48 3.5 0.91 4.67 1.34 1.12 0.43 2.12 1.08 2.9 1.86 0.77 0.82 1.16 1.9 1.16 3.24 0 1.77-0.73 3.19-2.2 4.27-1.47 1.13-3.67 1.65-6.53 1.65-1.98 0-3.88-0.35-5.7-1.04-1.81-0.69-3.24-1.64-4.27-2.77l-1 1.65c1.13 1.21 2.68 2.2 4.67 2.98s4.1 1.12 6.35 1.12c2.37 0 4.4-0.35 6.05-1.08 1.64-0.69 2.85-1.68 3.63-2.89 0.77-1.21 1.2-2.55 1.2-4.02 0-1.77-0.47-3.2-1.42-4.23-0.95-1.04-2.07-1.86-3.37-2.38-1.34-0.52-3.11-1.04-5.31-1.6-1.99-0.47-3.59-0.95-4.71-1.38-1.17-0.43-2.12-1.04-2.9-1.86-0.77-0.78-1.16-1.86-1.16-3.24 0-1.77 0.69-3.24 2.16-4.36 1.42-1.13 3.54-1.69 6.35-1.69 1.38 0 2.81 0.22 4.27 0.65 1.47 0.43 2.81 1.08 4.02 1.9l0.82-1.77c-1.21-0.82-2.59-1.47-4.19-1.99-1.64-0.47-3.28-0.73-4.92-0.73zm197.11 0c-2.98 0-5.65 0.69-8.03 1.98-2.38 1.34-4.24 3.16-5.62 5.49s-2.03 4.97-2.03 7.86c0 2.94 0.65 5.54 2.03 7.87s3.24 4.19 5.62 5.48c2.38 1.34 5.05 1.99 8.03 1.99 2.16 0 4.15-0.35 6.01-1.08 1.86-0.69 3.45-1.77 4.75-3.15l-1.38-1.43c-2.47 2.42-5.57 3.63-9.29 3.63-2.55 0-4.84-0.56-6.91-1.73-2.08-1.12-3.72-2.72-4.88-4.75-1.21-2.03-1.77-4.32-1.77-6.83 0-2.5 0.56-4.75 1.77-6.78 1.16-2.03 2.8-3.63 4.88-4.79 2.07-1.13 4.36-1.73 6.91-1.73 3.76 0 6.87 1.21 9.29 3.58l1.38-1.42c-1.3-1.38-2.89-2.42-4.71-3.11-1.86-0.69-3.89-1.08-6.05-1.08zm179.22 0c-2.99 0-5.66 0.69-8.04 1.98-2.38 1.34-4.23 3.16-5.62 5.49-1.38 2.33-2.03 4.97-2.03 7.86 0 2.94 0.65 5.54 2.03 7.87 1.39 2.33 3.24 4.19 5.62 5.48 2.38 1.34 5.05 1.99 8.04 1.99 2.16 0 4.14-0.35 6-1.08 1.86-0.69 3.46-1.77 4.75-3.15l-1.38-1.43c-2.46 2.42-5.57 3.63-9.29 3.63-2.55 0-4.84-0.56-6.91-1.73-2.07-1.12-3.72-2.72-4.88-4.75-1.21-2.03-1.77-4.32-1.77-6.83 0-2.5 0.56-4.75 1.77-6.78 1.16-2.03 2.81-3.63 4.88-4.79 2.07-1.13 4.36-1.73 6.91-1.73 3.76 0 6.87 1.21 9.29 3.58l1.38-1.42c-1.29-1.38-2.89-2.42-4.71-3.11-1.85-0.69-3.88-1.08-6.04-1.08zm26.47 0c-2.42 0-4.4 0.39-6 1.08-1.6 0.73-2.77 1.73-3.55 2.94-0.77 1.21-1.16 2.54-1.16 4.01 0 1.82 0.43 3.29 1.38 4.37s2.07 1.85 3.41 2.37 3.11 1.08 5.36 1.6c1.95 0.48 3.5 0.91 4.67 1.34 1.12 0.43 2.11 1.08 2.89 1.86 0.78 0.82 1.17 1.9 1.17 3.24 0 1.77-0.74 3.19-2.21 4.27-1.46 1.13-3.67 1.65-6.52 1.65-1.99 0-3.89-0.35-5.7-1.04-1.82-0.69-3.24-1.64-4.28-2.77l-0.99 1.65c1.12 1.21 2.68 2.2 4.66 2.98 1.99 0.78 4.11 1.12 6.35 1.12 2.38 0 4.41-0.35 6.05-1.08 1.64-0.69 2.85-1.68 3.63-2.89s1.21-2.55 1.21-4.02c0-1.77-0.47-3.2-1.42-4.23-0.96-1.04-2.08-1.86-3.37-2.38-1.34-0.52-3.12-1.04-5.32-1.6-1.99-0.47-3.58-0.95-4.71-1.38-1.16-0.43-2.11-1.04-2.89-1.86-0.78-0.78-1.17-1.86-1.17-3.24 0-1.77 0.69-3.24 2.16-4.36 1.43-1.13 3.55-1.69 6.35-1.69 1.39 0 2.81 0.22 4.28 0.65s2.81 1.08 4.02 1.9l0.82-1.77c-1.21-0.82-2.59-1.47-4.19-1.99-1.64-0.47-3.28-0.73-4.93-0.73zm-390.47 0.22v1.98h10.89v28.25h2.2v-28.25h10.89v-1.98h-23.98zm29.4 0v1.98h10.85c3.19 0 5.66 0.74 7.38 2.16 1.69 1.43 2.55 3.46 2.55 6.05 0 2.64-0.86 4.66-2.55 6.09-1.72 1.43-4.19 2.12-7.38 2.12h-10.85v11.83h2.21v-9.89h8.64c0.86 0 1.85-0.04 2.93-0.21l7.22 10.1h2.5l-7.56-10.58c2.25-0.65 4.02-1.77 5.23-3.41s1.86-3.63 1.86-6.05c0-3.15-1.08-5.66-3.24-7.47-2.16-1.82-5.14-2.72-8.94-2.72h-10.85zm31.14 0v30.23h2.2v-30.23h-2.2zm7.3 0l13.48 30.23h2.21l13.47-30.23h-2.28l-12.23 27.38-12.23-27.38h-2.42zm34.04 0v1.98h19.57v-1.98h-19.57zm48.94 0l-13.91 30.23h2.37l12.62-27.82 12.65 27.82h2.38l-13.91-30.23h-2.2zm60.15 0l-13.91 30.23h2.38l12.61-27.82 12.66 27.82h2.38l-13.91-30.23h-2.21zm21.61 0v1.98h11.79c2.77 0 5.23 0.56 7.39 1.69 2.12 1.12 3.76 2.67 4.92 4.62 1.13 1.99 1.73 4.28 1.73 6.82 0 2.6-0.6 4.84-1.73 6.83-1.16 1.99-2.8 3.54-4.92 4.67-2.16 1.12-4.62 1.64-7.39 1.64h-9.59v-13.14h-2.2v15.12h11.96c3.11 0 5.92-0.64 8.34-1.94s4.32-3.07 5.71-5.36c1.33-2.29 2.02-4.88 2.02-7.82 0-2.89-0.69-5.48-2.02-7.77-1.39-2.29-3.29-4.06-5.71-5.4-2.42-1.3-5.23-1.94-8.34-1.94h-11.96zm35.69 0v1.98h19.57v-1.98h-19.57zm28.94 0v30.23h2.16v-25.79l12.66 21.78h1.08l12.65-21.86 0.05 25.87h2.16l-0.05-30.23h-1.81l-13.52 23.37-13.52-23.37h-1.86zm41.26 0v30.23h2.2v-30.23h-2.2zm-236.59 13.91v1.94h19.57v-1.94h-19.57zm166.39 0v1.94h19.57v-1.94h-19.57zm-166.39 14.34v1.98h19.57v-1.98h-19.57zm166.39 0v1.98h19.57v-1.98h-19.57zm-354.57 2.03c-0.01-0.01-0.69 0.27-1.49 0.62l-1.46 0.63-0.01 18.25-0.01 18.25h3v-18.86c0-10.38-0.01-18.88-0.03-18.89zm-92.98 5.76v0.01c-0.01 0-0.02 3.79-0.01 8.43l0.01 8.44 19.92 8.6 19.92 8.6 19.95-8.52 19.96-8.52v-8.44c0-6.73-0.01-8.43-0.05-8.41-0.03 0.01-9 3.84-19.94 8.52l-19.9 8.49-0.23-0.09c-0.12-0.05-9.09-3.92-19.92-8.6s-19.7-8.51-19.71-8.51zm202.53 14.21c-0.38 0-0.67 0.13-0.92 0.38-0.26 0.26-0.39 0.58-0.39 0.93 0 0.39 0.13 0.68 0.39 0.93 0.25 0.26 0.54 0.35 0.92 0.35 0.36 0 0.68-0.13 0.93-0.38 0.26-0.26 0.39-0.55 0.39-0.93 0-0.35-0.13-0.64-0.39-0.9-0.25-0.25-0.57-0.38-0.93-0.38zm-38.57 0.8c-1.8 0-3.27 0.29-4.45 0.8-1.19 0.54-2.05 1.28-2.63 2.18-0.57 0.89-0.86 1.89-0.86 2.97 0 1.35 0.32 2.43 1.02 3.23 0.71 0.8 1.54 1.38 2.53 1.77 0.99 0.38 2.31 0.79 3.97 1.18 1.44 0.35 2.59 0.67 3.46 0.99 0.83 0.32 1.56 0.8 2.14 1.38 0.58 0.6 0.86 1.4 0.86 2.4 0 1.31-0.54 2.36-1.63 3.16-1.09 0.84-2.72 1.22-4.83 1.22-1.47 0-2.88-0.26-4.22-0.77-1.35-0.51-2.4-1.21-3.17-2.05l-0.74 1.22c0.83 0.9 1.99 1.63 3.46 2.21 1.47 0.57 3.04 0.83 4.7 0.83 1.76 0 3.27-0.26 4.48-0.8 1.22-0.51 2.11-1.25 2.69-2.14 0.58-0.9 0.9-1.89 0.9-2.98 0-1.31-0.36-2.37-1.06-3.14-0.7-0.76-1.54-1.37-2.5-1.76-0.99-0.38-2.3-0.76-3.93-1.18-1.47-0.35-2.66-0.7-3.49-1.02-0.86-0.32-1.57-0.77-2.14-1.38-0.58-0.58-0.87-1.38-0.87-2.4 0-1.31 0.51-2.4 1.6-3.23 1.06-0.83 2.63-1.25 4.71-1.25 1.02 0 2.08 0.16 3.16 0.48 1.09 0.32 2.08 0.8 2.98 1.41l0.61-1.31c-0.9-0.61-1.92-1.09-3.1-1.48-1.22-0.35-2.44-0.54-3.65-0.54zm156.93 0c-1.79 0-3.26 0.29-4.44 0.8-1.19 0.54-2.05 1.28-2.63 2.18-0.57 0.89-0.86 1.89-0.86 2.97 0 1.35 0.32 2.43 1.02 3.23 0.71 0.8 1.54 1.38 2.53 1.77 0.99 0.38 2.3 0.79 3.97 1.18 1.44 0.35 2.59 0.67 3.45 0.99 0.84 0.32 1.57 0.8 2.15 1.38 0.57 0.6 0.86 1.4 0.86 2.4 0 1.31-0.54 2.36-1.63 3.16-1.09 0.84-2.72 1.22-4.83 1.22-1.47 0-2.88-0.26-4.23-0.77-1.34-0.51-2.4-1.21-3.16-2.05l-0.74 1.22c0.83 0.9 1.98 1.63 3.46 2.21 1.47 0.57 3.04 0.83 4.7 0.83 1.76 0 3.26-0.26 4.48-0.8 1.22-0.51 2.11-1.25 2.69-2.14 0.57-0.9 0.89-1.89 0.89-2.98 0-1.31-0.35-2.37-1.05-3.14-0.71-0.76-1.54-1.37-2.5-1.76-0.99-0.38-2.3-0.76-3.93-1.18-1.48-0.35-2.66-0.7-3.49-1.02-0.87-0.32-1.57-0.77-2.15-1.38-0.57-0.58-0.86-1.38-0.86-2.4 0-1.31 0.51-2.4 1.6-3.23 1.06-0.83 2.62-1.25 4.7-1.25 1.03 0 2.08 0.16 3.17 0.48s2.08 0.8 2.98 1.41l0.61-1.31c-0.9-0.61-1.92-1.09-3.11-1.48-1.21-0.35-2.43-0.54-3.65-0.54zm-66.52 0.16v1.47h14.34v-1.47h-14.34zm-77.38 2.05v3.65h-3.07v1.37h3.07v10.91c0 1.44 0.39 2.56 1.19 3.36 0.76 0.8 1.88 1.19 3.36 1.19 0.64 0 1.28-0.1 1.88-0.29 0.61-0.19 1.12-0.51 1.54-0.9l-0.67-1.12c-0.71 0.64-1.57 0.93-2.59 0.93-1.03 0-1.83-0.25-2.34-0.83s-0.77-1.41-0.77-2.5v-10.75h5.31v-1.37h-5.31v-3.65h-1.6zm20.34 3.52c-1.57 0-2.88 0.35-3.97 0.99s-1.89 1.57-2.4 2.78v-3.64h-1.54v16.7h1.6v-8.7c0-2.05 0.51-3.68 1.57-4.83 1.02-1.16 2.5-1.77 4.35-1.77l0.39 0.04v-1.57zm35.46 0c-1.57 0-2.98 0.38-4.19 1.09-1.25 0.73-2.21 1.72-2.91 3-0.71 1.28-1.03 2.76-1.03 4.39 0 1.66 0.35 3.1 1.09 4.38s1.76 2.31 3.07 3.01c1.31 0.74 2.78 1.09 4.48 1.09 1.28 0 2.46-0.23 3.58-0.67 1.06-0.45 1.99-1.12 2.73-2.05l-0.93-1.06c-0.64 0.8-1.41 1.38-2.34 1.76-0.93 0.39-1.95 0.58-3.01 0.58-1.72 0-3.17-0.45-4.38-1.35-1.22-0.89-2.05-2.11-2.43-3.64l14.11-2.76c-0.1-1.47-0.45-2.78-1.15-3.96-0.71-1.19-1.63-2.12-2.79-2.79-1.15-0.67-2.46-1.02-3.9-1.02zm47.16 0c-1.6 0-3.01 0.38-4.29 1.09-1.28 0.73-2.27 1.76-2.97 3.04-0.74 1.28-1.09 2.75-1.09 4.35 0 1.63 0.35 3.1 1.09 4.38 0.7 1.28 1.69 2.31 2.97 3.01 1.28 0.74 2.69 1.09 4.29 1.09 1.57 0 2.98-0.35 4.26-1.09 1.28-0.7 2.27-1.73 3-3.01 0.71-1.28 1.09-2.75 1.09-4.38 0-1.6-0.38-3.07-1.09-4.35-0.73-1.28-1.72-2.31-3-3.04-1.28-0.71-2.69-1.09-4.26-1.09zm21.19 0c-1.57 0-2.88 0.35-3.97 0.99s-1.89 1.57-2.4 2.78v-3.64h-1.54v16.7h1.61v-8.7c0-2.05 0.51-3.68 1.56-4.83 1.03-1.16 2.5-1.77 4.36-1.77l0.38 0.04v-1.57zm60.53 0c-1.63 0-3.07 0.38-4.35 1.09-1.28 0.7-2.3 1.72-3.01 3-0.73 1.28-1.09 2.76-1.09 4.39s0.36 3.1 1.09 4.38c0.71 1.28 1.73 2.31 3.01 3.01 1.28 0.74 2.72 1.09 4.35 1.09 1.35 0 2.56-0.26 3.65-0.77s1.98-1.28 2.69-2.3l-1.19-0.87c-0.6 0.83-1.34 1.47-2.24 1.89-0.89 0.42-1.85 0.61-2.91 0.61-1.31 0-2.49-0.29-3.52-0.87-1.02-0.57-1.86-1.4-2.43-2.49-0.58-1.06-0.86-2.27-0.86-3.68 0-1.38 0.28-2.59 0.86-3.68 0.57-1.06 1.41-1.89 2.43-2.47 1.03-0.57 2.21-0.89 3.52-0.89 1.06 0 2.02 0.22 2.91 0.64 0.9 0.41 1.64 1.02 2.24 1.85l1.19-0.86c-0.71-0.99-1.6-1.76-2.69-2.27s-2.3-0.8-3.65-0.8zm17.44 0c-1.63 0-3.07 0.38-4.35 1.09-1.28 0.7-2.31 1.72-3.01 3-0.74 1.28-1.09 2.76-1.09 4.39s0.35 3.1 1.09 4.38c0.7 1.28 1.73 2.31 3.01 3.01 1.28 0.74 2.72 1.09 4.35 1.09 1.34 0 2.56-0.26 3.65-0.77s1.98-1.28 2.69-2.3l-1.19-0.87c-0.61 0.83-1.34 1.47-2.24 1.89-0.89 0.42-1.85 0.61-2.91 0.61-1.31 0-2.5-0.29-3.52-0.87-1.02-0.57-1.86-1.4-2.43-2.49-0.58-1.06-0.87-2.27-0.87-3.68 0-1.38 0.29-2.59 0.87-3.68 0.57-1.06 1.41-1.89 2.43-2.47 1.02-0.57 2.21-0.89 3.52-0.89 1.06 0 2.02 0.22 2.91 0.64 0.9 0.41 1.63 1.02 2.24 1.85l1.19-0.86c-0.71-0.99-1.6-1.76-2.69-2.27s-2.31-0.8-3.65-0.8zm17.12 0c-1.57 0-2.98 0.38-4.2 1.09-1.24 0.73-2.2 1.72-2.91 3-0.7 1.28-1.02 2.76-1.02 4.39 0 1.66 0.35 3.1 1.09 4.38 0.73 1.28 1.76 2.31 3.07 3.01 1.31 0.74 2.78 1.09 4.48 1.09 1.28 0 2.46-0.23 3.58-0.67 1.06-0.45 1.99-1.12 2.72-2.05l-0.93-1.06c-0.64 0.8-1.4 1.38-2.33 1.76-0.93 0.39-1.95 0.58-3.01 0.58-1.73 0-3.17-0.45-4.38-1.35-1.22-0.89-2.05-2.11-2.44-3.64l14.12-2.76c-0.1-1.47-0.45-2.78-1.16-3.96-0.7-1.19-1.63-2.12-2.78-2.79s-2.46-1.02-3.9-1.02zm17.3 0c-2.05 0-3.62 0.45-4.71 1.31-1.08 0.87-1.63 1.95-1.63 3.26 0 1.09 0.29 1.96 0.86 2.57 0.58 0.64 1.25 1.08 2.08 1.34 0.8 0.29 1.86 0.54 3.21 0.77 1.12 0.22 2.01 0.41 2.65 0.6 0.64 0.2 1.15 0.52 1.6 0.9 0.45 0.42 0.67 0.96 0.67 1.66 0 1-0.41 1.77-1.21 2.31-0.8 0.58-2.05 0.83-3.71 0.83-1.19 0-2.31-0.19-3.4-0.57-1.08-0.39-1.95-0.87-2.62-1.45l-0.74 1.28c0.68 0.64 1.64 1.16 2.85 1.54 1.22 0.42 2.5 0.61 3.84 0.61 2.08 0 3.71-0.42 4.86-1.25 1.16-0.83 1.73-1.92 1.73-3.33 0-1.02-0.28-1.85-0.83-2.46-0.57-0.58-1.25-1.02-2.05-1.28s-1.85-0.51-3.13-0.77c-1.19-0.22-2.11-0.45-2.75-0.64s-1.19-0.51-1.64-0.93c-0.45-0.41-0.67-0.99-0.67-1.76 0-0.92 0.38-1.69 1.18-2.27 0.77-0.58 1.96-0.86 3.53-0.86 0.89 0 1.79 0.12 2.68 0.38 0.87 0.26 1.64 0.64 2.34 1.12l0.74-1.28c-0.68-0.48-1.54-0.86-2.56-1.18-1.06-0.29-2.12-0.45-3.17-0.45zm15.31 0c-2.05 0-3.62 0.45-4.7 1.31-1.09 0.87-1.64 1.95-1.64 3.26 0 1.09 0.29 1.96 0.87 2.57 0.57 0.64 1.25 1.08 2.08 1.34 0.8 0.29 1.85 0.54 3.2 0.77 1.12 0.22 2.01 0.41 2.65 0.6 0.64 0.2 1.16 0.52 1.6 0.9 0.45 0.42 0.68 0.96 0.68 1.66 0 1-0.42 1.77-1.22 2.31-0.8 0.58-2.05 0.83-3.71 0.83-1.19 0-2.31-0.19-3.39-0.57-1.09-0.39-1.96-0.87-2.63-1.45l-0.73 1.28c0.67 0.64 1.63 1.16 2.84 1.54 1.22 0.42 2.5 0.61 3.84 0.61 2.08 0 3.72-0.42 4.87-1.25s1.73-1.92 1.73-3.33c0-1.02-0.29-1.85-0.84-2.46-0.57-0.58-1.24-1.02-2.04-1.28s-1.86-0.51-3.14-0.77c-1.18-0.22-2.11-0.45-2.75-0.64s-1.19-0.51-1.63-0.93c-0.45-0.41-0.68-0.99-0.68-1.76 0-0.92 0.39-1.69 1.19-2.27 0.76-0.58 1.95-0.86 3.52-0.86 0.89 0 1.79 0.12 2.69 0.38 0.86 0.26 1.63 0.64 2.33 1.12l0.74-1.28c-0.67-0.48-1.54-0.86-2.56-1.18-1.06-0.29-2.11-0.45-3.17-0.45zm-227.11 0.13v16.7h1.61v-16.7h-1.61zm5.08 0l7.52 16.7h1.64l7.55-16.7h-1.63l-6.72 14.94-6.66-14.94h-1.7zm126.61 0v9.76c0 2.3 0.61 4.03 1.85 5.25 1.22 1.21 2.95 1.82 5.12 1.82 1.48 0 2.76-0.32 3.84-0.96 1.09-0.64 1.89-1.57 2.47-2.75v3.58h1.53v-16.7h-1.6v8.89c0 1.99-0.57 3.59-1.66 4.74-1.09 1.18-2.59 1.76-4.45 1.76-1.76 0-3.1-0.48-4.06-1.47-0.96-0.96-1.44-2.4-1.44-4.29v-9.63h-1.6zm-100.63 1.28c1.09 0 2.11 0.25 3.01 0.73 0.89 0.48 1.6 1.15 2.17 1.95 0.55 0.84 0.9 1.76 1.06 2.76l-12.74 2.49c-0.06-0.41-0.06-0.73-0.06-0.99 0-1.31 0.25-2.53 0.83-3.58 0.54-1.06 1.31-1.89 2.34-2.47 0.99-0.57 2.11-0.89 3.39-0.89zm163.44 0c1.08 0 2.11 0.25 3 0.73 0.9 0.48 1.6 1.15 2.18 1.95 0.54 0.84 0.9 1.76 1.06 2.76l-12.74 2.49c-0.06-0.41-0.06-0.73-0.06-0.99 0-1.31 0.25-2.53 0.83-3.58 0.54-1.06 1.31-1.89 2.33-2.47 1-0.57 2.12-0.89 3.4-0.89zm-116.28 0.03c1.28 0 2.4 0.32 3.42 0.89 1.03 0.61 1.83 1.44 2.41 2.5 0.57 1.09 0.89 2.31 0.89 3.65 0 1.38-0.32 2.59-0.89 3.65-0.58 1.09-1.38 1.92-2.41 2.49-1.02 0.61-2.14 0.9-3.42 0.9s-2.43-0.29-3.46-0.9c-1.02-0.57-1.82-1.4-2.4-2.49-0.57-1.06-0.86-2.27-0.86-3.65 0-1.34 0.29-2.56 0.86-3.65 0.58-1.06 1.38-1.89 2.4-2.5 1.03-0.57 2.18-0.89 3.46-0.89zm-25.58 4.03v11.36h1.63v-9.89h12.71v-1.47h-14.34zm-164.73 7.4l-0.08 0.12c-0.05 0.06-0.87 1.48-1.84 3.15s-1.76 3.05-1.76 3.06 2.5 0.01 5.55 0.01 5.55 0 5.55-0.01-0.78-1.37-1.74-3.01c-0.95-1.65-1.78-3.07-1.83-3.16l-0.1-0.16h-1.88-1.87z"
     fill="#ffffff" /></svg>