<?xml version="1.0" encoding="UTF-8" standalone="no"?>
<svg
   xmlns:dc="http://purl.org/dc/elements/1.1/"
   xmlns:cc="http://creativecommons.org/ns#"
   xmlns:rdf="http://www.w3.org/1999/02/22-rdf-syntax-ns#"
   xmlns:svg="http://www.w3.org/2000/svg"
   xmlns="http://www.w3.org/2000/svg"
   id="svg4"
   xml:space="preserve"
   viewBox="0 0 1024 768"
   y="0px"
   x="0px"
   version="1.1"><metadata
     id="metadata10"><rdf:RDF><cc:Work
         rdf:about=""><dc:format>image/svg+xml</dc:format><dc:type
           rdf:resource="http://purl.org/dc/dcmitype/StillImage" /></cc:Work></rdf:RDF></metadata><defs
     id="defs8" /><path
     id="path2"
     d="m518.22 261.99c-0.11-0.01-14.81 5.25-43.65 15.64-23.92 8.61-43.47 15.66-43.46 15.68 0.02 0.01 1.92 0.84 4.23 1.83 2.31 1 7.74 3.33 12.06 5.18 4.31 1.86 21.98 9.44 39.25 16.86s31.47 13.48 31.54 13.48c0.08 0 9.88-4.18 21.77-9.29s28.06-12.05 35.93-15.43c7.87-3.37 15.89-6.82 17.82-7.65 1.94-0.84 5.31-2.29 7.49-3.22 2.18-0.94 3.99-1.73 4.01-1.75 0.03-0.03-0.21-0.14-0.53-0.25-0.32-0.12-19.87-7.15-43.43-15.64-23.58-8.49-42.94-15.44-43.03-15.44zm71.18 44.67c-0.03-0.01-0.93 0.36-2 0.82l-1.96 0.84-0.01 24.46-0.02 24.46h4.03v-25.28c0-13.91-0.02-25.29-0.04-25.3zm-124.61 7.71l0.01 0.01c-0.02 0-0.02 5.09-0.02 11.3l0.02 11.3 26.69 11.53 26.7 11.53 26.73-11.42 26.74-11.41v-11.31c0-9.02-0.01-11.3-0.06-11.28-0.04 0.02-12.07 5.15-26.73 11.42l-26.65 11.38-0.31-0.12c-0.17-0.07-12.18-5.25-26.7-11.52-14.51-6.27-26.4-11.41-26.42-11.41zm120.13 45.04l-0.11 0.16c-0.06 0.08-1.17 1.98-2.46 4.22-1.3 2.24-2.36 4.08-2.36 4.09 0 0.02 3.35 0.03 7.43 0.03 4.09 0 7.44-0.01 7.44-0.02s-1.05-1.83-2.33-4.04c-1.27-2.21-2.38-4.11-2.46-4.23l-0.13-0.21h-2.51-2.51zm-78.67 39.49v0.01c-4.86 0-9.27 1.13-13.17 3.26h-0.01-0.01c-3.89 2.2-6.97 5.21-9.24 9.04-2.28 3.85-3.35 8.2-3.35 12.93 0 4.79 1.07 9.08 3.35 12.93 2.27 3.82 5.34 6.9 9.25 9.04h0.01c3.91 2.2 8.32 3.26 13.17 3.26 3.52 0 6.79-0.56 9.84-1.77h0.01c3.07-1.15 5.73-2.94 7.88-5.23l0.62-0.66-3.49-3.6-0.68 0.67c-3.72 3.66-8.36 5.48-14.04 5.48-3.9 0-7.34-0.86-10.48-2.62l-0.01-0.01c-3.14-1.69-5.6-4.09-7.36-7.16v-0.01h-0.01c-1.82-3.06-2.67-6.5-2.67-10.32 0-3.83 0.85-7.2 2.67-10.26h0.01v-0.01c1.76-3.06 4.22-5.46 7.36-7.23 3.15-1.71 6.61-2.62 10.49-2.62 5.75 0 10.39 1.81 14.04 5.4l0.68 0.67 3.49-3.59-0.62-0.66c-2.16-2.3-4.82-4.02-7.81-5.16h-0.01v-0.01c-3.04-1.13-6.37-1.77-9.91-1.77zm283.76 0v0.01c-4.87 0-9.28 1.13-13.18 3.26h-0.01c-3.9 2.2-6.97 5.21-9.24 9.04-2.29 3.85-3.35 8.2-3.35 12.93 0 4.79 1.07 9.08 3.35 12.93 2.26 3.82 5.33 6.9 9.25 9.04 3.91 2.2 8.33 3.26 13.18 3.26 3.51 0 6.78-0.56 9.84-1.77 3.08-1.15 5.73-2.94 7.88-5.23l0.62-0.66-3.48-3.6-0.69 0.67c-3.72 3.66-8.36 5.48-14.04 5.48-3.89 0-7.34-0.86-10.47-2.62h-0.01l-0.01-0.01c-3.13-1.69-5.59-4.09-7.36-7.16v-0.01c-1.82-3.06-2.67-6.5-2.67-10.32 0-3.83 0.84-7.2 2.67-10.26v-0.01c1.77-3.06 4.23-5.46 7.37-7.23 3.15-1.71 6.6-2.62 10.48-2.62 5.75 0 10.39 1.81 14.04 5.4l0.69 0.67 3.48-3.59-0.62-0.66c-2.15-2.3-4.81-4.02-7.81-5.16l-0.01-0.01c-3.04-1.13-6.37-1.77-9.9-1.77zm41.92 0v0.01c-3.93 0-7.21 0.63-9.89 1.78v0.01h-0.01c-2.67 1.23-4.68 2.92-6.02 5-1.32 2.07-1.99 4.38-1.99 6.88 0 3.02 0.73 5.61 2.42 7.54 1.6 1.81 3.52 3.14 5.77 4.01 2.17 0.84 5.02 1.75 8.62 2.58 3.05 0.74 5.48 1.42 7.26 2.08 1.65 0.63 3.11 1.59 4.24 2.71 1.04 1.12 1.58 2.54 1.58 4.47 0 2.54-0.98 4.44-3.11 6.01l-0.01 0.01c-2.07 1.58-5.35 2.4-9.75 2.4-3.04 0-5.93-0.52-8.69-1.58-2.76-1.05-4.89-2.48-6.41-4.13l-0.86-0.93-2.6 4.29 0.49 0.53c1.9 2.04 4.49 3.69 7.74 4.96 3.27 1.28 6.74 1.84 10.4 1.84 3.85 0 7.19-0.56 9.95-1.79 2.74-1.16 4.82-2.85 6.17-4.94 1.31-2.05 2.06-4.36 2.06-6.87 0-2.98-0.81-5.51-2.5-7.35-1.59-1.73-3.49-3.12-5.69-4l-0.01-0.01c-2.18-0.84-5.02-1.67-8.52-2.56h-0.01-0.01c-3.11-0.75-5.62-1.5-7.33-2.15l-0.01-0.01c-1.74-0.64-3.1-1.52-4.23-2.7v-0.01l-0.01-0.01c-1.04-1.03-1.57-2.45-1.57-4.46 0-2.56 0.92-4.53 3.05-6.15v-0.01h0.01c2.02-1.6 5.14-2.47 9.46-2.47 2.09 0 4.26 0.33 6.51 0.99 2.22 0.65 4.25 1.64 6.09 2.88l0.93 0.63 2.11-4.55-0.67-0.45c-2-1.36-4.28-2.42-6.88-3.27h-0.01l-0.02-0.01c-2.67-0.77-5.35-1.2-8.05-1.2zm-637.78 0.01c-3.93 0-7.21 0.63-9.88 1.78l-0.01 0.01h-0.01c-2.67 1.23-4.68 2.92-6.01 5-1.33 2.07-2 4.38-2 6.88 0 3.02 0.73 5.61 2.42 7.54 1.6 1.81 3.53 3.14 5.78 4.01 2.17 0.84 5.01 1.75 8.61 2.58 3.05 0.74 5.48 1.42 7.26 2.08 1.65 0.63 3.11 1.59 4.24 2.71 1.05 1.12 1.58 2.54 1.58 4.47 0 2.54-0.97 4.44-3.1 6.01h-0.01l-0.01 0.01c-2.07 1.58-5.35 2.4-9.75 2.4-3.03 0-5.92-0.52-8.69-1.58-2.76-1.05-4.88-2.48-6.41-4.13l-0.86-0.93-2.6 4.29 0.49 0.53c1.9 2.04 4.49 3.69 7.74 4.96 3.27 1.28 6.75 1.84 10.4 1.84 3.85 0 7.19-0.56 9.96-1.79 2.73-1.16 4.82-2.85 6.16-4.94 1.32-2.05 2.07-4.36 2.07-6.87 0-2.98-0.82-5.5-2.51-7.35-1.59-1.73-3.49-3.12-5.68-4h-0.01l-0.01-0.01c-2.18-0.84-5.01-1.67-8.52-2.56h-0.01c-3.12-0.75-5.62-1.5-7.34-2.15v-0.01h-0.01c-1.73-0.64-3.1-1.52-4.22-2.7l-0.01-0.01-0.01-0.01c-1.03-1.03-1.57-2.45-1.57-4.46 0-2.56 0.93-4.53 3.05-6.15v-0.01h0.01c2.02-1.6 5.15-2.47 9.47-2.47 2.09 0 4.25 0.33 6.5 0.99 2.23 0.65 4.26 1.64 6.1 2.88l0.92 0.63 2.11-4.55-0.67-0.45c-2-1.36-4.27-2.42-6.87-3.26l-0.02-0.01h-0.01c-2.67-0.78-5.36-1.2-8.06-1.2zm406.73 0.34h-19.9v5.04h19.62c4.25 0 7.99 0.86 11.26 2.57 3.2 1.7 5.65 4.02 7.41 6.95 1.69 3 2.61 6.45 2.61 10.33 0 3.95-0.91 7.33-2.61 10.33-1.76 3-4.21 5.32-7.42 7.02-3.26 1.7-6.99 2.49-11.25 2.49h-14.23v-20.79h-5.39v25.84h19.9c5.05 0 9.66-1.06 13.65-3.19 3.96-2.13 7.11-5.06 9.39-8.83v-0.01c2.21-3.77 3.35-8.06 3.35-12.86 0-4.74-1.14-9.02-3.35-12.79v-0.01-0.01c-2.28-3.77-5.43-6.7-9.38-8.89h-0.01c-3.99-2.14-8.6-3.19-13.65-3.19zm-388.14 0v5.04h17.23v44.74h5.39v-44.74h17.24v-5.04h-39.86zm46.55 0v5.04h18.11c4.91 0 8.57 1.13 11.09 3.2 2.45 2.08 3.7 4.96 3.7 8.85 0 3.96-1.25 6.84-3.7 8.92h-0.01c-2.51 2.07-6.16 3.13-11.08 3.13h-18.11v20.64h5.38v-15.66h12.73c1.22 0 2.67-0.11 4.19-0.32l11.4 15.98h4.45l0.78-1.5-11.3-15.82c3.12-1.12 5.78-2.77 7.6-5.23 2.03-2.76 3.12-6.14 3.12-10.14 0-5.21-1.84-9.51-5.47-12.56s-8.6-4.53-14.77-4.53h-18.11zm49.29 0v0.95 48.83h5.39v-49.78h-5.39zm11.06 0l22.18 49.78h4.73l22.18-49.78h-1.46-4.24l-18.74 41.98-18.74-41.98h-5.91zm54.4 0v5.04h32.89v-5.04h-0.95-31.94zm77.82 0l-22.9 49.78h5.86l19.36-42.71 19.43 42.71h5.86l-22.9-49.78h-0.61-4.1zm95.25 0l-22.9 49.78h5.86l19.36-42.71 19.43 42.71h5.86l-22.9-49.78h-0.61-4.1zm90.38 0v5.04h32.88v-5.04h-0.95-31.93zm45.82 0v49.78h5.32v-38.26l18.55 31.9h2.8l18.55-32.04 0.06 38.4h0.95 4.37l-0.07-49.78h-4.37l-20.86 36.05-20.86-36.05h-4.44zm65.33 0v0.95 48.83h5.39v-49.78h-5.39zm-374.6 22.02v4.98h32.89v-4.98h-0.95-31.94zm263.45 0v4.98h32.88v-4.98h-0.95-31.93zm-263.45 22.71v0.95 4.1h32.89v-5.05h-32.89zm263.45 0v0.95 4.1h32.88v-5.05h-32.88zm-272.86 23.84c-0.7 0-1.29 0.26-1.76 0.73-0.47 0.48-0.72 1.1-0.72 1.76 0 0.7 0.26 1.29 0.72 1.75 0.48 0.48 1.08 0.68 1.76 0.68 0.66 0 1.28-0.25 1.76-0.73 0.46-0.46 0.72-1.06 0.72-1.75 0-0.66-0.26-1.25-0.72-1.71-0.48-0.48-1.1-0.73-1.76-0.73zm-61.34 1.27c-2.89 0-5.29 0.47-7.23 1.31h-0.01c-1.94 0.89-3.38 2.12-4.34 3.61-0.95 1.49-1.43 3.15-1.43 4.95 0 2.2 0.52 4.04 1.72 5.4 1.16 1.31 2.54 2.27 4.18 2.9 1.59 0.62 3.69 1.29 6.36 1.9 2.28 0.56 4.1 1.07 5.45 1.56h-0.01c1.27 0.49 2.39 1.23 3.27 2.1 0.84 0.89 1.26 2.04 1.26 3.54 0 1.97-0.79 3.5-2.43 4.71l-0.01 0.01c-1.62 1.24-4.13 1.85-7.44 1.85-2.3 0-4.48-0.4-6.58-1.2-2.08-0.79-3.71-1.88-4.88-3.15l-0.36-0.39-1.6 2.64 0.2 0.22c1.38 1.48 3.26 2.68 5.64 3.61 2.4 0.94 4.94 1.35 7.63 1.35 2.84 0 5.28-0.41 7.28-1.3 2-0.84 3.49-2.06 4.45-3.56 0.95-1.48 1.49-3.14 1.49-4.95 0-2.15-0.59-3.94-1.78-5.25-1.16-1.26-2.53-2.26-4.12-2.9-1.61-0.62-3.7-1.23-6.31-1.9-2.33-0.56-4.2-1.11-5.5-1.61-1.33-0.5-2.39-1.17-3.26-2.09l-0.01-0.01c-0.83-0.83-1.26-1.98-1.26-3.54 0-1.98 0.75-3.56 2.39-4.82 1.58-1.25 3.98-1.9 7.24-1.9 1.59 0 3.23 0.25 4.92 0.75 1.69 0.49 3.23 1.24 4.62 2.18l0.39 0.27 1.31-2.82-0.28-0.19c-1.46-0.99-3.13-1.77-5.04-2.39h-0.01v-0.01c-1.97-0.57-3.94-0.88-5.91-0.88zm249.53 0c-2.89 0-5.29 0.47-7.23 1.31h-0.01c-1.94 0.89-3.38 2.12-4.34 3.61-0.95 1.49-1.44 3.15-1.44 4.95 0 2.2 0.54 4.04 1.73 5.4 1.16 1.31 2.54 2.27 4.18 2.9 1.59 0.62 3.7 1.29 6.36 1.9h-0.01c2.29 0.56 4.11 1.07 5.45 1.56 1.27 0.49 2.39 1.23 3.27 2.1 0.84 0.89 1.26 2.04 1.26 3.54 0 1.97-0.79 3.5-2.43 4.71l-0.01 0.01c-1.62 1.24-4.13 1.85-7.44 1.85-2.29 0-4.48-0.4-6.58-1.2-2.08-0.79-3.71-1.88-4.88-3.15l-0.36-0.39-1.6 2.64 0.21 0.22c1.37 1.48 3.25 2.68 5.64 3.61 2.39 0.94 4.93 1.35 7.62 1.35 2.84 0 5.28-0.41 7.28-1.3h0.01c1.99-0.84 3.48-2.06 4.44-3.56 0.95-1.48 1.49-3.14 1.49-4.95 0-2.15-0.59-3.94-1.78-5.25-1.16-1.26-2.53-2.26-4.12-2.9-1.61-0.62-3.7-1.23-6.31-1.9-2.33-0.56-4.2-1.11-5.5-1.61-1.33-0.5-2.39-1.17-3.26-2.09v-0.01h-0.01c-0.83-0.83-1.26-1.98-1.26-3.54 0-1.98 0.75-3.56 2.39-4.82h0.01c1.58-1.25 3.97-1.9 7.23-1.9 1.59 0 3.23 0.25 4.92 0.75 1.69 0.49 3.23 1.24 4.63 2.18l0.38 0.27 1.31-2.82-0.28-0.19c-1.46-0.99-3.13-1.77-5.04-2.39l-0.01-0.01c-1.97-0.57-3.94-0.88-5.91-0.88zm-106.17 0.26v0.4 2.73h23.59v-3.13h-23.59zm-123.03 3.26v5.8h-4.88v2.98h4.88v16.95c0 2.36 0.64 4.26 2 5.62 1.31 1.36 3.21 2 5.62 2 1.06 0 2.12-0.16 3.12-0.47 1.03-0.33 1.9-0.87 2.6-1.52l0.23-0.21-0.16-0.28-1.32-2.2-0.36 0.33c-1.04 0.95-2.3 1.37-3.85 1.37-1.57 0-2.7-0.38-3.42-1.19-0.73-0.82-1.12-2.04-1.12-3.7v-16.7h8.44v-2.98h-8.44v-5.8h-3.34zm32.73 5.59c-2.55 0-4.72 0.58-6.51 1.63-1.38 0.82-2.4 2-3.22 3.37v-4.79h-3.24v27.35h3.34v-14.24c0-3.19 0.8-5.67 2.39-7.41l0.01-0.01c1.54-1.74 3.75-2.66 6.61-2.66h0.01l1.01 0.09v-3.33h-0.4zm56.38 0c-2.55 0-4.87 0.63-6.86 1.79-2.04 1.2-3.63 2.84-4.78 4.93-1.16 2.1-1.68 4.52-1.68 7.16 0 2.7 0.58 5.07 1.79 7.17 1.2 2.09 2.88 3.78 5.03 4.93 2.15 1.21 4.57 1.78 7.32 1.78 2.08 0 4.02-0.36 5.84-1.09h0.01v-0.01c1.74-0.73 3.27-1.84 4.48-3.37l0.21-0.26-2.01-2.29-0.29 0.37c-0.98 1.23-2.14 2.1-3.56 2.68-1.42 0.59-3 0.89-4.63 0.89-2.68 0-4.87-0.69-6.74-2.06-1.75-1.29-2.91-3.03-3.54-5.19l22.3-4.34-0.02-0.35c-0.16-2.39-0.74-4.55-1.89-6.49-1.15-1.93-2.68-3.46-4.57-4.57-1.89-1.1-4.05-1.68-6.41-1.68zm74.99 0c-2.61 0-4.92 0.63-7.01 1.78-2.1 1.21-3.73 2.89-4.88 4.98v0.01c-1.21 2.1-1.79 4.51-1.79 7.11 0 2.65 0.58 5.06 1.78 7.16v0.01c1.16 2.09 2.79 3.77 4.89 4.93 2.09 1.2 4.41 1.78 7.01 1.78 2.55 0 4.87-0.58 6.96-1.78h0.01c2.09-1.16 3.72-2.84 4.93-4.93v-0.01c1.15-2.09 1.78-4.5 1.78-7.16 0-2.61-0.63-5.01-1.78-7.11v-0.01c-1.21-2.08-2.84-3.77-4.93-4.98h-0.01c-2.09-1.15-4.4-1.78-6.96-1.78zm33.69 0c-2.55 0-4.71 0.58-6.51 1.63-1.38 0.82-2.4 2-3.22 3.37v-4.79h-3.23v27.35h3.34v-14.24c0-3.19 0.79-5.67 2.38-7.41h0.01v-0.01c1.55-1.74 3.75-2.66 6.62-2.66l1.01 0.09v-3.33h-0.4zm96.25 0c-2.66 0-5.02 0.63-7.12 1.78-2.09 1.15-3.78 2.84-4.93 4.93v0.01c-1.21 2.1-1.78 4.51-1.78 7.16s0.57 5.06 1.78 7.16v0.01c1.15 2.09 2.83 3.78 4.93 4.93 2.1 1.21 4.46 1.78 7.12 1.78 2.18 0 4.18-0.41 5.97-1.25 1.79-0.85 3.27-2.12 4.43-3.8l0.22-0.32-2.52-1.84-0.23 0.32c-0.94 1.28-2.05 2.25-3.41 2.88-1.37 0.63-2.83 0.93-4.46 0.93-2.03 0-3.84-0.44-5.4-1.32-1.57-0.88-2.83-2.15-3.72-3.81v-0.01c-0.88-1.61-1.32-3.47-1.32-5.66 0-2.13 0.44-3.99 1.32-5.66 0.89-1.61 2.15-2.88 3.72-3.76 1.56-0.88 3.37-1.37 5.4-1.37 1.62 0 3.08 0.34 4.46 0.98 1.36 0.63 2.48 1.55 3.41 2.82l0.23 0.32 2.52-1.84-0.23-0.32c-1.15-1.62-2.63-2.89-4.42-3.74-1.78-0.84-3.78-1.31-5.97-1.31zm27.72 0c-2.65 0-5.02 0.63-7.11 1.78-2.1 1.15-3.78 2.84-4.93 4.93v0.01c-1.21 2.1-1.79 4.51-1.79 7.16s0.58 5.06 1.78 7.16v0.01c1.16 2.09 2.84 3.78 4.94 4.93 2.1 1.21 4.46 1.78 7.11 1.78 2.19 0 4.18-0.41 5.97-1.25 1.79-0.85 3.28-2.12 4.44-3.8l0.21-0.32-2.51-1.84-0.24 0.32c-0.93 1.28-2.05 2.25-3.4 2.88-1.37 0.63-2.84 0.93-4.47 0.93-2.03 0-3.84-0.44-5.4-1.32-1.57-0.88-2.83-2.15-3.71-3.81v-0.01c-0.88-1.61-1.33-3.47-1.33-5.66 0-2.13 0.44-3.99 1.33-5.66 0.88-1.61 2.15-2.88 3.71-3.76 1.57-0.88 3.38-1.37 5.4-1.37 1.63 0 3.09 0.34 4.47 0.98 1.36 0.63 2.47 1.55 3.4 2.82l0.24 0.32 2.52-1.84-0.23-0.32c-1.15-1.62-2.64-2.89-4.43-3.74-1.78-0.84-3.77-1.31-5.97-1.31zm27.22 0c-2.56 0-4.87 0.63-6.87 1.79-2.04 1.2-3.62 2.84-4.77 4.93-1.16 2.1-1.68 4.52-1.68 7.16 0 2.7 0.57 5.07 1.78 7.17 1.2 2.09 2.89 3.78 5.04 4.93 2.15 1.21 4.56 1.78 7.31 1.78 2.09 0 4.02-0.36 5.85-1.09l0.01-0.01c1.73-0.73 3.26-1.84 4.48-3.37l0.21-0.26-2.01-2.29-0.3 0.37c-0.98 1.23-2.14 2.1-3.55 2.68-1.43 0.59-3 0.89-4.64 0.89-2.67 0-4.87-0.69-6.73-2.06-1.75-1.29-2.92-3.03-3.55-5.19l22.3-4.34-0.02-0.35c-0.15-2.39-0.73-4.55-1.89-6.49-1.15-1.93-2.67-3.46-4.56-4.57-1.9-1.1-4.06-1.68-6.41-1.68zm27.51 0c-3.32 0-5.91 0.73-7.73 2.18-1.81 1.43-2.74 3.3-2.74 5.5 0 1.79 0.48 3.28 1.48 4.34 0.95 1.06 2.09 1.81 3.47 2.24 1.31 0.47 3 0.88 5.15 1.24 1.77 0.35 3.19 0.65 4.17 0.95 0.96 0.29 1.71 0.76 2.39 1.34 0.63 0.59 0.94 1.32 0.94 2.35 0 1.47-0.58 2.53-1.76 3.34h-0.01c-1.16 0.84-3.06 1.25-5.67 1.25-1.84 0-3.57-0.3-5.26-0.89-1.69-0.6-3.02-1.34-4.04-2.22l-0.37-0.31-1.56 2.72 0.22 0.22c1.13 1.07 2.71 1.9 4.68 2.52 1.98 0.68 4.06 0.99 6.23 0.99 3.36 0 6.04-0.67 7.97-2.06 1.91-1.38 2.91-3.26 2.91-5.61 0-1.7-0.49-3.13-1.42-4.18l-0.01-0.01-0.01-0.01c-0.95-0.95-2.08-1.7-3.42-2.13-1.29-0.42-2.98-0.82-5.02-1.23h-0.01v-0.01c-1.87-0.35-3.34-0.7-4.33-1-0.97-0.29-1.77-0.77-2.44-1.39-0.63-0.58-0.95-1.36-0.95-2.51 0-1.36 0.54-2.43 1.72-3.28l0.01-0.01c1.11-0.84 2.91-1.29 5.36-1.29 1.38 0 2.77 0.19 4.16 0.59 1.33 0.39 2.51 0.99 3.6 1.73l0.36 0.24 1.56-2.72-0.29-0.21c-1.12-0.8-2.53-1.42-4.19-1.94h-0.01c-1.71-0.47-3.42-0.73-5.14-0.73zm24.35 0c-3.32 0-5.91 0.73-7.73 2.18-1.81 1.43-2.75 3.3-2.75 5.5 0 1.79 0.49 3.28 1.48 4.34h0.01c0.95 1.06 2.09 1.81 3.47 2.24 1.3 0.47 3 0.88 5.14 1.24 1.78 0.35 3.19 0.65 4.18 0.95 0.95 0.29 1.71 0.76 2.39 1.34 0.63 0.59 0.94 1.32 0.94 2.35 0 1.47-0.58 2.53-1.76 3.34h-0.01c-1.16 0.84-3.06 1.25-5.67 1.25-1.84 0-3.57-0.3-5.26-0.89-1.7-0.6-3.02-1.34-4.05-2.22l-0.36-0.31-1.57 2.72 0.23 0.22c1.13 1.07 2.71 1.9 4.67 2.52 1.98 0.68 4.06 0.99 6.24 0.99 3.36 0 6.04-0.67 7.96-2.06 1.92-1.38 2.92-3.26 2.92-5.61 0-1.7-0.49-3.13-1.43-4.18v-0.01l-0.01-0.01c-0.95-0.95-2.08-1.7-3.42-2.13-1.3-0.42-2.99-0.82-5.03-1.23v-0.01c-1.88-0.35-3.34-0.7-4.34-1-0.96-0.29-1.77-0.77-2.44-1.39-0.62-0.58-0.94-1.36-0.94-2.51 0-1.36 0.53-2.43 1.72-3.28v-0.01c1.12-0.84 2.92-1.29 5.36-1.29 1.39 0 2.77 0.19 4.16 0.59 1.34 0.39 2.52 0.99 3.61 1.73l0.35 0.24 1.57-2.72-0.3-0.21c-1.12-0.8-2.52-1.42-4.18-1.94h-0.01c-1.71-0.47-3.43-0.73-5.14-0.73zm-361.5 0.21v0.39 26.96h3.34v-27.35h-3.34zm7.86 0l12.31 27.35h3.11l12.37-27.35h-0.62-2.85l-10.43 23.18-10.32-23.18h-3.57zm201.52 0v15.91c0 3.73 0.99 6.61 3.06 8.63h0.01c2.02 2.02 4.88 3.01 8.42 3.01 2.39 0 4.51-0.52 6.3-1.58 1.41-0.82 2.45-2.02 3.32-3.4v4.78h3.24v-27.35h-0.4-2.94v14.54c0 3.07-0.89 5.51-2.54 7.26-1.65 1.79-3.91 2.67-6.78 2.67-2.73 0-4.73-0.73-6.18-2.22v-0.01c-1.44-1.43-2.17-3.6-2.17-6.53v-15.71h-3.34zm-159.61 2.83c1.67 0 3.23 0.39 4.6 1.12 1.36 0.73 2.43 1.75 3.32 2.97 0.76 1.17 1.2 2.48 1.47 3.86l-19.35 3.79c-0.04-0.4-0.07-0.81-0.07-1.1 0-2.04 0.4-3.9 1.27-5.51h0.01v-0.01c0.83-1.62 2-2.87 3.56-3.75 1.52-0.89 3.23-1.37 5.19-1.37zm259.87 0c1.67 0 3.23 0.39 4.6 1.12 1.36 0.73 2.43 1.75 3.31 2.97 0.76 1.17 1.21 2.48 1.48 3.86l-19.35 3.79c-0.04-0.4-0.07-0.81-0.07-1.1 0-2.04 0.39-3.9 1.27-5.51l0.01-0.01c0.83-1.62 1.99-2.87 3.55-3.75h0.01c1.52-0.89 3.22-1.37 5.19-1.37zm-184.88 0.05c1.97 0 3.67 0.48 5.24 1.37 1.57 0.93 2.79 2.19 3.67 3.81 0.89 1.68 1.38 3.54 1.38 5.61 0 2.13-0.5 3.99-1.38 5.61v0.01c-0.88 1.67-2.1 2.93-3.66 3.81h-0.01c-1.57 0.93-3.26 1.37-5.24 1.37-1.97 0-3.73-0.44-5.29-1.37h-0.01c-1.56-0.88-2.77-2.14-3.66-3.81v-0.01c-0.88-1.61-1.33-3.48-1.33-5.61 0-2.08 0.45-3.94 1.33-5.61 0.88-1.62 2.1-2.88 3.67-3.81 1.57-0.89 3.32-1.37 5.29-1.37zm-41.07 5.61v18.86h0.4 2.99v-15.72h20.2v-3.14h-23.59z"
     fill="#000000" /></svg>