<?xml version="1.0" encoding="UTF-8" standalone="no"?>
<svg
   xmlns:dc="http://purl.org/dc/elements/1.1/"
   xmlns:cc="http://creativecommons.org/ns#"
   xmlns:rdf="http://www.w3.org/1999/02/22-rdf-syntax-ns#"
   xmlns:svg="http://www.w3.org/2000/svg"
   xmlns="http://www.w3.org/2000/svg"
   id="svg4"
   xml:space="preserve"
   viewBox="0 0 1024 768"
   y="0px"
   x="0px"
   version="1.1"><metadata
     id="metadata10"><rdf:RDF><cc:Work
         rdf:about=""><dc:format>image/svg+xml</dc:format><dc:type
           rdf:resource="http://purl.org/dc/dcmitype/StillImage" /></cc:Work></rdf:RDF></metadata><defs
     id="defs8" /><path
     id="path2"
     d="m518.1 262.19c-0.11-0.02-14.8 5.25-43.65 15.64-23.91 8.61-43.47 15.66-43.46 15.68 0.02 0.01 1.92 0.84 4.23 1.83 2.32 1 7.74 3.33 12.06 5.18 4.32 1.86 21.98 9.44 39.26 16.86 17.27 7.42 31.46 13.48 31.54 13.48s9.87-4.18 21.76-9.29c11.9-5.11 28.06-12.06 35.93-15.43s15.89-6.82 17.83-7.65c1.93-0.84 5.3-2.29 7.48-3.23 2.19-0.93 3.99-1.72 4.02-1.74 0.02-0.03-0.22-0.14-0.53-0.25-0.33-0.12-19.87-7.15-43.44-15.64-23.58-8.49-42.93-15.44-43.03-15.44zm71.18 44.67c-0.02-0.02-0.92 0.35-2 0.82l-1.95 0.84-0.02 24.46-0.01 24.46h4.02v-25.28c0-13.91-0.02-25.29-0.04-25.3zm-124.6 7.71v0.01c-0.01 0-0.02 5.09-0.01 11.3l0.01 11.3 26.7 11.53 26.69 11.53 26.74-11.42 26.74-11.41v-11.31c0-9.03-0.02-11.3-0.07-11.28-0.04 0.02-12.07 5.15-26.73 11.41l-26.65 11.39-0.31-0.12c-0.17-0.07-12.18-5.25-26.7-11.52-14.51-6.27-26.4-11.41-26.41-11.41zm120.12 45.04l-0.11 0.16c-0.06 0.08-1.17 1.98-2.46 4.22-1.3 2.24-2.35 4.08-2.35 4.09 0 0.02 3.34 0.03 7.43 0.03 4.08 0 7.43-0.01 7.43-0.02s-1.05-1.83-2.32-4.04c-1.28-2.21-2.39-4.11-2.46-4.23l-0.14-0.21h-2.51-2.51zm-390.76 40.44c-3.84 0-6.98 0.62-9.51 1.71-2.53 1.17-4.38 2.74-5.61 4.66-1.23 1.91-1.85 4.03-1.85 6.36 0 2.87 0.68 5.2 2.19 6.91 1.5 1.71 3.28 2.94 5.4 3.76s4.93 1.71 8.49 2.53c3.07 0.75 5.54 1.43 7.38 2.12 1.78 0.68 3.35 1.71 4.59 2.94 1.23 1.3 1.84 3.01 1.84 5.13 0 2.8-1.16 5.06-3.49 6.77-2.32 1.78-5.81 2.6-10.32 2.6-3.15 0-6.16-0.55-9.03-1.64-2.88-1.1-5.13-2.6-6.77-4.38l-1.58 2.6c1.78 1.91 4.24 3.49 7.39 4.72s6.5 1.78 10.05 1.78c3.77 0 6.98-0.55 9.58-1.71 2.6-1.1 4.51-2.67 5.75-4.58 1.23-1.92 1.91-4.04 1.91-6.37 0-2.8-0.75-5.06-2.26-6.7-1.5-1.64-3.28-2.94-5.33-3.76-2.12-0.82-4.93-1.64-8.41-2.53-3.15-0.75-5.68-1.51-7.46-2.19-1.85-0.68-3.35-1.64-4.58-2.94-1.23-1.23-1.85-2.94-1.85-5.13 0-2.81 1.09-5.13 3.42-6.91 2.26-1.78 5.61-2.67 10.06-2.67 2.18 0 4.44 0.34 6.77 1.03 2.32 0.68 4.44 1.71 6.36 3.01l1.3-2.81c-1.92-1.3-4.11-2.32-6.64-3.14-2.6-0.76-5.2-1.17-7.79-1.17zm312.1 0c-4.72 0-8.96 1.1-12.73 3.15-3.76 2.12-6.7 4.99-8.89 8.69-2.19 3.69-3.21 7.86-3.21 12.45 0 4.65 1.02 8.75 3.21 12.45 2.19 3.69 5.13 6.63 8.89 8.68 3.77 2.12 8.01 3.15 12.73 3.15 3.42 0 6.56-0.55 9.5-1.71 2.95-1.1 5.48-2.81 7.53-5l-2.19-2.25c-3.9 3.83-8.82 5.74-14.71 5.74-4.03 0-7.66-0.89-10.94-2.73-3.28-1.78-5.88-4.31-7.73-7.53-1.92-3.21-2.8-6.84-2.8-10.8 0-3.97 0.88-7.53 2.8-10.74 1.85-3.22 4.45-5.75 7.73-7.6 3.28-1.77 6.91-2.73 10.94-2.73 5.95 0 10.88 1.91 14.71 5.68l2.19-2.26c-2.05-2.19-4.58-3.83-7.46-4.93-2.94-1.09-6.15-1.71-9.57-1.71zm283.75 0c-4.72 0-8.96 1.1-12.72 3.15-3.76 2.12-6.71 4.99-8.89 8.69-2.19 3.69-3.22 7.86-3.22 12.45 0 4.65 1.03 8.75 3.22 12.45 2.18 3.69 5.13 6.63 8.89 8.68 3.76 2.12 8 3.15 12.72 3.15 3.42 0 6.57-0.55 9.51-1.71 2.94-1.1 5.47-2.81 7.52-5l-2.19-2.25c-3.9 3.83-8.82 5.74-14.7 5.74-4.04 0-7.66-0.89-10.95-2.73-3.28-1.78-5.88-4.31-7.73-7.53-1.91-3.21-2.8-6.84-2.8-10.8 0-3.97 0.89-7.53 2.8-10.74 1.85-3.22 4.45-5.75 7.73-7.6 3.29-1.77 6.91-2.73 10.95-2.73 5.95 0 10.87 1.91 14.7 5.68l2.19-2.26c-2.05-2.19-4.58-3.83-7.45-4.93-2.94-1.09-6.16-1.71-9.58-1.71zm41.92 0c-3.83 0-6.97 0.62-9.51 1.71-2.53 1.17-4.37 2.74-5.6 4.66-1.24 1.91-1.85 4.03-1.85 6.36 0 2.87 0.68 5.2 2.19 6.91 1.5 1.71 3.28 2.94 5.4 3.76s4.93 1.71 8.48 2.53c3.08 0.75 5.54 1.43 7.39 2.12 1.78 0.68 3.35 1.71 4.58 2.94 1.23 1.3 1.85 3.01 1.85 5.13 0 2.8-1.16 5.06-3.49 6.77-2.33 1.78-5.81 2.6-10.33 2.6-3.14 0-6.15-0.55-9.03-1.64-2.87-1.1-5.13-2.6-6.77-4.38l-1.57 2.6c1.78 1.91 4.24 3.49 7.39 4.72 3.14 1.23 6.49 1.78 10.05 1.78 3.76 0 6.98-0.55 9.58-1.71 2.6-1.1 4.51-2.67 5.74-4.58 1.23-1.92 1.92-4.04 1.92-6.37 0-2.8-0.75-5.06-2.26-6.7-1.5-1.64-3.28-2.94-5.34-3.76-2.12-0.82-4.92-1.64-8.41-2.53-3.14-0.75-5.68-1.51-7.45-2.19-1.85-0.68-3.36-1.64-4.59-2.94-1.23-1.23-1.84-2.94-1.84-5.13 0-2.81 1.09-5.13 3.42-6.91 2.26-1.78 5.61-2.67 10.05-2.67 2.19 0 4.45 0.34 6.77 1.03 2.33 0.68 4.45 1.71 6.37 3.01l1.29-2.81c-1.91-1.3-4.1-2.32-6.63-3.14-2.6-0.76-5.2-1.17-7.8-1.17zm-618.24 0.35v3.14h17.24v44.74h3.49v-44.74h17.23v-3.14h-37.96zm46.55 0v3.14h17.17c5.06 0 8.96 1.17 11.69 3.42 2.67 2.26 4.04 5.48 4.04 9.58 0 4.17-1.37 7.39-4.04 9.64-2.73 2.26-6.63 3.36-11.69 3.36h-17.17v18.74h3.49v-15.67h13.68c1.36 0 2.94-0.07 4.65-0.34l11.42 16.01h3.97l-11.97-16.76c3.55-1.03 6.36-2.81 8.27-5.4 1.92-2.6 2.94-5.75 2.94-9.58 0-4.99-1.71-8.96-5.13-11.83-3.42-2.88-8.14-4.31-14.15-4.31h-17.17zm49.29 0v47.88h3.49v-47.88h-3.49zm11.57 0l21.34 47.88h3.49l21.34-47.88h-3.62l-19.36 43.36-19.36-43.36h-3.83zm53.9 0v3.14h30.98v-3.14h-30.98zm77.47 0l-22.02 47.88h3.76l19.97-44.05 20.04 44.05h3.77l-22.03-47.88h-3.49zm95.26 0l-22.03 47.88h3.76l19.97-44.05 20.05 44.05h3.76l-22.03-47.88h-3.48zm34.2 0v3.14h18.67c4.38 0 8.28 0.89 11.7 2.67 3.35 1.78 5.95 4.24 7.8 7.32 1.78 3.15 2.73 6.77 2.73 10.81 0 4.1-0.95 7.66-2.73 10.8-1.85 3.15-4.45 5.61-7.8 7.39-3.42 1.78-7.32 2.6-11.7 2.6h-15.18v-20.79h-3.49v23.94h18.95c4.92 0 9.37-1.03 13.2-3.08s6.84-4.86 9.03-8.48c2.12-3.63 3.21-7.73 3.21-12.38 0-4.59-1.09-8.69-3.21-12.32-2.19-3.62-5.2-6.42-9.03-8.55-3.83-2.05-8.28-3.07-13.2-3.07h-18.95zm56.51 0v3.14h30.99v-3.14h-30.99zm45.82 0v47.88h3.42v-40.84l20.05 34.47h1.7l20.05-34.61 0.06 40.98h3.42l-0.06-47.88h-2.88l-21.41 37-21.41-37h-2.94zm65.33 0v47.88h3.49v-47.88h-3.49zm-374.59 22.02v3.08h30.98v-3.08h-30.98zm263.44 0v3.08h30.99v-3.08h-30.99zm-263.44 22.71v3.15h30.98v-3.15h-30.98zm263.44 0v3.15h30.99v-3.15h-30.99zm-273.81 23.29c-0.61 0-1.07 0.2-1.47 0.61-0.41 0.41-0.61 0.91-0.61 1.47 0 0.61 0.2 1.07 0.61 1.48 0.4 0.41 0.86 0.56 1.47 0.56 0.56 0 1.07-0.2 1.48-0.61s0.61-0.87 0.61-1.48c0-0.56-0.2-1.01-0.61-1.42s-0.92-0.61-1.48-0.61zm-61.34 1.27c-2.85 0-5.19 0.46-7.07 1.27-1.88 0.87-3.26 2.04-4.17 3.46-0.92 1.43-1.38 3-1.38 4.73 0 2.14 0.51 3.87 1.63 5.14s2.45 2.19 4.02 2.8c1.58 0.61 3.67 1.27 6.31 1.88 2.29 0.56 4.12 1.07 5.5 1.58 1.32 0.51 2.49 1.27 3.41 2.19 0.91 0.96 1.37 2.24 1.37 3.81 0 2.09-0.86 3.77-2.59 5.04-1.73 1.32-4.33 1.94-7.69 1.94-2.34 0-4.58-0.41-6.72-1.23-2.13-0.81-3.81-1.93-5.03-3.25l-1.17 1.93c1.32 1.43 3.15 2.6 5.49 3.51 2.34 0.92 4.84 1.32 7.48 1.32 2.8 0 5.19-0.4 7.13-1.27 1.93-0.81 3.35-1.98 4.27-3.41 0.91-1.42 1.42-3 1.42-4.73 0-2.08-0.56-3.76-1.67-4.98-1.12-1.23-2.45-2.19-3.97-2.8-1.58-0.61-3.67-1.22-6.26-1.89-2.34-0.56-4.23-1.11-5.55-1.62-1.37-0.51-2.49-1.23-3.41-2.19-0.91-0.92-1.37-2.19-1.37-3.82 0-2.08 0.81-3.81 2.54-5.14 1.68-1.32 4.18-1.98 7.48-1.98 1.63 0 3.31 0.25 5.04 0.76s3.31 1.28 4.73 2.24l0.97-2.09c-1.43-0.96-3.05-1.72-4.94-2.34-1.93-0.55-3.86-0.86-5.8-0.86zm249.53 0c-2.85 0-5.19 0.46-7.07 1.27-1.88 0.87-3.26 2.04-4.17 3.46-0.92 1.43-1.37 3-1.37 4.73 0 2.14 0.5 3.87 1.62 5.14s2.45 2.19 4.02 2.8c1.58 0.61 3.67 1.27 6.31 1.88 2.29 0.56 4.12 1.07 5.5 1.58 1.32 0.51 2.49 1.27 3.41 2.19 0.91 0.96 1.37 2.24 1.37 3.81 0 2.09-0.87 3.77-2.6 5.04-1.73 1.32-4.32 1.94-7.68 1.94-2.34 0-4.58-0.41-6.71-1.23-2.14-0.81-3.82-1.93-5.04-3.25l-1.17 1.93c1.32 1.43 3.15 2.6 5.49 3.51 2.34 0.92 4.84 1.32 7.48 1.32 2.8 0 5.19-0.4 7.13-1.27 1.93-0.81 3.35-1.98 4.27-3.41 0.92-1.42 1.42-3 1.42-4.73 0-2.08-0.55-3.76-1.67-4.98-1.12-1.23-2.45-2.19-3.97-2.8-1.58-0.61-3.67-1.22-6.26-1.89-2.34-0.56-4.22-1.11-5.55-1.62-1.37-0.51-2.49-1.23-3.41-2.19-0.91-0.92-1.37-2.19-1.37-3.82 0-2.08 0.81-3.81 2.54-5.14 1.68-1.32 4.18-1.98 7.48-1.98 1.63 0 3.31 0.25 5.04 0.76s3.31 1.28 4.73 2.24l0.97-2.09c-1.43-0.96-3.05-1.72-4.94-2.34-1.93-0.55-3.86-0.86-5.8-0.86zm-105.77 0.26v2.34h22.8v-2.34h-22.8zm-123.03 3.25v5.8h-4.88v2.19h4.88v17.35c0 2.29 0.61 4.07 1.88 5.34 1.22 1.27 3 1.88 5.34 1.88 1.02 0 2.04-0.15 3.01-0.45 0.96-0.31 1.78-0.82 2.44-1.43l-1.07-1.78c-1.12 1.02-2.49 1.48-4.12 1.48s-2.9-0.41-3.71-1.33c-0.82-0.91-1.23-2.23-1.23-3.96v-17.1h8.45v-2.19h-8.45v-5.8h-2.54zm32.33 5.6c-2.49 0-4.58 0.56-6.31 1.58-1.73 1.01-3 2.49-3.81 4.42v-5.8h-2.45v26.56h2.55v-13.84c0-3.26 0.81-5.85 2.49-7.68 1.63-1.83 3.97-2.8 6.92-2.8l0.61 0.05v-2.49zm56.39 0c-2.5 0-4.74 0.61-6.67 1.73-1.98 1.17-3.51 2.75-4.63 4.78-1.12 2.04-1.63 4.38-1.63 6.97 0 2.65 0.56 4.94 1.73 6.97 1.17 2.04 2.8 3.66 4.89 4.78 2.08 1.17 4.43 1.73 7.12 1.73 2.04 0 3.92-0.35 5.7-1.06 1.68-0.72 3.15-1.79 4.33-3.26l-1.48-1.68c-1.02 1.27-2.24 2.19-3.72 2.8-1.47 0.61-3.1 0.91-4.78 0.91-2.75 0-5.03-0.71-6.97-2.13-1.93-1.43-3.25-3.36-3.87-5.8l22.44-4.38c-0.15-2.34-0.71-4.43-1.83-6.31s-2.59-3.36-4.43-4.42c-1.83-1.07-3.91-1.63-6.2-1.63zm74.98 0c-2.54 0-4.78 0.61-6.81 1.73-2.04 1.17-3.62 2.8-4.74 4.83-1.17 2.04-1.73 4.38-1.73 6.92 0 2.6 0.56 4.94 1.73 6.97 1.12 2.04 2.7 3.66 4.74 4.78 2.03 1.17 4.27 1.73 6.81 1.73 2.5 0 4.74-0.56 6.77-1.73 2.04-1.12 3.61-2.74 4.78-4.78 1.12-2.03 1.73-4.37 1.73-6.97 0-2.54-0.61-4.88-1.73-6.92-1.17-2.03-2.74-3.66-4.78-4.83-2.03-1.12-4.27-1.73-6.77-1.73zm33.69 0c-2.49 0-4.58 0.56-6.31 1.58-1.73 1.01-3 2.49-3.81 4.42v-5.8h-2.44v26.56h2.54v-13.84c0-3.26 0.81-5.85 2.49-7.68 1.63-1.83 3.97-2.8 6.92-2.8l0.61 0.05v-2.49zm96.25 0c-2.6 0-4.88 0.61-6.92 1.73-2.03 1.12-3.66 2.75-4.78 4.78-1.17 2.04-1.73 4.38-1.73 6.97 0 2.6 0.56 4.94 1.73 6.97 1.12 2.04 2.75 3.66 4.78 4.78 2.04 1.17 4.32 1.73 6.92 1.73 2.14 0 4.07-0.4 5.8-1.22 1.73-0.81 3.15-2.03 4.27-3.66l-1.88-1.37c-0.96 1.32-2.14 2.34-3.56 3s-2.95 0.96-4.63 0.96c-2.09 0-3.97-0.45-5.6-1.37-1.62-0.92-2.95-2.24-3.86-3.97-0.92-1.68-1.38-3.61-1.38-5.85 0-2.19 0.46-4.12 1.38-5.85 0.91-1.68 2.24-3 3.86-3.92 1.63-0.91 3.51-1.42 5.6-1.42 1.68 0 3.21 0.35 4.63 1.02 1.42 0.66 2.6 1.62 3.56 2.95l1.88-1.38c-1.12-1.58-2.54-2.8-4.27-3.61s-3.66-1.27-5.8-1.27zm27.73 0c-2.6 0-4.89 0.61-6.92 1.73-2.04 1.12-3.67 2.75-4.79 4.78-1.17 2.04-1.73 4.38-1.73 6.97 0 2.6 0.56 4.94 1.73 6.97 1.12 2.04 2.75 3.66 4.79 4.78 2.03 1.17 4.32 1.73 6.92 1.73 2.13 0 4.07-0.4 5.8-1.22 1.73-0.81 3.15-2.03 4.27-3.66l-1.88-1.37c-0.97 1.32-2.14 2.34-3.56 3-1.43 0.66-2.96 0.96-4.63 0.96-2.09 0-3.97-0.45-5.6-1.37s-2.95-2.24-3.87-3.97c-0.91-1.68-1.37-3.61-1.37-5.85 0-2.19 0.46-4.12 1.37-5.85 0.92-1.68 2.24-3 3.87-3.92 1.63-0.91 3.51-1.42 5.6-1.42 1.67 0 3.2 0.35 4.63 1.02 1.42 0.66 2.59 1.62 3.56 2.95l1.88-1.38c-1.12-1.58-2.54-2.8-4.27-3.61s-3.67-1.27-5.8-1.27zm27.21 0c-2.49 0-4.73 0.61-6.66 1.73-1.99 1.17-3.51 2.75-4.63 4.78-1.12 2.04-1.63 4.38-1.63 6.97 0 2.65 0.56 4.94 1.73 6.97 1.17 2.04 2.8 3.66 4.88 4.78 2.09 1.17 4.43 1.73 7.13 1.73 2.03 0 3.91-0.35 5.69-1.06 1.68-0.72 3.16-1.79 4.33-3.26l-1.48-1.68c-1.01 1.27-2.23 2.19-3.71 2.8-1.47 0.61-3.1 0.91-4.78 0.91-2.75 0-5.04-0.71-6.97-2.13-1.94-1.43-3.26-3.36-3.87-5.8l22.44-4.38c-0.16-2.34-0.72-4.43-1.83-6.31-1.12-1.88-2.6-3.36-4.43-4.42-1.83-1.07-3.92-1.63-6.21-1.63zm27.51 0c-3.26 0-5.75 0.71-7.48 2.08-1.73 1.38-2.59 3.11-2.59 5.19 0 1.73 0.46 3.11 1.37 4.07 0.92 1.02 1.98 1.73 3.31 2.14 1.27 0.46 2.95 0.87 5.09 1.22 1.78 0.36 3.2 0.66 4.22 0.97 1.02 0.3 1.83 0.81 2.54 1.42 0.72 0.66 1.07 1.53 1.07 2.65 0 1.58-0.66 2.8-1.93 3.66-1.27 0.92-3.26 1.33-5.9 1.33-1.89 0-3.67-0.31-5.4-0.92s-3.1-1.37-4.17-2.29l-1.17 2.04c1.07 1.01 2.6 1.83 4.53 2.44 1.93 0.66 3.97 0.96 6.1 0.96 3.31 0 5.91-0.66 7.74-1.98s2.74-3.05 2.74-5.29c0-1.63-0.45-2.95-1.32-3.92-0.91-0.92-1.98-1.63-3.25-2.03-1.28-0.41-2.95-0.82-4.99-1.23-1.88-0.35-3.36-0.71-4.38-1.01-1.01-0.31-1.88-0.82-2.59-1.48s-1.07-1.58-1.07-2.8c0-1.47 0.61-2.69 1.88-3.61 1.22-0.92 3.11-1.37 5.6-1.37 1.42 0 2.85 0.2 4.27 0.61 1.38 0.4 2.6 1.01 3.72 1.78l1.17-2.04c-1.07-0.76-2.44-1.37-4.07-1.88-1.68-0.46-3.36-0.71-5.04-0.71zm24.35 0c-3.26 0-5.75 0.71-7.48 2.08-1.73 1.38-2.6 3.11-2.6 5.19 0 1.73 0.46 3.11 1.38 4.07 0.91 1.02 1.98 1.73 3.31 2.14 1.27 0.46 2.95 0.87 5.08 1.22 1.78 0.36 3.21 0.66 4.23 0.97 1.01 0.3 1.83 0.81 2.54 1.42 0.71 0.66 1.07 1.53 1.07 2.65 0 1.58-0.66 2.8-1.94 3.66-1.27 0.92-3.25 1.33-5.9 1.33-1.88 0-3.66-0.31-5.39-0.92s-3.1-1.37-4.17-2.29l-1.17 2.04c1.07 1.01 2.59 1.83 4.52 2.44 1.94 0.66 3.97 0.96 6.11 0.96 3.31 0 5.9-0.66 7.73-1.98 1.84-1.32 2.75-3.05 2.75-5.29 0-1.63-0.46-2.95-1.32-3.92-0.92-0.92-1.99-1.63-3.26-2.03-1.27-0.41-2.95-0.82-4.98-1.23-1.89-0.35-3.36-0.71-4.38-1.01-1.02-0.31-1.88-0.82-2.59-1.48-0.72-0.66-1.07-1.58-1.07-2.8 0-1.47 0.61-2.69 1.88-3.61 1.22-0.92 3.1-1.37 5.6-1.37 1.42 0 2.85 0.2 4.27 0.61 1.37 0.4 2.6 1.01 3.72 1.78l1.17-2.04c-1.07-0.76-2.45-1.37-4.07-1.88-1.68-0.46-3.36-0.71-5.04-0.71zm-361.1 0.2v26.56h2.55v-26.56h-2.55zm8.08 0l11.95 26.56h2.6l12.01-26.56h-2.6l-10.68 23.76-10.59-23.76h-2.69zm201.3 0v15.52c0 3.66 0.96 6.41 2.95 8.34 1.93 1.94 4.68 2.9 8.14 2.9 2.34 0 4.37-0.5 6.1-1.52s3.01-2.5 3.92-4.38v5.7h2.44v-26.56h-2.54v14.15c0 3.15-0.92 5.69-2.65 7.53-1.73 1.88-4.12 2.79-7.07 2.79-2.8 0-4.93-0.76-6.46-2.34-1.53-1.52-2.29-3.81-2.29-6.81v-15.32h-2.54zm-160 2.04c1.73 0 3.35 0.4 4.78 1.17 1.42 0.76 2.54 1.83 3.46 3.1 0.86 1.32 1.42 2.8 1.68 4.38l-20.25 3.96c-0.1-0.66-0.1-1.16-0.1-1.57 0-2.09 0.4-4.02 1.32-5.7 0.86-1.68 2.08-3 3.71-3.92 1.58-0.91 3.36-1.42 5.4-1.42zm259.86 0c1.73 0 3.36 0.4 4.79 1.17 1.42 0.76 2.54 1.83 3.45 3.1 0.87 1.32 1.43 2.8 1.68 4.38l-20.25 3.96c-0.1-0.66-0.1-1.16-0.1-1.57 0-2.09 0.41-4.02 1.33-5.7 0.86-1.68 2.08-3 3.71-3.92 1.58-0.91 3.36-1.42 5.39-1.42zm-184.88 0.05c2.04 0 3.82 0.51 5.45 1.42 1.63 0.97 2.9 2.29 3.81 3.97 0.92 1.73 1.43 3.66 1.43 5.8 0 2.19-0.51 4.12-1.43 5.8-0.91 1.73-2.18 3.05-3.81 3.97-1.63 0.97-3.41 1.42-5.45 1.42-2.03 0-3.86-0.45-5.49-1.42-1.63-0.92-2.9-2.24-3.82-3.97-0.91-1.68-1.37-3.61-1.37-5.8 0-2.14 0.46-4.07 1.37-5.8 0.92-1.68 2.19-3 3.82-3.97 1.63-0.91 3.46-1.42 5.49-1.42zm-40.67 6.41v18.06h2.6v-15.72h20.2v-2.34h-22.8z"
     fill="#ffffff" /></svg>