<?xml version="1.0" encoding="UTF-8" standalone="no"?>
<svg
   xmlns:dc="http://purl.org/dc/elements/1.1/"
   xmlns:cc="http://creativecommons.org/ns#"
   xmlns:rdf="http://www.w3.org/1999/02/22-rdf-syntax-ns#"
   xmlns:svg="http://www.w3.org/2000/svg"
   xmlns="http://www.w3.org/2000/svg"
   id="svg35"
   xml:space="preserve"
   viewBox="0 0 1024 768"
   y="0px"
   x="0px"
   version="1.1"><metadata
     id="metadata41"><rdf:RDF><cc:Work
         rdf:about=""><dc:format>image/svg+xml</dc:format><dc:type
           rdf:resource="http://purl.org/dc/dcmitype/StillImage" /></cc:Work></rdf:RDF></metadata><defs
     id="defs39" /><g
     transform="translate(0.11692,-31.764)"
     id="logo-group"><path
       stroke-miterlimit="2"
       d="m 295.08,536.06 c 2.3405,0.91584 4.8336,1.3229 7.4794,1.3229 2.7984,0 5.1898,-0.40704 7.1232,-1.272 1.9334,-0.81408 3.3581,-1.9843 4.2739,-3.409 0.91584,-1.4246 1.4246,-3.0019 1.4246,-4.7318 0,-2.0861 -0.55968,-3.7651 -1.679,-4.9862 -1.1194,-1.2211 -2.4422,-2.1878 -3.9686,-2.7984 -1.5773,-0.61056 -3.6634,-1.2211 -6.2582,-1.8826 -2.3405,-0.55968 -4.223,-1.1194 -5.5459,-1.6282 -1.3738,-0.5088 -2.4931,-1.2211 -3.409,-2.1878 -0.91584,-0.91584 -1.3738,-2.1878 -1.3738,-3.816 0,-2.0861 0.81408,-3.816 2.544,-5.1389 1.679,-1.3229 4.1722,-1.9843 7.4794,-1.9843 1.6282,0 3.3072,0.2544 5.0371,0.7632 1.7299,0.5088 3.3072,1.272 4.7318,2.2387 l 0.96672,-2.0861 c -1.4246,-0.96672 -3.0528,-1.7299 -4.9354,-2.3405 -1.9334,-0.55968 -3.8669,-0.86496 -5.8003,-0.86496 -2.8493,0 -5.1898,0.45792 -7.0723,1.272 -1.8826,0.86496 -3.2563,2.0352 -4.1722,3.4598 -0.91584,1.4246 -1.3738,3.0019 -1.3738,4.7318 0,2.137 0.5088,3.8669 1.6282,5.1389 1.1194,1.272 2.4422,2.1878 4.0195,2.7984 1.5773,0.61056 3.6634,1.272 6.3091,1.8826 2.2896,0.55968 4.1213,1.0685 5.495,1.5773 1.3229,0.5088 2.4931,1.272 3.409,2.1878 0.91584,0.96672 1.3738,2.2387 1.3738,3.816 0,2.0861 -0.86496,3.7651 -2.5949,5.0371 -1.7299,1.3229 -4.3248,1.9334 -7.6829,1.9334 -2.3405,0 -4.5792,-0.40704 -6.7162,-1.2211 -2.137,-0.81408 -3.816,-1.9334 -5.0371,-3.2563 l -1.1702,1.9334 c 1.3229,1.4246 3.1546,2.5949 5.495,3.5107 z"
       style="font-variant-ligatures:none;fill:#0c5ea5;stroke:#0c5ea5;stroke-width:0.79500002;stroke-miterlimit:2"
       id="path338355" /><path
       stroke-miterlimit="2"
       d="m 336.57,535.45 -1.0685,-1.7808 c -1.1194,1.0176 -2.4931,1.4755 -4.1213,1.4755 -1.6282,0 -2.9002,-0.40704 -3.7142,-1.3229 -0.81408,-0.91584 -1.2211,-2.2387 -1.2211,-3.9686 v -17.096 h 8.4461 v -2.1878 h -8.4461 v -5.8003 h -2.544 v 5.8003 h -4.8845 v 2.1878 h 4.8845 v 17.35 c 0,2.2896 0.61056,4.0704 1.8826,5.3424 1.2211,1.272 3.0019,1.8826 5.3424,1.8826 1.0176,0 2.0352,-0.15264 3.0019,-0.45792 0.96672,-0.30528 1.7808,-0.81408 2.4422,-1.4246 z"
       style="font-variant-ligatures:none;fill:#0c5ea5;stroke:#0c5ea5;stroke-width:0.79500002;stroke-miterlimit:2"
       id="path338357" /><path
       stroke-miterlimit="2"
       d="m 349.92,511.94 c -1.7299,1.0176 -3.0019,2.4931 -3.816,4.4266 v -5.8003 h -2.4422 v 26.56 h 2.544 v -13.839 c 0,-3.2563 0.81408,-5.8512 2.4931,-7.6829 1.6282,-1.8317 3.9686,-2.7984 6.9197,-2.7984 l 0.61056,0.0509 v -2.4931 c -2.4931,0 -4.5792,0.55968 -6.3091,1.5773 z"
       style="font-variant-ligatures:none;fill:#0c5ea5;stroke:#0c5ea5;stroke-width:0.79500002;stroke-miterlimit:2"
       id="path338359" /><path
       stroke-miterlimit="2"
       d="m 363.24,510.57 v 26.56 h 2.544 v -26.559 z m -0.20352,-7.0214 c 0.40703,0.40704 0.86496,0.55968 1.4755,0.55968 0.55968,0 1.0685,-0.20352 1.4755,-0.61056 0.40703,-0.40704 0.61056,-0.86496 0.61056,-1.4755 0,-0.55968 -0.20352,-1.0176 -0.61056,-1.4246 -0.40705,-0.40704 -0.91585,-0.61056 -1.4755,-0.61056 -0.61055,0 -1.0685,0.20352 -1.4755,0.61056 -0.40704,0.40704 -0.61056,0.91584 -0.61056,1.4755 0,0.61056 0.20351,1.0685 0.61056,1.4755 z"
       style="font-variant-ligatures:none;fill:#0c5ea5;stroke:#0c5ea5;stroke-width:0.79500002;stroke-miterlimit:2"
       id="path338361" /><path
       stroke-miterlimit="2"
       d="m 397.88,510.57 h -2.5949 l -10.685,23.761 -10.583,-23.761 h -2.6966 l 11.957,26.559 h 2.5949 z"
       style="font-variant-ligatures:none;fill:#0c5ea5;stroke:#0c5ea5;stroke-width:0.79500002;stroke-miterlimit:2"
       id="path338363" /><path
       stroke-miterlimit="2"
       d="m 418.26,534.12 c -1.4755,0.61056 -3.1037,0.91584 -4.7827,0.91584 -2.7475,0 -5.0371,-0.71232 -6.9706,-2.137 -1.9334,-1.4246 -3.2563,-3.3581 -3.8669,-5.8003 l 22.438,-4.3757 c -0.15265,-2.3405 -0.71232,-4.4266 -1.8317,-6.3091 -1.1194,-1.8826 -2.5949,-3.3581 -4.4266,-4.4266 -1.8317,-1.0685 -3.9178,-1.6282 -6.2074,-1.6282 -2.4931,0 -4.7318,0.61056 -6.6653,1.7299 -1.9843,1.1702 -3.5107,2.7475 -4.6301,4.7827 -1.1194,2.0352 -1.6282,4.3757 -1.6282,6.9706 0,2.6458 0.55968,4.9354 1.7299,6.9706 1.17022,2.0352 2.7984,3.6634 4.8845,4.7827 2.0861,1.1702 4.4266,1.7299 7.1232,1.7299 2.0352,0 3.9178,-0.35616 5.6986,-1.0685 1.679,-0.71232 3.1546,-1.7808 4.3248,-3.2563 l -1.4755,-1.679 c -1.0176,1.272 -2.2387,2.1878 -3.7142,2.7984 z m -11.041,-20.098 c 1.5773,-0.91584 3.3581,-1.4246 5.3933,-1.4246 1.7299,0 3.3581,0.40704 4.7827,1.1702 1.4246,0.7632 2.544,1.8317 3.4598,3.1037 0.86496,1.3229 1.4246,2.7984 1.679,4.3757 l -20.25,3.9686 c -0.10176,-0.66144 -0.10176,-1.1702 -0.10176,-1.5773 0,-2.0861 0.40704,-4.0195 1.3229,-5.6986 0.86496,-1.679 2.0861,-3.0019 3.7142,-3.9178 z"
       style="font-variant-ligatures:none;fill:#0c5ea5;stroke:#0c5ea5;stroke-width:0.79500002;stroke-miterlimit:2"
       id="path338365" /><path
       stroke-miterlimit="2"
       d="m 446.93,501.51 v 2.3405 h 22.794 v -2.34 z m 0,35.616 h 2.5949 v -15.722 h 20.199 v -2.3405 h -22.794 z"
       style="font-variant-ligatures:none;fill:#0c5ea5;stroke:#0c5ea5;stroke-width:0.79500002;stroke-miterlimit:2"
       id="path338367" /><path
       stroke-miterlimit="2"
       d="m 480.79,535.6 c 2.0352,1.1702 4.2739,1.7299 6.8179,1.7299 2.4931,0 4.7318,-0.55968 6.767,-1.7299 2.0352,-1.1194 3.6125,-2.7475 4.7827,-4.7827 1.1194,-2.0352 1.7299,-4.3757 1.7299,-6.9706 0,-2.544 -0.61056,-4.8845 -1.7299,-6.9197 -1.1702,-2.0352 -2.7475,-3.6634 -4.7827,-4.8336 -2.0352,-1.1194 -4.2739,-1.7299 -6.767,-1.7299 -2.544,0 -4.7827,0.61056 -6.8179,1.7299 -2.0352,1.1702 -3.6125,2.7984 -4.7318,4.8336 -1.1702,2.0352 -1.7299,4.3757 -1.7299,6.9197 0,2.5949 0.55968,4.9354 1.7299,6.9706 1.1194,2.0352 2.6966,3.6634 4.7318,4.7827 z m 12.262,-1.9843 c -1.6282,0.96672 -3.409,1.4246 -5.4442,1.4246 -2.0352,0 -3.8669,-0.45792 -5.495,-1.4246 -1.6282,-0.91584 -2.9002,-2.2387 -3.816,-3.9686 -0.91584,-1.679 -1.3738,-3.6125 -1.3738,-5.8003 0,-2.137 0.45792,-4.0704 1.3738,-5.8003 0.91584,-1.679 2.1878,-3.0019 3.816,-3.9686 1.6282,-0.91584 3.4598,-1.4246 5.495,-1.4246 2.0352,0 3.816,0.5088 5.4442,1.4246 1.6282,0.96672 2.9002,2.2896 3.816,3.9686 0.91584,1.7299 1.4246,3.6634 1.4246,5.8003 0,2.1878 -0.5088,4.1213 -1.4246,5.8003 -0.91584,1.7299 -2.1878,3.0528 -3.816,3.9686 z"
       style="font-variant-ligatures:none;fill:#0c5ea5;stroke:#0c5ea5;stroke-width:0.79500002;stroke-miterlimit:2"
       id="path338369" /><path
       stroke-miterlimit="2"
       d="m 514.98,511.94 c -1.7299,1.0176 -3.0019,2.4931 -3.816,4.4266 v -5.8003 h -2.43 v 26.56 h 2.544 v -13.839 c 0,-3.2563 0.81408,-5.8512 2.4931,-7.6829 1.6282,-1.8317 3.9686,-2.7984 6.9197,-2.7984 l 0.61056,0.0509 v -2.4931 c -2.4931,0 -4.5792,0.55968 -6.3091,1.5773 z"
       style="font-variant-ligatures:none;fill:#0c5ea5;stroke:#0c5ea5;stroke-width:0.79500002;stroke-miterlimit:2"
       id="path338371" /><path
       stroke-miterlimit="2"
       d="m 544.61,536.06 c 2.3405,0.91584 4.8336,1.3229 7.4794,1.3229 2.7984,0 5.1898,-0.40704 7.1232,-1.272 1.9334,-0.81408 3.3581,-1.9843 4.2739,-3.409 0.91584,-1.4246 1.4246,-3.0019 1.4246,-4.7318 0,-2.0861 -0.55968,-3.7651 -1.679,-4.9862 -1.1194,-1.2211 -2.4422,-2.1878 -3.9686,-2.7984 -1.5773,-0.61056 -3.6634,-1.2211 -6.2582,-1.8826 -2.3405,-0.55968 -4.223,-1.1194 -5.5459,-1.6282 -1.3738,-0.5088 -2.4931,-1.2211 -3.409,-2.1878 -0.91584,-0.91584 -1.3738,-2.1878 -1.3738,-3.816 0,-2.0861 0.81408,-3.816 2.544,-5.1389 1.679,-1.3229 4.1722,-1.9843 7.4794,-1.9843 1.6282,0 3.3072,0.2544 5.0371,0.7632 1.7299,0.5088 3.3072,1.272 4.7318,2.2387 l 0.96672,-2.0861 c -1.4246,-0.96672 -3.0528,-1.7299 -4.9354,-2.3405 -1.9334,-0.55968 -3.8669,-0.86496 -5.8003,-0.86496 -2.8493,0 -5.1898,0.45792 -7.0723,1.272 -1.8826,0.86496 -3.2563,2.0352 -4.1722,3.4598 -0.91584,1.4246 -1.3738,3.0019 -1.3738,4.7318 0,2.137 0.5088,3.8669 1.6282,5.1389 1.1194,1.272 2.4422,2.1878 4.0195,2.7984 1.5773,0.61056 3.6634,1.272 6.3091,1.8826 2.2896,0.55968 4.1213,1.0685 5.495,1.5773 1.3229,0.5088 2.4931,1.272 3.409,2.1878 0.91584,0.96672 1.3738,2.2387 1.3738,3.816 0,2.0861 -0.86496,3.7651 -2.5949,5.0371 -1.7299,1.3229 -4.3248,1.9334 -7.6829,1.9334 -2.3405,0 -4.5792,-0.40704 -6.7162,-1.2211 -2.137,-0.81408 -3.816,-1.9334 -5.0371,-3.2563 l -1.1702,1.9334 c 1.3229,1.4246 3.1546,2.5949 5.495,3.5107 z"
       style="font-variant-ligatures:none;fill:#0c5ea5;stroke:#0c5ea5;stroke-width:0.79500002;stroke-miterlimit:2"
       id="path338373" /><path
       stroke-miterlimit="2"
       d="m 596.17,510.57 h -2.544 v 14.145 c 0,3.1546 -0.91584,5.6986 -2.6458,7.5302 -1.7299,1.8826 -4.1213,2.7984 -7.0723,2.7984 -2.7984,0 -4.9354,-0.7632 -6.4618,-2.3405 -1.5264,-1.5264 -2.2896,-3.816 -2.2896,-6.8179 v -15.315 h -2.544 v 15.518 c 0,3.6634 0.96672,6.4109 2.951,8.3443 1.9334,1.9334 4.681,2.9002 8.1408,2.9002 2.3405,0 4.3757,-0.5088 6.1056,-1.5264 1.7299,-1.0176 3.0019,-2.4931 3.9178,-4.3757 v 5.6986 h 2.4422 z"
       style="font-variant-ligatures:none;fill:#0c5ea5;stroke:#0c5ea5;stroke-width:0.79500002;stroke-miterlimit:2"
       id="path338375" /><path
       stroke-miterlimit="2"
       d="m 610.62,535.6 c 2.0352,1.1702 4.3248,1.7299 6.9197,1.7299 2.137,0 4.0704,-0.40704 5.8003,-1.2211 1.7299,-0.81408 3.1546,-2.0352 4.2739,-3.6634 l -1.8826,-1.3738 c -0.96672,1.3229 -2.137,2.3405 -3.5616,3.0019 -1.4246,0.66144 -2.951,0.96672 -4.6301,0.96672 -2.0861,0 -3.9686,-0.45792 -5.5968,-1.3738 -1.6282,-0.91584 -2.951,-2.2387 -3.8669,-3.9686 -0.91584,-1.679 -1.3738,-3.6125 -1.3738,-5.8512 0,-2.1878 0.45792,-4.1213 1.3738,-5.8512 0.91584,-1.679 2.2387,-3.0019 3.8669,-3.9178 1.6282,-0.91584 3.5107,-1.4246 5.5968,-1.4246 1.679,0 3.2054,0.35616 4.6301,1.0176 1.4246,0.66144 2.5949,1.6282 3.5616,2.951 l 1.8826,-1.3738 c -1.1194,-1.5773 -2.544,-2.7984 -4.2739,-3.6125 -1.7299,-0.81408 -3.6634,-1.272 -5.8003,-1.272 -2.5949,0 -4.8845,0.61056 -6.9197,1.7299 -2.0352,1.1194 -3.6634,2.7475 -4.7827,4.7827 -1.1702,2.0352 -1.7299,4.3757 -1.7299,6.9706 0,2.5949 0.55968,4.9354 1.7299,6.9706 1.1194,2.0352 2.7475,3.6634 4.7827,4.7827 z"
       style="font-variant-ligatures:none;fill:#0c5ea5;stroke:#0c5ea5;stroke-width:0.79500002;stroke-miterlimit:2"
       id="path338377" /><path
       stroke-miterlimit="2"
       d="m 638.35,535.6 c 2.0352,1.1702 4.3248,1.7299 6.9197,1.7299 2.137,0 4.0704,-0.40704 5.8003,-1.2211 1.7299,-0.81408 3.1546,-2.0352 4.2739,-3.6634 l -1.8826,-1.3738 c -0.96671,1.3229 -2.137,2.3405 -3.5616,3.0019 -1.4246,0.66144 -2.951,0.96672 -4.6301,0.96672 -2.0861,0 -3.9686,-0.45792 -5.5968,-1.3738 -1.6282,-0.91584 -2.951,-2.2387 -3.8669,-3.9686 -0.91585,-1.679 -1.3738,-3.6125 -1.3738,-5.8512 0,-2.1878 0.45792,-4.1213 1.3738,-5.8512 0.91584,-1.679 2.2387,-3.0019 3.8669,-3.9178 1.6282,-0.91584 3.5107,-1.4246 5.5968,-1.4246 1.679,0 3.2054,0.35616 4.6301,1.0176 1.4246,0.66144 2.5949,1.6282 3.5616,2.951 l 1.8826,-1.3738 c -1.1194,-1.5773 -2.544,-2.7984 -4.2739,-3.6125 -1.7299,-0.81408 -3.6634,-1.272 -5.8003,-1.272 -2.5949,0 -4.8845,0.61056 -6.9197,1.7299 -2.0352,1.1194 -3.6634,2.7475 -4.7827,4.7827 -1.1702,2.0352 -1.7299,4.3757 -1.7299,6.9706 0,2.5949 0.55968,4.9354 1.7299,6.9706 1.1194,2.0352 2.7475,3.6634 4.7827,4.7827 z"
       style="font-variant-ligatures:none;fill:#0c5ea5;stroke:#0c5ea5;stroke-width:0.79500002;stroke-miterlimit:2"
       id="path338379" /><path
       stroke-miterlimit="2"
       d="m 678.13,534.12 c -1.4755,0.61056 -3.1037,0.91584 -4.7827,0.91584 -2.7475,0 -5.0371,-0.71232 -6.9706,-2.137 -1.9334,-1.4246 -3.2563,-3.3581 -3.8669,-5.8003 l 22.438,-4.3757 c -0.15264,-2.3405 -0.71232,-4.4266 -1.8317,-6.3091 -1.1194,-1.8826 -2.5949,-3.3581 -4.4266,-4.4266 -1.8317,-1.0685 -3.9178,-1.6282 -6.2074,-1.6282 -2.4931,0 -4.7318,0.61056 -6.6653,1.7299 -1.9843,1.1702 -3.5107,2.7475 -4.6301,4.7827 -1.1194,2.0352 -1.6282,4.3757 -1.6282,6.9706 0,2.6458 0.55968,4.9354 1.7299,6.9706 1.17022,2.0352 2.7984,3.6634 4.8845,4.7827 2.0861,1.1702 4.4266,1.7299 7.1232,1.7299 2.0352,0 3.9178,-0.35616 5.6986,-1.0685 1.679,-0.71232 3.1546,-1.7808 4.3248,-3.2563 l -1.4755,-1.679 c -1.0176,1.272 -2.2387,2.1878 -3.7142,2.7984 z m -11.04,-20.09 c 1.5773,-0.91584 3.3581,-1.4246 5.3933,-1.4246 1.7299,0 3.3581,0.40704 4.7827,1.1702 1.4246,0.7632 2.544,1.8317 3.4598,3.1037 0.86496,1.3229 1.4246,2.7984 1.679,4.3757 l -20.25,3.9686 c -0.10176,-0.66144 -0.10176,-1.1702 -0.10176,-1.5773 0,-2.0861 0.40704,-4.0195 1.3229,-5.6986 0.86496,-1.679 2.0861,-3.0019 3.7142,-3.9178 z"
       style="font-variant-ligatures:none;fill:#0c5ea5;stroke:#0c5ea5;stroke-width:0.79500002;stroke-miterlimit:2"
       id="path338381" /><path
       stroke-miterlimit="2"
       d="m 693.48,536.36 c 1.9334,0.66144 3.9686,0.96672 6.1056,0.96672 3.3072,0 5.9021,-0.66144 7.7338,-1.9843 1.8317,-1.32286 2.7475,-3.0528 2.7475,-5.2915 0,-1.6282 -0.45792,-2.951 -1.3229,-3.9178 -0.91584,-0.91584 -1.9843,-1.6282 -3.2563,-2.0352 -1.272,-0.40704 -2.951,-0.81408 -4.9862,-1.2211 -1.8826,-0.35616 -3.3581,-0.71232 -4.3757,-1.0176 -1.0176,-0.30528 -1.8826,-0.81408 -2.5949,-1.4755 -0.71232,-0.66144 -1.0685,-1.5773 -1.0685,-2.7984 0,-1.4755 0.61056,-2.6966 1.8826,-3.6125 1.2211,-0.91584 3.1037,-1.3738 5.5968,-1.3738 1.4246,0 2.8493,0.20352 4.2739,0.61056 1.3738,0.40704 2.5949,1.0176 3.7142,1.7808 l 1.1702,-2.0352 c -1.0685,-0.7632 -2.4422,-1.3738 -4.0704,-1.8826 -1.679,-0.45792 -3.3581,-0.71232 -5.0371,-0.71232 -3.2563,0 -5.7494,0.71232 -7.4794,2.0861 -1.7299,1.3738 -2.5949,3.1037 -2.5949,5.1898 0,1.7299 0.45792,3.1037 1.3738,4.0704 0.91584,1.0176 1.9843,1.7299 3.3072,2.137 1.272,0.45792 2.951,0.86496 5.088,1.2211 1.7808,0.35616 3.2054,0.66144 4.223,0.96672 1.0176,0.30528 1.8317,0.81408 2.544,1.4246 0.71232,0.66144 1.0685,1.5264 1.0685,2.6458 0,1.5773 -0.66144,2.7984 -1.9334,3.6634 -1.272,0.91584 -3.2563,1.3229 -5.9021,1.3229 -1.8826,0 -3.6634,-0.30528 -5.3933,-0.91584 -1.7299,-0.61056 -3.1037,-1.3738 -4.1722,-2.2896 l -1.1702,2.0352 c 1.0685,1.0176 2.5949,1.8317 4.5283,2.4422 z"
       style="font-variant-ligatures:none;fill:#0c5ea5;stroke:#0c5ea5;stroke-width:0.79500002;stroke-miterlimit:2"
       id="path338383" /><path
       stroke-miterlimit="2"
       d="m 717.83,536.36 c 1.9334,0.66144 3.9686,0.96672 6.1056,0.96672 3.3072,0 5.9021,-0.66144 7.7338,-1.9843 1.8317,-1.32286 2.7475,-3.0528 2.7475,-5.2915 0,-1.6282 -0.45792,-2.951 -1.3229,-3.9178 -0.91585,-0.91584 -1.9843,-1.6282 -3.2563,-2.0352 -1.272,-0.40704 -2.951,-0.81408 -4.9862,-1.2211 -1.8826,-0.35616 -3.3581,-0.71232 -4.3757,-1.0176 -1.0176,-0.30528 -1.8826,-0.81408 -2.5949,-1.4755 -0.71232,-0.66144 -1.0685,-1.5773 -1.0685,-2.7984 0,-1.4755 0.61056,-2.6966 1.8826,-3.6125 1.2211,-0.91584 3.1037,-1.3738 5.5968,-1.3738 1.4246,0 2.8493,0.20352 4.2739,0.61056 1.3738,0.40704 2.5949,1.0176 3.7142,1.7808 l 1.1702,-2.0352 c -1.0685,-0.7632 -2.4422,-1.3738 -4.0704,-1.8826 -1.679,-0.45792 -3.3581,-0.71232 -5.0371,-0.71232 -3.2563,0 -5.7494,0.71232 -7.4794,2.0861 -1.7299,1.3738 -2.5949,3.1037 -2.5949,5.1898 0,1.7299 0.45792,3.1037 1.3738,4.0704 0.91584,1.0176 1.9843,1.7299 3.3072,2.137 1.272,0.45792 2.951,0.86496 5.088,1.2211 1.7808,0.35616 3.2054,0.66144 4.223,0.96672 1.0176,0.30528 1.8317,0.81408 2.544,1.4246 0.71232,0.66144 1.0685,1.5264 1.0685,2.6458 0,1.5773 -0.66144,2.7984 -1.9334,3.6634 -1.272,0.91584 -3.2563,1.3229 -5.9021,1.3229 -1.8826,0 -3.6634,-0.30528 -5.3933,-0.91584 -1.7299,-0.61056 -3.1037,-1.3738 -4.1722,-2.2896 l -1.1702,2.0352 c 1.0685,1.0176 2.5949,1.8317 4.5283,2.4422 z"
       style="font-variant-ligatures:none;fill:#0c5ea5;stroke:#0c5ea5;stroke-width:0.79500002;stroke-miterlimit:2"
       id="path338385" /><path
       stroke-miterlimit="2"
       d="m 183.16,478.41 c 3.1464,1.2312 6.498,1.7784 10.055,1.7784 3.762,0 6.9768,-0.5472 9.576,-1.71 2.5992,-1.0944 4.5144,-2.6676 5.7456,-4.5828 1.2312,-1.9152 1.9152,-4.0356 1.9152,-6.3612 0,-2.8044 -0.75239,-5.0616 -2.2572,-6.7032 -1.50481,-1.6416 -3.2832,-2.9412 -5.3352,-3.762 -2.1204,-0.8208 -4.9248,-1.6416 -8.4132,-2.5308 -3.1464,-0.7524 -5.6772,-1.5048 -7.4556,-2.1888 -1.8468,-0.684 -3.3516,-1.6416 -4.5828,-2.9412 -1.2312,-1.2312 -1.8468,-2.9412 -1.8468,-5.13 0,-2.8044 1.0944,-5.13 3.42,-6.9084 2.2572,-1.7784 5.6088,-2.6676 10.055,-2.6676 2.1888,0 4.446,0.342 6.7716,1.026 2.3256,0.684 4.446,1.71 6.3612,3.0096 l 1.2996,-2.8044 c -1.9152,-1.2996 -4.104,-2.3256 -6.6348,-3.1464 -2.5992,-0.7524 -5.1984,-1.1628 -7.7976,-1.1628 -3.8304,0 -6.9768,0.6156 -9.5076,1.71 -2.5308,1.1628 -4.3776,2.736 -5.6088,4.6512 -1.2312,1.9152 -1.8468,4.0356 -1.8468,6.3612 0,2.8728 0.684,5.1984 2.1888,6.9084 1.5048,1.71 3.2832,2.9412 5.4036,3.762 2.1204,0.8208 4.9248,1.71 8.4816,2.5308 3.078,0.7524 5.5404,1.4364 7.3872,2.1204 1.7784,0.684 3.3516,1.71 4.5828,2.9412 1.2312,1.2996 1.8468,3.0096 1.8468,5.13 0,2.8044 -1.1628,5.0616 -3.4884,6.7716 -2.3256,1.7784 -5.814,2.5992 -10.328,2.5992 -3.1464,0 -6.156,-0.5472 -9.0288,-1.6416 -2.8728,-1.0944 -5.13,-2.5992 -6.7716,-4.3776 l -1.5732,2.5992 c 1.7784,1.9152 4.2408,3.4884 7.3872,4.7196 z"
       style="font-variant-ligatures:none;fill:#1e64ea;stroke:#1e64ea;stroke-width:1.89999998;stroke-miterlimit:2"
       id="path338388" /><path
       stroke-miterlimit="2"
       d="m 230.81,435.11 v 44.734 h 3.4884 v -44.73 h 17.237 v -3.1464 h -37.962 v 3.1464 z"
       style="font-variant-ligatures:none;fill:#1b58d4;stroke:#1b58d4;stroke-width:1.89999998;stroke-miterlimit:2"
       id="path338390" /><path
       stroke-miterlimit="2"
       d="m 285.36,463.08 c 3.5568,-1.026 6.3612,-2.8044 8.2764,-5.4036 1.9152,-2.5992 2.9412,-5.7456 2.9412,-9.576 0,-4.9932 -1.71,-8.9604 -5.13,-11.833 -3.42,-2.8728 -8.1396,-4.3092 -14.159,-4.3092 h -17.17 v 3.1464 h 17.168 c 5.0616,0 8.9604,1.1628 11.696,3.42 2.6676,2.2572 4.0356,5.472 4.0356,9.576 0,4.1724 -1.368,7.3872 -4.0356,9.6444 -2.736,2.2572 -6.6348,3.3516 -11.696,3.3516 h -17.17 v 18.742 h 3.4884 v -15.66 h 13.68 c 1.368,0 2.9412,-0.0684 4.6512,-0.342 l 11.423,16.006 h 3.9672 z"
       style="font-variant-ligatures:none;fill:#184dbf;stroke:#184dbf;stroke-width:1.89999998;stroke-miterlimit:2"
       id="path338392" /><path
       stroke-miterlimit="2"
       d="m 309.41,431.96 v 47.88 h 3.4884 v -47.88 z"
       style="font-variant-ligatures:none;fill:#1541a9;stroke:#1541a9;stroke-width:1.89999998;stroke-miterlimit:2"
       id="path338394" /><path
       stroke-miterlimit="2"
       d="m 367.15,431.96 h -3.6252 l -19.357,43.366 -19.357,-43.366 h -3.8304 l 21.341,47.88 h 3.4884 z"
       style="font-variant-ligatures:none;fill:#123694;stroke:#123694;stroke-width:1.89999998;stroke-miterlimit:2"
       id="path338396" /><path
       stroke-miterlimit="2"
       d="m 405.86,453.99 h -30.985 v 3.078 h 30.985 z m 0,-22.025 h -30.985 v 3.1464 h 30.985 z m -30.985,44.734 v 3.1464 h 30.985 v -3.1464 z"
       style="font-variant-ligatures:none;fill:#0f2a7e;stroke:#0f2a7e;stroke-width:1.89999998;stroke-miterlimit:2"
       id="path338398" /><path
       stroke-miterlimit="2"
       d="m 455.84,431.96 h -3.4884 l -22.025,47.88 h 3.762 l 19.973,-44.05 20.041,44.05 h 3.762 z"
       style="font-variant-ligatures:none;fill:#1d18b7;stroke:#1d18b7;stroke-width:1.89999998;stroke-miterlimit:2"
       id="path338400" /><path
       stroke-miterlimit="2"
       d="m 493.41,477.04 c 3.762,2.1204 8.0028,3.1464 12.722,3.1464 3.42,0 6.5664,-0.5472 9.5076,-1.71 2.9412,-1.0944 5.472,-2.8044 7.524,-4.9932 l -2.1888,-2.2572 c -3.8988,3.8304 -8.8236,5.7456 -14.706,5.7456 -4.0356,0 -7.6608,-0.8892 -10.944,-2.736 -3.2832,-1.7784 -5.8824,-4.3092 -7.7292,-7.524 -1.9152,-3.2148 -2.8044,-6.84 -2.8044,-10.807 0,-3.9672 0.8892,-7.524 2.8044,-10.739 1.8468,-3.2148 4.446,-5.7456 7.7292,-7.5924 3.2832,-1.7784 6.9084,-2.736 10.944,-2.736 5.9508,0 10.876,1.9152 14.706,5.6772 l 2.1888,-2.2572 c -2.052,-2.1888 -4.5828,-3.8304 -7.4556,-4.9248 -2.9412,-1.0944 -6.156,-1.71 -9.576,-1.71 -4.7196,0 -8.9604,1.0944 -12.722,3.1464 -3.762,2.1204 -6.7032,4.9932 -8.892,8.6868 -2.1888,3.6936 -3.2148,7.866 -3.2148,12.449 0,4.6512 1.026,8.7552 3.2148,12.449 2.1888,3.6936 5.13,6.6348 8.892,8.6868 z"
       style="font-variant-ligatures:none;fill:#2119c5;stroke:#2119c5;stroke-width:1.89999998;stroke-miterlimit:2"
       id="path338402" /><path
       stroke-miterlimit="2"
       d="m 551.09,431.96 h -3.4884 l -22.025,47.88 h 3.762 l 19.973,-44.05 20.041,44.05 h 3.762 z"
       style="font-variant-ligatures:none;fill:#1e21b3;stroke:#1e21b3;stroke-width:1.89999998;stroke-miterlimit:2"
       id="path338404" /><path
       stroke-miterlimit="2"
       d="m 622.99,443.59 c -2.1888,-3.6252 -5.1984,-6.4296 -9.0288,-8.55 -3.8304,-2.052 -8.2764,-3.078 -13.201,-3.078 h -18.947 v 3.1464 h 18.673 c 4.3776,0 8.2764,0.8892 11.696,2.6676 3.3516,1.7784 5.9508,4.2408 7.7976,7.3188 1.7784,3.1464 2.736,6.7716 2.736,10.807 0,4.104 -0.9576,7.6608 -2.736,10.807 -1.8468,3.1464 -4.446,5.6088 -7.7976,7.3872 -3.42,1.7784 -7.3188,2.5992 -11.696,2.5992 h -15.185 v -20.794 h -3.4884 v 23.94 h 18.947 c 4.9248,0 9.3708,-1.026 13.201,-3.078 3.8304,-2.052 6.84,-4.8564 9.0288,-8.4816 2.1204,-3.6252 3.2148,-7.7292 3.2148,-12.38 0,-4.5828 -1.0944,-8.6868 -3.2148,-12.312 z"
       style="font-variant-ligatures:none;fill:#1b28a2;stroke:#1b28a2;stroke-width:1.89999998;stroke-miterlimit:2"
       id="path338406" /><path
       stroke-miterlimit="2"
       d="m 669.31,453.99 h -30.985 v 3.078 h 30.985 z m 0,-22.025 h -30.985 v 3.1464 h 30.985 z m -30.985,44.734 v 3.1464 h 30.985 v -3.1464 z"
       style="font-variant-ligatures:none;fill:#183091;stroke:#183091;stroke-width:1.89999998;stroke-miterlimit:2"
       id="path338408" /><path
       stroke-miterlimit="2"
       d="m 729.42,479.84 h 3.42 l -0.0684,-47.88 h -2.8728 l -21.409,37.004 -21.409,-37.004 h -2.9412 v 47.88 h 3.42 v -40.835 l 20.041,34.474 h 1.71 l 20.041,-34.61 z"
       style="font-variant-ligatures:none;fill:#153780;stroke:#153780;stroke-width:1.89999998;stroke-miterlimit:2"
       id="path338410" /><path
       stroke-miterlimit="2"
       d="m 749.47,431.96 v 47.88 h 3.4884 v -47.88 z"
       style="font-variant-ligatures:none;fill:#113f6e;stroke:#113f6e;stroke-width:1.89999998;stroke-miterlimit:2"
       id="path338412" /><path
       stroke-miterlimit="2"
       d="m 777.17,477.04 c 3.762,2.1204 8.0028,3.1464 12.722,3.1464 3.42,0 6.5664,-0.5472 9.5076,-1.71 2.9412,-1.0944 5.472,-2.8044 7.524,-4.9932 l -2.1888,-2.2572 c -3.8988,3.8304 -8.8236,5.7456 -14.706,5.7456 -4.0356,0 -7.6608,-0.8892 -10.944,-2.736 -3.2832,-1.7784 -5.8824,-4.3092 -7.7292,-7.524 -1.9152,-3.2148 -2.8044,-6.84 -2.8044,-10.807 0,-3.9672 0.8892,-7.524 2.8044,-10.739 1.8468,-3.2148 4.446,-5.7456 7.7292,-7.5924 3.2832,-1.7784 6.9084,-2.736 10.944,-2.736 5.9508,0 10.876,1.9152 14.706,5.6772 l 2.1888,-2.2572 c -2.052,-2.1888 -4.5828,-3.8304 -7.4556,-4.9248 -2.9412,-1.0944 -6.156,-1.71 -9.576,-1.71 -4.7196,0 -8.9604,1.0944 -12.722,3.1464 -3.762,2.1204 -6.7032,4.9932 -8.892,8.6868 -2.1888,3.6936 -3.2148,7.866 -3.2148,12.449 0,4.6512 1.026,8.7552 3.2148,12.449 2.1888,3.6936 5.13,6.6348 8.892,8.6868 z"
       style="font-variant-ligatures:none;fill:#0e465d;stroke:#0e465d;stroke-width:1.89999998;stroke-miterlimit:2"
       id="path338414" /><path
       stroke-miterlimit="2"
       d="m 820.94,478.41 c 3.1464,1.2312 6.498,1.7784 10.055,1.7784 3.762,0 6.9768,-0.5472 9.576,-1.71 2.5992,-1.0944 4.5144,-2.6676 5.7456,-4.5828 1.2312,-1.9152 1.9152,-4.0356 1.9152,-6.3612 0,-2.8044 -0.7524,-5.0616 -2.2572,-6.7032 -1.5048,-1.6416 -3.2832,-2.9412 -5.3352,-3.762 -2.1204,-0.8208 -4.9248,-1.6416 -8.4132,-2.5308 -3.1464,-0.7524 -5.6772,-1.5048 -7.4556,-2.1888 -1.8468,-0.684 -3.3516,-1.6416 -4.5828,-2.9412 -1.2312,-1.2312 -1.8468,-2.9412 -1.8468,-5.13 0,-2.8044 1.0944,-5.13 3.42,-6.9084 2.2572,-1.7784 5.6088,-2.6676 10.055,-2.6676 2.1888,0 4.446,0.342 6.7716,1.026 2.3256,0.684 4.446,1.71 6.3612,3.0096 l 1.2996,-2.8044 c -1.9152,-1.2996 -4.104,-2.3256 -6.6348,-3.1464 -2.5992,-0.7524 -5.1984,-1.1628 -7.7976,-1.1628 -3.8304,0 -6.9768,0.6156 -9.5076,1.71 -2.5308,1.1628 -4.3776,2.736 -5.6088,4.6512 -1.2312,1.9152 -1.8468,4.0356 -1.8468,6.3612 0,2.8728 0.684,5.1984 2.1888,6.9084 1.5048,1.71 3.2832,2.9412 5.4036,3.762 2.1204,0.8208 4.9248,1.71 8.4816,2.5308 3.078,0.7524 5.5404,1.4364 7.3872,2.1204 1.7784,0.684 3.3516,1.71 4.5828,2.9412 1.2312,1.2996 1.8468,3.0096 1.8468,5.13 0,2.8044 -1.1628,5.0616 -3.4884,6.7716 -2.3256,1.7784 -5.814,2.5992 -10.328,2.5992 -3.1464,0 -6.156,-0.5472 -9.0288,-1.6416 -2.8728,-1.0944 -5.13,-2.5992 -6.7716,-4.3776 l -1.5732,2.5992 c 1.7784,1.9152 4.2408,3.4884 7.3872,4.7196 z"
       style="font-variant-ligatures:none;fill:#0b4e4c;stroke:#0b4e4c;stroke-width:1.89999998;stroke-miterlimit:2"
       id="path338416" /><path
       style="fill:#1366d3;stroke-width:1.005"
       d="m 518.11,293.75 c -0.11056,-0.0111 -14.809,5.2552 -43.652,15.64 -23.917,8.6098 -43.473,15.667 -43.459,15.681 0.014,0.014 1.9177,0.83985 4.2305,1.8356 2.3128,0.99575 7.7385,3.3276 12.056,5.1816 4.3183,1.854 21.982,9.439 39.254,16.855 17.272,7.4167 31.467,13.484 31.543,13.484 0.0771,-5.6e-4 9.8708,-4.1825 21.764,-9.2936 11.8932,-5.1111 28.062,-12.054 35.93,-15.428 7.8676,-3.3739 15.889,-6.8182 17.825,-7.6536 1.9361,-0.83537 5.3056,-2.286 7.4876,-3.223 2.1821,-0.93764 3.9874,-1.7239 4.0126,-1.7479 0.0251,-0.0235 -0.21402,-0.13578 -0.53084,-0.24977 -0.3216,-0.11357 -19.869,-7.1506 -43.436,-15.637 -23.577,-8.4872 -42.935,-15.437 -43.027,-15.445 z m 71.174,44.669 c -0.0229,-0.0112 -0.92198,0.3593 -1.9976,0.8242 l -1.9557,0.84432 -0.014,24.458 -0.014,24.458 h 4.0232 v -25.282 c 0,-13.905 -0.019,-25.291 -0.0419,-25.303 z m -124.6,7.7244 c -0.0145,0 -0.0201,5.0855 -0.0123,11.301 l 0.014,11.301 26.694,11.529 26.694,11.53 26.739,-11.418 26.739,-11.418 5.6e-4,-11.307 c 5.6e-4,-9.0237 -0.0134,-11.301 -0.0693,-11.278 -0.0386,0.0156 -12.064,5.1519 -26.724,11.414 l -26.654,11.385 -0.30733,-0.11567 c -0.16984,-0.0704 -12.185,-5.2562 -26.699,-11.527 -14.514,-6.2712 -26.401,-11.407 -26.416,-11.407 z m 122.63,45.034 h -2.5095 l -0.1084,0.15366 c -0.0598,0.0844 -1.1678,1.9848 -2.4626,4.2227 -1.2946,2.2379 -2.3541,4.0797 -2.3541,4.0931 0,0.0135 3.3443,0.024 7.4318,0.024 4.0874,0 7.4318,-0.008 7.4318,-0.019 0,-0.0106 -1.0455,-1.8278 -2.3229,-4.0372 -1.278,-2.21 -2.3849,-4.1127 -2.4597,-4.2277 l -0.13635,-0.20954 z"
       id="icon" /></g></svg>