<svg width="461" height="505" viewBox="0 0 461 505" fill="none" xmlns="http://www.w3.org/2000/svg">
<path d="M229.122 232.284V232.295L229.144 232.306L229.122 232.284Z" fill="#F5F5F5"/>
<path d="M229.248 232.463L229.195 232.515H229.321L229.248 232.463Z" fill="#F5F5F5"/>
<path d="M229.416 232.505V232.515H229.448L229.416 232.505Z" fill="#F5F5F5"/>
<path d="M229.332 232.515H229.406L229.353 232.484L229.332 232.515Z" fill="#F5F5F5"/>
<path d="M229.09 232.473L229.079 232.41L228.743 232.305L229.048 232.505L229.09 232.473Z" fill="#F5F5F5"/>
<path d="M229.101 232.421V232.473L229.143 232.452L229.101 232.421Z" fill="#F5F5F5"/>
<path d="M229.395 232.442L229.385 232.463L229.406 232.473L229.395 232.442Z" fill="#F5F5F5"/>
<path d="M229.343 232.484H229.321L229.332 232.506L229.343 232.484Z" fill="#F5F5F5"/>
<path d="M229.142 232.442L229.163 232.431L229.132 232.421L229.142 232.442Z" fill="#F5F5F5"/>
<path d="M229.374 232.41L229.332 232.431L229.353 232.442L229.374 232.41Z" fill="#F5F5F5"/>
<path d="M215.349 134.064L229.237 231.423L243.009 134.064H243.229L261.634 2.87892C239.899 -0.111626 217.85 -0.0019822 196.146 3.20457L214.961 134.064H215.349Z" fill="#F5F5F5"/>
<path d="M270.469 142.089L229.5 232.211L380.581 56.7794C363.894 42.3267 345.214 30.3509 325.115 21.2205L270.29 142.026L270.469 142.089Z" fill="#F5F5F5"/>
<path d="M134.116 204.604L228.502 232.242H228.134L229.048 232.505H229.111V232.452L229.185 232.505H229.059L229.132 232.557L229.511 232.725L229.195 232.526L324.138 260.322C324.126 260.393 324.108 260.463 324.086 260.532L449.976 297.53C456.477 276.368 459.891 254.379 460.113 232.242H328.414V232.41L229.49 232.515V232.431L229.92 232.295L229.563 232.526L230.445 232.274H230.015L451.079 166.744C444.91 145.45 435.689 125.161 423.704 106.509L229.91 232.242H229.574L229.71 232.074L229.458 232.242L229.553 231.706L229.374 232.106V232.242L229.258 232.326V232.242H229.185V232.106L229.006 231.759L229.069 232.2L228.87 232.074L228.975 232.19H228.649L35.5382 107.896C23.7569 126.501 14.7174 146.706 8.69824 167.889L134.116 204.656V204.604ZM229.195 232.484V232.547L228.891 232.347L229.195 232.484Z" fill="#F5F5F5"/>
<path d="M164.244 157.416L229.006 232.158L187.911 142.131L133.034 22.1238C113.095 31.4222 94.5904 43.5276 78.083 58.0714L164.223 157.426L164.244 157.416Z" fill="#F5F5F5"/>
<path d="M422.369 357.05L312.687 286.237C312.666 286.266 312.648 286.298 312.635 286.332L229.646 232.904L294.346 307.488L294.188 307.625L379.225 405.93C395.841 391.754 410.366 375.298 422.369 357.05Z" fill="#F5F5F5"/>
<path d="M229.385 232.737V232.726L229.374 232.715L229.385 232.737Z" fill="#F5F5F5"/>
<path d="M229.153 232.536L229.143 232.568L229.101 232.547L229.111 232.62L229.122 232.61L229.185 232.599L229.153 232.578L229.174 232.547H229.195L229.185 232.536L229.195 232.515H229.101L229.153 232.536Z" fill="#F5F5F5"/>
<path d="M228.681 232.746L229.069 232.631L229.09 232.536L229.059 232.515L228.681 232.746Z" fill="#F5F5F5"/>
<path d="M228.838 232.936L146.071 286.636L145.881 286.332L37.4082 356.525C49.3002 374.709 63.697 391.125 80.1735 405.289L176.892 293.265L228.838 232.936Z" fill="#F5F5F5"/>
<path d="M134.168 260.616L229.006 232.515L0 232.809C0.163089 254.689 3.44926 276.433 9.75902 297.383L134.147 260.679L134.168 260.616Z" fill="#F5F5F5"/>
<path d="M134.809 440.238C154.614 449.25 175.604 455.387 197.144 458.464L229.006 233.272L134.809 440.238Z" fill="#F5F5F5"/>
<path d="M229.406 232.61V232.568L229.385 232.578L229.406 232.61Z" fill="#F5F5F5"/>
<path d="M261.666 458.664C283.259 455.704 304.318 449.669 324.202 440.743L229.511 233.251L261.666 458.664Z" fill="#F5F5F5"/>
<path d="M229.153 232.893L229.258 233.639L229.363 232.914L229.248 232.683L229.153 232.893Z" fill="#F5F5F5"/>
<path d="M229.374 232.589L229.353 232.6L229.374 232.611V232.589Z" fill="#F5F5F5"/>
<path d="M460.113 495.799C460.113 495.956 357.102 496.072 230.057 496.072C103.011 496.072 0 495.956 0 495.799C0 495.641 102.948 495.526 230.057 495.526C357.165 495.526 460.113 495.652 460.113 495.799Z" fill="#263238"/>
<path d="M290.271 115.712C290.271 115.712 323.613 187.145 298.517 253.683C273.421 320.22 181.241 415.594 171.019 420.678C171.019 420.678 194.666 383.523 151.491 383.827C108.316 384.132 86.6339 373.617 81.9907 358.479C77.3476 343.342 103 294.452 79.4065 282.708C55.8126 270.963 27.1343 274.482 7.87891 258.189C7.87891 258.189 52.7872 254.449 85.9406 251.067C120.743 247.516 225.33 174.675 233.776 121.09" fill="#FF4848"/>
<g opacity="0.4">
<path d="M290.271 115.712C290.271 115.712 323.613 187.145 298.517 253.683C273.421 320.22 181.241 415.594 171.019 420.678C171.019 420.678 194.666 383.523 151.491 383.827C108.316 384.132 86.6339 373.617 81.9907 358.479C77.3476 343.342 103 294.452 79.4065 282.708C55.8126 270.963 27.1343 274.482 7.87891 258.189C7.87891 258.189 52.7872 254.449 85.9406 251.067C120.743 247.516 225.33 174.675 233.776 121.09" fill="black"/>
</g>
<path d="M168.95 238.713C168.766 238.875 168.57 239.023 168.362 239.154L166.608 240.341C165.095 241.392 162.858 242.8 160.063 244.543C154.475 247.968 146.565 252.432 137.541 256.761C129.834 260.455 121.945 263.758 113.905 266.656C110.817 267.759 108.306 268.61 106.552 269.146L104.535 269.766C104.304 269.851 104.064 269.911 103.82 269.944C104.035 269.829 104.26 269.734 104.493 269.66L106.478 268.946C108.211 268.347 110.68 267.444 113.768 266.288C119.903 263.998 128.286 260.584 137.31 256.267C146.334 251.949 154.223 247.548 159.864 244.207C162.679 242.547 164.948 241.161 166.492 240.194L168.299 239.091C168.502 238.942 168.72 238.815 168.95 238.713Z" fill="#263238"/>
<path d="M197.323 278.317C197.097 278.52 196.859 278.71 196.609 278.884L194.508 280.418C192.67 281.731 190.043 283.663 186.829 286.09C180.379 290.922 171.628 297.814 162.363 305.902C153.098 313.991 145.093 321.744 139.431 327.479C136.605 330.347 134.336 332.732 132.781 334.328L130.985 336.198C130.778 336.422 130.557 336.633 130.323 336.829C130.501 336.582 130.694 336.347 130.901 336.125L132.624 334.181C134.137 332.501 136.364 330.116 139.158 327.217C144.746 321.397 152.73 313.56 161.995 305.493C171.261 297.425 180.085 290.534 186.598 285.775C189.844 283.39 192.512 281.51 194.382 280.239L196.483 278.789C196.744 278.6 197.026 278.441 197.323 278.317Z" fill="#263238"/>
<path d="M193.489 290.019C193.401 290.164 193.295 290.298 193.174 290.418L192.197 291.469C191.336 292.383 190.096 293.675 188.478 295.24C185.327 298.391 180.81 302.593 175.631 307.058C170.452 311.522 165.588 315.294 161.975 317.962C160.178 319.286 158.708 320.347 157.678 321.05L156.491 321.859C156.355 321.962 156.207 322.047 156.05 322.111C156.05 322.111 156.176 321.975 156.428 321.765L157.552 320.882L161.754 317.647C165.273 314.916 170.095 311.071 175.253 306.638C180.411 302.205 184.959 298.034 188.195 294.967L192.018 291.322L193.069 290.334C193.342 290.114 193.468 290.009 193.489 290.019Z" fill="#263238"/>
<path d="M187.869 458.664L182.491 482.993L172.69 500.999C172.521 501.306 172.417 501.644 172.386 501.993C172.354 502.342 172.394 502.693 172.505 503.026C172.615 503.358 172.793 503.664 173.027 503.924C173.262 504.185 173.547 504.394 173.866 504.539C174.235 504.709 174.639 504.788 175.045 504.77C175.451 504.752 175.846 504.636 176.198 504.434C180.758 501.797 197.492 492.017 197.786 490.221C198.122 488.12 205.139 464.935 205.139 464.935L187.869 458.664Z" fill="#263238"/>
<path d="M198.542 487.826C198.265 488.104 197.954 488.348 197.618 488.55L194.981 490.336L186.251 496.187L177.532 502.049C176.482 502.732 175.6 503.32 174.875 503.803C174.55 504.039 174.197 504.233 173.824 504.381C174.094 504.098 174.393 503.844 174.717 503.625C175.316 503.163 176.188 502.522 177.28 501.723C179.455 500.148 182.533 498.015 185.915 495.725C189.298 493.435 192.449 491.429 194.739 490.021C195.884 489.307 196.84 488.739 197.471 488.372C197.805 488.148 198.165 487.965 198.542 487.826Z" fill="#455A64"/>
<path d="M295.733 464.484L294.273 483.876C294.273 483.876 313.539 491.881 313.623 495.494H275.806L276.856 463.654L295.733 464.484Z" fill="#263238"/>
<path d="M312.436 494.244C311.954 494.298 311.468 494.298 310.986 494.244L307.037 494.118C303.706 494.013 299.105 493.866 294.011 493.803C288.916 493.74 284.325 493.74 280.984 493.803H277.035C276.551 493.835 276.064 493.814 275.585 493.74C276.062 493.643 276.548 493.594 277.035 493.593C277.959 493.53 279.314 493.467 280.984 493.404C284.315 493.288 288.926 493.214 294.021 493.288C299.116 493.362 303.727 493.551 307.058 493.761C308.717 493.866 310.062 493.971 310.997 494.055C311.481 494.081 311.962 494.144 312.436 494.244Z" fill="#455A64"/>
<path d="M211.053 268.852L177.658 475.073L208.332 476.922L255.667 268.852H211.053Z" fill="#FF4848"/>
<path d="M256.225 259.859L271.635 476.922H300.492V247.096L256.225 259.859Z" fill="#FF4848"/>
<path d="M290.05 463.349C289.893 463.349 287.571 420.374 284.85 367.345C282.13 314.317 280.039 271.31 280.197 271.299C280.354 271.289 282.676 314.275 285.397 367.314C288.117 420.353 290.197 463.349 290.05 463.349Z" fill="#263238"/>
<path d="M300.492 463.349L300.271 463.423C300.082 463.423 299.788 463.528 299.42 463.58C298.675 463.706 297.582 463.853 296.269 464.022C293.59 464.347 289.871 464.736 285.764 465.072C277.56 465.818 270.858 466.122 270.868 465.744C270.868 465.744 270.973 465.744 271.162 465.744H272.034L275.186 465.492L285.691 464.578L296.195 463.654C298.864 463.454 300.607 463.328 300.492 463.349Z" fill="#263238"/>
<path d="M229.238 273.705C229.238 273.705 229.238 273.873 229.185 274.199C229.133 274.524 229.07 275.007 228.986 275.617C228.797 276.888 228.513 278.716 228.156 281.058C227.431 285.785 226.338 292.614 224.941 301.017C222.157 317.888 218.103 341.167 213.186 366.799C208.27 392.431 203.396 415.552 199.74 432.265C197.912 440.617 196.389 447.371 195.318 452.025C194.782 454.336 194.362 456.143 194.067 457.393L193.731 458.78C193.647 459.095 193.595 459.252 193.595 459.252C193.595 459.252 193.595 459.084 193.679 458.769C193.763 458.454 193.836 457.96 193.962 457.361C194.225 456.111 194.614 454.305 195.107 451.983C196.158 447.277 197.566 440.522 199.362 432.181C202.923 415.458 207.766 392.326 212.651 366.694C217.535 341.062 221.653 317.899 224.563 300.986C225.992 292.582 227.147 285.764 227.946 281.027C228.345 278.684 228.66 276.825 228.881 275.596C228.986 274.997 229.07 274.545 229.133 274.188C229.196 273.831 229.238 273.705 229.238 273.705Z" fill="#263238"/>
<path d="M211.421 463.349C211.008 463.415 210.589 463.432 210.171 463.402L206.778 463.318L195.58 462.866L184.392 462.341L180.999 462.183C180.585 462.182 180.171 462.157 179.76 462.11C181.298 461.896 182.854 461.843 184.403 461.952C187.271 461.952 191.231 462.131 195.601 462.32C199.971 462.509 203.931 462.74 206.789 462.929C208.228 463.024 209.383 463.108 210.182 463.181C210.6 463.195 211.015 463.251 211.421 463.349Z" fill="#263238"/>
<g opacity="0.3">
<path d="M209.436 278.884L210.097 274.787L254.869 272.255L253.178 279.724L209.436 278.884Z" fill="black"/>
</g>
<g opacity="0.3">
<path d="M257.496 279.724L256.225 272.224L300.492 270.039L300.482 280.649L257.496 279.724Z" fill="black"/>
</g>
<path d="M213.932 116.395L245.184 109.44L271.446 110.522L294.346 117.802L281.32 183.121L231.464 187.544L213.932 116.395Z" fill="#263238"/>
<path d="M240.436 110.522L207.556 117.802L223.996 205.865C223.996 205.865 209.289 241.581 207.556 274.787L256.225 272.224C256.225 272.224 259.576 228.46 258.431 211.611C257.286 194.761 256.519 165.284 256.519 165.284L240.436 110.522Z" fill="#FF4848"/>
<path d="M146.417 161.051C146.417 161.051 157.573 149.737 169.213 143.655C177.795 139.169 194.603 133.538 201.284 126.311C203.727 123.745 205.844 120.887 207.587 117.802L215.35 159.275L182.354 164.528C182.354 164.528 187.26 167.207 184.203 169.118L204.877 193.28L190.706 220.004C190.706 220.004 144.505 180.201 146.417 161.051Z" fill="#FF4848"/>
<path d="M271.446 110.522C275.442 111.021 279.39 111.843 283.253 112.98C290.25 115.292 302.078 117.802 302.078 117.802L285.27 207.02C285.27 207.02 308.118 235.257 302.078 269.808C302.078 269.808 270.511 272.297 256.224 272.224L256.035 163.666C256.035 163.666 268 148.434 269.534 133.496C271.068 118.559 271.446 110.522 271.446 110.522Z" fill="#FF4848"/>
<path d="M302.078 117.802C302.078 117.802 320.913 137.31 331.282 144.674C341.65 152.037 354.697 163.057 354.697 168.919C354.488 172.587 353.741 176.204 352.481 179.655C351.756 181.822 350.692 183.861 349.329 185.695C344.57 191.998 331.965 208.449 323.634 216.254L302.624 194.12L322.584 172.06C322.584 172.06 295.796 161.009 294.473 158.004C293.149 155 302.078 117.802 302.078 117.802Z" fill="#FF4848"/>
<path d="M255.835 175.432C255.661 175.304 255.499 175.16 255.352 175.001L254.039 173.688L249.217 168.73L232.872 151.659L232.777 151.554V151.407L234.941 142.331C235.267 140.976 235.582 139.642 235.897 138.318L236.16 138.654H225.424L225.529 138.318C228.071 130.618 230.246 124.021 231.832 119.294C232.609 116.993 233.229 115.155 233.681 113.831C233.891 113.233 234.059 112.781 234.195 112.392C234.244 112.221 234.311 112.055 234.395 111.898C234.368 112.073 234.325 112.245 234.269 112.413C234.164 112.791 234.017 113.275 233.838 113.884L232.157 119.357C230.634 124.105 228.523 130.723 226.065 138.444L225.823 138.108H236.233H236.58L236.506 138.444C236.191 139.768 235.866 141.102 235.551 142.457C234.794 145.609 234.069 148.634 233.376 151.533L233.302 151.292L249.511 168.499L254.218 173.573L255.468 174.959C255.605 175.105 255.728 175.263 255.835 175.432Z" fill="#263238"/>
<path d="M256.224 272.224C256.077 272.224 255.877 247.737 255.783 217.535C255.688 187.334 255.73 162.837 255.877 162.826C256.025 162.816 256.224 187.313 256.329 217.535C256.434 247.758 256.382 272.224 256.224 272.224Z" fill="#263238"/>
<path d="M276.489 111.321C276.558 111.511 276.608 111.708 276.636 111.909C276.709 112.35 276.814 112.959 276.951 113.632C277.213 115.197 277.581 117.371 278.001 120.071L281.552 142.058L281.604 142.415H281.247L275.449 141.638L275.732 141.249L276.919 143.665C277.718 145.293 278.505 146.901 279.262 148.424L279.335 148.581L279.23 148.708L263.956 167.784L259.376 173.425L258.116 174.938C257.983 175.122 257.828 175.288 257.653 175.432C257.769 175.237 257.899 175.051 258.042 174.875L259.219 173.31L263.673 167.564L278.831 148.319V148.613C278.085 147.09 277.297 145.462 276.489 143.854L275.228 141.417L274.997 140.955L275.512 141.018L281.31 141.816L281.016 142.121C279.672 133.328 278.495 125.649 277.655 120.061C277.266 117.35 276.951 115.165 276.72 113.6C276.629 112.9 276.555 112.322 276.499 111.867C276.481 111.685 276.477 111.503 276.489 111.321Z" fill="#263238"/>
<path d="M251.655 236.738C250.541 235.383 248.367 234.637 247.316 236.003C246.785 236.439 246.4 237.027 246.212 237.687C246.025 238.348 246.043 239.051 246.266 239.701C246.445 240.097 246.702 240.454 247.021 240.749C247.341 241.045 247.716 241.274 248.125 241.423C248.534 241.572 248.969 241.637 249.404 241.616C249.838 241.594 250.264 241.486 250.657 241.297C251.038 241.078 251.369 240.782 251.629 240.428C251.888 240.073 252.071 239.668 252.165 239.239C252.259 238.809 252.262 238.365 252.174 237.934C252.086 237.504 251.909 237.096 251.655 236.738Z" fill="#263238"/>
<path d="M252.243 208.386C251.129 207.02 248.955 206.232 247.904 207.65C247.376 208.088 246.992 208.676 246.805 209.336C246.617 209.996 246.634 210.698 246.854 211.348C247.032 211.745 247.289 212.103 247.608 212.4C247.927 212.696 248.302 212.926 248.712 213.075C249.121 213.224 249.556 213.289 249.992 213.266C250.427 213.244 250.853 213.135 251.245 212.945C251.626 212.726 251.957 212.43 252.217 212.075C252.477 211.72 252.659 211.316 252.753 210.886C252.847 210.457 252.85 210.013 252.763 209.582C252.675 209.151 252.498 208.744 252.243 208.386Z" fill="#263238"/>
<path d="M327.269 206.043C326.156 204.688 323.981 203.942 322.931 205.308C322.401 205.745 322.017 206.332 321.829 206.993C321.641 207.653 321.659 208.355 321.88 209.005C322.058 209.403 322.315 209.76 322.634 210.057C322.953 210.354 323.329 210.583 323.738 210.732C324.147 210.881 324.583 210.946 325.018 210.924C325.453 210.902 325.879 210.792 326.271 210.602C326.652 210.383 326.983 210.087 327.243 209.732C327.503 209.378 327.686 208.973 327.779 208.544C327.873 208.114 327.877 207.67 327.789 207.239C327.701 206.809 327.524 206.401 327.269 206.043Z" fill="#263238"/>
<path d="M190.464 208.648C189.351 207.283 187.176 206.495 186.126 207.913C185.596 208.35 185.212 208.938 185.024 209.598C184.837 210.259 184.854 210.961 185.075 211.611C185.254 212.008 185.51 212.366 185.829 212.662C186.148 212.959 186.524 213.188 186.933 213.337C187.343 213.486 187.778 213.551 188.213 213.529C188.648 213.507 189.074 213.397 189.466 213.207C189.847 212.988 190.179 212.692 190.438 212.338C190.698 211.983 190.881 211.578 190.975 211.149C191.069 210.72 191.072 210.275 190.984 209.845C190.896 209.414 190.719 209.007 190.464 208.648Z" fill="#263238"/>
<path d="M184.466 169.507C181.839 168.287 179.034 167.493 176.157 167.154C173.267 166.998 170.371 167.296 167.574 168.036C168.32 167.598 169.133 167.286 169.98 167.112C174.071 166.065 178.396 166.435 182.25 168.163C183.059 168.483 183.808 168.938 184.466 169.507Z" fill="#263238"/>
<path d="M167.574 164.528C168.215 164.104 168.927 163.798 169.675 163.624C171.471 163.086 173.337 162.821 175.211 162.837C177.089 162.853 178.955 163.147 180.747 163.709C181.492 163.908 182.201 164.224 182.848 164.643C180.354 163.925 177.783 163.502 175.19 163.383C172.614 163.454 170.057 163.838 167.574 164.528Z" fill="#263238"/>
<path d="M216.296 164.633C216.104 164.059 215.953 163.473 215.844 162.879L214.793 158.067C213.806 153.939 212.482 148.382 211.022 142.237C209.562 136.091 208.385 130.408 207.734 126.28C207.398 124.179 207.167 122.55 207.051 121.395C206.954 120.798 206.908 120.193 206.915 119.588C207.073 120.171 207.189 120.764 207.261 121.363C207.44 122.508 207.734 124.168 208.112 126.217C208.858 130.313 210.087 135.934 211.558 142.11C213.029 148.287 214.342 153.907 215.172 157.994C215.592 160.032 215.907 161.692 216.085 162.837C216.204 163.429 216.274 164.029 216.296 164.633Z" fill="#263238"/>
<path d="M300.912 119.819C300.889 120.441 300.811 121.06 300.681 121.668C300.481 122.939 300.208 124.62 299.872 126.668C299.168 130.965 298.222 136.763 297.182 143.161C296.142 149.558 295.081 155.42 294.325 159.622C293.926 161.723 293.59 163.425 293.338 164.601C293.243 165.215 293.095 165.82 292.896 166.408C292.918 165.778 292.981 165.15 293.086 164.528C293.296 163.257 293.569 161.576 293.894 159.527C294.598 155.22 295.554 149.432 296.594 143.035C297.634 136.637 298.695 130.776 299.452 126.563C299.851 124.462 300.187 122.771 300.428 121.594C300.549 120.992 300.711 120.399 300.912 119.819Z" fill="#263238"/>
<path d="M336.745 161.229C336.745 161.324 335.579 161.229 333.73 161.324C331.327 161.345 329.001 162.17 327.122 163.666C325.407 165.349 324.136 167.432 323.425 169.728C323.131 170.693 322.78 171.64 322.374 172.564C322.49 171.553 322.723 170.559 323.067 169.602C323.701 167.185 324.983 164.987 326.776 163.246C327.826 162.34 329.075 161.692 330.421 161.355C331.502 161.077 332.614 160.936 333.73 160.935C334.474 160.928 335.218 160.97 335.957 161.061C336.228 161.066 336.495 161.123 336.745 161.229Z" fill="#263238"/>
<path d="M341.755 166.135C341.755 166.23 340.6 166.135 338.751 166.261C333.922 166.542 329.253 168.097 325.221 170.768C323.666 171.818 322.794 172.533 322.731 172.459C322.668 172.386 322.899 172.217 323.277 171.86C323.82 171.351 324.396 170.877 325 170.442C329.003 167.545 333.8 165.95 338.74 165.873C339.481 165.86 340.221 165.895 340.957 165.978C341.231 165.98 341.501 166.033 341.755 166.135Z" fill="#263238"/>
<path d="M231.863 208.386C230.645 208.081 229.456 207.666 228.313 207.146C227.11 206.792 225.942 206.328 224.825 205.759C226.096 205.806 227.346 206.102 228.502 206.631C229.724 206.996 230.865 207.591 231.863 208.386Z" fill="#263238"/>
<path d="M233.208 197.828C233.292 197.954 230.834 199.635 228.072 202.03C225.309 204.425 223.271 206.589 223.155 206.474C224.431 204.64 225.967 203.001 227.714 201.61C229.349 200.085 231.2 198.811 233.208 197.828Z" fill="#263238"/>
<path d="M302.078 269.808C302.078 269.965 280.932 271.194 254.806 272.57C228.68 273.947 207.534 274.944 207.534 274.787C207.534 274.629 228.68 273.4 254.806 272.024C280.932 270.648 302.067 269.661 302.078 269.808Z" fill="#263238"/>
<g opacity="0.3">
<path d="M321.576 171.493C320.914 169.463 320.916 167.276 321.581 165.247C322.246 163.219 323.539 161.455 325.273 160.21C325.986 159.63 326.9 159.354 327.815 159.443C328.038 159.476 328.25 159.555 328.44 159.675C328.629 159.796 328.79 159.955 328.914 160.143C329.037 160.331 329.119 160.542 329.154 160.764C329.189 160.986 329.177 161.212 329.118 161.429C328.81 161.921 328.364 162.311 327.836 162.553C326.24 163.644 325.034 165.215 324.391 167.038C323.754 168.849 323.313 170.722 323.078 172.627" fill="black"/>
</g>
<g opacity="0.3">
<path d="M225.781 138.36C225.97 138.927 229.731 139.358 230.445 140.913C230.998 142.541 230.998 144.306 230.445 145.934C229.901 147.558 229.642 149.264 229.679 150.977C229.994 154.023 232.494 156.324 234.826 158.33C241.339 163.887 249.27 169.885 255.836 175.453C250.016 168.52 242.431 161.376 236.023 155.073C235.009 154.211 234.198 153.135 233.649 151.922C233.27 150.275 233.372 148.554 233.944 146.964C234.49 144.814 235.043 142.66 235.603 140.503C235.74 139.946 236.066 139.012 236.139 138.707C235.362 138.571 234.575 138.504 233.786 138.507C231.122 138.305 228.448 138.284 225.781 138.444" fill="black"/>
</g>
<path d="M189.603 211.18C189.678 210.88 189.791 210.59 189.939 210.318C190.191 209.783 190.579 209.016 191.084 208.081C192.425 205.657 193.934 203.329 195.601 201.116C197.259 198.889 199.074 196.783 201.032 194.813C201.788 194.067 202.418 193.479 202.87 193.091C203.322 192.702 203.574 192.502 203.606 192.534C202.89 193.426 202.125 194.278 201.315 195.086C199.887 196.641 197.975 198.837 196.063 201.389C194.151 203.942 192.544 206.421 191.451 208.218C190.895 209.241 190.278 210.23 189.603 211.18Z" fill="#263238"/>
<path d="M197.386 185.159C197.449 185.233 196.241 186.399 194.434 188.416C189.714 193.676 185.891 199.678 183.121 206.18C182.07 208.669 181.503 210.256 181.419 210.235C181.474 209.841 181.569 209.454 181.703 209.079C181.913 208.344 182.27 207.304 182.753 206.033C185.352 199.396 189.22 193.33 194.14 188.174C195.086 187.187 195.874 186.431 196.451 185.926C196.737 185.64 197.05 185.384 197.386 185.159Z" fill="#263238"/>
<path d="M332.784 206.4C332.471 206.147 332.189 205.858 331.943 205.539L329.769 203.123C327.92 201.095 325.304 198.332 322.342 195.37C319.38 192.408 316.606 189.802 314.568 187.964L312.142 185.79C311.823 185.544 311.534 185.262 311.28 184.949C311.641 185.129 311.976 185.355 312.278 185.622C312.898 186.084 313.77 186.777 314.82 187.67C316.921 189.445 319.747 192.019 322.72 195.023C325.693 198.028 328.277 200.801 330.073 202.913C330.966 203.963 331.66 204.835 332.174 205.444C332.413 205.739 332.618 206.059 332.784 206.4Z" fill="#263238"/>
<path d="M201.882 198.858L208.763 202.566L224.027 206.894C224.027 206.894 220.875 227.778 218.89 229.563C216.904 231.349 194.603 212.588 194.603 212.588L201.882 198.858Z" fill="#FFBE9D"/>
<path d="M305.933 197.608L300.965 201.473L286.646 208.291C286.646 208.291 293.265 228.345 295.492 229.774C297.719 231.202 316.606 208.995 316.606 208.995L305.933 197.608Z" fill="#FFBE9D"/>
<path d="M235.446 46.8733C235.246 52.2518 228.092 55.5083 228.176 60.8868C228.176 63.1873 229.647 65.2673 229.931 67.5574C230.309 70.6353 228.586 73.5346 227.945 76.5705C226.643 82.8735 230.277 89.4285 235.677 92.8531C241.076 96.2777 247.841 96.929 254.176 96.0676" fill="#263238"/>
<path d="M278.705 45.5917C278.495 48.4805 280.396 51.0542 282.319 53.2182C284.241 55.3822 286.374 57.6408 286.783 60.5296C287.519 65.6034 282.581 70.3096 283.579 75.3415C284.126 78.0307 286.332 80.1947 286.731 82.9155C287.13 85.6362 285.68 88.1679 283.957 90.1218C282.235 92.0757 280.186 91.8236 278.642 93.9876C276.845 96.4162 274.563 98.4446 271.94 99.9439C266.372 103.001 259.691 98.5887 257.002 97.8429" fill="#263238"/>
<path d="M234.364 50.0248C234.291 47.4091 236.707 45.3816 239.144 44.4257C241.581 43.4697 244.291 43.1126 246.497 41.6419C248.42 40.3498 249.712 38.3329 251.34 36.6836C253.347 34.6506 255.858 33.1873 258.616 32.4434C261.374 31.6995 264.281 31.7017 267.038 32.4497C269.795 33.1977 272.304 34.6648 274.308 36.7007C276.311 38.7367 277.738 41.2685 278.443 44.037C279.378 47.7557 278.737 52.1678 275.795 54.6364C272.392 57.5147 267.339 56.8739 262.969 55.981C258.599 55.0881 253.62 54.2267 250.017 56.7899C247.821 58.3446 246.56 60.8553 245.216 63.1874C243.871 65.5195 242.18 67.8935 239.638 68.7655C237.096 69.6374 233.65 68.1352 233.545 65.4459" fill="#263238"/>
<path d="M244.679 50.5395C243.589 50.6576 242.582 51.1808 241.858 52.0056C241.135 52.8303 240.747 53.8966 240.772 54.9936L243.387 114.104C243.492 121.08 253.703 125.008 261.183 124.83C268.725 124.662 268.977 120.954 269.061 114.325C269.219 103.221 269.208 99.0615 269.219 99.1245C269.229 99.1875 278.747 97.5173 280.701 85.069C281.667 78.8711 281.331 68.7234 280.795 60.4246C280.312 52.9661 275.343 43.8164 267.906 44.6148L244.679 50.5395Z" fill="#FFBE9D"/>
<path d="M276.845 67.5469C276.851 67.9622 276.693 68.3633 276.407 68.6638C276.12 68.9643 275.727 69.1404 275.311 69.1541C275.109 69.1713 274.905 69.1477 274.711 69.0848C274.518 69.0218 274.339 68.9208 274.186 68.7876C274.032 68.6545 273.906 68.4919 273.816 68.3095C273.727 68.127 273.674 67.9285 273.662 67.7254C273.657 67.3037 273.818 66.8969 274.111 66.5938C274.405 66.2907 274.806 66.116 275.227 66.1077C275.428 66.0949 275.63 66.1221 275.82 66.1877C276.011 66.2533 276.186 66.3559 276.337 66.4898C276.487 66.6236 276.609 66.7859 276.697 66.9674C276.784 67.1488 276.835 67.3458 276.845 67.5469Z" fill="#263238"/>
<path d="M278.61 65.7191C278.41 65.9187 277.192 65.0257 275.459 65.0362C273.725 65.0467 272.486 65.9081 272.307 65.698C272.129 65.488 272.412 65.2253 272.969 64.8261C273.707 64.3085 274.588 64.0332 275.49 64.0383C276.383 64.0372 277.254 64.3164 277.98 64.8367C278.526 65.2463 278.705 65.6245 278.61 65.7191Z" fill="#263238"/>
<path d="M260.174 67.5469C260.18 67.9622 260.023 68.3633 259.736 68.6638C259.449 68.9643 259.056 69.1404 258.641 69.1541C258.438 69.1713 258.234 69.1477 258.041 69.0848C257.847 69.0218 257.668 68.9208 257.515 68.7877C257.361 68.6545 257.235 68.4919 257.146 68.3095C257.056 68.127 257.003 67.9285 256.991 67.7254C256.986 67.309 257.143 66.9068 257.429 66.6046C257.716 66.3024 258.109 66.1241 258.525 66.1077C258.729 66.0905 258.933 66.1144 259.127 66.178C259.321 66.2416 259.501 66.3436 259.655 66.4778C259.809 66.6121 259.934 66.7759 260.023 66.9596C260.112 67.1432 260.164 67.3429 260.174 67.5469Z" fill="#263238"/>
<path d="M261.718 66.0762C261.519 66.2758 260.311 65.3934 258.567 65.3934C256.823 65.3934 255.584 66.2653 255.415 66.0552C255.247 65.8451 255.521 65.593 256.067 65.1833C256.809 64.6667 257.694 64.3949 258.598 64.406C259.491 64.3975 260.363 64.6735 261.088 65.1938C261.634 65.6035 261.813 65.9817 261.718 66.0762Z" fill="#263238"/>
<path d="M267.979 78.7976C268.887 78.515 269.825 78.3422 270.774 78.2828C271.215 78.2828 271.624 78.1568 271.698 77.8521C271.733 77.3982 271.631 76.9442 271.404 76.5495C270.984 75.499 270.553 74.3855 270.101 73.2195C268.284 68.4608 266.95 64.5635 267.17 64.4899C267.391 64.4164 268.988 68.2087 270.795 72.9569C271.225 74.1334 271.645 75.2469 272.045 76.3184C272.322 76.8477 272.404 77.4576 272.276 78.0412C272.215 78.1983 272.118 78.3385 271.991 78.45C271.865 78.5616 271.714 78.6411 271.551 78.682C271.311 78.7487 271.064 78.784 270.816 78.7871C269.874 78.9061 268.922 78.9096 267.979 78.7976Z" fill="#263238"/>
<path d="M269.219 99.1246C263.357 99.2256 257.582 97.6983 252.537 94.7125C252.674 94.7125 257.128 103.369 269.051 102.066L269.219 99.1246Z" fill="#EB996E"/>
<path d="M267.265 82.9365C266.935 82.5302 266.508 82.2127 266.024 82.0128C265.539 81.8129 265.013 81.7368 264.492 81.7915C264.113 81.8287 263.745 81.9406 263.41 82.121C263.074 82.3013 262.778 82.5464 262.538 82.842C262.296 83.133 262.153 83.4938 262.13 83.8718C262.107 84.2498 262.206 84.6251 262.412 84.943C262.69 85.2477 263.051 85.4639 263.451 85.5648C263.85 85.6656 264.271 85.6467 264.66 85.5102C265.464 85.2021 266.2 84.738 266.824 84.1446C267.016 84.0051 267.18 83.8304 267.307 83.6299C267.371 83.5371 267.405 83.4272 267.405 83.3147C267.405 83.2022 267.371 83.0923 267.307 82.9996" fill="#FF4848"/>
<path d="M262.927 79.9952C263.21 79.9952 263.221 81.844 264.817 83.1466C266.414 84.4492 268.4 84.1971 268.41 84.5123C268.421 84.8274 267.969 84.8799 267.139 84.9009C266.045 84.9184 264.98 84.546 264.135 83.8504C263.32 83.1889 262.796 82.2352 262.674 81.1927C262.622 80.4889 262.801 79.9847 262.927 79.9952Z" fill="#263238"/>
<path d="M262.486 63.0614C262.318 63.5341 260.605 63.3135 258.588 63.5551C256.571 63.7967 254.943 64.364 254.681 63.9438C254.555 63.7442 254.838 63.303 255.5 62.8933C256.373 62.332 257.363 61.9794 258.394 61.8628C259.425 61.7462 260.47 61.8688 261.446 62.221C262.192 62.4731 262.559 62.8408 262.486 63.0614Z" fill="#263238"/>
<path d="M277.959 60.7397C277.665 61.1389 276.478 60.7397 275.06 60.7397C273.642 60.7397 272.423 61.0023 272.15 60.6032C272.024 60.4036 272.213 60.0044 272.738 59.6367C273.444 59.1915 274.267 58.9667 275.102 58.991C275.936 59.0154 276.744 59.2877 277.423 59.7733C277.928 60.1515 278.096 60.5296 277.959 60.7397Z" fill="#263238"/>
<path d="M239.417 92.1808C242.842 92.8741 243.146 91.1303 245.72 88.7562C246.988 87.5554 247.959 86.0761 248.557 84.4353C249.155 82.7944 249.364 81.037 249.166 79.3018C248.777 76.2449 247.128 73.1355 248.189 70.2361C249.586 66.4124 254.954 65.2358 256.372 61.4226C257.202 59.1955 256.456 56.6008 257.422 54.4263C258.389 52.2518 260.458 51.2118 262.549 50.4555C264.639 49.6991 266.887 49.1739 268.652 47.8082C270.417 46.4426 271.499 43.8584 270.364 41.9465C261.068 43.0605 251.938 45.2786 243.167 48.5541C241.14 49.3104 238.965 50.2244 237.81 52.0312C236.654 53.838 236.591 56.4117 236.707 58.7018C237.225 69.907 237.743 81.0842 238.261 92.2333" fill="#263238"/>
<path d="M231.58 66.8326C231.385 64.7616 230.518 62.8112 229.113 61.2779C227.707 59.7445 225.839 58.7121 223.793 58.3376C221.747 57.9631 219.634 58.2669 217.777 59.203C215.919 60.1391 214.418 61.6561 213.502 63.5235C211.779 67.0426 212.378 71.3181 213.995 74.8898C215.907 79.0917 219.836 82.9995 224.5 82.7894C228.881 82.5899 232.4 78.7556 233.66 74.5536C234.921 70.3517 234.417 65.8661 233.891 61.5171" fill="#263238"/>
<path d="M229.143 83.84C228.88 83.6445 228.658 83.398 228.492 83.1152C228.003 82.364 227.688 81.5136 227.568 80.6255C227.384 79.3152 227.423 77.9834 227.683 76.6862C227.935 75.226 228.429 73.6923 228.734 72.064C229.132 70.5605 229.225 68.9924 229.007 67.4524C228.755 66.0657 228.093 64.8892 227.809 63.7967C227.53 62.9363 227.504 62.0135 227.736 61.139C227.935 60.5192 228.198 60.2671 228.219 60.2881C228.24 60.3091 228.061 60.6032 227.946 61.1915C227.808 62.0275 227.888 62.8847 228.177 63.6811C228.69 64.8796 229.132 66.1073 229.501 67.3579C229.761 68.9636 229.683 70.6061 229.269 72.1796C228.902 73.8394 228.398 75.331 228.124 76.7807C227.853 78.0255 227.775 79.3045 227.893 80.573C228.07 81.7392 228.497 82.8535 229.143 83.84Z" fill="#455A64"/>
<path d="M229.007 68.9336C228.515 69.6899 227.862 70.3283 227.095 70.8034C225.301 72.0671 223.17 72.7628 220.976 72.8002C218.783 72.8377 216.629 72.2152 214.794 71.0135C214.015 70.5655 213.345 69.9523 212.829 69.2172C212.892 69.1437 213.606 69.879 215.004 70.6879C216.812 71.7489 218.877 72.2907 220.974 72.2536C223.07 72.2166 225.115 71.6021 226.885 70.4778C228.208 69.5849 228.902 68.818 229.007 68.9336Z" fill="#455A64"/>
<path d="M228.344 70.835C228.127 71.5495 227.77 72.2137 227.294 72.7889C226.228 74.2497 224.88 75.4827 223.33 76.4154C221.781 77.348 220.06 77.9615 218.27 78.2199C217.539 78.369 216.785 78.369 216.054 78.2199C216.764 78.0475 217.483 77.9142 218.207 77.8207C219.916 77.4646 221.552 76.8255 223.05 75.9298C224.54 75.0268 225.871 73.8839 226.989 72.5473C227.84 71.5283 228.271 70.7929 228.344 70.835Z" fill="#455A64"/>
<path d="M231.485 87.9999C231.485 87.9999 231.433 87.9999 231.349 87.8528C231.22 87.6939 231.104 87.5253 231.002 87.3486C230.601 86.6786 230.323 85.9421 230.183 85.1741C229.948 83.9506 230.016 82.6882 230.382 81.4974C230.854 79.8945 231.882 78.5126 233.281 77.6001C234.752 76.5496 236.675 75.8352 237.904 74.1755C238.211 73.7614 238.429 73.2882 238.545 72.7856C238.661 72.283 238.671 71.7619 238.576 71.2551C238.338 70.1467 237.986 69.0659 237.525 68.0301C237.037 66.8467 236.799 65.5749 236.826 64.2949C236.853 63.0149 237.145 61.7544 237.683 60.5927C238.247 59.3451 239.118 58.2608 240.215 57.4412C241.357 56.6448 242.658 56.1037 244.028 55.855C245.373 55.5504 246.717 55.3718 247.967 54.9936C249.189 54.6646 250.311 54.0405 251.234 53.1763C252.068 52.2801 252.575 51.1291 252.673 49.9092C252.786 48.6932 252.979 47.486 253.251 46.2956C253.803 44.0574 254.967 42.0169 256.613 40.4023C258.057 39.0151 259.889 38.0993 261.865 37.7761C263.299 37.5325 264.773 37.6991 266.117 38.2567C267.461 38.8142 268.62 39.7401 269.46 40.9276C269.907 41.5637 270.234 42.2756 270.427 43.0286C270.504 43.2879 270.546 43.5564 270.553 43.8269C270.315 42.8248 269.883 41.8791 269.282 41.0431C268.562 40.0813 267.622 39.3067 266.54 38.7846C265.102 38.0998 263.485 37.883 261.918 38.1648C260.02 38.4911 258.266 39.3848 256.886 40.728C255.337 42.3038 254.247 44.2724 253.734 46.4216C253.467 47.6091 253.278 48.8127 253.167 50.0248C253.054 51.3555 252.504 52.6113 251.602 53.5964C250.603 54.5247 249.391 55.1922 248.072 55.5398C246.77 55.939 245.415 56.1176 244.101 56.4223C242.803 56.6577 241.569 57.1622 240.477 57.9034C239.457 58.6672 238.644 59.6749 238.114 60.8343C237.605 61.9315 237.328 63.1217 237.299 64.3307C237.27 65.5397 237.49 66.7418 237.946 67.8621C238.415 68.9311 238.767 70.0475 238.996 71.1921C239.098 71.7608 239.082 72.3445 238.948 72.9066C238.814 73.4688 238.566 73.9973 238.219 74.4591C236.853 76.2449 234.878 76.9383 233.45 77.9362C232.103 78.7846 231.101 80.084 230.624 81.6024C230.246 82.7424 230.148 83.9569 230.34 85.1426C230.537 86.159 230.926 87.1287 231.485 87.9999Z" fill="#455A64"/>
<path d="M232.315 53.2498C232.222 53.0706 232.168 52.8737 232.158 52.6721C232.115 52.0912 232.262 51.5123 232.578 51.0228C233.068 50.2317 233.807 49.6258 234.679 49.3C235.836 48.9314 237.072 48.8914 238.25 49.1844C239.553 49.4366 240.908 49.9513 242.389 50.2349C243.147 50.4465 243.942 50.4932 244.719 50.3718C245.496 50.2504 246.239 49.9637 246.896 49.5311C248.22 48.4806 248.881 46.7788 249.554 45.056C250.237 43.2062 251.208 41.476 252.432 39.9297C254.813 36.8982 258.142 34.7529 261.886 33.8368C263.526 33.4498 265.238 33.4932 266.855 33.9629C268.256 34.4094 269.502 35.2435 270.448 36.3685C271.246 37.2934 271.728 38.449 271.824 39.667C271.91 40.5766 271.769 41.4934 271.414 42.3353C271.203 42.8667 270.884 43.3493 270.479 43.7534C270.35 43.9066 270.193 44.0347 270.017 44.1316C270.53 43.5889 270.936 42.9546 271.215 42.2617C271.517 41.4434 271.622 40.565 271.519 39.6985C271.403 38.5536 270.924 37.4756 270.154 36.6206C269.22 35.586 268.016 34.8328 266.677 34.4461C265.128 34.0262 263.5 34.0009 261.939 34.3726C258.335 35.3004 255.138 37.3902 252.842 40.3183C251.646 41.8013 250.692 43.4641 250.016 45.2451C249.323 46.9679 248.64 48.8063 247.159 49.9303C246.444 50.466 245.591 50.7866 244.701 50.8547C243.884 50.9169 243.063 50.8603 242.263 50.6866C240.73 50.361 239.396 49.8252 238.135 49.5626C237.025 49.2551 235.852 49.2551 234.742 49.5626C233.925 49.8487 233.221 50.3901 232.735 51.1068C232.42 51.5559 232.251 52.0917 232.252 52.6405C232.273 53.0502 232.347 53.2393 232.315 53.2498Z" fill="#455A64"/>
<path d="M405.373 469.095C405.421 468.948 405.481 468.804 405.551 468.665C405.688 468.36 405.887 467.961 406.129 467.436C406.827 465.85 407.393 464.209 407.82 462.53C409.167 456.272 409.117 449.794 407.673 443.558C406.78 439.242 405.604 434.989 404.154 430.826C402.662 426.299 400.94 421.498 399.521 416.319C397.923 410.905 397.155 405.281 397.242 399.637C397.452 393.744 399.196 387.851 401.118 381.989C403.04 376.127 405.015 370.381 405.614 364.614C406.285 359.065 405.182 353.446 402.463 348.563C399.921 343.877 396.727 339.865 394.332 335.715C392.096 331.868 390.449 327.707 389.447 323.372C388.002 317.092 387.895 310.578 389.132 304.253C389.573 301.941 390.242 299.679 391.128 297.498C391.103 297.652 391.064 297.803 391.012 297.95C390.907 298.265 390.781 298.696 390.603 299.242C390.256 300.387 389.804 302.079 389.363 304.295C388.228 310.59 388.399 317.051 389.867 323.277C390.889 327.56 392.542 331.667 394.773 335.463C397.158 339.56 400.372 343.552 402.956 348.289C405.759 353.263 406.91 358.997 406.244 364.667C405.646 370.539 403.65 376.316 401.738 382.178C399.826 388.04 398.093 393.86 397.872 399.658C397.791 405.244 398.545 410.81 400.11 416.172C401.496 421.33 403.261 426.131 404.679 430.658C406.111 434.85 407.265 439.131 408.135 443.474C409.743 451.468 409.291 458.181 408.135 462.593C407.679 464.276 407.071 465.915 406.318 467.488C406.055 468.003 405.845 468.402 405.688 468.696C405.598 468.841 405.493 468.975 405.373 469.095Z" fill="#263238"/>
<path d="M397.546 339.812C397.546 339.812 392.682 324.265 401.401 315.168C401.469 315.093 401.556 315.04 401.653 315.013C401.75 314.985 401.852 314.986 401.949 315.015C402.045 315.043 402.132 315.098 402.198 315.174C402.265 315.249 402.309 315.342 402.326 315.441C402.788 318.004 403.387 325.82 397.546 339.812Z" fill="#FF4848"/>
<path d="M400.455 320.346C400.441 321.311 400.332 322.271 400.13 323.214C399.804 325.189 399.426 327.511 399.016 330.074L397.966 336.923C397.888 337.883 397.716 338.833 397.451 339.759C397.373 338.796 397.404 337.827 397.546 336.871C397.703 335.095 398.018 332.669 398.46 329.969C398.901 327.269 399.363 324.874 399.741 323.141C399.872 322.185 400.112 321.248 400.455 320.346Z" fill="#263238"/>
<path d="M403.25 376.474C403.25 376.474 406.223 360.454 418.188 356.515C418.282 356.481 418.383 356.474 418.48 356.495C418.577 356.515 418.667 356.563 418.739 356.631C418.811 356.7 418.863 356.787 418.888 356.884C418.913 356.98 418.911 357.081 418.881 357.177C418.093 359.645 414.942 366.831 403.25 376.474Z" fill="#FF4848"/>
<path d="M414.942 360.633C414.472 361.474 413.923 362.269 413.303 363.007L409.101 368.553L404.899 374.1C404.377 374.908 403.783 375.667 403.124 376.369C403.488 375.475 403.965 374.632 404.542 373.858C405.519 372.356 406.937 370.35 408.587 368.186C410.236 366.022 411.738 364.099 412.915 362.744C413.501 361.959 414.182 361.25 414.942 360.633Z" fill="#263238"/>
<path d="M400.015 416.645C400.015 416.645 398.208 400.467 408.502 393.198C408.582 393.137 408.677 393.099 408.777 393.09C408.877 393.08 408.978 393.099 409.068 393.144C409.158 393.189 409.233 393.258 409.285 393.344C409.338 393.429 409.365 393.528 409.364 393.628C409.332 396.234 408.408 404.039 400.015 416.645Z" fill="#FF4848"/>
<path d="M406.591 398.083C406.389 399.026 406.097 399.947 405.719 400.835C405.036 402.715 404.217 404.921 403.324 407.358C402.431 409.795 401.633 412.001 400.95 413.882C400.69 414.808 400.338 415.705 399.899 416.561C400.003 415.601 400.218 414.656 400.54 413.745C401.034 412.033 401.811 409.69 402.757 407.148C403.702 404.606 404.616 402.316 405.32 400.677C405.649 399.769 406.075 398.899 406.591 398.083Z" fill="#263238"/>
<path d="M409.028 457.046C409.028 457.046 407.799 440.806 418.357 433.936C418.44 433.882 418.536 433.853 418.635 433.85C418.734 433.847 418.832 433.871 418.919 433.92C419.005 433.968 419.076 434.039 419.125 434.125C419.175 434.212 419.199 434.309 419.197 434.408C419.071 436.982 417.873 444.724 409.028 457.046Z" fill="#FF4848"/>
<path d="M416.266 438.705C416.029 439.64 415.705 440.551 415.299 441.426C414.532 443.274 413.65 445.449 412.662 447.855C411.675 450.26 410.813 452.435 410.057 454.284C409.767 455.203 409.384 456.09 408.912 456.931C409.052 455.974 409.302 455.036 409.658 454.136C410.215 452.445 411.066 450.134 412.106 447.623C413.146 445.113 414.133 442.865 414.9 441.258C415.256 440.357 415.714 439.5 416.266 438.705Z" fill="#263238"/>
<path d="M390.56 326.156C390.56 326.156 376.116 318.613 375.854 306.018C375.852 305.918 375.878 305.82 375.928 305.734C375.978 305.647 376.051 305.577 376.139 305.529C376.227 305.481 376.326 305.459 376.425 305.463C376.525 305.468 376.622 305.5 376.704 305.556C378.826 307.037 384.772 312.142 390.56 326.156Z" fill="#FF4848"/>
<path d="M378.837 310.346C379.508 311.038 380.11 311.794 380.633 312.604C381.81 314.222 383.186 316.124 384.699 318.235C386.211 320.346 387.608 322.227 388.785 323.845C389.404 324.582 389.956 325.373 390.434 326.208C389.689 325.592 389.022 324.887 388.449 324.107C387.304 322.742 385.791 320.798 384.247 318.582C382.703 316.365 381.285 314.38 380.318 312.846C379.732 312.071 379.236 311.232 378.837 310.346Z" fill="#263238"/>
<path d="M406.055 359.54C406.055 359.54 391.191 352.891 390.141 340.327C390.13 340.228 390.148 340.128 390.191 340.038C390.234 339.948 390.302 339.873 390.386 339.819C390.47 339.766 390.567 339.737 390.667 339.736C390.766 339.734 390.864 339.761 390.949 339.812C393.187 341.167 399.427 345.905 406.055 359.54Z" fill="#FF4848"/>
<path d="M393.396 344.466C394.11 345.099 394.757 345.803 395.329 346.567L399.731 351.935L404.153 357.292C404.815 357.994 405.413 358.753 405.939 359.561C405.16 358.988 404.454 358.321 403.838 357.576C402.609 356.284 400.991 354.424 399.269 352.323C397.546 350.222 396.033 348.363 394.983 346.871C394.363 346.133 393.831 345.326 393.396 344.466Z" fill="#263238"/>
<path d="M397.504 396.769C397.504 396.769 387.293 384.08 392.083 372.419C392.12 372.326 392.181 372.245 392.261 372.186C392.341 372.126 392.436 372.09 392.535 372.081C392.635 372.072 392.735 372.091 392.824 372.136C392.913 372.181 392.987 372.25 393.039 372.335C394.416 374.552 397.809 381.611 397.504 396.769Z" fill="#FF4848"/>
<path d="M393.092 377.588C393.437 378.491 393.686 379.427 393.838 380.382C394.268 382.336 394.762 384.584 395.319 387.168L396.81 393.944C397.078 394.867 397.265 395.813 397.367 396.769C396.935 395.904 396.607 394.991 396.39 394.049C395.886 392.336 395.34 389.952 394.72 387.294C394.1 384.636 393.67 382.22 393.417 380.455C393.203 379.514 393.094 378.553 393.092 377.588Z" fill="#263238"/>
<path d="M407.589 440.585C407.589 440.585 392.882 433.683 392 421.109C391.992 421.01 392.012 420.911 392.058 420.823C392.103 420.735 392.172 420.661 392.257 420.61C392.342 420.559 392.44 420.532 392.539 420.533C392.638 420.534 392.735 420.563 392.819 420.615C395.056 422.002 401.212 426.845 407.589 440.585Z" fill="#FF4848"/>
<path d="M395.203 425.301C395.908 425.964 396.545 426.696 397.105 427.486L401.422 432.927L405.74 438.348C406.394 439.059 406.981 439.829 407.494 440.648C406.715 440.063 406.009 439.386 405.393 438.631C404.195 437.318 402.599 435.48 400.918 433.305C399.237 431.131 397.766 429.198 396.716 427.738C396.123 426.984 395.616 426.166 395.203 425.301Z" fill="#263238"/>
<path d="M437.002 376.558C437.013 376.677 437.013 376.796 437.002 376.915C437.002 377.199 437.002 377.546 437.002 377.966C437.002 378.943 436.897 380.266 436.823 381.916L436.056 396.013C435.006 401.906 432.002 408.43 427.978 414.775C425.016 419.449 421.917 423.693 419.249 427.643C416.813 431.09 414.626 434.706 412.704 438.463C411.438 441.01 410.411 443.668 409.637 446.405C409.374 447.371 409.185 448.138 409.069 448.653C409.025 448.922 408.955 449.186 408.859 449.441C408.862 449.169 408.894 448.897 408.954 448.632C409.027 448.096 409.185 447.329 409.406 446.342C410.094 443.559 411.069 440.855 412.315 438.274C414.197 434.472 416.357 430.813 418.776 427.328C421.434 423.347 424.522 419.103 427.464 414.449C431.466 408.146 434.449 401.707 435.542 395.908C435.951 390.13 436.288 385.288 436.529 381.821C436.666 380.182 436.771 378.859 436.855 377.882C436.855 377.472 436.928 377.125 436.96 376.831C436.991 376.537 437.002 376.558 437.002 376.558Z" fill="#263238"/>
<path d="M428.21 413.598C428.21 413.598 434.46 398.555 426.602 388.702C426.542 388.621 426.461 388.56 426.368 388.523C426.274 388.487 426.172 388.478 426.074 388.496C425.975 388.515 425.884 388.561 425.81 388.629C425.737 388.696 425.684 388.784 425.657 388.88C424.964 391.433 423.671 399.133 428.21 413.598Z" fill="#FF4848"/>
<path d="M427.075 393.944C427.344 394.871 427.51 395.826 427.568 396.79C427.789 398.555 428.041 400.992 428.23 403.713C428.419 406.434 428.524 408.892 428.524 410.667C428.575 411.634 428.515 412.603 428.346 413.556C428.171 412.61 428.087 411.65 428.094 410.688C427.957 408.692 427.8 406.35 427.621 403.755C427.442 401.16 427.285 398.828 427.138 396.832C427.021 395.874 427 394.906 427.075 393.944Z" fill="#263238"/>
<g opacity="0.3">
<path d="M428.21 413.598C428.21 413.598 434.46 398.555 426.602 388.702C426.542 388.621 426.461 388.56 426.368 388.523C426.274 388.487 426.172 388.478 426.074 388.496C425.975 388.515 425.884 388.561 425.81 388.629C425.737 388.696 425.684 388.784 425.657 388.88C424.964 391.433 423.671 399.133 428.21 413.598Z" fill="black"/>
</g>
<path d="M408.86 449.84C408.86 449.84 413.871 434.335 405.236 425.154C405.169 425.079 405.082 425.025 404.986 424.998C404.89 424.97 404.788 424.97 404.692 424.997C404.596 425.025 404.509 425.078 404.442 425.152C404.375 425.226 404.329 425.318 404.311 425.416C403.818 427.979 403.166 435.785 408.86 449.84Z" fill="#FF4848"/>
<path d="M406.139 430.301C406.475 431.205 406.718 432.141 406.864 433.095C407.221 434.839 407.672 437.297 408.082 439.944C408.492 442.592 408.786 445.081 408.933 446.857C409.07 447.814 409.087 448.784 408.986 449.745C408.742 448.812 408.581 447.86 408.502 446.899C408.208 444.924 407.862 442.602 407.452 440.039C407.042 437.476 406.706 435.154 406.401 433.169C406.215 432.224 406.127 431.263 406.139 430.301Z" fill="#263238"/>
<g opacity="0.3">
<path d="M408.86 449.84C408.86 449.84 413.871 434.335 405.236 425.154C405.169 425.079 405.082 425.025 404.986 424.998C404.89 424.97 404.788 424.97 404.692 424.997C404.596 425.025 404.509 425.078 404.442 425.152C404.375 425.226 404.329 425.318 404.311 425.416C403.818 427.979 403.166 435.785 408.86 449.84Z" fill="black"/>
</g>
<path d="M436.173 395.215C436.173 395.215 449.514 385.876 448.169 373.344C448.16 373.245 448.123 373.15 448.063 373.071C448.003 372.992 447.923 372.931 447.83 372.895C447.737 372.859 447.636 372.849 447.539 372.867C447.441 372.885 447.35 372.93 447.277 372.997C445.333 374.741 440.154 380.571 436.173 395.215Z" fill="#FF4848"/>
<g opacity="0.3">
<path d="M436.173 395.215C436.173 395.215 449.514 385.876 448.169 373.344C448.16 373.245 448.123 373.15 448.063 373.071C448.003 372.992 447.923 372.931 447.83 372.895C447.737 372.859 447.636 372.849 447.539 372.867C447.441 372.885 447.35 372.93 447.277 372.997C445.333 374.741 440.154 380.571 436.173 395.215Z" fill="black"/>
</g>
<path d="M445.753 378.029C445.481 378.953 445.107 379.844 444.64 380.686C443.883 382.304 442.78 384.5 441.488 386.895C440.196 389.29 438.957 391.412 438.001 392.914C437.53 393.761 436.959 394.548 436.299 395.257C436.66 394.363 437.103 393.505 437.622 392.694C438.589 390.939 439.723 388.88 440.953 386.601L444.262 380.497C444.672 379.625 445.172 378.798 445.753 378.029Z" fill="#263238"/>
<path d="M414.238 434.503C414.238 434.503 430.332 431.992 434.639 420.153C434.676 420.061 434.686 419.959 434.668 419.861C434.651 419.763 434.606 419.672 434.54 419.597C434.473 419.523 434.387 419.469 434.291 419.441C434.196 419.413 434.094 419.412 433.998 419.439C431.487 420.122 424.218 423.063 414.238 434.503Z" fill="#FF4848"/>
<g opacity="0.3">
<path d="M414.238 434.503C414.238 434.503 430.332 431.992 434.639 420.153C434.676 420.061 434.686 419.959 434.668 419.861C434.651 419.763 434.606 419.672 434.54 419.597C434.473 419.523 434.387 419.469 434.291 419.441C434.196 419.413 434.094 419.412 433.998 419.439C431.487 420.122 424.218 423.063 414.238 434.503Z" fill="black"/>
</g>
<path d="M430.416 423.263C429.762 423.973 429.033 424.61 428.242 425.164C426.855 426.278 424.891 427.759 422.685 429.366C420.479 430.973 418.42 432.297 416.896 433.232C416.101 433.781 415.245 434.236 414.344 434.587C415.061 433.948 415.835 433.375 416.655 432.875L422.327 428.862L427.99 424.838C428.74 424.229 429.554 423.701 430.416 423.263Z" fill="#263238"/>
<path d="M398.891 464.085L394.195 495.673H423.451L419.659 464.085H398.891Z" fill="#455A64"/>
<path d="M420.824 473.875C416.9 474.179 412.962 474.281 409.027 474.18C405.092 474.281 401.155 474.179 397.23 473.875C401.155 473.571 405.092 473.469 409.027 473.57C412.962 473.469 416.9 473.571 420.824 473.875Z" fill="#263238"/>
<path d="M421.403 476.386C421.403 476.554 415.951 476.69 409.228 476.69C402.504 476.69 397.084 476.522 397.084 476.386C397.084 476.249 402.536 476.081 409.27 476.081C416.003 476.081 421.403 476.218 421.403 476.386Z" fill="#263238"/>
<path d="M50.5069 438.011C51.9858 438.262 53.3991 438.808 54.6625 439.616C55.9259 440.425 57.0135 441.48 57.8603 442.718C59.5337 445.217 60.6118 448.067 61.0117 451.048C61.9677 456.763 60.4234 463.255 58.3015 468.654C52.4713 465.912 49.3618 459.126 48.0067 455.576C45.9057 449.977 45.3805 438.537 50.4648 438.011" fill="#FF4848"/>
<path d="M66.9373 476.701C66.0594 475.269 65.5764 473.63 65.5377 471.951C65.4989 470.272 65.9057 468.612 66.7167 467.142C67.5494 465.683 68.6651 464.406 69.9982 463.385C71.3313 462.364 72.855 461.62 74.4798 461.196C75.2036 460.919 75.9792 460.804 76.7522 460.858C77.5252 460.913 78.277 461.135 78.9549 461.511C79.5236 461.963 79.961 462.558 80.2215 463.236C80.482 463.914 80.5561 464.65 80.436 465.366C80.1736 466.797 79.5396 468.134 78.5977 469.243C75.5618 473.171 71.8956 476.407 66.9373 476.701Z" fill="#FF4848"/>
<path d="M65.4666 494.811C65.3449 494.424 65.2811 494.02 65.2775 493.614C65.1935 492.836 65.099 491.702 65.0149 490.305C64.7494 486.649 64.9755 482.975 65.6872 479.38C66.4337 475.747 68.1467 472.382 70.6455 469.642C71.4191 468.84 72.2868 468.134 73.2297 467.541C73.5487 467.304 73.9033 467.12 74.2802 466.994C73.0883 467.89 71.9743 468.884 70.9502 469.967C68.6145 472.715 67.007 476.006 66.2755 479.537C65.5849 483.082 65.303 486.695 65.4351 490.305C65.5361 491.805 65.5466 493.31 65.4666 494.811Z" fill="#263238"/>
<path d="M51.8623 446.689C52.1627 447.289 52.4088 447.914 52.5976 448.558C53.0283 449.777 53.6481 451.542 54.352 453.737C55.7806 458.128 57.661 464.242 59.6044 471.018C61.5478 477.794 63.1025 483.991 64.1635 488.487C64.6993 490.736 65.1089 492.553 65.3821 493.824C65.5511 494.472 65.6671 495.132 65.7287 495.799C65.478 495.179 65.2778 494.539 65.1299 493.887C64.7728 492.521 64.2896 490.735 63.7223 488.635C62.5353 484.17 60.886 478.004 58.9846 471.228C57.0832 464.452 55.2659 458.328 53.9423 453.905L52.3875 448.653C52.1582 448.014 51.9825 447.357 51.8623 446.689Z" fill="#263238"/>
<path d="M59.1738 482.142C57.7195 478.913 55.5161 476.078 52.7464 473.871C49.9767 471.664 46.7207 470.149 43.2484 469.453C41.4836 469.116 39.3091 469.158 38.3216 470.671C37.3342 472.184 38.1851 474.201 39.246 475.65C41.5099 478.657 44.6146 480.924 48.1675 482.166C51.7203 483.408 55.5616 483.568 59.2053 482.626" fill="#FF4848"/>
<path d="M45.1709 474.537C45.5599 474.507 45.951 474.546 46.3264 474.653C46.7808 474.715 47.2301 474.81 47.6711 474.936C48.2598 475.073 48.8388 475.248 49.4044 475.461C50.902 475.976 52.3419 476.645 53.7009 477.457C57.0499 479.444 59.8854 482.189 61.9787 485.473C62.8138 486.802 63.5175 488.209 64.0797 489.674C64.302 490.238 64.4949 490.813 64.6574 491.397C64.7987 491.833 64.9076 492.279 64.9831 492.731C65.0926 493.107 65.1457 493.496 65.1407 493.887C65.0146 493.887 64.6994 492.28 63.649 489.853C63.0354 488.435 62.2972 487.075 61.4429 485.788C60.3789 484.224 59.1652 482.767 57.8188 481.439C56.4483 480.136 54.9529 478.971 53.3542 477.962C52.044 477.132 50.6581 476.429 49.2153 475.861C46.8097 474.926 45.1709 474.653 45.1709 474.537Z" fill="#263238"/>
<path d="M348.552 92.496C348.552 92.8111 350.831 93.0632 353.636 93.0632C356.441 93.0632 358.72 92.8111 358.72 92.496C358.72 92.1808 356.451 91.9392 353.636 91.9392C350.821 91.9392 348.552 92.1913 348.552 92.496Z" fill="#FF4848"/>
<path d="M343.152 78.6611C342.837 78.6611 342.585 80.9722 342.585 83.819C342.585 86.6658 342.837 88.9874 343.152 88.9874C343.467 88.9874 343.709 86.6763 343.709 83.819C343.709 80.9617 343.509 78.6611 343.152 78.6611Z" fill="#FF4848"/>
<path d="M337.395 92.1703C337.395 91.8551 335.116 91.603 332.311 91.603C329.506 91.603 327.227 91.8551 327.227 92.1703C327.227 92.4854 329.496 92.727 332.311 92.727C335.126 92.727 337.395 92.4749 337.395 92.1703Z" fill="#FF4848"/>
<path d="M342.795 106.005C343.11 106.005 343.362 103.694 343.362 100.847C343.362 98.0005 343.11 95.679 342.795 95.679C342.48 95.679 342.238 97.99 342.238 100.847C342.238 103.705 342.459 106.005 342.795 106.005Z" fill="#FF4848"/>
<path d="M334.581 100.07C334.812 100.27 335.82 99.4607 336.818 98.2631C337.816 97.0656 338.436 95.9415 338.194 95.7419C337.953 95.5423 336.955 96.3512 335.957 97.5383C334.959 98.7253 334.339 99.8704 334.581 100.07Z" fill="#FF4848"/>
<path d="M335.106 84.3757C334.885 84.5963 335.547 85.6258 336.587 86.6657C337.627 87.7057 338.636 88.3885 338.856 88.1679C339.077 87.9473 338.415 86.9179 337.385 85.8779C336.356 84.8379 335.274 84.1551 335.106 84.3757Z" fill="#FF4848"/>
<path d="M346.714 88.378C346.913 88.6091 347.869 88.1364 348.814 87.3275C349.76 86.5186 350.443 85.6467 350.243 85.4156C350.044 85.1845 349.088 85.6467 348.142 86.4661C347.197 87.2855 346.514 88.1364 346.714 88.378Z" fill="#FF4848"/>
<path d="M347.166 95.2903C346.945 95.5004 347.512 96.5089 348.458 97.5383C349.403 98.5678 350.349 99.2401 350.559 99.03C350.769 98.8199 350.212 97.8115 349.267 96.782C348.321 95.7525 347.397 95.0802 347.166 95.2903Z" fill="#FF4848"/>
<path d="M97.1602 213.817C98.0877 214.135 99.0738 214.246 100.049 214.142C101.024 214.246 102.01 214.135 102.938 213.817C102.009 213.505 101.023 213.397 100.049 213.502C99.0746 213.397 98.0892 213.505 97.1602 213.817Z" fill="#FF4848"/>
<path d="M94.0926 205.959C93.6723 207.89 93.6723 209.889 94.0926 211.821C94.5268 209.891 94.5268 207.889 94.0926 205.959Z" fill="#FF4848"/>
<path d="M90.8255 213.628C89.8965 213.316 88.9111 213.208 87.9367 213.312C86.9623 213.208 85.9769 213.316 85.0479 213.628C85.9754 213.946 86.9615 214.057 87.9367 213.953C88.9119 214.057 89.898 213.946 90.8255 213.628Z" fill="#FF4848"/>
<path d="M93.8934 221.485C94.3276 219.555 94.3276 217.553 93.8934 215.624C93.473 217.555 93.473 219.554 93.8934 221.485Z" fill="#FF4848"/>
<path d="M89.229 218.103C89.3655 218.218 89.9328 217.756 90.5 217.052C91.0673 216.348 91.414 215.729 91.2774 215.613C91.1408 215.497 90.5736 215.96 90.0063 216.664C89.439 217.367 89.0924 218.008 89.229 218.103Z" fill="#FF4848"/>
<path d="M89.4919 209.205C89.3763 209.331 89.744 209.909 90.3323 210.508C90.9206 211.106 91.4983 211.485 91.6244 211.359C91.7504 211.232 91.3828 210.655 90.7945 210.056C90.2062 209.457 89.618 209.079 89.4919 209.205Z" fill="#FF4848"/>
<path d="M96.1199 211.474C96.2249 211.611 96.7712 211.348 97.3385 210.875C97.9057 210.403 98.2629 209.919 98.1473 209.825C98.0318 209.73 97.4855 209.961 96.9288 210.424C96.372 210.886 96.0043 211.338 96.1199 211.474Z" fill="#FF4848"/>
<path d="M96.3718 215.403C96.2457 215.518 96.5714 216.096 97.1072 216.685C97.6429 217.273 98.1576 217.651 98.3152 217.525C98.4728 217.399 98.1156 216.832 97.5799 216.254C97.0441 215.676 96.5084 215.287 96.3718 215.403Z" fill="#FF4848"/>
<path d="M353.794 276.09C355.697 276.51 357.669 276.51 359.572 276.09C357.67 275.655 355.695 275.655 353.794 276.09Z" fill="#FF4848"/>
<path d="M350.726 268.232C350.306 270.163 350.306 272.162 350.726 274.094C351.161 272.164 351.161 270.162 350.726 268.232Z" fill="#FF4848"/>
<path d="M347.459 275.879C345.558 275.445 343.583 275.445 341.682 275.879C343.585 276.3 345.556 276.3 347.459 275.879Z" fill="#FF4848"/>
<path d="M350.527 283.758C350.961 281.828 350.961 279.826 350.527 277.896C350.107 279.828 350.107 281.827 350.527 283.758Z" fill="#FF4848"/>
<path d="M345.863 280.386C345.999 280.502 346.567 280.039 347.134 279.336C347.701 278.632 348.048 278.022 347.911 277.907C347.775 277.791 347.207 278.254 346.64 278.957C346.073 279.661 345.726 280.27 345.863 280.386Z" fill="#FF4848"/>
<path d="M346.136 271.478C346.01 271.604 346.378 272.182 346.966 272.78C347.554 273.379 348.142 273.747 348.258 273.631C348.374 273.516 348.016 272.917 347.428 272.329C346.84 271.74 346.252 271.352 346.136 271.478Z" fill="#FF4848"/>
<path d="M352.754 273.778C352.859 273.915 353.405 273.642 353.972 273.18C354.54 272.717 354.897 272.224 354.781 272.129C354.666 272.035 354.119 272.266 353.563 272.728C353.006 273.19 352.638 273.61 352.754 273.778Z" fill="#FF4848"/>
<path d="M352.964 277.676C352.838 277.791 353.163 278.359 353.699 278.947C354.235 279.535 354.749 279.913 354.907 279.798C355.065 279.682 354.707 279.104 354.172 278.516C353.636 277.928 353.142 277.55 352.964 277.676Z" fill="#FF4848"/>
<path d="M141.344 438.757C143.243 439.178 145.211 439.178 147.111 438.757C145.211 438.337 143.243 438.337 141.344 438.757Z" fill="#FF4848"/>
<path d="M138.276 430.9C137.842 432.83 137.842 434.832 138.276 436.761C138.696 434.83 138.696 432.831 138.276 430.9Z" fill="#FF4848"/>
<path d="M135.009 438.568C133.106 438.148 131.134 438.148 129.231 438.568C131.133 439.003 133.108 439.003 135.009 438.568Z" fill="#FF4848"/>
<path d="M138.077 446.426C138.497 444.495 138.497 442.496 138.077 440.564C137.642 442.494 137.642 444.496 138.077 446.426Z" fill="#FF4848"/>
<path d="M133.412 443.054C133.549 443.169 134.116 442.707 134.683 442.003C135.251 441.3 135.608 440.68 135.471 440.564C135.335 440.449 134.768 440.911 134.2 441.615C133.633 442.319 133.265 442.907 133.412 443.054Z" fill="#FF4848"/>
<path d="M133.675 434.146C133.549 434.272 133.927 434.85 134.515 435.448C135.103 436.047 135.681 436.425 135.807 436.299C135.933 436.173 135.555 435.595 134.967 434.997C134.378 434.398 133.801 434.02 133.675 434.146Z" fill="#FF4848"/>
<path d="M140.293 436.415C140.409 436.551 140.955 436.289 141.512 435.816C142.069 435.343 142.436 434.86 142.321 434.766C142.205 434.671 141.669 434.902 141.102 435.364C140.535 435.827 140.178 436.278 140.293 436.415Z" fill="#FF4848"/>
<path d="M140.556 440.344C140.419 440.459 140.755 441.037 141.281 441.625C141.806 442.213 142.331 442.581 142.489 442.466C142.646 442.35 142.289 441.772 141.753 441.194C141.218 440.617 140.682 440.228 140.556 440.344Z" fill="#FF4848"/>
<path d="M137.141 171.24L136.805 172.039C136.518 172.726 136.099 173.349 135.571 173.874C135.043 174.398 134.416 174.814 133.727 175.096L132.855 175.442L133.685 175.779C134.397 176.062 135.044 176.487 135.586 177.029C136.128 177.571 136.554 178.218 136.837 178.93L137.078 179.508L137.425 178.783C138.063 177.456 139.194 176.431 140.577 175.926L141.322 175.653L140.345 175.169C139.105 174.57 138.127 173.539 137.593 172.27L137.141 171.24Z" fill="#FF4848"/>
<path d="M100.08 157.343L99.9124 157.742C99.7709 158.086 99.5624 158.399 99.2992 158.662C99.0359 158.925 98.7231 159.134 98.3787 159.275L97.9375 159.444L98.3577 159.612C98.7082 159.755 99.0264 159.968 99.2935 160.237C99.5605 160.506 99.771 160.825 99.9124 161.177L100.028 161.46L100.207 161.103C100.524 160.439 101.09 159.925 101.782 159.675L102.16 159.538L101.667 159.296C101.048 158.995 100.559 158.48 100.291 157.847L100.08 157.343Z" fill="#FF4848"/>
<path d="M387.494 100.27L387.326 100.669C387.182 101.012 386.971 101.324 386.706 101.585C386.441 101.846 386.127 102.053 385.781 102.192L385.351 102.371L385.76 102.539C386.111 102.679 386.43 102.889 386.697 103.157C386.964 103.424 387.174 103.742 387.315 104.093L387.441 104.387L387.609 104.02C387.93 103.358 388.495 102.846 389.185 102.591L389.563 102.455L389.069 102.223C388.45 101.918 387.961 101.4 387.693 100.763L387.494 100.27Z" fill="#FF4848"/>
<path d="M371.683 314.138L371.526 314.537C371.232 315.229 370.677 315.776 369.981 316.061L369.551 316.239L369.96 316.407C370.311 316.548 370.63 316.758 370.897 317.025C371.164 317.292 371.375 317.611 371.515 317.962L371.631 318.256L371.809 317.888C372.127 317.224 372.693 316.711 373.385 316.46L373.763 316.323L373.269 316.082C372.647 315.786 372.156 315.269 371.893 314.632L371.683 314.138Z" fill="#FF4848"/>
<path d="M150.22 407.821L150.052 408.22C149.908 408.564 149.698 408.877 149.433 409.141C149.168 409.404 148.854 409.612 148.508 409.753L148.077 409.932L148.487 410.1C148.839 410.239 149.158 410.449 149.426 410.716C149.693 410.984 149.903 411.303 150.042 411.655L150.157 411.949L150.336 411.581C150.653 410.917 151.219 410.404 151.911 410.153L152.29 410.016L151.796 409.774C151.175 409.477 150.685 408.961 150.42 408.325L150.22 407.821Z" fill="#FF4848"/>
<path d="M316.66 58.8279L316.492 59.2271C316.351 59.5723 316.141 59.8854 315.876 60.1472C315.61 60.409 315.294 60.6142 314.947 60.7503L314.517 60.9289L314.937 61.0969C315.284 61.2372 315.601 61.4449 315.868 61.7081C316.135 61.9714 316.347 62.2849 316.492 62.6306L316.607 62.9143L316.786 62.5571C317.099 61.8932 317.661 61.3797 318.351 61.1284L318.729 60.9814L318.235 60.7503C317.616 60.4478 317.13 59.928 316.87 59.2901L316.66 58.8279Z" fill="#FF4848"/>
<path d="M341.756 338.331L341.42 339.129C341.133 339.816 340.713 340.44 340.185 340.964C339.657 341.489 339.03 341.904 338.342 342.186L337.47 342.533L338.3 342.869C339.012 343.152 339.659 343.578 340.2 344.12C340.742 344.661 341.168 345.308 341.451 346.02L341.693 346.598L342.039 345.873C342.675 344.545 343.807 343.519 345.191 343.016L345.947 342.743L344.96 342.26C343.719 341.657 342.741 340.622 342.207 339.35L341.756 338.331Z" fill="#FF4848"/>
</svg>
