<svg id="visual" viewBox="0 0 900 600" width="900" height="600" xmlns="http://www.w3.org/2000/svg" xmlns:xlink="http://www.w3.org/1999/xlink" version="1.1"><path d="M0 109L37.5 111C75 113 150 117 225 122C300 127 375 133 450 129C525 125 600 111 675 101C750 91 825 85 862.5 82L900 79L900 0L862.5 0C825 0 750 0 675 0C600 0 525 0 450 0C375 0 300 0 225 0C150 0 75 0 37.5 0L0 0Z" fill="#ffffff"></path><path d="M0 247L37.5 264C75 281 150 315 225 316C300 317 375 285 450 289C525 293 600 333 675 357C750 381 825 389 862.5 393L900 397L900 77L862.5 80C825 83 750 89 675 99C600 109 525 123 450 127C375 131 300 125 225 120C150 115 75 111 37.5 109L0 107Z" fill="#ffbcbb"></path><path d="M0 541L37.5 543C75 545 150 549 225 535C300 521 375 489 450 481C525 473 600 489 675 504C750 519 825 533 862.5 540L900 547L900 395L862.5 391C825 387 750 379 675 355C600 331 525 291 450 287C375 283 300 315 225 314C150 313 75 279 37.5 262L0 245Z" fill="#ffbcbb"></path><path d="M0 601L37.5 601C75 601 150 601 225 601C300 601 375 601 450 601C525 601 600 601 675 601C750 601 825 601 862.5 601L900 601L900 545L862.5 538C825 531 750 517 675 502C600 487 525 471 450 479C375 487 300 519 225 533C150 547 75 543 37.5 541L0 539Z" fill="#ffffff"></path></svg>