<svg id="visual" viewBox="0 0 1000 1000" width="1000" height="1000" xmlns="http://www.w3.org/2000/svg" xmlns:xlink="http://www.w3.org/1999/xlink" version="1.1"><g transform="translate(457.7872156031591 512.5545421472857)"><path d="M162.2 -286.7C219.3 -247.9 281.1 -222.9 321.2 -177.5C361.3 -132 379.6 -66 394.7 8.7C409.7 83.3 421.3 166.7 381.2 212C341 257.3 249 264.6 176.8 276C104.7 287.3 52.3 302.6 -12.7 324.6C-77.7 346.5 -155.3 375 -211.9 354.7C-268.5 334.4 -304 265.2 -317.2 197.9C-330.5 130.7 -321.5 65.3 -317.3 2.4C-313.1 -60.5 -313.7 -121 -292.2 -174C-270.7 -226.9 -227.1 -272.4 -174.7 -314C-122.3 -355.6 -61.2 -393.3 -4.3 -385.8C52.5 -378.3 105 -325.5 162.2 -286.7" fill="#BDDFFF"></path></g></svg>