<svg id="visual" viewBox="0 0 2000 700" width="2000" height="700" xmlns="http://www.w3.org/2000/svg" xmlns:xlink="http://www.w3.org/1999/xlink" version="1.1"><path d="M0 505L23.8 515.8C47.7 526.7 95.3 548.3 143 543.2C190.7 538 238.3 506 286 495.3C333.7 484.7 381.3 495.3 428.8 496.7C476.3 498 523.7 490 571.2 466.8C618.7 443.7 666.3 405.3 714 388.7C761.7 372 809.3 377 857 400.7C904.7 424.3 952.3 466.7 1000 462.8C1047.7 459 1095.3 409 1143 391C1190.7 373 1238.3 387 1286 408C1333.7 429 1381.3 457 1428.8 455.5C1476.3 454 1523.7 423 1571.2 428.7C1618.7 434.3 1666.3 476.7 1714 467.3C1761.7 458 1809.3 397 1857 366.2C1904.7 335.3 1952.3 334.7 1976.2 334.3L2000 334L2000 701L1976.2 701C1952.3 701 1904.7 701 1857 701C1809.3 701 1761.7 701 1714 701C1666.3 701 1618.7 701 1571.2 701C1523.7 701 1476.3 701 1428.8 701C1381.3 701 1333.7 701 1286 701C1238.3 701 1190.7 701 1143 701C1095.3 701 1047.7 701 1000 701C952.3 701 904.7 701 857 701C809.3 701 761.7 701 714 701C666.3 701 618.7 701 571.2 701C523.7 701 476.3 701 428.8 701C381.3 701 333.7 701 286 701C238.3 701 190.7 701 143 701C95.3 701 47.7 701 23.8 701L0 701Z" fill="#bddfff"></path></svg>