<?xml version="1.0" encoding="UTF-8" standalone="no"?>
<svg
   xmlns:dc="http://purl.org/dc/elements/1.1/"
   xmlns:cc="http://creativecommons.org/ns#"
   xmlns:rdf="http://www.w3.org/1999/02/22-rdf-syntax-ns#"
   xmlns:svg="http://www.w3.org/2000/svg"
   xmlns="http://www.w3.org/2000/svg"
   id="svg35"
   xml:space="preserve"
   viewBox="0 0 1024 768"
   y="0px"
   x="0px"
   version="1.1"><metadata
     id="metadata41"><rdf:RDF><cc:Work
         rdf:about=""><dc:format>image/svg+xml</dc:format><dc:type
           rdf:resource="http://purl.org/dc/dcmitype/StillImage" /></cc:Work></rdf:RDF></metadata><defs
     id="defs39" /><g
     transform="translate(-4.8484,0.30455)"
     id="logo-group"><path
       stroke-miterlimit="2"
       d="m 398.23,420.16 c 1.472,0.576 3.04,0.832 4.704,0.832 1.76,0 3.264,-0.256 4.48,-0.8 1.216,-0.512 2.112,-1.248 2.688,-2.144 0.576,-0.896 0.896,-1.888 0.896,-2.976 0,-1.312 -0.352,-2.368 -1.056,-3.136 -0.704,-0.768 -1.536,-1.376 -2.496,-1.76 -0.992,-0.384 -2.304,-0.768 -3.936,-1.184 -1.472,-0.352 -2.656,-0.704 -3.488,-1.024 -0.864,-0.32 -1.568,-0.768 -2.144,-1.376 -0.576,-0.576 -0.864,-1.376 -0.864,-2.4 0,-1.312 0.512,-2.4 1.6,-3.232 1.056,-0.832 2.624,-1.248 4.704,-1.248 1.024,0 2.08,0.16 3.168,0.48 1.088,0.32 2.08,0.8 2.976,1.408 l 0.608,-1.312 c -0.896,-0.608 -1.92,-1.088 -3.104,-1.472 -1.216,-0.352 -2.432,-0.544 -3.648,-0.544 -1.792,0 -3.264,0.288 -4.448,0.8 -1.184,0.544 -2.048,1.28 -2.624,2.176 -0.576,0.896 -0.864,1.888 -0.864,2.976 0,1.344 0.32,2.432 1.024,3.232 0.704,0.8 1.536,1.376 2.528,1.76 0.992,0.384 2.304,0.8 3.968,1.184 1.44,0.352 2.592,0.672 3.456,0.992 0.832,0.32 1.568,0.8 2.144,1.376 0.576,0.608 0.864,1.408 0.864,2.4 0,1.312 -0.544,2.368 -1.632,3.168 -1.088,0.832 -2.72,1.216 -4.832,1.216 -1.472,0 -2.88,-0.256 -4.224,-0.768 -1.344,-0.512 -2.4,-1.216 -3.168,-2.048 l -0.736,1.216 c 0.832,0.896 1.984,1.632 3.456,2.208 z"
       style="font-variant-ligatures:none;fill:#0c5ea5;stroke-width:0;stroke-miterlimit:2"
       id="path519127" /><path
       stroke-miterlimit="2"
       d="m 424.32,419.78 -0.672,-1.12 c -0.704,0.64 -1.568,0.928 -2.592,0.928 -1.024,0 -1.824,-0.256 -2.336,-0.832 -0.512,-0.576 -0.768,-1.408 -0.768,-2.496 v -10.752 h 5.312 v -1.376 h -5.312 v -3.648 h -1.6 v 3.648 h -3.072 v 1.376 h 3.072 v 10.912 c 0,1.44 0.384,2.56 1.184,3.36 0.768,0.8 1.888,1.184 3.36,1.184 0.64,0 1.28,-0.096 1.888,-0.288 0.608,-0.192 1.12,-0.512 1.536,-0.896 z"
       style="font-variant-ligatures:none;fill:#0c5ea5;stroke-width:0;stroke-miterlimit:2"
       id="path519129" /><path
       stroke-miterlimit="2"
       d="m 432.72,405 c -1.088,0.64 -1.888,1.568 -2.4,2.784 v -3.648 h -1.536 v 16.704 h 1.6 v -8.704 c 0,-2.048 0.512,-3.68 1.568,-4.832 1.024,-1.152 2.496,-1.76 4.352,-1.76 l 0.384,0.032 v -1.568 c -1.568,0 -2.88,0.352 -3.968,0.992 z"
       style="font-variant-ligatures:none;fill:#0c5ea5;stroke-width:0;stroke-miterlimit:2"
       id="path519131" /><path
       stroke-miterlimit="2"
       d="m 441.09,404.13 v 16.704 h 1.6 V 404.13 Z m -0.128,-4.416 c 0.256,0.256 0.544,0.352 0.928,0.352 0.352,0 0.672,-0.128 0.928,-0.384 0.256,-0.256 0.384,-0.544 0.384,-0.928 0,-0.352 -0.128,-0.64 -0.384,-0.896 -0.256,-0.256 -0.576,-0.384 -0.928,-0.384 -0.384,0 -0.672,0.128 -0.928,0.384 -0.256,0.256 -0.384,0.576 -0.384,0.928 0,0.384 0.128,0.672 0.384,0.928 z"
       style="font-variant-ligatures:none;fill:#0c5ea5;stroke-width:0;stroke-miterlimit:2"
       id="path519133" /><path
       stroke-miterlimit="2"
       d="m 462.88,404.13 h -1.632 l -6.72,14.944 -6.656,-14.944 h -1.696 l 7.52,16.704 h 1.632 z"
       style="font-variant-ligatures:none;fill:#0c5ea5;stroke-width:0;stroke-miterlimit:2"
       id="path519135" /><path
       stroke-miterlimit="2"
       d="m 475.7,418.95 c -0.928,0.384 -1.952,0.576 -3.008,0.576 -1.728,0 -3.168,-0.448 -4.384,-1.344 -1.216,-0.896 -2.048,-2.112 -2.432,-3.648 l 14.112,-2.752 c -0.096,-1.472 -0.448,-2.784 -1.152,-3.968 -0.704,-1.184 -1.632,-2.112 -2.784,-2.784 -1.152,-0.672 -2.464,-1.024 -3.904,-1.024 -1.568,0 -2.976,0.384 -4.192,1.088 -1.248,0.736 -2.208,1.728 -2.912,3.008 -0.704,1.28 -1.024,2.752 -1.024,4.384 0,1.664 0.352,3.104 1.088,4.384 0.736,1.28 1.76,2.304 3.072,3.008 1.312,0.736 2.784,1.088 4.48,1.088 1.28,0 2.464,-0.224 3.584,-0.672 1.056,-0.448 1.984,-1.12 2.72,-2.048 l -0.928,-1.056 c -0.64,0.8 -1.408,1.376 -2.336,1.76 z m -6.944,-12.64 c 0.992,-0.576 2.112,-0.896 3.392,-0.896 1.088,0 2.112,0.256 3.008,0.736 0.896,0.48 1.6,1.152 2.176,1.952 0.544,0.832 0.896,1.76 1.056,2.752 l -12.736,2.496 c -0.064,-0.416 -0.064,-0.736 -0.064,-0.992 0,-1.312 0.256,-2.528 0.832,-3.584 0.544,-1.056 1.312,-1.888 2.336,-2.464 z"
       style="font-variant-ligatures:none;fill:#0c5ea5;stroke-width:0;stroke-miterlimit:2"
       id="path519137" /><path
       stroke-miterlimit="2"
       d="m 493.73,398.44 v 1.472 h 14.336 v -1.472 z m 0,22.4 h 1.632 v -9.888 h 12.704 V 409.48 H 493.73 Z"
       style="font-variant-ligatures:none;fill:#0c5ea5;stroke-width:0;stroke-miterlimit:2"
       id="path519139" /><path
       stroke-miterlimit="2"
       d="m 515.02,419.88 c 1.28,0.736 2.688,1.088 4.288,1.088 1.568,0 2.976,-0.352 4.256,-1.088 1.28,-0.704 2.272,-1.728 3.008,-3.008 0.704,-1.28 1.088,-2.752 1.088,-4.384 0,-1.6 -0.384,-3.072 -1.088,-4.352 -0.736,-1.28 -1.728,-2.304 -3.008,-3.04 -1.28,-0.704 -2.688,-1.088 -4.256,-1.088 -1.6,0 -3.008,0.384 -4.288,1.088 -1.28,0.736 -2.272,1.76 -2.976,3.04 -0.736,1.28 -1.088,2.752 -1.088,4.352 0,1.632 0.352,3.104 1.088,4.384 0.704,1.28 1.696,2.304 2.976,3.008 z m 7.712,-1.248 c -1.024,0.608 -2.144,0.896 -3.424,0.896 -1.28,0 -2.432,-0.288 -3.456,-0.896 -1.024,-0.576 -1.824,-1.408 -2.4,-2.496 -0.576,-1.056 -0.864,-2.272 -0.864,-3.648 0,-1.344 0.288,-2.56 0.864,-3.648 0.576,-1.056 1.376,-1.888 2.4,-2.496 1.024,-0.576 2.176,-0.896 3.456,-0.896 1.28,0 2.4,0.32 3.424,0.896 1.024,0.608 1.824,1.44 2.4,2.496 0.576,1.088 0.896,2.304 0.896,3.648 0,1.376 -0.32,2.592 -0.896,3.648 -0.576,1.088 -1.376,1.92 -2.4,2.496 z"
       style="font-variant-ligatures:none;fill:#0c5ea5;stroke-width:0;stroke-miterlimit:2"
       id="path519141" /><path
       stroke-miterlimit="2"
       d="m 536.53,405 c -1.088,0.64 -1.888,1.568 -2.4,2.784 v -3.648 h -1.536 v 16.704 h 1.6 v -8.704 c 0,-2.048 0.512,-3.68 1.568,-4.832 1.024,-1.152 2.496,-1.76 4.352,-1.76 l 0.384,0.032 v -1.568 c -1.568,0 -2.88,0.352 -3.968,0.992 z"
       style="font-variant-ligatures:none;fill:#0c5ea5;stroke-width:0;stroke-miterlimit:2"
       id="path519143" /><path
       stroke-miterlimit="2"
       d="m 555.16,420.16 c 1.472,0.576 3.04,0.832 4.704,0.832 1.76,0 3.264,-0.256 4.48,-0.8 1.216,-0.512 2.112,-1.248 2.688,-2.144 0.576,-0.896 0.896,-1.888 0.896,-2.976 0,-1.312 -0.352,-2.368 -1.056,-3.136 -0.704,-0.768 -1.536,-1.376 -2.496,-1.76 -0.992,-0.384 -2.304,-0.768 -3.936,-1.184 -1.472,-0.352 -2.656,-0.704 -3.488,-1.024 -0.864,-0.32 -1.568,-0.768 -2.144,-1.376 -0.576,-0.576 -0.864,-1.376 -0.864,-2.4 0,-1.312 0.512,-2.4 1.6,-3.232 1.056,-0.832 2.624,-1.248 4.704,-1.248 1.024,0 2.08,0.16 3.168,0.48 1.088,0.32 2.08,0.8 2.976,1.408 L 567,400.288 c -0.896,-0.608 -1.92,-1.088 -3.104,-1.472 -1.216,-0.352 -2.432,-0.544 -3.648,-0.544 -1.792,0 -3.264,0.288 -4.448,0.8 -1.184,0.544 -2.048,1.28 -2.624,2.176 -0.576,0.896 -0.864,1.888 -0.864,2.976 0,1.344 0.32,2.432 1.024,3.232 0.704,0.8 1.536,1.376 2.528,1.76 0.992,0.384 2.304,0.8 3.968,1.184 1.44,0.352 2.592,0.672 3.456,0.992 0.832,0.32 1.568,0.8 2.144,1.376 0.576,0.608 0.864,1.408 0.864,2.4 0,1.312 -0.544,2.368 -1.632,3.168 -1.088,0.832 -2.72,1.216 -4.832,1.216 -1.472,0 -2.88,-0.256 -4.224,-0.768 -1.344,-0.512 -2.4,-1.216 -3.168,-2.048 l -0.736,1.216 c 0.832,0.896 1.984,1.632 3.456,2.208 z"
       style="font-variant-ligatures:none;fill:#0c5ea5;stroke-width:0;stroke-miterlimit:2"
       id="path519145" /><path
       stroke-miterlimit="2"
       d="m 587.59,404.13 h -1.6 v 8.896 c 0,1.984 -0.576,3.584 -1.664,4.736 -1.088,1.184 -2.592,1.76 -4.448,1.76 -1.76,0 -3.104,-0.48 -4.064,-1.472 -0.96,-0.96 -1.44,-2.4 -1.44,-4.288 v -9.632 h -1.6 v 9.76 c 0,2.304 0.608,4.032 1.856,5.248 1.216,1.216 2.944,1.824 5.12,1.824 1.472,0 2.752,-0.32 3.84,-0.96 1.088,-0.64 1.888,-1.568 2.464,-2.752 v 3.584 h 1.536 z"
       style="font-variant-ligatures:none;fill:#0c5ea5;stroke-width:0;stroke-miterlimit:2"
       id="path519147" /><path
       stroke-miterlimit="2"
       d="m 596.68,419.88 c 1.28,0.736 2.72,1.088 4.352,1.088 1.344,0 2.56,-0.256 3.648,-0.768 1.088,-0.512 1.984,-1.28 2.688,-2.304 l -1.184,-0.864 c -0.608,0.832 -1.344,1.472 -2.24,1.888 -0.896,0.416 -1.856,0.608 -2.912,0.608 -1.312,0 -2.496,-0.288 -3.52,-0.864 -1.024,-0.576 -1.856,-1.408 -2.432,-2.496 -0.576,-1.056 -0.864,-2.272 -0.864,-3.68 0,-1.376 0.288,-2.592 0.864,-3.68 0.576,-1.056 1.408,-1.888 2.432,-2.464 1.024,-0.576 2.208,-0.896 3.52,-0.896 1.056,0 2.016,0.224 2.912,0.64 0.896,0.416 1.632,1.024 2.24,1.856 l 1.184,-0.864 c -0.704,-0.992 -1.6,-1.76 -2.688,-2.272 -1.088,-0.512 -2.304,-0.8 -3.648,-0.8 -1.632,0 -3.072,0.384 -4.352,1.088 -1.28,0.704 -2.304,1.728 -3.008,3.008 -0.736,1.28 -1.088,2.752 -1.088,4.384 0,1.632 0.352,3.104 1.088,4.384 0.704,1.28 1.728,2.304 3.008,3.008 z"
       style="font-variant-ligatures:none;fill:#0c5ea5;stroke-width:0;stroke-miterlimit:2"
       id="path519149" /><path
       stroke-miterlimit="2"
       d="m 614.12,419.88 c 1.28,0.736 2.72,1.088 4.352,1.088 1.344,0 2.56,-0.256 3.648,-0.768 1.088,-0.512 1.984,-1.28 2.688,-2.304 l -1.184,-0.864 c -0.608,0.832 -1.344,1.472 -2.24,1.888 -0.896,0.416 -1.856,0.608 -2.912,0.608 -1.312,0 -2.496,-0.288 -3.52,-0.864 -1.024,-0.576 -1.856,-1.408 -2.432,-2.496 -0.576,-1.056 -0.864,-2.272 -0.864,-3.68 0,-1.376 0.288,-2.592 0.864,-3.68 0.576,-1.056 1.408,-1.888 2.432,-2.464 1.024,-0.576 2.208,-0.896 3.52,-0.896 1.056,0 2.016,0.224 2.912,0.64 0.896,0.416 1.632,1.024 2.24,1.856 l 1.184,-0.864 c -0.704,-0.992 -1.6,-1.76 -2.688,-2.272 -1.088,-0.512 -2.304,-0.8 -3.648,-0.8 -1.632,0 -3.072,0.384 -4.352,1.088 -1.28,0.704 -2.304,1.728 -3.008,3.008 -0.736,1.28 -1.088,2.752 -1.088,4.384 0,1.632 0.352,3.104 1.088,4.384 0.704,1.28 1.728,2.304 3.008,3.008 z"
       style="font-variant-ligatures:none;fill:#0c5ea5;stroke-width:0;stroke-miterlimit:2"
       id="path519151" /><path
       stroke-miterlimit="2"
       d="m 639.14,418.95 c -0.928,0.384 -1.952,0.576 -3.008,0.576 -1.728,0 -3.168,-0.448 -4.384,-1.344 -1.216,-0.896 -2.048,-2.112 -2.432,-3.648 l 14.112,-2.752 c -0.096,-1.472 -0.448,-2.784 -1.152,-3.968 -0.704,-1.184 -1.632,-2.112 -2.784,-2.784 -1.152,-0.672 -2.464,-1.024 -3.904,-1.024 -1.568,0 -2.976,0.384 -4.192,1.088 -1.248,0.736 -2.208,1.728 -2.912,3.008 -0.704,1.28 -1.024,2.752 -1.024,4.384 0,1.664 0.352,3.104 1.088,4.384 0.736,1.28 1.76,2.304 3.072,3.008 1.312,0.736 2.784,1.088 4.48,1.088 1.28,0 2.464,-0.224 3.584,-0.672 1.056,-0.448 1.984,-1.12 2.72,-2.048 l -0.928,-1.056 c -0.64,0.8 -1.408,1.376 -2.336,1.76 z m -6.944,-12.64 c 0.992,-0.576 2.112,-0.896 3.392,-0.896 1.088,0 2.112,0.256 3.008,0.736 0.896,0.48 1.6,1.152 2.176,1.952 0.544,0.832 0.896,1.76 1.056,2.752 l -12.736,2.496 c -0.064,-0.416 -0.064,-0.736 -0.064,-0.992 0,-1.312 0.256,-2.528 0.832,-3.584 0.544,-1.056 1.312,-1.888 2.336,-2.464 z"
       style="font-variant-ligatures:none;fill:#0c5ea5;stroke-width:0;stroke-miterlimit:2"
       id="path519153" /><path
       stroke-miterlimit="2"
       d="m 648.79,420.36 c 1.216,0.416 2.496,0.608 3.84,0.608 2.08,0 3.712,-0.416 4.864,-1.248 1.152,-0.832 1.728,-1.92 1.728,-3.328 0,-1.024 -0.288,-1.856 -0.832,-2.464 -0.576,-0.576 -1.248,-1.024 -2.048,-1.28 -0.8,-0.256 -1.856,-0.512 -3.136,-0.768 -1.184,-0.224 -2.112,-0.448 -2.752,-0.64 -0.64,-0.192 -1.184,-0.512 -1.632,-0.928 -0.448,-0.416 -0.672,-0.992 -0.672,-1.76 0,-0.928 0.384,-1.696 1.184,-2.272 0.768,-0.576 1.952,-0.864 3.52,-0.864 0.896,0 1.792,0.128 2.688,0.384 0.864,0.256 1.632,0.64 2.336,1.12 l 0.736,-1.28 c -0.672,-0.48 -1.536,-0.864 -2.56,-1.184 -1.056,-0.288 -2.112,-0.448 -3.168,-0.448 -2.048,0 -3.616,0.448 -4.704,1.312 -1.088,0.864 -1.632,1.952 -1.632,3.264 0,1.088 0.288,1.952 0.864,2.56 0.576,0.64 1.248,1.088 2.08,1.344 0.8,0.288 1.856,0.544 3.2,0.768 1.12,0.224 2.016,0.416 2.656,0.608 0.64,0.192 1.152,0.512 1.6,0.896 0.448,0.416 0.672,0.96 0.672,1.664 0,0.992 -0.416,1.76 -1.216,2.304 -0.8,0.576 -2.048,0.832 -3.712,0.832 -1.184,0 -2.304,-0.192 -3.392,-0.576 -1.088,-0.384 -1.952,-0.864 -2.624,-1.44 l -0.736,1.28 c 0.672,0.64 1.632,1.152 2.848,1.536 z"
       style="font-variant-ligatures:none;fill:#0c5ea5;stroke-width:0;stroke-miterlimit:2"
       id="path519155" /><path
       stroke-miterlimit="2"
       d="m 664.1,420.36 c 1.216,0.416 2.496,0.608 3.84,0.608 2.08,0 3.712,-0.416 4.864,-1.248 1.152,-0.832 1.728,-1.92 1.728,-3.328 0,-1.024 -0.288,-1.856 -0.832,-2.464 -0.576,-0.576 -1.248,-1.024 -2.048,-1.28 -0.8,-0.256 -1.856,-0.512 -3.136,-0.768 -1.184,-0.224 -2.112,-0.448 -2.752,-0.64 -0.64,-0.192 -1.184,-0.512 -1.632,-0.928 -0.448,-0.416 -0.672,-0.992 -0.672,-1.76 0,-0.928 0.384,-1.696 1.184,-2.272 0.768,-0.576 1.952,-0.864 3.52,-0.864 0.896,0 1.792,0.128 2.688,0.384 0.864,0.256 1.632,0.64 2.336,1.12 l 0.736,-1.28 c -0.672,-0.48 -1.536,-0.864 -2.56,-1.184 -1.056,-0.288 -2.112,-0.448 -3.168,-0.448 -2.048,0 -3.616,0.448 -4.704,1.312 -1.088,0.864 -1.632,1.952 -1.632,3.264 0,1.088 0.288,1.952 0.864,2.56 0.576,0.64 1.248,1.088 2.08,1.344 0.8,0.288 1.856,0.544 3.2,0.768 1.12,0.224 2.016,0.416 2.656,0.608 0.64,0.192 1.152,0.512 1.6,0.896 0.448,0.416 0.672,0.96 0.672,1.664 0,0.992 -0.416,1.76 -1.216,2.304 -0.8,0.576 -2.048,0.832 -3.712,0.832 -1.184,0 -2.304,-0.192 -3.392,-0.576 -1.088,-0.384 -1.952,-0.864 -2.624,-1.44 l -0.736,1.28 c 0.672,0.64 1.632,1.152 2.848,1.536 z"
       style="font-variant-ligatures:none;fill:#0c5ea5;stroke-width:0;stroke-miterlimit:2"
       id="path519157" /><path
       stroke-miterlimit="2"
       d="m 399.44,376.55 c 1.9872,0.7776 4.104,1.1232 6.3504,1.1232 2.376,0 4.4064,-0.3456 6.048,-1.08 1.6416,-0.6912 2.8512,-1.6848 3.6288,-2.8944 0.77761,-1.2096 1.2096,-2.5488 1.2096,-4.0176 0,-1.7712 -0.47519,-3.1968 -1.4256,-4.2336 -0.9504,-1.0368 -2.0736,-1.8576 -3.3696,-2.376 -1.3392,-0.5184 -3.1104,-1.0368 -5.3136,-1.5984 -1.9872,-0.4752 -3.5856,-0.9504 -4.7088,-1.3824 -1.1664,-0.432 -2.1168,-1.0368 -2.8944,-1.8576 -0.77759,-0.7776 -1.1664,-1.8576 -1.1664,-3.24 0,-1.7712 0.6912,-3.24 2.16,-4.3632 1.4256,-1.1232 3.5424,-1.6848 6.3504,-1.6848 1.3824,0 2.808,0.216 4.2768,0.648 1.4688,0.432 2.808,1.08 4.0176,1.9008 l 0.8208,-1.7712 c -1.2096,-0.8208 -2.592,-1.4688 -4.1904,-1.9872 -1.6416,-0.4752 -3.2832,-0.7344 -4.9248,-0.7344 -2.4192,0 -4.4064,0.3888 -6.0048,1.08 -1.5984,0.7344 -2.7648,1.728 -3.5424,2.9376 -0.7776,1.2096 -1.1664,2.5488 -1.1664,4.0176 0,1.8144 0.432,3.2832 1.3824,4.3632 0.9504,1.08 2.0736,1.8576 3.4128,2.376 1.3392,0.5184 3.1104,1.08 5.3568,1.5984 1.944,0.4752 3.4992,0.9072 4.6656,1.3392 1.1232,0.432 2.1168,1.08 2.8944,1.8576 0.7776,0.8208 1.1664,1.9008 1.1664,3.24 0,1.7712 -0.7344,3.1968 -2.2032,4.2768 -1.4688,1.1232 -3.672,1.6416 -6.5232,1.6416 -1.9872,0 -3.888,-0.3456 -5.7024,-1.0368 -1.8144,-0.6912 -3.24,-1.6416 -4.2768,-2.7648 l -0.9936,1.6416 c 1.1232,1.2096 2.6784,2.2032 4.6656,2.9808 z"
       style="font-variant-ligatures:none;fill:#1e64ea;stroke-width:0;stroke-miterlimit:2"
       id="path519160" /><path
       stroke-miterlimit="2"
       d="m 429.53,349.21 v 28.25 h 2.2032 v -28.253 h 10.886 v -1.99 h -23.976 v 1.9872 z"
       style="font-variant-ligatures:none;fill:#1b58d4;stroke-width:0;stroke-miterlimit:2"
       id="path519162" /><path
       stroke-miterlimit="2"
       d="m 463.98,366.88 c 2.2464,-0.648 4.0176,-1.7712 5.2272,-3.4128 1.2096,-1.6416 1.8576,-3.6288 1.8576,-6.048 0,-3.1536 -1.08,-5.6592 -3.24,-7.4736 -2.16,-1.8144 -5.1408,-2.7216 -8.9424,-2.7216 h -10.84 v 1.9872 h 10.843 c 3.1968,0 5.6592,0.7344 7.3872,2.16 1.6848,1.4256 2.5488,3.456 2.5488,6.048 0,2.6352 -0.864,4.6656 -2.5488,6.0912 -1.728,1.4256 -4.1904,2.1168 -7.3872,2.1168 h -10.84 v 11.83 h 2.2032 v -9.8928 h 8.64 c 0.864,0 1.8576,-0.0432 2.9376,-0.216 l 7.2144,10.109 h 2.5056 z"
       style="font-variant-ligatures:none;fill:#184dbf;stroke-width:0;stroke-miterlimit:2"
       id="path519164" /><path
       stroke-miterlimit="2"
       d="m 479.18,347.22 v 30.24 h 2.2032 v -30.24 z"
       style="font-variant-ligatures:none;fill:#1541a9;stroke-width:0;stroke-miterlimit:2"
       id="path519166" /><path
       stroke-miterlimit="2"
       d="m 515.64,347.22 h -2.2896 l -12.22,27.39 -12.23,-27.39 h -2.4192 l 13.478,30.24 h 2.2032 z"
       style="font-variant-ligatures:none;fill:#123694;stroke-width:0;stroke-miterlimit:2"
       id="path519168" /><path
       stroke-miterlimit="2"
       d="m 540.09,361.13 h -19.57 v 1.944 h 19.57 z m 0,-13.91 h -19.57 v 1.9872 h 19.57 z m -19.57,28.253 v 1.9872 h 19.57 v -1.9872 z"
       style="font-variant-ligatures:none;fill:#0f2a7e;stroke-width:0;stroke-miterlimit:2"
       id="path519170" /><path
       stroke-miterlimit="2"
       d="m 571.66,347.22 h -2.2032 l -13.91,30.24 h 2.376 l 12.614,-27.821 12.658,27.821 h 2.376 z"
       style="font-variant-ligatures:none;fill:#1d18b7;stroke-width:0;stroke-miterlimit:2"
       id="path519172" /><path
       stroke-miterlimit="2"
       d="m 595.39,375.69 c 2.376,1.3392 5.0544,1.9872 8.0352,1.9872 2.16,0 4.1472,-0.3456 6.0048,-1.08 1.8576,-0.6912 3.456,-1.7712 4.752,-3.1536 l -1.3824,-1.4256 c -2.4624,2.4192 -5.5728,3.6288 -9.288,3.6288 -2.5488,0 -4.8384,-0.5616 -6.912,-1.728 -2.0736,-1.1232 -3.7152,-2.7216 -4.8816,-4.752 -1.2096,-2.0304 -1.7712,-4.32 -1.7712,-6.8256 0,-2.5056 0.5616,-4.752 1.7712,-6.7824 1.1664,-2.0304 2.808,-3.6288 4.8816,-4.7952 2.0736,-1.1232 4.3632,-1.728 6.912,-1.728 3.7584,0 6.8688,1.2096 9.288,3.5856 l 1.3824,-1.4256 c -1.296,-1.3824 -2.8944,-2.4192 -4.7088,-3.1104 -1.8576,-0.6912 -3.888,-1.08 -6.048,-1.08 -2.9808,0 -5.6592,0.6912 -8.0352,1.9872 -2.376,1.3392 -4.2336,3.1536 -5.616,5.4864 -1.3824,2.3328 -2.0304,4.968 -2.0304,7.8624 0,2.9376 0.648,5.5296 2.0304,7.8624 1.3824,2.3328 3.24,4.1904 5.616,5.4864 z"
       style="font-variant-ligatures:none;fill:#2119c5;stroke-width:0;stroke-miterlimit:2"
       id="path519174" /><path
       stroke-miterlimit="2"
       d="m 631.82,347.22 h -2.2032 l -13.91,30.24 h 2.376 l 12.614,-27.821 12.658,27.821 h 2.376 z"
       style="font-variant-ligatures:none;fill:#1e21b3;stroke-width:0;stroke-miterlimit:2"
       id="path519176" /><path
       stroke-miterlimit="2"
       d="m 677.22,354.56 c -1.3824,-2.2896 -3.2832,-4.0608 -5.7024,-5.4 -2.4192,-1.296 -5.2272,-1.944 -8.3376,-1.944 h -11.96 v 1.9872 h 11.794 c 2.7648,0 5.2272,0.5616 7.3872,1.6848 2.1168,1.1232 3.7584,2.6784 4.9248,4.6224 1.1232,1.9872 1.728,4.2768 1.728,6.8256 0,2.592 -0.6048,4.8384 -1.728,6.8256 -1.1664,1.9872 -2.808,3.5424 -4.9248,4.6656 -2.16,1.1232 -4.6224,1.6416 -7.3872,1.6416 h -9.5904 v -13.14 h -2.2032 v 15.12 h 11.966 c 3.1104,0 5.9184,-0.648 8.3376,-1.944 2.4192,-1.296 4.32,-3.0672 5.7024,-5.3568 1.3392,-2.2896 2.0304,-4.8816 2.0304,-7.8192 0,-2.8944 -0.6912,-5.4864 -2.0304,-7.776 z"
       style="font-variant-ligatures:none;fill:#1b28a2;stroke-width:0;stroke-miterlimit:2"
       id="path519178" /><path
       stroke-miterlimit="2"
       d="m 706.48,361.13 h -19.57 v 1.944 h 19.57 z m 0,-13.91 h -19.57 v 1.9872 h 19.57 z m -19.57,28.253 v 1.9872 h 19.57 v -1.9872 z"
       style="font-variant-ligatures:none;fill:#183091;stroke-width:0;stroke-miterlimit:2"
       id="path519180" /><path
       stroke-miterlimit="2"
       d="m 744.45,377.46 h 2.16 l -0.0432,-30.24 h -1.8144 l -13.522,23.371 -13.522,-23.371 h -1.8576 v 30.24 h 2.16 v -25.79 l 12.658,21.773 h 1.08 l 12.658,-21.859 z"
       style="font-variant-ligatures:none;fill:#153780;stroke-width:0;stroke-miterlimit:2"
       id="path519182" /><path
       stroke-miterlimit="2"
       d="m 757.11,347.22 v 30.24 h 2.2032 v -30.24 z"
       style="font-variant-ligatures:none;fill:#113f6e;stroke-width:0;stroke-miterlimit:2"
       id="path519184" /><path
       stroke-miterlimit="2"
       d="m 774.6,375.69 c 2.376,1.3392 5.0544,1.9872 8.0352,1.9872 2.16,0 4.1472,-0.3456 6.0048,-1.08 1.8576,-0.6912 3.456,-1.7712 4.752,-3.1536 l -1.3824,-1.4256 c -2.4624,2.4192 -5.5728,3.6288 -9.288,3.6288 -2.5488,0 -4.8384,-0.5616 -6.912,-1.728 -2.0736,-1.1232 -3.7152,-2.7216 -4.8816,-4.752 -1.2096,-2.0304 -1.7712,-4.32 -1.7712,-6.8256 0,-2.5056 0.5616,-4.752 1.7712,-6.7824 1.1664,-2.0304 2.808,-3.6288 4.8816,-4.7952 2.0736,-1.1232 4.3632,-1.728 6.912,-1.728 3.7584,0 6.8688,1.2096 9.288,3.5856 l 1.3824,-1.4256 c -1.296,-1.3824 -2.8944,-2.4192 -4.7088,-3.1104 -1.8576,-0.6912 -3.888,-1.08 -6.048,-1.08 -2.9808,0 -5.6592,0.6912 -8.0352,1.9872 -2.376,1.3392 -4.2336,3.1536 -5.616,5.4864 -1.3824,2.3328 -2.0304,4.968 -2.0304,7.8624 0,2.9376 0.648,5.5296 2.0304,7.8624 1.3824,2.3328 3.24,4.1904 5.616,5.4864 z"
       style="font-variant-ligatures:none;fill:#0e465d;stroke-width:0;stroke-miterlimit:2"
       id="path519186" /><path
       stroke-miterlimit="2"
       d="m 802.24,376.55 c 1.9872,0.7776 4.104,1.1232 6.3504,1.1232 2.376,0 4.4064,-0.3456 6.048,-1.08 1.6416,-0.6912 2.8512,-1.6848 3.6288,-2.8944 0.77761,-1.2096 1.2096,-2.5488 1.2096,-4.0176 0,-1.7712 -0.4752,-3.1968 -1.4256,-4.2336 -0.9504,-1.0368 -2.0736,-1.8576 -3.3696,-2.376 -1.3392,-0.5184 -3.1104,-1.0368 -5.3136,-1.5984 -1.9872,-0.4752 -3.5856,-0.9504 -4.7088,-1.3824 -1.1664,-0.432 -2.1168,-1.0368 -2.8944,-1.8576 -0.77759,-0.7776 -1.1664,-1.8576 -1.1664,-3.24 0,-1.7712 0.69121,-3.24 2.16,-4.3632 1.4256,-1.1232 3.5424,-1.6848 6.3504,-1.6848 1.3824,0 2.808,0.216 4.2768,0.648 1.4688,0.432 2.808,1.08 4.0176,1.9008 l 0.82079,-1.7712 c -1.2096,-0.8208 -2.592,-1.4688 -4.1904,-1.9872 -1.6416,-0.4752 -3.2832,-0.7344 -4.9248,-0.7344 -2.4192,0 -4.4064,0.3888 -6.0048,1.08 -1.5984,0.7344 -2.7648,1.728 -3.5424,2.9376 -0.77761,1.2096 -1.1664,2.5488 -1.1664,4.0176 0,1.8144 0.432,3.2832 1.3824,4.3632 0.95039,1.08 2.0736,1.8576 3.4128,2.376 1.3392,0.5184 3.1104,1.08 5.3568,1.5984 1.944,0.4752 3.4992,0.9072 4.6656,1.3392 1.1232,0.432 2.1168,1.08 2.8944,1.8576 0.7776,0.8208 1.1664,1.9008 1.1664,3.24 0,1.7712 -0.73441,3.1968 -2.2032,4.2768 -1.4688,1.1232 -3.672,1.6416 -6.5232,1.6416 -1.9872,0 -3.888,-0.3456 -5.7024,-1.0368 -1.8144,-0.6912 -3.24,-1.6416 -4.2768,-2.7648 l -0.99359,1.6416 c 1.1232,1.2096 2.6784,2.2032 4.6656,2.9808 z"
       style="font-variant-ligatures:none;fill:#0b4e4c;stroke-width:0;stroke-miterlimit:2"
       id="path519188" /><path
       style="fill:#1e64ea;stroke-width:0.75"
       d="m 279.23,344.17 c -0.0825,-0.008 -11.051,3.9218 -32.576,11.672 -17.848,6.4252 -32.443,11.692 -32.432,11.702 0.0104,0.0104 1.4312,0.62675 3.1571,1.3699 1.726,0.74309 5.775,2.4832 8.997,3.8668 3.2226,1.3836 16.405,7.044 29.294,12.578 12.89,5.5348 23.482,10.063 23.54,10.063 0.0575,-4.1e-4 7.3663,-3.1213 16.242,-6.9356 8.8757,-3.8143 20.942,-8.9955 26.813,-11.513 5.8714,-2.5178 11.858,-5.0882 13.302,-5.7116 1.4449,-0.62342 3.9594,-1.706 5.5878,-2.4052 1.6284,-0.69973 2.9757,-1.2865 2.9944,-1.3044 0.0187,-0.0175 -0.15971,-0.10133 -0.39614,-0.1864 -0.24001,-0.0847 -14.828,-5.3362 -32.415,-11.669 -17.595,-6.3338 -32.041,-11.52 -32.11,-11.526 z m 53.115,33.335 c -0.0171,-0.008 -0.68805,0.26813 -1.4908,0.61507 l -1.4595,0.63009 -0.0104,18.252 -0.0104,18.252 h 3.0024 v -18.867 c 0,-10.377 -0.0142,-18.874 -0.0313,-18.883 z m -92.985,5.7645 c -0.0108,0 -0.015,3.7952 -0.009,8.4338 l 0.0104,8.4338 19.921,8.604 19.921,8.6048 19.954,-8.5208 19.954,-8.5208 4.1e-4,-8.4382 c 4.3e-4,-6.7341 -0.01,-8.4338 -0.0517,-8.4165 -0.0288,0.0117 -9.003,3.8447 -19.943,8.5178 l -19.891,8.496 -0.22935,-0.0863 c -0.12675,-0.0525 -9.093,-3.9225 -19.924,-8.6025 -10.832,-4.68 -19.702,-8.5125 -19.714,-8.5125 z m 91.515,33.608 h -1.8728 l -0.0809,0.11468 c -0.0446,0.063 -0.8715,1.4812 -1.8377,3.1513 -0.96615,1.6701 -1.7568,3.0446 -1.7568,3.0545 0,0.01 2.4958,0.0179 5.5461,0.0179 3.0503,0 5.5461,-0.006 5.5461,-0.0142 0,-0.008 -0.78022,-1.364 -1.7335,-3.0128 -0.9537,-1.6492 -1.7798,-3.0692 -1.8356,-3.155 l -0.12,-0.14 z"
       id="icon" /></g></svg>