<?xml version="1.0" encoding="UTF-8" standalone="no"?>
<svg
   xmlns:dc="http://purl.org/dc/elements/1.1/"
   xmlns:cc="http://creativecommons.org/ns#"
   xmlns:rdf="http://www.w3.org/1999/02/22-rdf-syntax-ns#"
   xmlns:svg="http://www.w3.org/2000/svg"
   xmlns="http://www.w3.org/2000/svg"
   id="svg11"
   xml:space="preserve"
   enable-background="new 0 0 200 200"
   viewBox="0 0 200 200"
   y="0px"
   x="0px"
   version="1.1"><metadata
     id="metadata15"><rdf:RDF><cc:Work
         rdf:about=""><dc:format>image/svg+xml</dc:format><dc:type
           rdf:resource="http://purl.org/dc/dcmitype/StillImage" /></cc:Work></rdf:RDF></metadata><defs
     id="defs391007" /><linearGradient
     spreadMethod="pad"
     y2="30%"
     x2="-10%"
     y1="120%"
     x1="30%"
     id="3d_gradient2-logo-a65aa051-c335-48a5-b78a-2984cd67d495"><stop
       id="stop390984"
       stop-opacity="1"
       stop-color="#ffffff"
       offset="0%" /><stop
       id="stop390986"
       stop-opacity="1"
       stop-color="#000000"
       offset="100%" /></linearGradient><linearGradient
     gradientTransform="rotate(-30)"
     spreadMethod="pad"
     y2="30%"
     x2="-10%"
     y1="120%"
     x1="30%"
     id="3d_gradient3-logo-a65aa051-c335-48a5-b78a-2984cd67d495"><stop
       id="stop390989"
       stop-opacity="1"
       stop-color="#ffffff"
       offset="0%" /><stop
       id="stop390991"
       stop-opacity="1"
       stop-color="#cccccc"
       offset="50%" /><stop
       id="stop390993"
       stop-opacity="1"
       stop-color="#000000"
       offset="100%" /></linearGradient><path
     style="fill:#1366d3;stroke-width:0.69268745"
     d="M 100.04076,63.497499 C 99.964566,63.489879 89.834012,67.119561 69.953883,74.277101 53.469307,80.211354 39.990302,85.075405 40,85.085103 c 0.0096,0.0096 1.321786,0.578858 2.915868,1.265194 1.594081,0.686307 5.333693,2.293488 8.309478,3.571357 2.97634,1.27787 15.151153,6.505721 27.055679,11.617066 11.904526,5.11189 21.688044,9.29378 21.740685,9.29378 0.0532,-3.9e-4 6.80337,-2.88275 15.00084,-6.40555 8.19747,-3.52281 19.34122,-8.308098 24.76427,-10.63345 5.4227,-2.325421 10.95139,-4.699399 12.28551,-5.275161 1.33446,-0.575776 3.65683,-1.575587 5.16079,-2.221449 1.50397,-0.646256 2.74831,-1.188166 2.76563,-1.204722 0.0173,-0.01617 -0.14751,-0.09359 -0.36588,-0.172153 -0.22166,-0.07827 -13.69443,-4.928471 -29.93795,-10.777524 -16.25045,-5.849746 -29.5923,-10.639679 -29.65603,-10.645221 z m 49.05613,30.787879 c -0.0158,-0.0077 -0.63548,0.247642 -1.37686,0.568072 l -1.34797,0.581941 -0.01,16.857239 -0.01,16.85724 h 2.77296 v -17.42524 c 0,-9.58402 -0.0131,-17.431481 -0.0289,-17.439793 z m -85.879392,5.323995 c -0.01002,0 -0.01387,3.505137 -0.0085,7.789267 l 0.0096,7.78927 18.398471,7.94651 18.398471,7.94721 18.42964,-7.86962 18.42964,-7.86963 3.8e-4,-7.79342 c 3.9e-4,-6.21951 -0.009,-7.789274 -0.0477,-7.773342 -0.0266,0.01079 -8.31502,3.550922 -18.41926,7.866852 l -18.37076,7.84676 -0.21182,-0.0797 c -0.117064,-0.0485 -8.398142,-3.62275 -18.401934,-7.94512 C 71.41997,103.14202 63.226863,99.602384 63.216472,99.602384 Z M 147.73922,130.6487 h -1.72964 l -0.0747,0.10591 c -0.0412,0.0582 -0.80491,1.36799 -1.6973,2.91046 -0.89232,1.54248 -1.62255,2.8119 -1.62255,2.82111 0,0.009 2.30506,0.0166 5.12229,0.0166 2.81723,0 5.12228,-0.006 5.12228,-0.0131 0,-0.007 -0.7206,-1.25979 -1.60101,-2.7826 -0.88082,-1.52322 -1.64374,-2.83461 -1.69535,-2.91393 l -0.094,-0.14442 z"
     id="icon" /></svg>