<?xml version="1.0" encoding="UTF-8" standalone="no"?>
<svg
   xmlns:dc="http://purl.org/dc/elements/1.1/"
   xmlns:cc="http://creativecommons.org/ns#"
   xmlns:rdf="http://www.w3.org/1999/02/22-rdf-syntax-ns#"
   xmlns:svg="http://www.w3.org/2000/svg"
   xmlns="http://www.w3.org/2000/svg"
   id="svg4"
   xml:space="preserve"
   enable-background="new 0 0 200 200"
   viewBox="0 0 200 200"
   y="0px"
   x="0px"
   version="1.1"><metadata
     id="metadata10"><rdf:RDF><cc:Work
         rdf:about=""><dc:format>image/svg+xml</dc:format><dc:type
           rdf:resource="http://purl.org/dc/dcmitype/StillImage" /></cc:Work></rdf:RDF></metadata><defs
     id="defs8" /><path
     id="path2"
     d="m100.04 63.498c-0.07736-0.0072-10.207 3.6222-30.086 10.779-16.485 5.9342-29.963 10.799-29.953 10.809 0.0096 0.0096 1.3219 0.57734 2.916 1.2637 1.5941 0.68631 5.3328 2.2944 8.3086 3.5723 2.9763 1.2779 15.152 6.5059 27.057 11.617 11.905 5.1119 21.688 9.293 21.74 9.293 0.0531-0.00038 6.8045-2.8815 15.002-6.4043s19.341-8.3094 24.764-10.635c5.4227-2.3254 10.951-4.6996 12.285-5.2754 1.3345-0.57577 3.6562-1.5748 5.1602-2.2207 1.504-0.64626 2.7483-1.1885 2.7656-1.2051 0.0173-0.0162-0.14687-0.09331-0.36524-0.17188-0.22166-0.07828-13.694-4.9283-29.938-10.777-16.249-5.8494-29.589-10.638-29.654-10.645zm49.059 30.787c-0.0158-0.0077-0.63557 0.24793-1.377 0.56836l-1.3496 0.58203-0.008 16.857-0.01 16.857h2.7715v-17.426c0-9.584-0.0116-17.431-0.0274-17.439zm-85.881 5.3164v0.0078c-0.01 0-0.01316 3.5049-0.0078 7.7891l0.0098 7.7891 18.398 7.9473 18.398 7.9473 18.43-7.8691 18.43-7.8711v-7.793c0.00038-6.2195-0.008-7.7894-0.0469-7.7734-0.0266 0.01075-8.3157 3.5513-18.42 7.8672l-18.371 7.8457-0.21093-0.0781c-0.11706-0.0485-8.3986-3.623-18.402-7.9453-10.006-4.32-18.199-7.858-18.209-7.858zm82.793 31.047-0.0742 0.10547c-0.0412 0.0582-0.80489 1.3696-1.6973 2.9121-0.89232 1.5425-1.623 2.8111-1.623 2.8203 0 0.009 2.3058 0.0156 5.123 0.0156s5.1211-0.004 5.1211-0.0117c0-0.007-0.72116-1.2604-1.6016-2.7832-0.88082-1.5232-1.6437-2.8348-1.6953-2.9141l-0.0937-0.14453h-1.7305z"
     fill="#000000" /></svg>