<svg width="549" height="513" viewBox="0 0 549 513" fill="none" xmlns="http://www.w3.org/2000/svg">
<path d="M31.3442 139.399C33.9925 136.309 37.0422 133.588 40.4123 131.307L39.127 120.108L56.7157 113.944L62.6659 123.464C66.7242 123.151 70.8062 123.379 74.8043 124.143L81.8017 115.324L98.6287 123.381L96.1059 134.353C99.199 136.997 101.925 140.043 104.21 143.409L115.396 142.124L121.561 159.713L112.04 165.663C112.359 169.717 112.134 173.795 111.374 177.789L120.192 184.799L112.112 201.59L101.14 199.079C98.4949 202.172 95.4447 204.894 92.0717 207.171L93.3569 218.37L75.7682 224.534L69.818 215.014C65.7637 215.327 61.6857 215.099 57.6916 214.335L50.6942 223.153L33.8314 215.133L36.3542 204.161C33.2611 201.517 30.5356 198.471 28.2501 195.104L17.0638 196.39L10.8994 178.801L20.4197 172.851C20.0956 168.797 20.3197 164.718 21.0861 160.724L12.268 153.715L20.3483 136.924L31.3204 139.435L31.3442 139.399ZM43.5659 158.38C41.4095 162.862 40.6305 167.882 41.3275 172.806C42.0244 177.731 44.166 182.338 47.4814 186.045C50.7967 189.752 55.137 192.393 59.9532 193.633C64.7695 194.874 69.8454 194.658 74.5391 193.014C79.2327 191.369 83.3334 188.37 86.3223 184.395C89.3113 180.42 91.0544 175.648 91.3312 170.682C91.608 165.716 90.406 160.78 87.8773 156.497C85.3486 152.215 81.6067 148.778 77.1248 146.622C71.1149 143.735 64.2046 143.351 57.9121 145.556C51.6196 147.761 46.4596 152.373 43.5659 158.38Z" fill="#EBEBEB"/>
<path d="M457.15 313.215C459.759 310.174 462.76 307.493 466.076 305.242L464.814 294.21L482.153 288.129L488.044 297.543C492.042 297.227 496.064 297.447 500.004 298.197L506.906 289.51L523.459 297.471L520.984 308.289C524.025 310.897 526.706 313.899 528.957 317.214L539.989 315.952L546.07 333.291L536.657 339.182C536.972 343.18 536.752 347.202 536.002 351.142L544.689 358.044L536.776 374.597L525.911 372.098C523.302 375.14 520.301 377.821 516.985 380.071L518.247 391.103L500.908 397.184L495.017 387.771C491.019 388.087 486.997 387.867 483.057 387.116L476.155 395.804L459.602 387.842L462.077 377.025C459.036 374.416 456.354 371.415 454.104 368.1L443.072 369.361L436.991 352.022L446.404 346.132C446.089 342.134 446.309 338.111 447.059 334.172L438.372 327.27L446.333 310.74L457.15 313.215ZM469.194 331.923C467.067 336.341 466.298 341.29 466.985 346.146C467.671 351.001 469.782 355.543 473.051 359.198C476.319 362.853 480.599 365.457 485.347 366.68C490.096 367.903 495.1 367.69 499.728 366.068C504.355 364.446 508.398 361.488 511.344 357.568C514.29 353.649 516.008 348.943 516.279 344.047C516.551 339.152 515.364 334.285 512.869 330.064C510.375 325.842 506.684 322.455 502.265 320.332C496.341 317.489 489.532 317.113 483.331 319.286C477.131 321.459 472.046 326.004 469.194 331.923Z" fill="#E0E0E0"/>
<path d="M447.524 146.872C449.537 144.517 451.859 142.443 454.426 140.708L453.45 132.175L466.862 127.475L471.42 134.746C474.511 134.507 477.62 134.679 480.666 135.257L486.009 128.534L498.814 134.698L496.886 143.028C499.245 145.042 501.322 147.364 503.063 149.931L511.595 148.955L516.296 162.366L509.013 166.924C509.257 170.015 509.085 173.126 508.501 176.171L515.225 181.514L509.072 194.319L500.742 192.391C498.724 194.75 496.399 196.827 493.828 198.567L494.816 207.1L481.404 211.86L476.846 204.589C473.754 204.83 470.644 204.654 467.6 204.065L462.256 210.789L449.451 204.636L451.367 196.306C449.015 194.29 446.942 191.968 445.203 189.404L436.671 190.38L431.958 176.932L439.229 172.375C438.99 169.283 439.162 166.174 439.741 163.128L433.017 157.785L439.193 144.956L447.524 146.872ZM456.842 161.343C455.196 164.76 454.6 168.588 455.131 172.344C455.661 176.099 457.293 179.613 459.821 182.44C462.348 185.268 465.658 187.282 469.331 188.228C473.003 189.174 476.874 189.01 480.453 187.756C484.033 186.502 487.159 184.214 489.438 181.182C491.717 178.151 493.046 174.511 493.256 170.725C493.466 166.938 492.548 163.174 490.618 159.909C488.689 156.644 485.834 154.024 482.415 152.382C477.838 150.189 472.578 149.901 467.788 151.581C462.999 153.261 459.071 156.771 456.865 161.343H456.842Z" fill="#EBEBEB"/>
<path d="M413.714 84.8953C415.068 83.3088 416.629 81.9118 418.355 80.742L417.701 75.0061L426.709 71.8525L429.78 76.7435C431.856 76.5739 433.946 76.69 435.992 77.0886L439.562 72.5665L448.166 76.7078L446.88 82.3248C448.461 83.6844 449.857 85.2447 451.034 86.9659L456.758 86.3114L459.923 95.32L455.044 98.3902C455.201 100.467 455.085 102.556 454.699 104.602L459.221 108.172L455.08 116.776L449.451 115.479C448.1 117.068 446.539 118.466 444.81 119.632L445.476 125.368L436.468 128.522L433.397 123.631C431.321 123.795 429.231 123.679 427.185 123.286L423.615 127.808L415.011 123.667L416.308 118.05C414.725 116.693 413.328 115.132 412.155 113.408L406.419 114.063L403.266 105.054L408.133 101.96C407.963 99.8837 408.079 97.7935 408.478 95.7484L403.956 92.1783L408.097 83.5743L413.714 84.8715V84.8953ZM419.974 94.6178C418.871 96.9126 418.473 99.4829 418.831 102.004C419.188 104.525 420.285 106.883 421.982 108.78C423.68 110.678 425.902 112.03 428.368 112.665C430.833 113.3 433.432 113.19 435.835 112.348C438.238 111.507 440.337 109.972 441.868 107.937C443.399 105.903 444.292 103.46 444.435 100.918C444.578 98.376 443.964 95.8487 442.671 93.6555C441.378 91.4623 439.463 89.7017 437.17 88.5963C435.645 87.8616 433.991 87.4345 432.302 87.3396C430.612 87.2446 428.921 87.4836 427.324 88.0428C425.727 88.6021 424.255 89.4706 422.994 90.5988C421.733 91.727 420.707 93.0927 419.974 94.6178Z" fill="#F5F5F5"/>
<path d="M100.342 397.172C101.702 395.592 103.262 394.195 104.984 393.019L104.329 387.283L113.338 384.129L116.408 389.02C118.485 388.863 120.573 388.979 122.62 389.366L126.19 384.843L134.794 388.985L133.497 394.614C135.086 395.964 136.483 397.526 137.65 399.255L143.386 398.588L146.54 407.597L141.684 410.667C141.854 412.744 141.738 414.834 141.339 416.879L145.861 420.449L141.684 429.077L136.067 427.78C134.711 429.364 133.15 430.76 131.426 431.933L132.081 437.669L123.072 440.823L120.002 435.932C117.925 436.101 115.835 435.985 113.79 435.587L110.22 440.109L101.604 435.967L102.901 430.35C101.315 428.997 99.9176 427.436 98.7478 425.709L93.0118 426.364L89.8701 417.319L94.7612 414.249C94.5976 412.172 94.7136 410.083 95.1063 408.037L90.5841 404.467L94.7255 395.899L100.342 397.184V397.172ZM106.614 406.895C105.513 409.189 105.118 411.758 105.476 414.278C105.835 416.797 106.932 419.153 108.629 421.05C110.326 422.946 112.547 424.297 115.011 424.932C117.475 425.567 120.072 425.457 122.474 424.618C124.876 423.778 126.975 422.245 128.507 420.212C130.038 418.18 130.933 415.74 131.079 413.199C131.224 410.659 130.614 408.132 129.324 405.938C128.035 403.744 126.124 401.982 123.834 400.873C122.308 400.135 120.652 399.705 118.96 399.608C117.268 399.511 115.573 399.749 113.974 400.309C112.374 400.868 110.9 401.738 109.637 402.868C108.374 403.998 107.347 405.367 106.614 406.895Z" fill="#F5F5F5"/>
<path d="M168.555 428.47C170.6 426.09 172.948 423.99 175.541 422.222L174.553 413.595L188.119 408.834L192.737 416.201C195.864 415.956 199.009 416.128 202.09 416.712L207.493 409.917L220.453 416.129L218.513 424.602C220.898 426.641 223 428.991 224.761 431.588L233.388 430.6L238.148 444.167L230.782 448.784C231.023 451.911 230.847 455.057 230.259 458.138L237.066 463.54L230.83 476.5L222.369 474.548C220.333 476.937 217.983 479.038 215.383 480.796L216.371 489.436L202.804 494.196L198.187 486.841C195.06 487.082 191.914 486.906 188.833 486.318L183.431 493.125L170.471 486.889L172.411 478.428C170.031 476.379 167.931 474.026 166.163 471.43L157.536 472.43L152.775 458.864L160.142 454.246C159.901 451.115 160.077 447.966 160.665 444.881L153.858 439.49L160.094 426.53L168.555 428.47ZM177.98 443.107C176.316 446.565 175.714 450.438 176.252 454.237C176.789 458.036 178.44 461.59 180.998 464.451C183.555 467.311 186.904 469.348 190.619 470.306C194.335 471.263 198.251 471.096 201.872 469.828C205.493 468.559 208.656 466.245 210.962 463.178C213.268 460.112 214.612 456.43 214.826 452.599C215.039 448.768 214.111 444.96 212.16 441.656C210.209 438.353 207.321 435.702 203.864 434.039C199.229 431.811 193.898 431.514 189.045 433.215C184.191 434.915 180.211 438.474 177.98 443.107Z" fill="#EBEBEB"/>
<path d="M83.4324 242.301C83.1671 242.426 82.8873 242.518 82.5994 242.575C82.0401 242.718 81.2309 242.967 80.1479 243.194C77.1274 243.868 74.0603 244.313 70.9728 244.526C60.7267 245.296 50.4431 243.651 40.9482 239.724C31.4533 235.797 23.012 229.698 16.3026 221.916C14.2775 219.575 12.4317 217.085 10.7809 214.466C10.1739 213.55 9.78122 212.788 9.48371 212.3C9.32531 212.051 9.18988 211.788 9.0791 211.515C9.27656 211.732 9.44827 211.972 9.59082 212.229C9.92403 212.705 10.3524 213.419 10.9832 214.335C17.5012 224.114 26.4732 232.008 37.0012 237.229C47.5292 242.451 59.2439 244.815 70.9728 244.086C74.0459 243.889 77.1029 243.492 80.1241 242.896C81.2071 242.718 82.0282 242.491 82.5875 242.384C82.8665 242.334 83.149 242.306 83.4324 242.301Z" fill="#E0E0E0"/>
<path d="M59.9413 250.965C59.514 251.01 59.0833 251.01 58.656 250.965C57.8349 250.965 56.6449 250.881 55.1811 250.715C51.3646 250.31 47.6 249.512 43.9472 248.335C40.3003 247.137 36.7837 245.574 33.4511 243.67C32.1778 242.932 31.1662 242.289 30.4998 241.813C30.1337 241.591 29.7943 241.327 29.4883 241.028C29.5478 240.933 31.0829 241.908 33.6653 243.277C37.0095 245.058 40.5013 246.547 44.1019 247.728C47.7193 248.903 51.4295 249.771 55.193 250.322C58.1324 250.715 59.9413 250.857 59.9413 250.965Z" fill="#E0E0E0"/>
<path d="M199.318 123.024C210.769 116.11 223.092 110.755 235.959 107.101L243.504 70.8291L304.791 69.7462L313.609 105.733C326.601 108.93 339.108 113.848 350.798 120.358L381.739 100.056L425.841 142.636L406.646 174.291C413.558 185.747 418.913 198.073 422.569 210.944L458.829 218.5L459.912 279.775L423.925 288.605C420.726 301.593 415.807 314.096 409.3 325.782L429.602 356.723L387.034 400.814L355.391 381.618C343.935 388.531 331.609 393.885 318.738 397.541L311.193 433.813L249.906 434.884L241.088 398.898C228.094 395.706 215.587 390.787 203.9 384.272L172.959 404.574L128.832 362.042L148.04 330.376C141.137 318.921 135.798 306.593 132.164 293.723L95.8328 286.178L94.7617 224.891L130.748 216.073C133.945 203.084 138.864 190.581 145.374 178.896L125.072 147.955L167.639 103.864L199.318 123.06V123.024ZM217.847 194.914C206.492 206.678 198.881 221.545 195.975 237.635C193.069 253.725 195 270.315 201.522 285.308C208.045 300.301 218.867 313.023 232.62 321.866C246.373 330.708 262.439 335.274 278.786 334.986C295.134 334.698 311.029 329.57 324.462 320.248C337.895 310.927 348.262 297.832 354.253 282.619C360.244 267.405 361.589 250.757 358.119 234.78C354.648 218.802 346.518 204.212 334.756 192.855C326.945 185.313 317.725 179.383 307.622 175.405C297.519 171.427 286.731 169.477 275.875 169.669C265.019 169.86 254.306 172.188 244.35 176.519C234.393 180.851 225.388 187.101 217.847 194.914Z" fill="#EBEBEB"/>
<path d="M217.848 194.914C217.848 194.914 219.038 193.569 221.596 191.201C227.995 185.273 235.314 180.422 243.267 176.837C247.221 175.03 251.317 173.55 255.512 172.41C265.77 169.622 276.465 168.814 287.024 170.03C299.851 171.526 312.149 176.009 322.928 183.121C332.049 189.157 339.91 196.909 346.074 205.946C348.225 209.141 350.162 212.477 351.869 215.93C359.08 230.689 361.755 247.253 359.557 263.531C358.989 267.777 358.086 271.971 356.856 276.074C355.642 280.253 354.078 284.322 352.179 288.236C344.436 304.402 331.669 317.627 315.788 325.937C311.939 327.971 307.926 329.679 303.792 331.042C299.735 332.412 295.577 333.463 291.356 334.184C275.164 336.971 258.509 334.901 243.493 328.234C239.988 326.642 236.589 324.825 233.318 322.795C224.072 316.949 216.05 309.363 209.696 300.458C202.23 289.929 197.339 277.794 195.416 265.031C193.833 254.521 194.269 243.806 196.701 233.459C197.69 229.192 199.027 225.013 200.699 220.964C202.067 217.586 203.657 214.302 205.459 211.134C208.009 206.755 210.961 202.624 214.278 198.793C216.562 196.187 217.848 194.914 217.848 194.914L216.955 195.914C216.384 196.592 215.444 197.52 214.361 198.865C211.115 202.725 208.219 206.867 205.709 211.241C203.905 214.404 202.315 217.684 200.949 221.059C199.309 225.068 197.996 229.203 197.022 233.423C194.631 243.725 194.228 254.388 195.832 264.84C197.783 277.527 202.674 289.581 210.112 300.042C214.247 305.845 219.115 311.089 224.595 315.643C227.454 318.026 230.467 320.216 233.616 322.2C236.867 324.215 240.246 326.016 243.731 327.591C262.638 335.993 284.005 337.012 303.625 330.447C307.726 329.087 311.707 327.387 315.526 325.366C331.287 317.113 343.957 303.984 351.643 287.939C353.533 284.056 355.09 280.019 356.296 275.872C357.514 271.8 358.41 267.637 358.974 263.424C361.16 247.264 358.518 230.819 351.381 216.156C349.685 212.729 347.765 209.418 345.634 206.243C343.549 203.158 341.255 200.219 338.767 197.449C334.024 192.132 328.612 187.452 322.666 183.525C311.948 176.44 299.723 171.957 286.965 170.435C276.461 169.208 265.82 169.987 255.607 172.732C251.42 173.846 247.332 175.307 243.386 177.099C235.444 180.641 228.116 185.425 221.68 191.272C220.371 192.403 219.478 193.379 218.824 193.974L217.848 194.914Z" fill="#263238"/>
<path d="M199.318 123.024L167.592 103.912H167.711C156.894 115.158 142.554 130.033 125.191 148.05V147.86L145.517 178.801L145.577 178.896L145.517 178.991C139.051 190.671 134.161 203.156 130.975 216.12V216.239H130.856L94.8811 225.069L95.0477 224.855C95.3928 244.146 95.7617 264.626 96.1425 286.142L95.9521 285.904L132.165 293.473H132.308V293.615C135.963 306.462 141.314 318.764 148.218 330.197L148.302 330.34L148.218 330.483L129.071 362.185V361.84L173.173 404.408H172.816L203.757 384.106L203.9 383.998L204.055 384.094C215.728 390.575 228.209 395.481 241.172 398.683H241.35V398.85C244.123 410.132 247.134 422.425 250.181 434.837L249.883 434.611L311.158 433.528L310.86 433.778C313.24 422.318 315.823 409.977 318.417 397.505V397.315H318.596C331.427 393.666 343.717 388.328 355.142 381.44L355.308 381.333L355.463 381.44L387.13 400.635H386.749L429.316 356.544V356.925L409.026 325.984L408.919 325.83L409.014 325.663C415.549 313.997 420.496 301.51 423.723 288.534V288.355H423.902L459.888 279.537L459.662 279.835C459.297 258.914 458.94 238.485 458.591 218.548L458.817 218.822L422.533 211.217H422.367V211.063C418.728 198.21 413.385 185.903 406.48 174.469L406.396 174.326L406.48 174.195L425.687 142.541V142.85L381.656 100.271H381.941L351 120.561L350.893 120.632L350.774 120.572C339.103 114.067 326.617 109.149 313.645 105.947H313.526V105.828C310.337 92.7376 307.457 80.9682 304.732 69.8413L304.91 69.9841L243.623 71.0076L243.766 70.9005C240.72 85.4308 238.233 97.3192 236.174 107.161C226.495 109.893 217.114 113.589 208.172 118.192C205.221 119.704 203.067 120.941 201.639 121.763C200.211 122.584 199.509 122.953 199.509 122.953L201.615 121.679C203.031 120.846 205.185 119.597 208.125 118.109C217.056 113.454 226.438 109.722 236.126 106.97L236.055 107.042C238.09 97.1883 240.553 85.2999 243.564 70.7577V70.6506H243.671L304.958 69.5319H305.101V69.6747C307.826 80.7896 310.729 92.571 313.943 105.649L313.788 105.495C326.798 108.7 339.324 113.622 351.036 120.132H350.81C360.651 113.658 370.874 106.958 381.751 99.8183L381.917 99.7112L382.048 99.8421L426.103 142.422L426.246 142.564L426.139 142.743L406.896 174.433V174.16C413.827 185.632 419.194 197.979 422.855 210.872L422.64 210.682L458.913 218.215H459.139V218.441C459.496 238.362 459.861 258.791 460.233 279.728V279.966H460.007L424.021 288.796L424.247 288.582C421.041 301.595 416.11 314.122 409.586 325.83V325.52C416.282 335.739 423.049 346.052 429.888 356.461L430.03 356.663L429.852 356.842L387.284 400.873L387.118 401.052L386.904 400.921L355.237 381.726H355.558C344.089 388.64 331.751 393.999 318.869 397.66L319.095 397.422C316.501 409.882 313.919 422.246 311.539 433.694V433.932H311.289L250.014 435.003H249.764L249.705 434.765C246.67 422.353 243.647 410.06 240.886 398.779L241.112 399.005C228.098 395.788 215.569 390.858 203.853 384.344H204.162L173.221 404.646L173.031 404.765L172.864 404.61L128.833 362.019L128.678 361.876L128.797 361.685L147.992 330.019V330.304C141.073 318.825 135.714 306.475 132.058 293.58L132.248 293.758L95.7855 286.416H95.5951V286.213C95.2262 264.709 94.8692 244.229 94.5479 224.938V224.76H94.7264L130.713 215.954L130.558 216.108C133.78 203.075 138.722 190.529 145.255 178.801V178.991L125.025 148.05L124.953 147.943L125.048 147.86L167.652 103.829H167.711H167.783L199.318 123.024Z" fill="#263238"/>
<path d="M228.046 65.6167C235.186 56.8699 246.408 52.205 257.618 50.8841C262.378 50.3247 265.353 51.1459 269.935 52.3835C274.53 53.478 278.59 56.1634 281.395 59.964C284.644 64.5694 287.345 69.7342 287.988 75.3512C288.8 81.0927 289.079 86.897 288.821 92.69C288.556 98.511 286.686 104.145 283.418 108.97L268.709 111.481C260.593 111.754 252.358 112.028 244.445 110.172C236.531 108.315 228.843 104.067 224.607 97.0812C218.728 87.549 220.906 74.3515 228.046 65.6167Z" fill="#263238"/>
<path d="M278.539 117.526C278.539 117.526 278.777 117.883 279.42 118.299C280.34 118.858 281.372 119.207 282.442 119.323C284.062 119.5 285.697 119.167 287.119 118.371C288.845 117.325 290.101 115.655 290.628 113.707C291.156 111.76 290.913 109.684 289.951 107.91C289.122 106.505 287.873 105.394 286.381 104.733C285.399 104.287 284.33 104.068 283.252 104.09C282.842 104.059 282.431 104.137 282.062 104.317C283.448 104.387 284.808 104.718 286.072 105.292C287.385 105.971 288.473 107.017 289.202 108.303C290.015 109.903 290.206 111.747 289.738 113.479C289.27 115.212 288.175 116.709 286.667 117.681C285.39 118.419 283.928 118.774 282.454 118.704C281.087 118.559 279.759 118.159 278.539 117.526Z" fill="#FF4848"/>
<path d="M214.063 106.566C214.198 104.889 214.717 103.265 215.58 101.821C216.442 100.376 217.625 99.1497 219.038 98.2355C220.47 97.3678 222.14 96.9774 223.809 97.1207C225.477 97.264 227.057 97.9336 228.32 99.0328L230.64 101.794C232.42 102.625 233.899 103.986 234.875 105.69C235.85 107.394 236.275 109.359 236.091 111.314C235.823 113.272 235.003 115.112 233.725 116.62C232.448 118.127 230.766 119.238 228.879 119.823C226.978 120.357 224.971 120.393 223.052 119.929C221.133 119.464 219.365 118.514 217.919 117.169C216.514 115.81 215.437 114.149 214.769 112.312C214.101 110.475 213.86 108.51 214.063 106.566Z" fill="#263238"/>
<path d="M216.978 116.479C216.414 115.61 216.139 114.586 216.193 113.551C216.312 111.671 217.681 109.208 219.549 106.947C221.188 104.996 223.188 103.38 225.44 102.186C227.165 101.258 228.355 100.925 228.319 100.806C227.237 100.9 226.185 101.212 225.225 101.722C222.822 102.826 220.696 104.452 219.001 106.482C218.061 107.568 217.261 108.767 216.621 110.053C216.052 111.113 215.731 112.289 215.681 113.492C215.652 114.333 215.88 115.164 216.336 115.872C216.657 116.348 216.955 116.514 216.978 116.479Z" fill="#455A64"/>
<path d="M224.095 120.822C224.333 120.822 223.333 116.36 224.749 111.112C226.165 105.864 229.14 102.46 228.938 102.329C228.153 102.922 227.49 103.662 226.986 104.507C225.643 106.463 224.648 108.637 224.047 110.933C223.443 113.225 223.246 115.606 223.464 117.966C223.492 118.95 223.706 119.919 224.095 120.822Z" fill="#455A64"/>
<path d="M268.71 135.388C268.615 130.224 268.496 125.999 268.496 126.023C268.496 126.047 280.491 124.702 283.799 109.362C285.442 101.722 285.751 89.0603 285.668 78.6951C285.596 69.3533 277.647 56.6438 266.127 56.6081L260.998 56.0131L241.398 63.8078C240.033 63.8757 238.743 64.4541 237.784 65.4283C236.826 66.4026 236.268 67.7016 236.222 69.0677L236.15 135.71L255.726 184.501L268.174 162.259L268.71 135.388Z" fill="#A8605D"/>
<path d="M260.748 105.745C260.835 105.187 261.061 104.66 261.407 104.213C261.752 103.767 262.205 103.415 262.723 103.19C263.241 102.965 263.807 102.876 264.369 102.929C264.931 102.983 265.47 103.177 265.937 103.495C266.568 103.982 267.058 104.627 267.357 105.365C267.656 106.103 267.753 106.908 267.639 107.696C267.301 108.169 266.866 108.565 266.363 108.856C265.861 109.148 265.301 109.328 264.723 109.386C264.541 109.398 264.358 109.398 264.176 109.386C263.26 109.389 262.378 109.04 261.712 108.41C261.359 108.069 261.089 107.651 260.922 107.189C260.755 106.727 260.695 106.233 260.748 105.745Z" fill="#844949"/>
<path d="M281.146 90.7621C281.124 91.2808 280.9 91.7705 280.522 92.1263C280.144 92.4822 279.642 92.6759 279.123 92.6661C278.869 92.6725 278.616 92.6279 278.379 92.5351C278.143 92.4422 277.927 92.303 277.745 92.1256C277.563 91.9481 277.419 91.7361 277.32 91.5019C277.222 91.2677 277.171 91.0162 277.171 90.7621C277.193 90.2433 277.416 89.7537 277.794 89.3978C278.173 89.042 278.675 88.8482 279.194 88.858C279.448 88.8517 279.701 88.8962 279.937 88.9891C280.174 89.0819 280.389 89.2212 280.571 89.3986C280.753 89.576 280.898 89.7881 280.996 90.0223C281.095 90.2564 281.146 90.508 281.146 90.7621Z" fill="#263238"/>
<path d="M281.848 84.4192C281.598 84.6692 280.146 83.4672 278.004 83.3601C275.862 83.253 274.243 84.2288 274.029 83.9551C273.815 83.6814 274.196 83.3839 274.898 82.9198C275.86 82.3251 276.983 82.0463 278.111 82.1225C279.227 82.1878 280.293 82.6043 281.158 83.3125C281.788 83.8361 281.979 84.3121 281.848 84.4192Z" fill="#263238"/>
<path d="M268.412 100.627C269.56 100.339 270.739 100.191 271.923 100.187C272.47 100.187 272.994 100.08 273.113 99.7231C273.192 99.1605 273.097 98.5873 272.839 98.0808C272.403 96.7242 271.939 95.308 271.447 93.8324C269.531 87.787 268.174 82.8246 268.424 82.7532C268.674 82.6818 270.423 87.5133 272.339 93.5587L273.648 97.8309C273.963 98.505 274.022 99.2704 273.815 99.9849C273.727 100.174 273.597 100.341 273.433 100.471C273.27 100.601 273.079 100.691 272.875 100.735C272.571 100.806 272.258 100.834 271.947 100.818C270.765 100.905 269.577 100.841 268.412 100.627Z" fill="#263238"/>
<path d="M268.495 126.023C261.189 125.737 254.106 123.425 248.038 119.347C248.038 119.347 252.977 130.402 268.578 129.795L268.495 126.023Z" fill="#844949"/>
<path d="M262.034 101.758C262.379 101.758 262.26 104.138 264.152 105.84C266.044 107.542 268.531 107.482 268.543 107.803C268.543 107.946 267.96 108.22 266.913 108.196C265.551 108.14 264.253 107.605 263.248 106.685C262.282 105.805 261.698 104.585 261.617 103.281C261.582 102.305 261.879 101.746 262.034 101.758Z" fill="#263238"/>
<path d="M281.336 76.7316C280.931 77.1957 279.479 76.6126 277.766 76.4936C276.052 76.3746 274.469 76.6364 274.196 76.1128C274.065 75.851 274.327 75.375 275.005 74.9228C275.918 74.4222 276.959 74.2027 277.996 74.2916C279.033 74.3805 280.022 74.774 280.836 75.4226C281.336 75.9938 281.514 76.5055 281.336 76.7316Z" fill="#263238"/>
<path d="M257.631 89.7387C257.617 90.2578 257.808 90.7615 258.162 91.1418C258.515 91.5221 259.004 91.7489 259.523 91.7736C259.775 91.7981 260.029 91.7721 260.271 91.697C260.513 91.6219 260.737 91.4993 260.931 91.3364C261.125 91.1735 261.285 90.9736 261.401 90.7482C261.516 90.5229 261.586 90.2768 261.605 90.0243C261.618 89.5039 261.428 88.9989 261.075 88.6167C260.721 88.2345 260.233 88.0051 259.713 87.9774C259.46 87.9513 259.204 87.9765 258.96 88.0517C258.717 88.1268 258.491 88.2504 258.297 88.4148C258.103 88.5793 257.943 88.7813 257.829 89.0088C257.714 89.2362 257.647 89.4845 257.631 89.7387Z" fill="#263238"/>
<path d="M252.537 83.6576C252.775 83.9194 254.31 82.8246 256.452 82.8722C258.594 82.9198 260.141 84.0622 260.379 83.7528C260.617 83.4434 260.249 83.1697 259.57 82.6579C258.66 81.9959 257.566 81.634 256.44 81.6226C255.323 81.6025 254.228 81.9357 253.311 82.5746C252.644 83.0745 252.418 83.5386 252.537 83.6576Z" fill="#263238"/>
<path d="M254.072 79.3497C254.441 79.8495 255.928 79.3497 257.702 79.3497C259.475 79.3497 260.974 79.7305 261.272 79.2307C261.438 78.9808 261.2 78.4929 260.558 78.0406C259.687 77.4652 258.661 77.1704 257.618 77.1957C256.582 77.2129 255.576 77.5495 254.738 78.1596C254.12 78.6595 253.905 79.1593 254.072 79.3497Z" fill="#263238"/>
<path d="M236.198 90.9406L238.875 93.7253C250.466 82.6223 273.124 54.8469 271.863 56.501C266.579 54.523 260.883 53.9051 255.298 54.7041C246.682 56.1678 230.307 60.4758 230.581 70.6505C230.854 80.8253 236.198 90.9406 236.198 90.9406Z" fill="#263238"/>
<path d="M228.439 99.7231C228.527 98.909 228.563 98.0902 228.546 97.2716C228.643 95.0522 228.938 92.8458 229.427 90.6788C231.14 83.5276 234.571 76.9021 239.423 71.3764C244.326 65.8989 250.041 61.207 256.369 57.4649C258.749 55.9893 260.772 54.8826 262.153 54.1209C262.891 53.7772 263.603 53.3795 264.283 52.9309C264.074 52.9684 263.873 53.0408 263.688 53.1451C263.307 53.3236 262.736 53.5616 262.022 53.9186C260.594 54.5969 258.559 55.6561 256.072 57.0722C249.605 60.7201 243.783 65.4081 238.84 70.948C233.907 76.5537 230.483 83.3237 228.891 90.6193C228.442 92.8202 228.219 95.0611 228.225 97.3073C228.225 98.1046 228.296 98.7234 228.32 99.1399C228.335 99.3385 228.375 99.5344 228.439 99.7231Z" fill="#455A64"/>
<path d="M257.63 52.2645C257.415 52.2999 257.206 52.3681 257.012 52.4668C256.619 52.6096 256.036 52.8595 255.31 53.1928C253.834 53.8473 251.74 54.8588 249.217 56.263C246.267 57.9086 243.41 59.7163 240.66 61.6777C237.235 64.0295 234.099 66.7777 231.319 69.8651C229.885 71.5055 228.683 73.3355 227.749 75.3036C226.91 77.1438 226.326 79.0895 226.011 81.0872C225.52 84.453 225.52 87.8723 226.011 91.2381C226.324 93.4921 226.753 95.7284 227.296 97.938C227.475 98.7235 227.642 99.3185 227.749 99.735C227.789 99.9469 227.861 100.151 227.963 100.342C227.892 99.5123 227.761 98.689 227.57 97.8785C227.284 96.2958 226.844 94.0109 226.523 91.1667C226.101 87.8531 226.142 84.497 226.642 81.1943C226.964 79.2611 227.545 77.38 228.367 75.6011C229.269 73.6956 230.426 71.9219 231.807 70.3292C234.545 67.286 237.624 64.5669 240.982 62.2251C243.716 60.2544 246.548 58.4234 249.467 56.7391C251.942 55.2872 254.001 54.2162 255.417 53.4784C256.179 53.1188 256.918 52.7134 257.63 52.2645Z" fill="#455A64"/>
<path d="M235.983 91.2501C236.484 90.8452 236.946 90.395 237.364 89.9053L240.934 86.0853C243.921 82.8484 248.003 78.3263 252.489 73.3163C256.976 68.3062 260.998 63.7246 263.89 60.3925L267.281 56.4178C267.726 55.9497 268.125 55.4396 268.471 54.8945C267.971 55.2908 267.512 55.7374 267.103 56.2274L263.533 60.0474C260.546 63.2962 256.392 67.8064 251.977 72.8283C247.562 77.8503 243.457 82.42 240.577 85.7521L237.185 89.7268C236.735 90.1931 236.332 90.7034 235.983 91.2501Z" fill="#455A64"/>
<path d="M238.483 95.4152C238.483 94.2251 237.293 91.4643 236.233 91.2143C233.211 90.5717 227.713 90.5241 227.237 98.2474C226.582 108.815 237.328 107.292 237.364 106.982C237.4 106.673 238.268 99.4018 238.483 95.4152Z" fill="#A8605D"/>
<path d="M235.079 102.639C235.079 102.639 234.888 102.746 234.567 102.877C234.128 103.052 233.638 103.052 233.199 102.877C232.104 102.401 231.271 100.568 231.342 98.6639C231.366 97.7548 231.598 96.8632 232.02 96.0578C232.137 95.7344 232.332 95.4447 232.587 95.2143C232.842 94.9839 233.15 94.8199 233.484 94.7368C233.698 94.6947 233.92 94.7273 234.113 94.8291C234.305 94.9309 234.457 95.0957 234.543 95.2962C234.662 95.6056 234.543 95.8079 234.638 95.8317C234.734 95.8555 234.876 95.677 234.817 95.2247C234.773 94.9639 234.643 94.7252 234.448 94.5464C234.31 94.4261 234.15 94.3346 233.976 94.2774C233.802 94.2202 233.619 94.1983 233.437 94.2132C232.997 94.2731 232.581 94.4446 232.227 94.7112C231.872 94.9779 231.592 95.3309 231.413 95.7365C230.913 96.6247 230.635 97.6211 230.604 98.6401C230.533 100.77 231.509 102.829 232.984 103.4C233.264 103.498 233.561 103.533 233.855 103.502C234.15 103.471 234.433 103.376 234.686 103.222C235.043 102.889 235.114 102.651 235.079 102.639Z" fill="#844949"/>
<path d="M236.447 118.419C236.447 118.419 236.198 118.787 235.567 119.192C234.643 119.752 233.607 120.102 232.532 120.215C230.912 120.39 229.278 120.057 227.855 119.263C226.128 118.22 224.87 116.549 224.344 114.6C223.819 112.651 224.066 110.574 225.035 108.803C225.865 107.398 227.113 106.287 228.605 105.626C229.587 105.18 230.657 104.96 231.735 104.983C232.497 104.983 232.925 105.162 232.925 105.209C231.539 105.28 230.178 105.611 228.915 106.185C227.605 106.864 226.521 107.911 225.797 109.196C224.958 110.787 224.762 112.64 225.249 114.372C225.711 116.111 226.812 117.611 228.331 118.573C229.606 119.317 231.07 119.672 232.544 119.597C233.907 119.447 235.23 119.048 236.447 118.419Z" fill="#FF4848"/>
<path d="M295.902 430.553L292.213 398.588L262.581 406.883L270.054 437.538L295.902 430.553Z" fill="#A8605D"/>
<path d="M296.235 430.41L301.245 467.67L313.705 495.993C313.916 496.476 314.025 496.997 314.027 497.525C314.029 498.052 313.923 498.574 313.716 499.059C313.508 499.544 313.204 499.981 312.822 500.344C312.439 500.707 311.986 500.988 311.491 501.169C310.913 501.376 310.294 501.442 309.686 501.361C309.077 501.28 308.497 501.055 307.993 500.705C301.471 496.171 277.552 479.356 277.337 476.607C277.087 473.418 269.436 437.657 269.436 437.657L296.235 430.41Z" fill="#FF4848"/>
<g opacity="0.6">
<path d="M311.491 501.217L276.98 474.144L277.23 475.714C277.431 477.066 278.106 478.302 279.134 479.201C281.931 481.581 289.785 488.055 307.874 500.765C308.389 501.121 308.983 501.347 309.605 501.424C310.226 501.5 310.857 501.425 311.444 501.205L311.491 501.217Z" fill="white"/>
</g>
<g opacity="0.6">
<path d="M282.669 460.97C283.171 461.241 283.558 461.683 283.761 462.216C283.964 462.749 283.969 463.337 283.775 463.874C283.529 464.393 283.093 464.798 282.558 465.006C282.022 465.214 281.428 465.209 280.896 464.992C280.352 464.715 279.931 464.248 279.711 463.679C279.491 463.11 279.489 462.48 279.706 461.91C280.026 461.405 280.524 461.039 281.102 460.884C281.679 460.73 282.294 460.799 282.823 461.077" fill="white"/>
</g>
<path d="M300.435 486.341C300.661 486.413 301.197 484.33 303.244 482.938C305.291 481.546 307.373 481.676 307.385 481.45C307.397 481.224 306.885 481.129 305.993 481.153C304.832 481.194 303.709 481.579 302.768 482.26C301.81 482.927 301.066 483.857 300.626 484.937C300.316 485.758 300.34 486.341 300.435 486.341Z" fill="#263238"/>
<path d="M303.863 490.887C304.065 491.018 305.053 489.626 306.91 488.769C308.766 487.912 310.48 487.972 310.48 487.722C310.48 487.472 308.647 487.02 306.576 488.019C304.506 489.019 303.661 490.816 303.863 490.887Z" fill="#263238"/>
<path d="M294.509 480.736C294.711 480.879 296.235 478.725 298.972 477.166C301.709 475.607 304.315 475.262 304.279 475.012C304.244 474.762 301.471 474.727 298.555 476.452C295.64 478.178 294.319 480.653 294.509 480.736Z" fill="#263238"/>
<path d="M292.034 469.538C292.177 469.74 294.093 468.562 296.794 468.039C299.495 467.515 301.661 467.836 301.709 467.586C301.757 467.337 299.472 466.646 296.627 467.229C293.783 467.813 291.891 469.383 292.034 469.538Z" fill="#263238"/>
<path d="M290.297 458.637C290.44 458.828 292.308 457.269 295.152 456.947C297.996 456.626 300.174 457.638 300.269 457.412C300.364 457.186 299.841 456.924 298.901 456.567C297.669 456.113 296.346 455.966 295.045 456.138C293.746 456.295 292.503 456.756 291.415 457.483C290.594 458.054 290.225 458.566 290.297 458.637Z" fill="#263238"/>
<path d="M294.759 454.889C294.804 454.409 294.743 453.926 294.581 453.473C294.252 452.207 293.678 451.018 292.891 449.974C292.378 449.156 291.608 448.532 290.701 448.201C290.395 448.119 290.071 448.133 289.773 448.242C289.475 448.35 289.217 448.548 289.035 448.808C288.714 449.339 288.6 449.97 288.714 450.581C288.995 451.816 289.698 452.914 290.701 453.687C291.705 454.461 292.946 454.86 294.212 454.817C295.46 454.745 296.66 454.304 297.657 453.55C298.655 452.796 299.407 451.762 299.817 450.581C299.922 450.285 299.961 449.969 299.93 449.656C299.899 449.344 299.8 449.042 299.638 448.772C299.452 448.513 299.187 448.32 298.883 448.221C298.579 448.123 298.252 448.124 297.948 448.225C297.065 448.566 296.288 449.137 295.699 449.879C294.817 450.842 294.112 451.954 293.617 453.163C293.409 453.592 293.284 454.057 293.248 454.532C294.002 452.986 294.971 451.556 296.128 450.283C296.664 449.658 297.347 449.175 298.115 448.879C298.281 448.825 298.461 448.825 298.627 448.878C298.794 448.931 298.939 449.036 299.043 449.177C299.124 449.365 299.165 449.567 299.165 449.772C299.165 449.976 299.124 450.179 299.043 450.367C298.652 451.368 297.983 452.236 297.114 452.869C296.245 453.501 295.213 453.872 294.14 453.937C293.059 453.971 291.999 453.636 291.134 452.987C290.268 452.338 289.65 451.414 289.38 450.367C289.299 449.961 289.362 449.54 289.559 449.177C289.654 449.028 289.794 448.913 289.959 448.849C290.123 448.784 290.304 448.774 290.475 448.82C291.232 449.107 291.883 449.618 292.343 450.283C293.413 451.665 294.231 453.224 294.759 454.889Z" fill="#263238"/>
<path d="M388.022 250.56C361.842 245.8 307.981 258.962 307.981 258.962L296.449 245.764H235.758L225.214 270.493L253.965 313.334L260.689 338.575C260.689 338.575 289.131 334.077 287.929 334.219C286.727 334.362 306.172 330.185 307.35 330.03C354.785 323.557 380.085 303.564 394.223 289.426C408.646 274.932 398.007 252.369 388.022 250.56Z" fill="#263238"/>
<path d="M265.615 342.669C265.484 341.812 265.103 339.515 264.33 334.802C263.913 332.28 263.39 329.209 262.723 325.675C262.378 323.914 262.009 322.033 261.533 320.058C261.307 319.07 261.069 318.047 260.783 317.011C260.629 316.5 260.474 315.976 260.284 315.453C260.122 314.89 259.851 314.364 259.486 313.905L259.403 314.286C270.685 310.276 284.775 304.992 299.805 298.649C309.051 294.722 317.762 290.747 325.438 286.618C329.101 284.713 332.613 282.533 335.946 280.097C339.064 277.8 341.837 275.503 344.443 273.492C348.416 270.16 352.922 267.521 357.771 265.685C358.55 265.407 359.345 265.176 360.151 264.995C360.726 264.832 361.31 264.705 361.901 264.614L362.984 264.424C363.11 264.408 363.234 264.376 363.353 264.329C363.226 264.321 363.099 264.321 362.972 264.329L361.877 264.471C361.283 264.539 360.695 264.647 360.116 264.793C359.311 264.962 358.516 265.177 357.736 265.435C355.601 266.126 353.546 267.044 351.607 268.172C349.036 269.653 346.574 271.315 344.241 273.147C341.611 275.134 338.814 277.407 335.708 279.68C332.376 282.08 328.872 284.232 325.224 286.118C317.56 290.212 308.849 294.163 299.626 298.09C284.608 304.421 270.53 309.752 259.284 313.81L258.975 313.929L259.213 314.203C259.515 314.619 259.748 315.081 259.903 315.572C260.093 316.083 260.248 316.595 260.391 317.107C260.688 318.118 260.938 319.13 261.164 320.117C261.628 322.081 262.021 323.961 262.354 325.711C263.056 329.281 263.616 332.291 264.068 334.802C264.52 337.313 264.901 339.241 265.151 340.61C265.282 341.276 265.389 341.8 265.472 342.121C265.556 342.442 265.615 342.669 265.615 342.669Z" fill="#455A64"/>
<path d="M228.224 250.715L227.689 258.771C227.689 258.771 220.87 271.671 220.251 283.214C219.882 289.926 219.739 299.815 219.68 306.92C219.627 312.642 221.208 318.261 224.238 323.116L242.195 339.777L253.31 380.821L267.591 430.457L297.342 422.77L292.998 318.487C292.891 304.207 286.393 287.546 278.265 270.219L275.469 247.287L228.224 250.715Z" fill="#263238"/>
<path d="M297.354 407.966C297.316 407.822 297.292 407.674 297.282 407.525C297.282 407.18 297.223 406.752 297.175 406.216C297.104 405.026 296.997 403.325 296.854 401.194C296.604 396.756 296.259 390.484 295.818 382.713C295.033 367.04 293.938 345.501 292.736 321.712C292.355 315.762 292.498 309.895 291.237 304.457C290.062 299.217 288.023 294.21 285.203 289.641C282.635 285.513 279.449 281.804 275.754 278.645C272.51 275.913 268.906 273.639 265.044 271.885C259.45 269.312 253.415 267.834 247.265 267.53C245.596 267.444 243.924 267.444 242.255 267.53L240.946 267.589H240.458C242.701 267.239 244.973 267.108 247.241 267.197C253.459 267.383 259.58 268.786 265.258 271.326C269.186 273.066 272.854 275.341 276.159 278.085C279.938 281.27 283.198 285.024 285.822 289.212C288.713 293.848 290.805 298.937 292.01 304.266C293.307 309.836 293.2 315.726 293.545 321.653C294.652 345.453 295.652 366.993 296.378 382.666C296.699 390.425 296.961 396.732 297.139 401.159C297.211 403.301 297.27 404.979 297.306 406.193C297.306 406.728 297.306 407.157 297.306 407.502C297.341 407.654 297.357 407.81 297.354 407.966Z" fill="#455A64"/>
<path d="M276.73 342.811C276.516 342.704 278.36 338.42 280.835 333.22C283.311 328.019 285.512 323.902 285.726 323.997C285.941 324.092 284.096 328.4 281.609 333.589C279.122 338.777 276.944 342.918 276.73 342.811Z" fill="#455A64"/>
<path d="M256.012 328.614C256.238 328.531 257.202 330.53 258.106 333.077C259.011 335.624 259.618 337.754 259.404 337.837C259.189 337.92 258.214 335.921 257.297 333.374C256.381 330.828 255.786 328.698 256.012 328.614Z" fill="#455A64"/>
<path d="M241.113 316.297C241.178 316.57 241.214 316.85 241.22 317.13C241.22 317.773 241.303 318.558 241.362 319.51C241.481 321.7 241.636 324.663 241.827 328.257C241.946 335.671 244.207 345.656 246.694 356.663C249.181 367.671 251.894 377.537 254.013 384.617C255.048 388.187 256 391.008 256.666 392.947C257.073 393.941 257.419 394.958 257.702 395.994C257.541 395.765 257.409 395.517 257.309 395.256C257.083 394.768 256.738 394.066 256.357 393.066C255.595 391.139 254.548 388.306 253.429 384.796C251.168 377.727 248.443 367.862 245.861 356.842C243.278 345.822 241.184 335.731 241.22 328.281C241.089 324.568 241.041 321.581 241.029 319.499C241.029 318.547 241.029 317.761 241.029 317.118C241.012 316.842 241.04 316.565 241.113 316.297Z" fill="#455A64"/>
<path d="M308.397 264.995C308.469 265.138 306.743 265.864 304.399 267.696C301.372 270.105 298.903 273.142 297.163 276.598C295.453 280.075 294.327 283.81 293.831 287.653C293.439 290.605 293.415 292.473 293.272 292.473C293.151 292.048 293.102 291.605 293.129 291.164C293.091 289.973 293.126 288.78 293.236 287.594C293.559 283.635 294.634 279.774 296.402 276.217C298.188 272.648 300.809 269.561 304.042 267.22C305.015 266.524 306.056 265.926 307.148 265.435C307.535 265.215 307.958 265.066 308.397 264.995Z" fill="#455A64"/>
<path d="M352.892 262.674C353.047 262.877 350.405 265.055 347.775 268.28C345.145 271.505 343.538 274.527 343.312 274.408C343.086 274.289 344.383 271.052 347.109 267.732C349.834 264.412 352.773 262.496 352.892 262.674Z" fill="#455A64"/>
<path d="M282.49 285.226C282.347 285.226 282.49 283.107 282.395 279.728C282.195 275.309 281.678 270.911 280.848 266.566L278.373 253.476C277.958 251.675 277.688 249.845 277.563 248.001C278.171 249.743 278.641 251.529 278.968 253.345C279.706 256.677 280.765 261.258 281.693 266.435C282.539 270.816 282.977 275.266 283.002 279.728C282.997 281.079 282.921 282.43 282.776 283.774C282.753 284.269 282.657 284.759 282.49 285.226Z" fill="#455A64"/>
<path d="M282.383 250.084C282.383 250.084 282.526 249.87 282.931 249.763C283.507 249.64 284.108 249.72 284.632 249.989C285.043 250.196 285.389 250.512 285.633 250.902C285.876 251.292 286.008 251.742 286.013 252.202C286.009 252.774 285.832 253.332 285.504 253.801C285.177 254.271 284.716 254.63 284.18 254.832C283.634 255.012 283.043 255.01 282.498 254.826C281.953 254.641 281.482 254.284 281.158 253.809C280.887 253.434 280.728 252.991 280.698 252.53C280.669 252.069 280.77 251.608 280.991 251.203C281.267 250.677 281.73 250.274 282.288 250.072C282.681 249.941 282.907 249.989 282.919 250.072C282.931 250.155 282.026 250.37 281.538 251.5C281.404 251.84 281.368 252.21 281.436 252.569C281.504 252.928 281.673 253.26 281.922 253.527C282.171 253.794 282.491 253.984 282.845 254.076C283.198 254.168 283.571 254.158 283.918 254.047C284.288 253.901 284.609 253.652 284.841 253.329C285.073 253.006 285.207 252.623 285.227 252.226C285.243 251.895 285.169 251.566 285.014 251.273C284.859 250.98 284.629 250.734 284.347 250.56C283.75 250.219 283.07 250.054 282.383 250.084Z" fill="#455A64"/>
<path d="M285.68 139.03C285.68 139.03 304.994 145.825 307.1 157.904C309.207 169.983 319.096 213.383 319.096 213.383L377.408 220.94L370.624 236.708C370.624 236.708 305.03 240.028 301.971 236.708C298.913 233.388 285.68 139.03 285.68 139.03Z" fill="#455A64"/>
<path d="M226.558 251.107C227.378 246.945 228.464 242.839 229.807 238.814L220.037 164.901L213.254 140.279L235.103 134.329C243.124 146.67 266.675 147.67 270.078 134.329L285.679 139.03C285.679 139.03 308.647 180.598 307.576 195.116C306.386 211.039 311.467 236.767 311.467 236.767C311.467 236.767 312.027 245.252 306.136 249.227L226.558 251.107Z" fill="#455A64"/>
<path d="M213.254 140.244C213.254 140.244 200.961 146.634 198.057 158.701C195.963 167.388 193.463 221.44 198.057 230.829C202.651 240.218 206.256 246.192 216.157 247.87C226.059 249.548 287.012 247.049 287.012 247.049L290.285 223.51L225.202 213.824C225.202 213.824 223.571 165.401 222.822 162.045" fill="#455A64"/>
<path d="M235.103 134.401C235.103 134.401 234.043 129.391 235.103 128.927C236.162 128.462 270.435 129.867 270.673 131.033C270.795 132.713 270.795 134.399 270.673 136.079C270.673 136.079 266.924 145.337 258.308 145.992C249.692 146.646 235.555 137.745 235.103 134.401Z" fill="#455A64"/>
<path d="M297.58 226.509L314.526 225.319L322.654 230.829L329.651 240.254C329.332 240.707 328.865 241.034 328.331 241.18C327.797 241.325 327.228 241.28 326.724 241.052L329.33 244.205C329.188 244.489 328.989 244.742 328.745 244.945C328.501 245.149 328.218 245.301 327.913 245.39C327.608 245.479 327.288 245.505 326.973 245.465C326.657 245.425 326.354 245.32 326.081 245.157L327.688 247.644C326.802 247.942 325.844 247.936 324.962 247.628C324.081 247.32 323.327 246.727 322.82 245.943C321.163 243.58 319.346 241.333 317.382 239.219L311.182 237.16L317.227 243.17L320.583 248.501C320.583 248.501 319.976 250.179 318.75 249.406C317.078 247.884 315.538 246.224 314.145 244.443L307.005 239.897C307.005 239.897 301.959 242.182 300.388 242.206C298.817 242.23 293.736 238.981 293.736 238.981L288.904 242.182L290.201 225.319L297.58 226.509Z" fill="#A8605D"/>
<path d="M329.377 244.146C328.606 243.427 327.912 242.629 327.306 241.766C326.116 240.23 324.45 238.088 322.665 235.684L320.964 233.388L321.047 233.459C319.095 232.269 317.405 231.21 316.227 230.436C315.567 230.069 314.952 229.626 314.395 229.115C315.105 229.366 315.784 229.697 316.418 230.103C317.608 230.782 319.381 231.769 321.368 232.935L323.094 235.232C324.879 237.612 326.461 239.814 327.58 241.42C328.275 242.261 328.878 243.175 329.377 244.146Z" fill="#844949"/>
<path d="M327.33 246.99C326.65 246.31 326.044 245.56 325.521 244.753C324.474 243.325 323.046 241.325 321.511 239.088L320 236.851L320.119 236.958C317.941 236.008 315.837 234.899 313.823 233.638C316.073 234.403 318.264 235.33 320.38 236.41H320.452V236.482L321.987 238.695C323.522 240.921 324.879 242.968 325.843 244.467C326.436 245.247 326.935 246.093 327.33 246.99Z" fill="#844949"/>
<path d="M226.177 248.168C226.272 248.153 226.368 248.153 226.463 248.168H227.344L230.735 248.073L243.516 247.811L288.333 247.061L288.059 247.323C288.654 239.945 289.309 231.924 289.987 223.522L290.249 223.856L274.576 221.475L225.166 214.073H224.928V213.824C225.457 201.303 225.246 188.762 224.297 176.266C223.94 171.732 223.547 168.186 223.274 165.77C223.131 164.58 223.024 163.664 222.952 163.009C222.952 162.712 222.952 162.474 222.869 162.295C222.786 162.117 222.869 162.057 222.869 162.057C222.869 162.057 222.869 162.128 222.869 162.283C222.869 162.438 222.94 162.7 222.988 162.997C223.083 163.64 223.214 164.568 223.393 165.746C223.714 168.126 224.154 171.696 224.583 176.242C225.658 188.739 225.952 201.29 225.463 213.824L225.237 213.55L274.659 220.869L290.332 223.249H290.606V223.534C289.916 231.864 289.249 239.921 288.63 247.335V247.585H288.369L243.54 248.108L230.759 248.216H226.177V248.168Z" fill="#263238"/>
<path d="M270.673 131.033C270.788 131.592 270.84 132.163 270.828 132.735C270.828 133.282 270.828 133.925 270.828 134.746C270.825 135.66 270.648 136.565 270.304 137.411C269.54 138.248 268.54 138.833 267.436 139.089C266.241 139.41 265.029 139.664 263.806 139.851C261.022 140.311 258.203 140.53 255.381 140.506C250.238 140.461 245.129 139.659 240.22 138.125C238.71 137.708 237.287 137.023 236.019 136.102C235.681 135.845 235.37 135.554 235.091 135.234C234.983 135.127 234.894 135.002 234.829 134.865C234.829 134.865 235.269 135.305 236.162 135.912C237.453 136.731 238.867 137.338 240.351 137.709C245.243 139.088 250.298 139.808 255.381 139.851C258.169 139.875 260.955 139.676 263.711 139.256C264.913 139.085 266.104 138.851 267.281 138.554C267.805 138.421 268.312 138.23 268.793 137.983C269.017 137.874 269.232 137.747 269.435 137.602C269.624 137.486 269.786 137.332 269.911 137.15C270.24 136.363 270.429 135.526 270.471 134.674C270.542 133.913 270.578 133.246 270.602 132.699C270.585 132.143 270.608 131.586 270.673 131.033Z" fill="#263238"/>
<path d="M240.696 138.054C239.622 136.85 238.999 135.311 238.935 133.699C238.667 132.103 238.97 130.464 239.792 129.069C239.58 130.583 239.5 132.112 239.554 133.639C239.811 135.14 240.193 136.617 240.696 138.054Z" fill="#263238"/>
<path d="M247.753 129.105C247.944 129.105 247.539 131.485 247.622 134.329C247.706 137.173 248.206 139.506 248.027 139.553C246.756 136.202 246.66 132.518 247.753 129.105Z" fill="#263238"/>
<path d="M256.654 140.041C256.375 138.327 256.295 136.586 256.416 134.853C256.346 133.118 256.474 131.382 256.797 129.676C257.091 131.389 257.171 133.132 257.035 134.865C257.113 136.599 256.986 138.337 256.654 140.041Z" fill="#263238"/>
<path d="M266.389 130.521C266.843 132.018 266.92 133.604 266.615 135.138C266.484 136.698 265.965 138.199 265.104 139.506C264.925 139.434 265.651 137.519 265.997 135.055C266.342 132.592 266.199 130.521 266.389 130.521Z" fill="#263238"/>
<path d="M296.389 204.898C296.379 204.34 296.423 203.782 296.52 203.232C296.651 202.161 296.889 200.626 297.163 198.734C298.061 193.829 298.281 188.824 297.817 183.858C297.205 178.912 296.17 174.027 294.723 169.257C294.223 167.496 293.807 166.032 293.474 164.877C293.298 164.35 293.167 163.808 293.081 163.259C293.343 163.751 293.55 164.27 293.7 164.806C294.057 165.818 294.569 167.293 295.14 169.126C296.727 173.894 297.831 178.81 298.436 183.799C298.915 188.815 298.634 193.874 297.603 198.805C297.258 200.602 296.984 202.102 296.758 203.268C296.69 203.822 296.567 204.369 296.389 204.898Z" fill="#263238"/>
<path d="M388.605 200.293L364.995 252.523C364.359 253.659 363.446 254.616 362.341 255.305C361.237 255.993 359.976 256.392 358.676 256.462L249.752 256.32C249.881 255.213 250.407 254.192 251.232 253.443C252.057 252.695 253.125 252.271 254.238 252.25L295.568 251.333L316.727 200.567C317.054 199.773 317.608 199.094 318.319 198.614C319.031 198.133 319.867 197.873 320.726 197.865L386.701 197.365C387.049 197.362 387.392 197.447 387.699 197.611C388.006 197.776 388.266 198.015 388.456 198.307C388.646 198.599 388.759 198.934 388.785 199.281C388.811 199.628 388.749 199.976 388.605 200.293Z" fill="#E0E0E0"/>
<path d="M388.605 200.293C388.714 200.107 388.779 199.9 388.796 199.686C388.841 199.369 388.812 199.046 388.711 198.742C388.61 198.439 388.439 198.163 388.213 197.937C387.88 197.586 387.432 197.367 386.951 197.318C386.428 197.318 385.88 197.318 385.273 197.318H381.072L353.916 197.425L334.875 197.532H324.165H321.368C320.374 197.452 319.377 197.663 318.5 198.139C317.611 198.658 316.914 199.451 316.513 200.4C316.132 201.292 315.763 202.197 315.383 203.101C309.313 217.632 302.554 233.804 295.319 251.143L295.604 250.941L273.267 251.429L261.629 251.679L255.679 251.809H254.179C252.994 251.847 251.862 252.308 250.988 253.11C250.115 253.911 249.558 255 249.419 256.177V256.546H249.8L317.632 256.617H357.343C357.891 256.617 358.426 256.617 358.985 256.617C359.548 256.577 360.103 256.469 360.64 256.296C361.677 255.981 362.637 255.452 363.457 254.742C364.277 254.033 364.939 253.16 365.4 252.178C366.233 250.298 367.066 248.454 367.875 246.668C374.301 232.329 379.513 220.726 383.119 212.681L387.225 203.446L388.272 201.066C388.51 200.519 388.617 200.233 388.617 200.233L388.213 201.043C387.951 201.59 387.582 202.387 387.106 203.423C386.13 205.541 384.726 208.635 382.881 212.61L367.411 246.502L364.912 252C364.477 252.923 363.851 253.743 363.076 254.405C362.3 255.068 361.393 255.558 360.413 255.844C359.391 256.125 358.328 256.225 357.272 256.141H347.133L317.56 256.07L249.728 255.951L250.062 256.32C250.141 255.677 250.36 255.059 250.704 254.511C251.214 253.73 251.96 253.134 252.834 252.809C253.266 252.65 253.72 252.562 254.179 252.547H255.667L261.617 252.416L273.255 252.166L295.604 251.667H295.806L295.89 251.476C303.101 234.126 309.837 217.929 315.87 203.399C316.251 202.494 316.62 201.59 317.001 200.697C317.346 199.855 317.961 199.152 318.75 198.698C319.548 198.267 320.452 198.073 321.357 198.139H324.153L334.863 198.044L353.904 197.865L381.061 197.556L385.261 197.496C385.868 197.496 386.451 197.496 386.927 197.496C387.379 197.542 387.8 197.744 388.117 198.067C388.338 198.282 388.508 198.543 388.615 198.831C388.722 199.119 388.763 199.427 388.736 199.734C388.705 199.923 388.662 200.11 388.605 200.293Z" fill="#263238"/>
<path d="M297.579 256.915C297.712 256.74 297.82 256.548 297.9 256.343C298.115 255.891 298.365 255.332 298.686 254.654C299.376 253.083 300.316 250.976 301.447 248.406C303.755 243.11 306.873 235.768 310.241 227.628C313.609 219.488 316.62 212.062 318.643 206.683C319.666 203.982 320.487 201.792 321.023 200.269C321.261 199.567 321.451 198.984 321.618 198.508C321.702 198.306 321.758 198.094 321.784 197.877C321.653 198.053 321.552 198.25 321.487 198.46L320.773 200.174L318.202 206.505C315.965 211.931 312.954 219.274 309.634 227.378C306.314 235.482 303.256 242.848 301.018 248.227C299.971 250.834 299.102 252.988 298.448 254.57L297.781 256.308C297.686 256.5 297.618 256.704 297.579 256.915Z" fill="#455A64"/>
<path d="M340.313 225.617C340.314 226.286 340.512 226.94 340.884 227.496C341.256 228.052 341.784 228.485 342.403 228.74C343.021 228.996 343.701 229.062 344.357 228.931C345.013 228.799 345.615 228.476 346.087 228.002C346.559 227.528 346.88 226.925 347.009 226.269C347.138 225.612 347.07 224.933 346.812 224.315C346.555 223.698 346.12 223.171 345.562 222.801C345.005 222.431 344.35 222.235 343.681 222.237C343.238 222.237 342.799 222.325 342.39 222.495C341.98 222.665 341.609 222.914 341.296 223.228C340.983 223.542 340.735 223.914 340.566 224.324C340.398 224.734 340.312 225.174 340.313 225.617Z" fill="white"/>
<path d="M373.742 233.531C375.319 233.247 376.852 232.755 378.3 232.067C378.76 231.743 379.124 231.302 379.354 230.789C379.585 230.276 379.672 229.71 379.609 229.151L379.359 228.318C379.359 228.318 382.155 225.938 381.739 223.927C381.739 223.927 384.464 221.654 383.536 219.524C383.536 219.524 386.035 217.953 385.202 216.418C384.712 215.699 384.065 215.101 383.311 214.669C382.556 214.236 381.714 213.979 380.846 213.919C379.525 213.859 375.336 212.967 374.967 213.609C374.967 213.609 373.944 215.311 374.801 215.989L376.074 217.001C376.074 217.001 372.337 216.097 371.778 216.834C371.219 217.572 370.588 219.214 372.064 219.952C372.064 219.952 370.576 220.19 370.564 221.142C370.552 222.094 370.66 223.213 371.635 223.522C372.611 223.832 373.539 224.284 373.539 224.284C373.539 224.284 371.992 224.07 371.969 224.879C371.945 225.688 371.576 226.343 372.552 227.259C373.527 228.175 375.277 230.127 375.277 230.127L373.742 233.531Z" fill="#A8605D"/>
<path d="M373.67 224.391C373.67 224.391 374.098 224.391 374.777 224.546C375.632 224.707 376.443 225.047 377.157 225.545C377.873 226.059 378.467 226.726 378.894 227.497C379.227 228.092 379.358 228.509 379.406 228.497C379.396 228.109 379.294 227.73 379.108 227.39C378.711 226.549 378.104 225.824 377.347 225.284C376.586 224.741 375.695 224.408 374.765 224.32C374.399 224.253 374.023 224.277 373.67 224.391Z" fill="#844949"/>
<path d="M381.881 223.737C381.543 223.333 381.141 222.987 380.691 222.713C379.685 221.991 378.589 221.403 377.431 220.964C376.26 220.513 375.036 220.213 373.789 220.071C373.276 219.997 372.755 219.997 372.242 220.071C373.967 220.302 375.665 220.7 377.312 221.261C378.916 221.928 380.447 222.758 381.881 223.737Z" fill="#844949"/>
<path d="M383.607 219.44C381.347 217.985 378.756 217.125 376.074 216.941C376.074 217.037 377.824 217.334 379.894 218.024C381.965 218.715 383.56 219.524 383.607 219.44Z" fill="#844949"/>
<path d="M422.545 2.97327H329.329V140.22H338.338L346.537 156.274L357.009 140.22H422.545V2.97327Z" fill="#FAFAFA"/>
<path d="M422.533 2.97329C422.533 2.97329 422.533 3.1756 422.533 3.60401C422.533 4.03242 422.533 4.67504 422.533 5.49616C422.533 7.18601 422.533 9.67319 422.533 12.8982C422.533 19.4077 422.533 28.9041 422.604 40.9473C422.604 65.1169 422.687 99.4494 422.747 140.22V140.494H422.533H356.997L357.259 140.363L346.775 156.416L346.489 156.869L346.24 156.393C343.681 151.359 340.932 145.992 338.171 140.577L338.04 140.327L338.326 140.506H329.008V140.196C329.008 88.275 329.008 40.6736 329.079 2.94949V2.69958H329.317L397.375 2.83049L416.035 2.88999H420.89C421.985 2.88999 422.533 2.88999 422.533 2.88999H420.843H415.928L397.221 2.96139L329.317 3.0804L329.567 2.84239C329.567 40.5665 329.567 88.1678 329.627 140.089L329.317 139.78H338.516L338.599 139.946L338.718 140.184L346.799 156H346.263C349.833 150.478 353.404 145.028 356.748 139.946L356.831 139.803H356.997H422.533L422.247 140.089C422.307 99.3899 422.354 65.1169 422.39 41.0068C422.39 28.9279 422.449 19.4077 422.461 12.8863C422.461 9.63749 422.461 7.12651 422.461 5.42476C422.461 4.59174 422.461 3.94912 422.461 3.49691C422.461 3.04469 422.533 2.97329 422.533 2.97329Z" fill="#263238"/>
<path d="M355.415 26.7859H355.105C353.705 26.7859 352.57 27.9207 352.57 29.3207V115.134C352.57 116.534 353.705 117.669 355.105 117.669H355.415C356.814 117.669 357.949 116.534 357.949 115.134V29.3207C357.949 27.9207 356.814 26.7859 355.415 26.7859Z" fill="#E0E0E0"/>
<path d="M355.414 117.669C356.045 117.63 356.642 117.373 357.104 116.943C358.211 116.098 357.759 114.063 357.83 111.731C357.83 106.97 357.77 100.056 357.735 91.5C357.699 82.9436 357.735 72.8521 357.663 61.6063C357.663 55.9774 357.663 50.0749 357.663 43.9462V29.8919C357.69 29.5175 357.666 29.1412 357.592 28.7733C357.5 28.429 357.329 28.111 357.092 27.845C356.849 27.5753 356.545 27.3669 356.206 27.2366C355.867 27.1063 355.502 27.0579 355.141 27.0953C354.783 27.096 354.431 27.1829 354.114 27.3486C353.797 27.5143 353.524 27.754 353.32 28.0473C353.112 28.3361 352.977 28.6709 352.927 29.0232C352.927 29.3445 352.927 29.7848 352.927 30.2132V44.3032C352.927 50.42 352.927 56.3344 352.927 61.9633C352.927 73.2091 352.927 83.3839 352.868 91.857C352.808 100.33 352.796 107.232 352.772 112.016C352.772 113.206 352.772 114.265 352.772 115.182C352.779 115.558 352.87 115.927 353.039 116.263C353.208 116.599 353.45 116.892 353.748 117.121C354.123 117.405 354.567 117.581 355.033 117.633H355.521C355.359 117.651 355.196 117.651 355.033 117.633C354.544 117.614 354.071 117.448 353.677 117.157C353.351 116.925 353.084 116.62 352.896 116.267C352.708 115.914 352.604 115.522 352.594 115.122C352.594 114.206 352.594 113.147 352.594 111.957C352.594 107.197 352.534 100.294 352.499 91.7975C352.463 83.3006 352.499 73.1496 352.427 61.9038C352.427 56.2749 352.427 50.3605 352.427 44.2437C352.427 41.1734 352.427 38.0595 352.427 34.9019V30.1418C352.404 29.7256 352.404 29.3085 352.427 28.8923C352.496 28.4613 352.668 28.0532 352.927 27.7022C353.199 27.3271 353.557 27.023 353.971 26.8158C354.386 26.6087 354.844 26.5045 355.307 26.5122C355.75 26.4851 356.192 26.5565 356.604 26.7211C357.016 26.8857 357.386 27.1395 357.687 27.4642C357.993 27.8025 358.21 28.2114 358.318 28.6543C358.407 29.0725 358.439 29.5008 358.413 29.9276V34.6877C358.413 37.8612 358.413 40.9751 358.413 44.0295C358.413 50.1582 358.413 56.0607 358.413 61.6896C358.413 72.9354 358.413 83.1102 358.342 91.5833C358.27 100.056 358.27 106.959 358.247 111.814V114.967C358.271 115.366 358.206 115.764 358.058 116.135C357.91 116.505 357.682 116.838 357.39 117.109C357.127 117.351 356.812 117.528 356.469 117.625C356.126 117.722 355.764 117.737 355.414 117.669Z" fill="#263238"/>
<path d="M376.097 26.7859H375.788C374.388 26.7859 373.253 27.9207 373.253 29.3207V115.134C373.253 116.534 374.388 117.669 375.788 117.669H376.097C377.497 117.669 378.632 116.534 378.632 115.134V29.3207C378.632 27.9207 377.497 26.7859 376.097 26.7859Z" fill="#E0E0E0"/>
<path d="M376.122 117.669C376.752 117.631 377.35 117.374 377.812 116.943C378.918 116.098 378.478 114.063 378.537 111.731C378.537 106.97 378.537 100.056 378.442 91.4999C378.347 82.9436 378.442 72.8521 378.371 61.6063C378.371 55.9774 378.371 50.0748 378.371 43.9462V34.6639C378.371 33.093 378.371 31.4984 378.371 29.9038C378.397 29.5294 378.373 29.1531 378.299 28.7851C378.217 28.4397 378.049 28.1205 377.812 27.8569C377.565 27.5916 377.261 27.3862 376.922 27.2563C376.584 27.1263 376.221 27.0754 375.86 27.1072C375.501 27.1079 375.147 27.1948 374.828 27.3604C374.509 27.5261 374.234 27.7657 374.027 28.0592C373.823 28.3487 373.692 28.6836 373.646 29.035C373.646 29.3563 373.646 29.7967 373.646 30.2251V34.9852C373.646 38.1586 373.646 41.2726 373.646 44.327C373.646 50.4438 373.646 56.3582 373.646 61.9871C373.646 73.2329 373.646 83.4077 373.575 91.8807C373.504 100.354 373.504 107.256 373.48 112.04V115.205C373.483 115.582 373.573 115.952 373.742 116.289C373.912 116.625 374.156 116.918 374.456 117.145C374.826 117.428 375.266 117.605 375.729 117.657H376.217C376.055 117.675 375.891 117.675 375.729 117.657C375.24 117.636 374.767 117.47 374.372 117.181C374.048 116.947 373.783 116.642 373.595 116.289C373.407 115.936 373.303 115.545 373.289 115.146C373.289 114.23 373.289 113.17 373.289 111.98C373.289 107.22 373.23 100.318 373.182 91.8212C373.135 83.3244 373.182 73.1734 373.182 61.9276C373.182 56.2987 373.182 50.3842 373.182 44.2675V30.1775C373.182 29.7729 373.182 29.4039 373.182 28.9279C373.261 28.4998 373.431 28.0938 373.682 27.7379C373.955 27.3642 374.314 27.0612 374.728 26.8542C375.142 26.6472 375.599 26.5422 376.062 26.5479C376.505 26.5174 376.949 26.5871 377.361 26.752C377.773 26.9168 378.143 27.1725 378.442 27.4999C378.747 27.8405 378.967 28.2482 379.085 28.6899C379.17 29.1087 379.198 29.537 379.168 29.9633V44.0057C379.168 50.1343 379.168 56.0369 379.168 61.6658C379.168 72.9116 379.168 83.0864 379.168 91.5594C379.168 100.032 379.097 106.935 379.073 111.79C379.073 112.98 379.073 114.027 379.073 114.944C379.103 115.342 379.042 115.743 378.893 116.114C378.745 116.485 378.513 116.818 378.216 117.086C377.944 117.351 377.61 117.544 377.244 117.645C376.878 117.747 376.492 117.755 376.122 117.669Z" fill="#263238"/>
<path d="M396.768 26.7859H396.459C395.059 26.7859 393.924 27.9207 393.924 29.3207V115.134C393.924 116.534 395.059 117.669 396.459 117.669H396.768C398.168 117.669 399.303 116.534 399.303 115.134V29.3207C399.303 27.9207 398.168 26.7859 396.768 26.7859Z" fill="#E0E0E0"/>
<path d="M396.769 117.669C397.399 117.63 397.996 117.373 398.459 116.943C399.565 116.098 399.113 114.063 399.185 111.731C399.185 106.97 399.125 100.056 399.089 91.5C399.054 82.9436 399.089 72.8521 399.018 61.6063C399.018 55.9774 399.018 50.0749 399.018 43.9462V29.8919C399.044 29.5175 399.02 29.1412 398.946 28.7733C398.855 28.429 398.684 28.111 398.447 27.845C398.203 27.5753 397.9 27.3669 397.561 27.2366C397.221 27.1063 396.856 27.0579 396.495 27.0953C396.137 27.096 395.785 27.1829 395.468 27.3486C395.151 27.5143 394.879 27.754 394.674 28.0473C394.466 28.3361 394.332 28.6709 394.282 29.0232C394.282 29.3445 394.282 29.7848 394.282 30.2132V44.3032C394.282 50.42 394.282 56.3344 394.282 61.9633C394.282 73.2091 394.282 83.3839 394.222 91.857C394.163 100.33 394.139 107.232 394.127 112.016C394.127 113.206 394.127 114.265 394.127 115.182C394.133 115.558 394.224 115.927 394.393 116.263C394.562 116.599 394.805 116.892 395.103 117.121C395.477 117.405 395.921 117.581 396.388 117.633H396.876C396.714 117.651 396.55 117.651 396.388 117.633C395.898 117.614 395.425 117.448 395.031 117.157C394.706 116.925 394.438 116.62 394.25 116.267C394.062 115.914 393.959 115.522 393.948 115.122C393.948 114.206 393.948 113.147 393.948 111.957C393.948 107.197 393.889 100.294 393.853 91.7975C393.817 83.3006 393.853 73.1496 393.782 61.9038C393.782 56.2749 393.782 50.3605 393.782 44.2437C393.782 41.1734 393.782 38.0595 393.782 34.9019V30.1418C393.759 29.7256 393.759 29.3085 393.782 28.8923C393.851 28.4613 394.022 28.0532 394.282 27.7022C394.553 27.3271 394.912 27.023 395.326 26.8158C395.74 26.6087 396.198 26.5045 396.662 26.5122C397.104 26.4851 397.547 26.5565 397.959 26.7211C398.37 26.8857 398.74 27.1395 399.042 27.4642C399.347 27.8025 399.564 28.2114 399.672 28.6543C399.755 29.0734 399.787 29.5009 399.768 29.9276V34.6877C399.768 37.8612 399.768 40.9751 399.768 44.0295C399.768 50.1582 399.768 56.0607 399.768 61.6896C399.768 72.9354 399.768 83.1102 399.696 91.5833C399.625 100.056 399.625 106.959 399.601 111.814C399.601 113.004 399.601 114.051 399.601 114.967C399.625 115.366 399.561 115.764 399.413 116.135C399.265 116.505 399.036 116.838 398.744 117.109C398.482 117.351 398.166 117.528 397.823 117.625C397.48 117.722 397.119 117.737 396.769 117.669Z" fill="#263238"/>
<path d="M355.201 58.9287H353.642C350.914 58.9287 348.703 61.1398 348.703 63.8674V64.4386C348.703 67.1661 350.914 69.3772 353.642 69.3772H355.201C357.928 69.3772 360.139 67.1661 360.139 64.4386V63.8674C360.139 61.1398 357.928 58.9287 355.201 58.9287Z" fill="#FF4848"/>
<path d="M377.228 78.6357H375.669C372.942 78.6357 370.73 80.8468 370.73 83.5743V84.1455C370.73 86.8731 372.942 89.0842 375.669 89.0842H377.228C379.956 89.0842 382.167 86.8731 382.167 84.1455V83.5743C382.167 80.8468 379.956 78.6357 377.228 78.6357Z" fill="#FF4848"/>
<path d="M397.161 41.4948H395.602C392.874 41.4948 390.663 43.7058 390.663 46.4334V47.0046C390.663 49.7321 392.874 51.9433 395.602 51.9433H397.161C399.888 51.9433 402.099 49.7321 402.099 47.0046V46.4334C402.099 43.7058 399.888 41.4948 397.161 41.4948Z" fill="#FF4848"/>
<path d="M211.659 42.9465C211.303 33.2442 207.717 23.9387 201.47 16.5065C195.223 9.07427 186.673 3.94092 177.176 1.92089C167.68 -0.0991338 157.781 1.10985 149.05 5.35603C140.319 9.60222 133.256 16.6424 128.981 25.3597C124.707 34.0769 123.466 43.9719 125.455 53.4748C127.444 62.9777 132.549 71.5442 139.961 77.8152C147.373 84.0862 156.667 87.7026 166.368 88.0905C176.069 88.4784 185.622 85.6157 193.511 79.9566L209.315 85.7877L203.864 69.4486C209.286 61.7024 212.024 52.3946 211.659 42.9465Z" fill="#FAFAFA"/>
<path d="M211.659 42.9466C211.667 43.1051 211.667 43.264 211.659 43.4226C211.659 43.7558 211.659 44.2318 211.659 44.8387C211.658 46.6764 211.547 48.5124 211.325 50.3367C210.442 57.2473 207.907 63.8436 203.935 69.5676V69.401L209.517 85.7283L209.659 86.1686L209.231 86.0139L193.415 80.2065H193.284V80.0756L193.677 80.2303C188.557 83.9183 182.699 86.4518 176.505 87.6561C174.869 87.9737 173.216 88.2001 171.554 88.3345C169.876 88.4892 168.163 88.4178 166.449 88.4059C166.021 88.4059 165.592 88.4059 165.152 88.4059L163.867 88.2631L161.261 87.9655C160.392 87.8465 159.547 87.6085 158.678 87.4419C157.81 87.2753 156.929 87.1206 156.084 86.8231C154.359 86.3192 152.666 85.7112 151.014 85.0024C150.181 84.6335 149.337 84.2883 148.515 83.8956L146.135 82.5509L144.945 81.8726L143.755 81.0752L141.447 79.3497L139.305 77.5766L138.222 76.6602L137.234 75.6487C136.567 74.9704 135.901 74.304 135.246 73.6137L133.45 71.3765C133.152 70.9957 132.831 70.6386 132.557 70.1864L131.76 68.9964C131.236 68.1753 130.665 67.3899 130.189 66.6163C129.221 64.9197 128.362 63.1628 127.618 61.3564C127.273 60.44 126.833 59.5594 126.559 58.6074C126.286 57.6554 126 56.7152 125.714 55.7751C123.175 46.0959 124.014 35.8398 128.094 26.7026C130.001 22.3956 132.58 18.4189 135.734 14.9212C138.821 11.6158 142.373 8.77749 146.278 6.4958C150.007 4.39056 154.013 2.8202 158.178 1.83087L161.237 1.25965C162.246 1.09574 163.263 0.984521 164.283 0.926437C166.261 0.747666 168.249 0.703934 170.234 0.795537C176.881 1.13648 183.362 2.99553 189.179 6.23008C194.996 9.46463 199.995 13.9887 203.792 19.4553C204.495 20.5739 205.256 21.6092 205.851 22.6803L207.624 25.7982C208.088 26.8216 208.469 27.845 208.814 28.797C208.993 29.2731 209.219 29.7372 209.362 30.2013C209.505 30.6654 209.636 31.1295 209.755 31.5817C210.016 32.4623 210.266 33.3073 210.492 34.1046L210.921 36.3657C211.052 37.0678 211.171 37.7223 211.278 38.3173C211.385 38.9123 211.373 39.5073 211.421 39.9477C211.492 40.9116 211.54 41.6375 211.575 42.1611C211.611 42.6847 211.575 42.9227 211.575 42.9227C211.575 42.9227 211.575 42.6609 211.48 42.173C211.385 41.6851 211.349 40.9116 211.254 39.9596C211.254 39.4716 211.171 38.9361 211.087 38.3411C211.004 37.7461 210.837 37.1511 210.707 36.4014L210.338 34.1284C210.1 33.343 209.85 32.5099 209.576 31.6293C209.445 31.1771 209.302 30.7249 209.16 30.2608C209.017 29.7967 208.803 29.3445 208.612 28.8684C208.208 27.9283 207.827 26.9168 207.351 25.8934L205.708 22.7993C205.102 21.7401 204.352 20.7167 203.638 19.61C199.851 14.213 194.879 9.75376 189.104 6.57322C183.329 3.39269 176.902 1.57516 170.317 1.25965C168.332 1.17482 166.345 1.22253 164.367 1.40245C163.358 1.46054 162.353 1.57176 161.356 1.73566L158.345 2.31878C154.208 3.28721 150.232 4.84629 146.54 6.94801C142.691 9.2115 139.188 12.017 136.139 15.2783C133.018 18.7556 130.471 22.7086 128.594 26.9882C124.563 35.991 123.723 46.0997 126.214 55.6442C126.488 56.5843 126.762 57.5126 127.047 58.4527C127.333 59.3928 127.749 60.2496 128.094 61.1541C128.854 62.9116 129.728 64.617 130.712 66.2593C131.188 67.0804 131.748 67.854 132.26 68.6394L133.045 69.8294C133.307 70.2102 133.628 70.5672 133.914 70.9362L135.699 73.1377C136.353 73.816 136.996 74.4944 137.65 75.1608L138.626 76.1604L139.697 77.0648L141.815 78.8499L144.065 80.5397L145.183 81.3252L146.373 81.9916L148.753 83.3244C149.563 83.7052 150.396 84.0503 151.205 84.4192C152.837 85.1201 154.51 85.7202 156.215 86.2162C157.048 86.5137 157.917 86.6208 158.773 86.835C159.63 87.0492 160.463 87.2396 161.32 87.3467L163.891 87.6442L165.164 87.7989C165.58 87.7989 166.009 87.7989 166.437 87.7989C168.127 87.7989 169.817 87.8941 171.471 87.7989C173.112 87.6675 174.745 87.449 176.362 87.1444C182.487 85.963 188.285 83.4704 193.356 79.8376L193.653 79.6234L193.749 79.9804L193.594 79.8019L209.386 85.6688L209.088 85.9425L203.685 69.5914V69.5081V69.4248C207.658 63.7617 210.228 57.2355 211.183 50.3843C211.423 48.5687 211.562 46.7411 211.599 44.9101C211.599 44.3032 211.599 43.8391 211.599 43.494C211.599 43.1489 211.659 42.9466 211.659 42.9466Z" fill="#263238"/>
<path d="M150.824 19.8123L155.775 23.8941L156.667 27.0834L171.602 43.1964L169.96 44.7792L155.418 28.6899L152.241 27.2857L148.444 22.0733L150.824 19.8123Z" fill="#E0E0E0"/>
<path d="M150.824 19.848C150.637 20.0769 150.439 20.2954 150.229 20.5025L148.527 22.2281V22.0615L152.395 27.1667L152.299 27.0953L155.489 28.4639L169.769 44.1723L170.078 44.5055H169.638L171.435 42.9704V43.3988C165.616 37.0797 160.415 31.4152 156.572 27.2262C156.25 26.0362 155.965 24.989 155.715 24.025L155.774 24.1083L152.204 21.0619L151.252 20.2169C151.132 20.1191 151.021 20.0117 150.919 19.8956C151.378 20.1942 151.819 20.5201 152.24 20.8715L155.988 23.8346C156.262 24.7986 156.572 25.8458 156.905 27.012V26.9287L171.911 42.9704L172.125 43.1965L171.899 43.3988L170.257 44.9934L170.031 45.2076L169.817 44.9696L169.507 44.6364L155.239 28.8566L155.322 28.9161L152.156 27.488H152.097L148.372 22.2281L148.301 22.1329L148.384 22.0496L150.229 20.3954C150.411 20.1967 150.61 20.0135 150.824 19.848Z" fill="#263238"/>
<path d="M172.292 38.8053L173.816 40.4356C173.707 40.6737 173.668 40.9377 173.704 41.1969C173.74 41.456 173.849 41.6996 174.018 41.8994C174.231 42.0743 174.48 42.201 174.747 42.2708C175.014 42.3406 175.293 42.352 175.565 42.304L190.595 58.8336C190.952 59.2283 191.227 59.69 191.404 60.1917C191.581 60.6935 191.657 61.2254 191.627 61.7567C191.597 62.288 191.462 62.8081 191.23 63.2869C190.998 63.7656 190.673 64.1935 190.274 64.5457L189.381 65.3431C188.59 66.0345 187.561 66.3902 186.512 66.3346C185.463 66.2791 184.477 65.8166 183.764 65.0455L168.698 48.6231C168.78 48.3456 168.775 48.0497 168.683 47.7752C168.592 47.5008 168.419 47.2609 168.187 47.0879C167.997 46.9323 167.772 46.8242 167.532 46.7725C167.292 46.7207 167.043 46.7269 166.806 46.7904L165.39 45.172C165.131 44.8801 164.998 44.4983 165.018 44.1088C165.038 43.7193 165.21 43.3532 165.497 43.0894L170.245 38.7458C170.531 38.4944 170.901 38.3607 171.281 38.3717C171.661 38.3828 172.022 38.5377 172.292 38.8053Z" fill="#FF4848"/>
<g opacity="0.3">
<path d="M189 60.797L175.005 45.517C174.934 45.4472 174.877 45.3639 174.839 45.2719C174.8 45.18 174.78 45.0812 174.78 44.9815C174.78 44.8817 174.8 44.783 174.839 44.6911C174.877 44.5991 174.934 44.5158 175.005 44.446C175.075 44.3747 175.158 44.3181 175.25 44.2795C175.342 44.2408 175.441 44.2209 175.541 44.2209C175.641 44.2209 175.739 44.2408 175.831 44.2795C175.923 44.3181 176.007 44.3747 176.076 44.446L190.095 59.726C190.236 59.8686 190.315 60.061 190.315 60.2615C190.315 60.462 190.236 60.6545 190.095 60.797C190.025 60.872 189.94 60.9317 189.846 60.9726C189.752 61.0134 189.65 61.0345 189.548 61.0345C189.445 61.0345 189.343 61.0134 189.249 60.9726C189.155 60.9317 189.07 60.872 189 60.797Z" fill="black"/>
</g>
<g opacity="0.3">
<path d="M186.977 62.6892L172.958 47.3616C172.818 47.221 172.739 47.0305 172.739 46.832C172.739 46.6334 172.818 46.443 172.958 46.3024C173.028 46.2312 173.111 46.1746 173.203 46.1359C173.295 46.0973 173.394 46.0774 173.494 46.0774C173.594 46.0774 173.692 46.0973 173.784 46.1359C173.876 46.1746 173.96 46.2312 174.029 46.3024L188.096 61.6301C188.166 61.6988 188.223 61.7811 188.261 61.8721C188.3 61.9631 188.32 62.0609 188.32 62.1596C188.32 62.2584 188.3 62.3562 188.261 62.4471C188.223 62.5381 188.166 62.6204 188.096 62.6892C188.024 62.7663 187.938 62.8279 187.841 62.87C187.745 62.9121 187.641 62.9339 187.536 62.9339C187.431 62.9339 187.327 62.9121 187.231 62.87C187.135 62.8279 187.048 62.7663 186.977 62.6892Z" fill="black"/>
</g>
<g opacity="0.3">
<path d="M184.823 64.629L170.792 49.3489C170.721 49.2791 170.665 49.1958 170.626 49.1039C170.587 49.0119 170.567 48.9132 170.567 48.8134C170.567 48.7137 170.587 48.6149 170.626 48.523C170.665 48.431 170.721 48.3477 170.792 48.2779C170.935 48.1369 171.127 48.0579 171.328 48.0579C171.528 48.0579 171.721 48.1369 171.863 48.2779L185.882 63.558C186.023 63.7005 186.102 63.893 186.102 64.0935C186.102 64.294 186.023 64.4864 185.882 64.629C185.741 64.7692 185.551 64.848 185.352 64.848C185.154 64.848 184.963 64.7692 184.823 64.629Z" fill="black"/>
</g>
<path d="M173.816 40.4356C173.816 40.4356 172.269 41.8874 170.329 43.6368C168.389 45.3861 166.759 46.7904 166.759 46.7666C166.759 46.7428 168.306 45.3147 170.246 43.5654C172.185 41.816 173.816 40.4118 173.816 40.4356Z" fill="#263238"/>
<path d="M175.601 42.3159C175.601 42.3159 174.089 43.7677 172.173 45.5052C170.257 47.2426 168.698 48.635 168.687 48.6231C168.675 48.6112 170.246 47.2188 172.102 45.4338C173.958 43.6487 175.577 42.304 175.601 42.3159Z" fill="#263238"/>
<path d="M169.46 47.7067C169.394 47.603 169.335 47.4957 169.281 47.3854C169.138 47.1237 168.948 46.89 168.722 46.6951C168.499 46.5001 168.246 46.3432 167.972 46.231C167.85 46.1978 167.73 46.154 167.615 46.1001C167.741 46.0776 167.87 46.0776 167.996 46.1001C168.29 46.2013 168.56 46.359 168.793 46.5642C169.029 46.7643 169.219 47.0116 169.353 47.2902C169.422 47.418 169.459 47.5611 169.46 47.7067Z" fill="#263238"/>
<path d="M170.067 47.0046C170.067 47.0046 169.757 46.6118 169.329 46.1715C168.9 45.7312 168.52 45.4099 168.532 45.3861C168.859 45.5743 169.152 45.8156 169.4 46.1001C169.676 46.3586 169.901 46.6651 170.067 47.0046Z" fill="#263238"/>
<path d="M170.721 46.5047C170.431 46.2561 170.164 45.9812 169.924 45.6836C169.653 45.4065 169.41 45.1036 169.198 44.7792C169.49 45.0304 169.757 45.3094 169.996 45.6122C170.264 45.8869 170.507 46.1856 170.721 46.5047Z" fill="#263238"/>
<path d="M171.507 45.7312C171.202 45.5087 170.926 45.2488 170.686 44.9577C170.419 44.6901 170.176 44.3994 169.96 44.089C170.247 44.3328 170.514 44.5994 170.757 44.8863C171.031 45.1459 171.282 45.4286 171.507 45.7312Z" fill="#263238"/>
<path d="M172.137 45.0291C171.806 44.8896 171.515 44.6686 171.292 44.3865C171.043 44.1252 170.864 43.8063 170.769 43.4583C170.769 43.4583 170.995 43.8867 171.375 44.3151C171.611 44.5717 171.866 44.8104 172.137 45.0291Z" fill="#263238"/>
<path d="M173.185 44.3508C172.808 44.2108 172.472 43.9775 172.209 43.6725C171.924 43.3882 171.715 43.0361 171.603 42.649C171.812 42.9805 172.043 43.2985 172.293 43.6011C172.568 43.876 172.867 44.1268 173.185 44.3508Z" fill="#263238"/>
<path d="M173.53 43.3869C173.22 43.2932 172.951 43.0957 172.768 42.8276C172.556 42.5844 172.427 42.2802 172.399 41.9589C172.526 42.2416 172.677 42.5124 172.852 42.7681C173.057 42.9957 173.284 43.203 173.53 43.3869Z" fill="#263238"/>
<path d="M174.922 42.9822C174.793 43.015 174.658 43.015 174.529 42.9822C174.219 42.9184 173.929 42.7795 173.684 42.5776C173.441 42.3741 173.252 42.112 173.137 41.816C173.082 41.6966 173.053 41.5667 173.054 41.4352C173.054 41.4352 173.054 41.578 173.208 41.7922C173.36 42.0557 173.567 42.2832 173.815 42.4586C174.047 42.6542 174.32 42.7964 174.613 42.8751L174.922 42.9822Z" fill="#263238"/>
<path d="M194.368 24.1559L193.927 23.668L188.275 29.5349L183.122 24.3702L188.56 18.7294L188.12 18.2415C186.434 18.0322 184.723 18.2494 183.142 18.8732C181.562 19.4969 180.164 20.5072 179.076 21.8116C175.803 25.5126 177.493 30.3917 177.493 30.3917L171.436 36.4252L176.672 41.34L182.741 35.3899C182.741 35.3899 188.405 37.1273 192.035 33.1288C195.355 29.4397 194.368 24.1559 194.368 24.1559Z" fill="#263238"/>
<path d="M167.306 50.0511L162.07 45.16L155.299 51.8718C155.299 51.8718 149.087 50.6818 146.005 54.121C144.018 56.4265 143.003 59.4126 143.173 62.4512C143.173 62.8559 143.684 62.9868 143.684 62.9868L149.777 57.6197L154.93 62.7725L148.98 67.9254L149.48 68.4133C151.19 68.8621 152.993 68.8163 154.678 68.2812C156.363 67.7462 157.862 66.7438 159 65.3906C162.285 61.6896 160.595 56.8224 160.595 56.8224L167.306 50.0511Z" fill="#263238"/>
<path d="M193.927 23.668L187.846 29.047L182.681 23.8822L188.096 18.2415C186.385 17.7927 184.583 17.8385 182.898 18.3736C181.212 18.9086 179.714 19.911 178.575 21.2642C175.303 24.9652 176.993 29.8443 176.993 29.8443L170.947 35.9373L176.183 40.8521L182.253 34.902C182.253 34.902 187.917 36.6394 191.547 32.6409C194.915 28.9637 193.927 23.668 193.927 23.668Z" fill="#455A64"/>
<path d="M166.794 49.5988L161.57 44.7078L154.775 51.3839C154.775 51.3839 148.551 50.1938 145.481 53.6449C144.454 54.8672 143.709 56.3003 143.297 57.8427C142.886 59.385 142.819 60.999 143.101 62.5702L149.194 57.1912L154.346 62.3441L148.908 67.9848C150.617 68.4335 152.419 68.3889 154.103 67.856C155.788 67.3232 157.288 66.324 158.428 64.974C161.701 61.2611 160.011 56.3939 160.011 56.3939L166.794 49.5988Z" fill="#455A64"/>
</svg>
