<svg width="525" height="513" viewBox="0 0 525 513" fill="none" xmlns="http://www.w3.org/2000/svg">
<path d="M22.1891 92.1692L4.07129 179.596C12.1319 187.781 20.6762 195.507 34.4661 198.421L100.811 210.078L116.4 107.311L22.1891 92.1692Z" fill="#FAFAFA"/>
<path d="M18.4069 86.7747L0.289062 174.202L30.6839 193.026L97.0292 204.683L116.623 106.033L18.4069 86.7747Z" fill="#F5F5F5"/>
<path d="M12.653 169.539L0.251953 174.202C0.251953 174.202 4.71632 181.481 11.2268 185.363C17.1619 189.101 23.7514 191.68 30.6468 192.965C30.6468 192.965 16.1996 185.822 12.653 169.539Z" fill="#E0E0E0"/>
<path d="M8.3122 105.538L53.6627 91.4748L50.7732 81.926L4.67871 95.3315L8.3122 105.538Z" fill="#EBEBEB"/>
<path d="M124.473 129.62L95.0702 92.3303L87.208 98.4564L116.239 136.676L124.473 129.62Z" fill="#EBEBEB"/>
<path d="M99.5588 135.077C99.5588 135.25 82.7802 132.125 62.1573 128.095C41.5345 124.065 24.8427 120.654 24.8799 120.468C24.9171 120.282 41.6585 123.42 62.2814 127.45C82.9042 131.48 99.596 134.903 99.5588 135.077Z" fill="#E0E0E0"/>
<path d="M96.5952 148.482C96.5952 148.656 79.8166 145.531 59.1937 141.488C38.5709 137.445 21.8295 134.109 21.9164 133.874C22.0032 133.638 38.6949 136.825 59.3178 140.855C79.9406 144.886 96.6324 148.308 96.5952 148.482Z" fill="#E0E0E0"/>
<path d="M94.673 160.499C94.673 160.672 77.8944 157.547 57.284 153.517C36.6735 149.486 19.9694 146.076 19.9942 145.89C20.019 145.704 36.7727 148.842 57.408 152.884C78.0432 156.927 94.7102 160.325 94.673 160.499Z" fill="#E0E0E0"/>
<path d="M92.3547 171.982C92.3547 172.156 75.5761 169.031 54.9532 164.988C34.3304 160.945 17.6386 157.547 17.6758 157.374C17.713 157.2 34.4544 160.325 55.0772 164.355C75.7001 168.386 92.3795 171.808 92.3547 171.982Z" fill="#E0E0E0"/>
<path d="M446.725 51.965L423.275 109.121C415.5 110.696 407.6 111.825 398.56 108.166L355.987 89.1804L386.829 24.1868L446.725 51.965Z" fill="#FAFAFA"/>
<path d="M450.978 50.3282L427.54 107.497L402.813 106.529L360.24 87.5436L387.188 23.3684L450.978 50.3282Z" fill="#F5F5F5"/>
<path d="M422.246 100.031L427.541 107.472C424.182 108.924 420.561 109.671 416.901 109.667C412.048 109.508 407.269 108.436 402.813 106.505C402.813 106.505 413.912 108.067 422.246 100.031Z" fill="#E0E0E0"/>
<path d="M449.503 64.9986L428.93 39.3905L434.287 35.0254L455.542 60.5466L449.503 64.9986Z" fill="#EBEBEB"/>
<path d="M373.56 33.8721L404.847 23.8521L406.993 30.4122L375.544 41.1018L373.56 33.8721Z" fill="#EBEBEB"/>
<path d="M385.737 46.6327C385.799 46.4714 396.712 50.9358 410.105 56.5534C423.498 62.1711 434.299 66.9455 434.225 67.1067C434.15 67.2679 423.25 62.816 409.857 57.1859C396.464 51.5558 385.662 46.7939 385.737 46.6327Z" fill="#E0E0E0"/>
<path d="M382.252 55.4746C382.314 55.301 393.227 59.7654 406.62 65.3954C420.013 71.0255 430.802 75.7875 430.74 75.9487C430.678 76.1099 419.753 71.6579 406.372 66.0279C392.992 60.3978 382.178 55.6358 382.252 55.4746Z" fill="#E0E0E0"/>
<path d="M378.694 63.1135C378.768 62.9399 389.681 67.4043 403.062 73.0343C416.442 78.6644 427.256 83.4264 427.182 83.5876C427.107 83.7488 416.207 79.2968 402.814 73.6668C389.421 68.0367 378.632 63.2748 378.694 63.1135Z" fill="#E0E0E0"/>
<path d="M375.593 70.5914C375.655 70.4302 386.568 74.8945 399.961 80.5122C413.354 86.1298 424.143 90.9042 424.081 91.0654C424.019 91.2267 413.094 86.7747 399.701 81.1446C386.308 75.5146 375.519 70.7526 375.593 70.5914Z" fill="#E0E0E0"/>
<path d="M421.229 295.558C402.23 280.082 399.614 253.767 402.143 230.478C402.565 226.584 402.441 222.454 404.549 219.168C406.657 215.882 411.159 213.873 414.47 215.77C417.26 217.345 418.277 220.805 419.691 223.707C421.576 227.584 424.522 230.847 428.186 233.119C430.567 234.595 433.58 235.599 436.135 234.433C439.632 232.834 440.376 228.233 440.636 224.339C441.132 217.113 441.624 209.884 442.112 202.65C442.168 198.759 442.85 194.902 444.133 191.228C445.609 187.632 448.523 184.42 452.293 183.651C456.063 182.882 460.453 185.363 460.974 189.219C460.996 190.831 460.913 192.442 460.726 194.043C460.726 195.668 461.321 197.503 462.822 198.061C464.322 198.619 465.971 197.652 467.212 196.598C471.502 192.989 474.59 188.141 477.504 183.317C480.419 178.493 483.258 173.545 487.202 169.539C491.145 165.534 496.416 162.532 501.996 162.619C507.577 162.706 513.232 166.588 514.224 172.143C515.216 177.699 511.632 183.019 507.837 187.186C502.203 193.368 495.704 198.702 488.541 203.022C487.167 203.658 486.03 204.713 485.292 206.035C484.263 208.515 486.532 211.306 489.013 212.347C491.84 213.525 494.99 213.463 497.991 214.034C500.992 214.604 504.191 216.192 505.097 219.131C506.337 223.211 502.765 227.129 499.305 229.597C492.372 234.568 484.631 238.302 476.425 240.634C473.499 241.477 470.423 242.159 467.98 243.995C465.537 245.83 463.888 249.215 465.066 252.043C466.244 254.87 469.766 256.024 472.792 255.689C475.818 255.354 478.608 253.928 481.535 253.072C487.016 251.448 493.861 252.328 496.937 257.189C498.958 260.376 498.834 264.63 497.433 268.127C495.869 271.585 493.63 274.697 490.848 277.279C481.651 286.789 470.098 293.691 457.365 297.282C444.691 300.655 433.158 301.002 421.204 295.558" fill="#F5F5F5"/>
<path d="M419.642 312.845C421.516 302.099 424.423 291.559 428.322 281.371C433.138 268.939 438.665 256.795 444.878 244.999L449.714 235.686C451.301 232.635 452.876 229.597 454.612 226.732C457.938 221.237 461.565 215.93 465.476 210.834C469.196 205.948 472.916 201.447 476.351 197.193C479.786 192.94 483.172 189.182 486.359 185.809C491.353 180.472 496.765 175.542 502.542 171.064C504.588 169.477 506.263 168.299 507.317 167.518L508.557 166.625C508.696 166.519 508.846 166.428 509.003 166.352C508.875 166.473 508.738 166.585 508.594 166.687L507.354 167.629C506.275 168.448 504.675 169.663 502.666 171.287C496.969 175.836 491.625 180.811 486.681 186.169C483.519 189.542 480.22 193.386 476.761 197.578C473.301 201.769 469.63 206.258 465.947 211.219C462.067 216.307 458.465 221.601 455.158 227.079C453.447 229.932 451.884 232.933 450.284 235.996C448.685 239.059 447.097 242.196 445.46 245.297C439.261 257.073 433.725 269.187 428.88 281.582C424.966 291.724 422.014 302.212 420.063 312.907" fill="#E0E0E0"/>
<path d="M454.835 226.72C454.689 226.173 454.606 225.612 454.587 225.046C454.463 223.955 454.327 222.38 454.203 220.433C453.942 216.526 453.756 211.132 453.583 205.179C453.409 199.227 453.161 193.845 452.839 189.951C452.69 188.017 452.541 186.442 452.429 185.35C452.34 184.789 452.311 184.219 452.342 183.651C452.522 184.191 452.643 184.748 452.702 185.313C452.901 186.392 453.124 187.967 453.347 189.901C453.793 193.795 454.128 199.19 454.302 205.155C454.475 211.12 454.599 216.316 454.711 220.408C454.711 222.231 454.823 223.781 454.86 225.021C454.918 225.586 454.91 226.157 454.835 226.72Z" fill="#E0E0E0"/>
<path d="M505.369 221.102C504.704 221.201 504.031 221.234 503.36 221.201C502.12 221.201 500.21 221.201 497.916 221.325C493.315 221.487 486.966 221.921 479.984 222.702C473.002 223.483 466.703 224.5 462.176 225.343C459.907 225.753 458.084 226.137 456.819 226.397C456.17 226.572 455.506 226.68 454.835 226.72C455.455 226.457 456.099 226.254 456.757 226.112C457.997 225.777 459.82 225.319 462.077 224.872C466.591 223.892 472.891 222.814 479.897 222.007C485.876 221.316 491.886 220.927 497.904 220.842C500.21 220.842 502.083 220.842 503.372 220.941C504.042 220.933 504.71 220.987 505.369 221.102Z" fill="#E0E0E0"/>
<path d="M429.017 280.503C428.9 280.303 428.804 280.091 428.732 279.871L428.012 277.998C427.392 276.373 426.561 274.005 425.532 271.053C423.548 265.175 421.068 256.954 418.451 247.851C415.835 238.749 413.491 230.49 411.581 224.587C410.676 221.71 409.919 219.341 409.361 217.58C409.126 216.811 408.927 216.179 408.778 215.671C408.69 215.453 408.635 215.223 408.617 214.989C408.739 215.188 408.839 215.4 408.915 215.621L409.622 217.481C410.242 219.106 411.073 221.474 412.102 224.426C414.086 230.316 416.566 238.526 419.183 247.64C421.799 256.755 424.143 265.002 426.053 270.905C426.958 273.782 427.715 276.15 428.273 277.899L428.868 279.821C428.952 280.039 429.003 280.269 429.017 280.503Z" fill="#E0E0E0"/>
<path d="M496.788 264.059C496.57 264.161 496.341 264.236 496.106 264.283L494.134 264.791L486.867 266.564C480.741 268.065 472.296 270.223 462.97 272.628C453.645 275.034 445.162 277.13 438.999 278.494C435.911 279.189 433.419 279.734 431.683 280.044L429.686 280.416C429.451 280.474 429.209 280.503 428.967 280.503C429.184 280.401 429.413 280.327 429.649 280.28L431.621 279.771L438.888 277.998C445.014 276.51 453.459 274.34 462.797 271.934C472.135 269.528 480.667 267.432 486.867 266.056C489.955 265.374 492.448 264.816 494.184 264.518L496.193 264.146C496.388 264.097 496.587 264.068 496.788 264.059Z" fill="#E0E0E0"/>
<path d="M525 512.154C525 512.34 407.662 512.476 262.967 512.476C118.272 512.476 0.90918 512.34 0.90918 512.154C0.90918 511.968 118.21 511.831 262.967 511.831C407.724 511.831 525 511.98 525 512.154Z" fill="#263238"/>
<path d="M159.196 39.6012L189.12 130.823C201 134.134 213.103 136.763 227.563 132.063L295.669 107.422L255.18 3.25391L159.196 39.6012Z" fill="#E0E0E0"/>
<path d="M152.785 36.6004L182.709 127.81L221.115 129.099L289.221 104.446L254.672 1.97681L152.785 36.6004Z" fill="#FF4848"/>
<path d="M191.724 116.847L182.696 127.81C182.696 127.81 190.757 132.212 198.929 132.398C206.463 132.725 213.991 131.622 221.115 129.149C221.115 129.149 203.753 130.129 191.724 116.847Z" fill="#FF4848"/>
<path opacity="0.3" d="M191.724 116.847C188.984 122.39 186.206 128.901 182.696 127.81C182.696 127.81 190.757 132.212 198.929 132.398C206.463 132.725 213.991 131.622 221.115 129.149C221.115 129.149 203.753 130.129 191.724 116.847Z" fill="black"/>
<path d="M153.43 59.4926L188.177 22.116L180.377 14.7622L144.575 51.928L153.43 59.4926Z" fill="#E0E0E0"/>
<path d="M274.612 19.7722L227.253 0.749023L223.186 10.6698L270.719 30.7594L274.612 19.7722Z" fill="#E0E0E0"/>
<path d="M254.312 38.2001C254.312 38.3613 237.075 44.4006 215.695 51.68C194.316 58.9594 176.917 64.7258 176.843 64.5522C176.769 64.3786 194.068 58.3517 215.46 51.0723C236.851 43.793 254.25 38.0265 254.312 38.2001Z" fill="#263238"/>
<path d="M258.689 52.2628C258.689 52.4365 241.452 58.4633 220.073 65.7551C198.693 73.0469 181.295 78.7886 181.245 78.6274C181.196 78.4662 198.47 72.4269 219.862 65.1351C241.254 57.8433 258.689 52.114 258.689 52.2628Z" fill="#263238"/>
<path d="M263.364 64.5151C263.364 64.6763 246.139 70.7156 224.748 77.9949C203.356 85.2743 185.982 91.0408 185.92 90.8672C185.858 90.6936 203.157 84.6667 224.549 77.3873C245.941 70.1079 263.315 64.3414 263.364 64.5151Z" fill="#263238"/>
<path d="M267.37 76.4572C267.37 76.6308 250.133 82.6577 228.753 89.9495C207.374 97.2412 189.988 102.983 189.926 102.822C189.864 102.66 207.151 96.6212 228.543 89.3294C249.934 82.0376 267.283 76.296 267.37 76.4572Z" fill="#263238"/>
<path d="M313.254 337.721L307.252 393.526C307.252 393.526 295.558 375.854 287.646 383.729C280.106 391.244 266.787 446.044 266.787 446.044C266.787 446.044 266.614 463.914 276.113 468.639C306.582 483.817 340.536 455.295 340.536 455.295L335.687 295.57C323.055 306.203 315.018 321.304 313.254 337.721Z" fill="#FF4848"/>
<path d="M416.045 298.931L363.329 294.727C363.006 288.527 363.44 264.754 363.44 264.754C363.44 264.754 341.503 261.344 341.242 239.419C340.982 217.494 344.764 167.121 344.764 167.121C357.232 161.761 370.904 159.828 384.369 161.522C397.834 163.216 410.602 168.475 421.353 176.757L424.602 179.237L416.045 298.931Z" fill="#B78876"/>
<path d="M363.403 264.444C373.53 264.635 383.485 261.808 392 256.321C392 256.321 385.241 272.095 363.354 270.124L363.403 264.444Z" fill="#AA6550"/>
<path d="M421.911 201.968C422.283 201.806 436.979 197.516 436.495 212.508C436.011 227.501 421.068 223.93 421.056 223.496C421.043 223.062 421.911 201.968 421.911 201.968Z" fill="#B78876"/>
<path d="M425.805 217.965C425.88 217.965 426.066 218.151 426.5 218.374C427.111 218.661 427.81 218.696 428.447 218.473C430.059 217.94 431.473 215.472 431.634 212.769C431.7 211.498 431.488 210.229 431.014 209.049C430.89 208.575 430.653 208.138 430.322 207.777C429.992 207.416 429.578 207.142 429.116 206.978C428.819 206.886 428.498 206.903 428.212 207.026C427.926 207.149 427.693 207.369 427.554 207.647C427.343 208.057 427.417 208.354 427.343 208.379C427.269 208.404 427.033 208.119 427.169 207.498C427.272 207.134 427.489 206.812 427.789 206.581C428.213 206.289 428.732 206.169 429.24 206.246C429.86 206.396 430.431 206.703 430.898 207.138C431.365 207.572 431.712 208.119 431.907 208.726C432.494 210.046 432.758 211.488 432.675 212.93C432.477 215.944 430.84 218.721 428.658 219.279C428.251 219.386 427.825 219.399 427.413 219.318C427 219.236 426.612 219.062 426.277 218.808C425.83 218.325 425.756 217.99 425.805 217.965Z" fill="#AA6550"/>
<path d="M349.601 201.075C349.594 201.892 349.906 202.68 350.471 203.271C351.036 203.861 351.81 204.208 352.627 204.237C353.025 204.269 353.426 204.221 353.806 204.095C354.185 203.969 354.536 203.769 354.836 203.505C355.137 203.241 355.382 202.92 355.556 202.56C355.73 202.2 355.831 201.809 355.851 201.41C355.858 200.594 355.547 199.808 354.985 199.218C354.422 198.628 353.652 198.28 352.837 198.247C352.438 198.217 352.038 198.267 351.658 198.393C351.278 198.519 350.928 198.72 350.626 198.983C350.325 199.246 350.079 199.566 349.903 199.926C349.727 200.285 349.624 200.676 349.601 201.075Z" fill="#263238"/>
<path d="M348.919 197.975C349.303 198.384 351.684 196.623 355.045 196.635C358.406 196.648 360.886 198.334 361.245 197.875C361.419 197.689 361.022 196.945 360.005 196.164C358.548 195.157 356.816 194.625 355.045 194.639C353.29 194.632 351.579 195.184 350.159 196.214C349.08 197.057 348.733 197.789 348.919 197.975Z" fill="#263238"/>
<path d="M382.612 202.315C382.605 203.13 382.916 203.916 383.478 204.507C384.041 205.097 384.811 205.445 385.626 205.477C386.025 205.507 386.426 205.458 386.805 205.332C387.185 205.206 387.536 205.005 387.837 204.742C388.138 204.479 388.384 204.158 388.56 203.799C388.736 203.44 388.839 203.049 388.863 202.65C388.866 201.833 388.553 201.047 387.989 200.457C387.424 199.867 386.653 199.52 385.837 199.487C385.438 199.457 385.038 199.507 384.659 199.633C384.28 199.759 383.931 199.96 383.63 200.223C383.33 200.487 383.085 200.807 382.91 201.167C382.736 201.526 382.634 201.916 382.612 202.315Z" fill="#263238"/>
<path d="M382.042 198.594C382.439 199.004 384.807 197.243 388.18 197.255C391.553 197.268 394.021 198.954 394.381 198.495C394.567 198.322 394.17 197.578 393.141 196.796C391.683 195.79 389.952 195.253 388.18 195.259C386.427 195.256 384.717 195.807 383.294 196.834C382.215 197.689 381.856 198.421 382.042 198.594Z" fill="#263238"/>
<path d="M369.814 223.595C369.814 223.409 367.731 223.049 364.346 222.615C363.478 222.529 362.671 222.355 362.523 221.76C362.454 220.874 362.653 219.989 363.093 219.217C363.92 217.134 364.767 214.947 365.635 212.657C369.182 203.332 371.737 195.656 371.352 195.519C370.968 195.383 367.805 202.836 364.271 212.161C363.428 214.455 362.609 216.65 361.791 218.759C361.242 219.793 361.083 220.99 361.345 222.132C361.468 222.434 361.66 222.703 361.905 222.918C362.151 223.133 362.443 223.289 362.758 223.372C363.234 223.507 363.727 223.578 364.222 223.583C367.681 223.781 369.802 223.793 369.814 223.595Z" fill="#263238"/>
<path d="M381.173 185.4C381.508 186.318 384.894 185.884 388.825 186.355C392.756 186.826 395.98 187.905 396.501 187.086C396.737 186.69 396.179 185.846 394.889 184.941C393.164 183.866 391.218 183.197 389.197 182.982C387.175 182.767 385.132 183.013 383.22 183.701C381.769 184.247 381.037 184.954 381.173 185.4Z" fill="#263238"/>
<path d="M350.159 188.227C350.754 188.984 353.073 188.227 355.863 188.153C358.653 188.078 361.022 188.674 361.567 187.868C361.803 187.483 361.431 186.714 360.402 185.995C359.017 185.122 357.402 184.681 355.766 184.73C354.129 184.778 352.544 185.314 351.213 186.268C350.221 187.062 349.898 187.843 350.159 188.227Z" fill="#263238"/>
<path d="M334.087 153.281C333.932 151.92 334.125 150.541 334.648 149.275C335.17 148.008 336.006 146.895 337.076 146.039C338.181 145.235 339.536 144.85 340.899 144.953C342.261 145.055 343.544 145.638 344.517 146.597C344.31 145.682 344.299 144.733 344.483 143.812C344.667 142.892 345.042 142.021 345.585 141.255C346.128 140.489 346.825 139.845 347.632 139.367C348.44 138.888 349.338 138.584 350.271 138.475C353.855 138.251 356.905 140.955 360.353 141.897C363.8 142.84 367.347 142.021 370.596 140.719C373.845 139.417 376.871 137.606 380.157 136.404C387.1 133.868 394.764 134.175 401.482 137.259C408.2 140.343 413.429 145.954 416.033 152.872C420.832 151.372 426.276 153.815 429.24 157.832C432.204 161.85 432.96 167.232 432.365 172.218C431.904 175.581 431.072 178.883 429.885 182.064C429.885 182.349 429.885 182.622 429.885 182.907C429.649 194.961 428.285 209.123 423.139 209.21C414.173 209.346 416.318 192.444 416.318 192.444C405.306 188.203 409.411 171.709 406.658 169.204C403.905 166.699 398.151 160.896 375.11 172.664C366.156 177.24 354.264 177.104 347.766 175.628L347.195 175.504H347.059C346.996 175.482 346.933 175.458 346.873 175.43C344.784 174.916 342.788 174.079 340.957 172.949C338.802 171.706 337.099 169.808 336.096 167.53C335.613 166.39 335.474 165.134 335.694 163.916C335.914 162.698 336.485 161.571 337.336 160.672C335.555 158.579 334.425 156.009 334.087 153.281Z" fill="#263238"/>
<path d="M459.176 436.557L460.825 467.696L464.545 512.34H323.633L329.759 446.292L317.755 341.938C318.797 305.057 332.958 289.729 361.927 286.208L359.645 286.493C363.639 286.022 359.645 286.493 361.927 286.208C380.22 291.986 399.849 291.986 418.141 286.208C426.822 286.58 434.027 289.246 441.418 290.672C464.694 295.124 483.854 313.105 488.541 328.768C492.373 341.652 520.09 453.41 520.09 453.41H464.918L459.176 436.557Z" fill="#FF4848"/>
<path d="M366.95 233.962C367.42 235.325 368.079 236.615 368.909 237.794C369.329 238.382 369.869 238.874 370.493 239.238C371.118 239.601 371.812 239.828 372.53 239.902C373.298 239.899 374.053 239.705 374.726 239.337C375.4 238.969 375.97 238.439 376.387 237.794C377.205 236.483 377.583 234.945 377.466 233.404C377.466 232.015 376.772 230.366 375.395 230.205C374.816 230.182 374.24 230.306 373.721 230.564L366.491 233.503" fill="#AA6550"/>
<path d="M369.84 239.915C371.148 240.003 372.46 239.843 373.709 239.443C374.973 238.946 376.01 238.001 376.623 236.79C376.969 236.052 377.155 235.251 377.17 234.436C377.185 233.622 377.028 232.814 376.71 232.065C376.548 231.677 376.34 231.311 376.09 230.974C375.792 230.676 375.854 230.688 375.544 230.738C375.147 230.868 374.758 231.021 374.379 231.197L373.138 231.68C371.588 232.3 370.187 232.846 369.009 233.293C366.64 234.173 365.14 234.644 365.065 234.533C364.991 234.421 366.367 233.603 368.649 232.499C369.79 231.953 371.129 231.259 372.68 230.626L373.845 230.105C374.278 229.9 374.721 229.718 375.172 229.56C375.518 229.444 375.893 229.444 376.239 229.56C376.557 229.692 376.832 229.911 377.032 230.192C377.366 230.608 377.641 231.067 377.851 231.556C378.245 232.478 378.429 233.476 378.39 234.477C378.352 235.479 378.091 236.459 377.628 237.348C377.236 238.065 376.706 238.696 376.067 239.205C375.428 239.714 374.694 240.09 373.907 240.312C372.893 240.644 371.807 240.687 370.77 240.436C370.15 240.237 369.815 239.989 369.84 239.915Z" fill="#263238"/>
<path d="M317.519 430.332L284.334 328.445L281.333 311.344C281.333 311.344 272.305 273.199 271.896 269.429C271.437 265.064 269.217 264.245 267.63 264.469C265.15 264.915 263.699 268.189 263.984 271.909C264.083 273.149 266.464 293.611 266.464 293.611C265.068 291.812 263.547 290.113 261.913 288.527C258.478 285.03 251.149 283.566 243.895 284.62C236.64 285.674 234.693 286.567 234.966 289.407C235.041 289.941 235.234 290.451 235.533 290.899C235.831 291.348 236.226 291.724 236.69 291.999C238.145 292.979 239.912 293.385 241.65 293.14C253.295 291.664 257.102 297.567 257.102 297.567L257.498 299.799C257.498 299.799 249.859 295.508 244.453 298.249C243.651 298.654 242.935 299.21 242.344 299.886C240.755 300.065 239.24 300.656 237.949 301.601C236.659 302.546 235.638 303.812 234.987 305.273C234.337 306.735 234.08 308.341 234.241 309.932C234.403 311.523 234.978 313.045 235.908 314.346C236.801 315.586 238.389 316.702 239.815 316.243C240.572 315.919 241.237 315.412 241.749 314.767C242.04 314.445 242.36 314.15 242.704 313.887L244.676 320C244.676 320 249.859 333.505 251.447 339.631L267.568 442.225C268.101 445.603 269.302 448.842 271.099 451.752C272.897 454.662 275.256 457.185 278.039 459.174C280.822 461.163 283.974 462.578 287.309 463.336C290.644 464.095 294.098 464.181 297.467 463.592C301.091 462.954 304.537 461.546 307.571 459.465C310.606 457.383 313.159 454.675 315.059 451.524C316.96 448.372 318.162 444.85 318.587 441.194C319.011 437.539 318.647 433.835 317.519 430.332Z" fill="#B78876"/>
<path d="M280.825 327.404C278.754 328.222 276.385 326.883 275.021 325.122C273.657 323.361 272.95 321.166 271.723 319.306C268.002 313.725 260.388 311.704 256.99 305.962C256.507 305.156 256.172 304.028 256.854 303.395C257.536 302.763 258.503 303.11 259.334 303.395L279.721 311.965" fill="#B78876"/>
<path d="M279.684 312.014C279.033 311.543 278.324 311.155 277.576 310.861C276.187 310.191 274.153 309.273 271.636 308.145L262.781 304.276L260.202 303.172C259.231 302.564 258.059 302.364 256.941 302.614C256.599 302.767 256.313 303.019 256.118 303.338C255.923 303.656 255.829 304.027 255.849 304.4C255.882 305.01 256.056 305.605 256.358 306.136C256.914 307.073 257.571 307.947 258.317 308.74C261.355 311.915 265.026 313.701 267.779 315.97C269.111 316.982 270.282 318.191 271.251 319.554C272.132 320.794 272.739 322.22 273.434 323.435C273.897 324.472 274.581 325.395 275.438 326.14C276.295 326.886 277.304 327.435 278.394 327.751C280.031 328.061 280.875 327.429 280.8 327.404C280.038 327.504 279.265 327.462 278.518 327.28C277.542 326.907 276.655 326.335 275.912 325.601C275.169 324.866 274.587 323.985 274.203 323.014C273.57 321.774 272.963 320.397 272.095 318.971C271.101 317.494 269.884 316.18 268.486 315.077C265.658 312.684 262.013 310.824 259.222 307.872C258.541 307.16 257.942 306.374 257.437 305.528C256.978 304.735 256.941 303.879 257.437 303.743C257.933 303.606 258.875 303.904 259.743 304.276L262.323 305.342L271.289 308.976C273.856 309.98 275.939 310.786 277.377 311.32C278.11 311.657 278.887 311.891 279.684 312.014Z" fill="#AA6550"/>
<path d="M257.772 299.973C257.493 298.586 256.89 297.286 256.011 296.178C255.004 295.052 253.659 294.283 252.179 293.983C250.332 293.626 248.441 293.559 246.574 293.785C244.644 294.018 242.695 294.056 240.758 293.896C239.129 293.742 237.569 293.165 236.231 292.222C235.781 291.882 235.415 291.444 235.159 290.941C234.903 290.438 234.765 289.884 234.756 289.32C234.728 288.917 234.823 288.515 235.028 288.167C235.103 288.167 235.028 288.589 235.028 289.308C235.084 289.807 235.248 290.287 235.51 290.716C235.771 291.144 236.123 291.51 236.541 291.788C237.821 292.599 239.283 293.076 240.795 293.177C242.686 293.29 244.583 293.227 246.462 292.991C248.416 292.761 250.395 292.862 252.315 293.289C253.928 293.657 255.369 294.556 256.408 295.843C257.085 296.707 257.537 297.725 257.722 298.807C257.837 299.185 257.854 299.586 257.772 299.973Z" fill="#AA6550"/>
<path d="M263.897 270.52C264.177 271.856 264.343 273.212 264.393 274.575C264.654 277.366 264.976 280.689 265.336 284.36C265.695 288.031 266.117 291.342 266.427 294.132C266.666 295.475 266.786 296.836 266.787 298.199C266.327 296.912 266.015 295.577 265.856 294.219C265.422 291.738 264.926 288.279 264.53 284.447C264.133 280.615 263.897 277.13 263.81 274.613C263.687 273.25 263.716 271.877 263.897 270.52Z" fill="#AA6550"/>
<path d="M253.654 305.07C253.229 305.007 252.813 304.894 252.414 304.735C251.906 304.531 251.359 304.442 250.812 304.474C250.265 304.506 249.733 304.659 249.252 304.921C248.961 305.12 248.728 305.392 248.575 305.71C248.423 306.028 248.357 306.38 248.384 306.731C248.428 307.62 248.586 308.5 248.855 309.348C249.211 310.411 249.162 311.568 248.718 312.597C248.418 313.132 247.995 313.589 247.484 313.929C246.973 314.27 246.389 314.484 245.779 314.556C245.18 314.618 244.574 314.557 243.999 314.378C243.423 314.199 242.89 313.905 242.431 313.515C241.579 312.818 240.949 311.887 240.621 310.836C240.204 309.125 240.041 307.361 240.137 305.603C240.158 304.414 240.389 303.239 240.819 302.13C240.957 301.709 241.205 301.332 241.538 301.039C241.538 301.039 241.34 301.461 241.117 302.279C240.826 303.384 240.692 304.523 240.72 305.665C240.705 307.338 240.914 309.007 241.34 310.625C241.618 311.553 242.193 312.363 242.978 312.93C243.763 313.497 244.712 313.79 245.68 313.763C246.16 313.704 246.619 313.536 247.024 313.272C247.428 313.007 247.766 312.653 248.012 312.237C248.372 311.379 248.411 310.419 248.123 309.534C247.865 308.617 247.727 307.671 247.714 306.719C247.705 306.265 247.815 305.817 248.032 305.419C248.25 305.021 248.568 304.687 248.954 304.449C249.505 304.168 250.115 304.021 250.734 304.021C251.352 304.021 251.962 304.168 252.513 304.449C253.294 304.772 253.728 305.02 253.654 305.07Z" fill="#AA6550"/>
<path d="M242.717 312.857C242.717 312.857 242.915 313.267 242.717 314.023C242.564 314.554 242.291 315.043 241.919 315.452C241.547 315.86 241.086 316.178 240.571 316.379C239.788 316.643 238.95 316.698 238.139 316.539C237.328 316.38 236.572 316.013 235.946 315.474C234.459 314.148 233.54 312.301 233.379 310.315C233.166 308.36 233.569 306.387 234.532 304.673C235.325 303.288 236.478 302.144 237.868 301.362C238.782 300.83 239.787 300.473 240.832 300.307C241.211 300.217 241.606 300.217 241.985 300.307C240.647 300.647 239.362 301.168 238.165 301.858C236.777 302.735 235.666 303.989 234.961 305.473C234.256 306.956 233.987 308.61 234.185 310.241C234.326 312.024 235.126 313.691 236.429 314.916C236.955 315.391 237.592 315.725 238.282 315.887C238.971 316.05 239.69 316.036 240.373 315.846C240.83 315.691 241.249 315.441 241.602 315.112C241.955 314.782 242.233 314.382 242.419 313.936C242.679 313.279 242.642 312.857 242.717 312.857Z" fill="#AA6550"/>
<path d="M258.255 324.998C258.869 324.736 259.549 324.671 260.202 324.812C261.906 324.989 263.501 325.736 264.728 326.932L264.071 327.205C264.06 326.277 264.113 325.349 264.232 324.427C264.84 319.045 267.37 315.313 267.518 315.449C267.667 315.586 265.621 319.343 265.038 324.527C264.93 325.416 264.868 326.31 264.852 327.205V328.135L264.207 327.478C263.096 326.372 261.687 325.614 260.152 325.296C258.974 325.085 258.255 325.085 258.255 324.998Z" fill="#AA6550"/>
<path d="M254.126 290.275C254.324 290.35 253.692 291.9 251.981 292.855C250.269 293.809 248.632 293.586 248.67 293.375C248.707 293.165 250.108 293.003 251.584 292.135C253.06 291.267 253.915 290.151 254.126 290.275Z" fill="#AA6550"/>
<path d="M343.81 290.263C343.81 290.263 343.351 290.759 342.57 291.714C341.332 293.059 340.356 294.623 339.693 296.327C339.495 296.906 339.387 297.513 339.371 298.125C339.372 298.778 339.534 299.421 339.842 299.997C340.688 301.27 341.95 302.209 343.413 302.651C347.082 303.802 350.916 304.343 354.76 304.251C356.893 304.251 359.2 304.375 361.556 304.511L365.165 304.933C366.405 305.069 367.645 305.404 368.885 305.628C374.268 306.726 379.346 308.986 383.766 312.25C386.175 314.047 388.27 316.23 389.967 318.711C390.393 319.36 390.786 320.03 391.145 320.72C391.504 321.451 391.752 322.158 392.05 322.877C392.603 324.344 393.018 325.86 393.29 327.404C394.538 333.903 393.509 340.634 390.376 346.464C387.139 352.25 381.94 356.688 375.718 358.977C372.794 360.073 369.711 360.685 366.591 360.787C363.614 360.804 360.648 360.445 357.761 359.721C355.098 359.035 352.387 358.55 349.651 358.27C347.123 358.026 344.576 358.476 342.285 359.572C340.179 360.702 338.307 362.221 336.766 364.049C335.216 365.785 333.902 367.608 332.6 369.331C330.033 372.791 327.304 375.842 324.13 377.442C322.674 378.221 321.056 378.646 319.405 378.682C318.026 378.698 316.657 378.445 315.375 377.938C314.353 377.531 313.415 376.938 312.609 376.189C312.03 375.626 311.56 374.962 311.22 374.23C310.93 373.635 310.782 372.982 310.786 372.32C310.873 372.32 310.898 373.002 311.456 374.118C311.824 374.789 312.302 375.392 312.87 375.904C313.661 376.581 314.569 377.111 315.548 377.466C316.888 377.962 318.32 378.159 319.744 378.046C321.168 377.932 322.55 377.51 323.795 376.809C326.771 375.234 329.363 372.27 331.868 368.798C333.108 367.062 334.447 365.202 336.022 363.391C337.614 361.43 339.568 359.793 341.776 358.567C344.233 357.361 346.973 356.846 349.701 357.079C352.497 357.35 355.27 357.827 357.997 358.505C360.788 359.195 363.654 359.533 366.529 359.51C369.498 359.389 372.428 358.794 375.209 357.749C381.138 355.548 386.092 351.311 389.185 345.794C392.174 340.225 393.163 333.8 391.988 327.59C391.702 326.114 391.287 324.665 390.748 323.262C390.45 322.567 390.202 321.848 389.892 321.228C389.567 320.578 389.203 319.948 388.801 319.343C387.2 316.972 385.223 314.877 382.948 313.143C378.671 309.954 373.755 307.729 368.538 306.62C367.298 306.384 366.057 306.049 364.904 305.913L361.358 305.454C359.026 305.293 356.794 305.193 354.624 305.119C350.687 305.153 346.772 304.528 343.041 303.271C341.488 302.732 340.166 301.678 339.296 300.283C338.954 299.612 338.788 298.865 338.812 298.113C338.846 297.446 338.984 296.789 339.222 296.166C339.947 294.423 341.024 292.849 342.384 291.54C342.797 291.05 343.277 290.62 343.81 290.263Z" fill="#FAFAFA"/>
<path d="M438.144 372.953C437.804 372.058 437.603 371.117 437.549 370.162C437.273 367.56 437.445 364.931 438.057 362.387C438.967 358.598 440.605 355.022 442.881 351.858C445.651 347.977 449.193 344.709 453.286 342.26C457.401 339.897 461.875 338.222 466.53 337.3C470.304 336.521 474.147 336.126 478.001 336.122C480.586 336.093 483.17 336.221 485.739 336.506C486.687 336.545 487.626 336.711 488.529 337.002C488.529 337.225 484.499 336.779 478.013 337.002C474.232 337.142 470.472 337.623 466.778 338.441C462.269 339.421 457.939 341.094 453.943 343.401C449.997 345.762 446.561 348.886 443.836 352.59C441.6 355.607 439.943 359.013 438.95 362.635C438.28 365.082 437.975 367.614 438.045 370.15C438.148 371.08 438.181 372.017 438.144 372.953Z" fill="#FAFAFA"/>
<path d="M505.903 394.53C505.525 395.326 505.032 396.061 504.44 396.713C502.964 398.583 501.302 400.299 499.48 401.835C496.764 404.136 493.758 406.07 490.538 407.589C482.597 411.408 473.615 412.493 464.992 410.676C461.502 409.967 458.12 408.799 454.935 407.204C452.792 406.151 450.76 404.884 448.871 403.422C448.139 402.934 447.486 402.335 446.937 401.649C447.085 401.45 449.913 403.918 455.332 406.386C462.364 409.65 470.166 410.887 477.863 409.958C485.559 409.029 492.844 405.971 498.897 401.128C503.547 397.42 505.705 394.344 505.903 394.53Z" fill="#FAFAFA"/>
<path d="M443.613 390.537C443.255 390.735 442.877 390.893 442.484 391.008C441.421 391.441 440.456 392.082 439.645 392.893C438.401 394.215 437.432 395.771 436.792 397.469C435.927 399.736 435.255 402.071 434.783 404.451C434.273 407.379 433.603 410.277 432.774 413.132C432.253 414.756 431.532 416.31 430.629 417.757C429.63 419.278 428.41 420.64 427.008 421.8C423.984 424.207 420.497 425.967 416.765 426.971C412.945 428.112 408.903 428.732 404.835 429.526C397.182 430.786 389.926 433.809 383.642 438.355C380.952 440.372 378.571 442.77 376.573 445.474C374.872 447.859 373.515 450.473 372.543 453.237C371.111 457.255 370.66 461.558 371.228 465.786C371.675 468.775 372.357 470.338 372.22 470.387C372.001 470.038 371.826 469.663 371.7 469.271C371.508 468.811 371.346 468.339 371.216 467.857C371.016 467.206 370.854 466.544 370.732 465.873C369.956 461.555 370.28 457.111 371.675 452.951C372.618 450.073 373.972 447.346 375.693 444.854C377.721 442.033 380.153 439.526 382.91 437.413C389.311 432.692 396.74 429.555 404.587 428.261C408.692 427.455 412.697 426.847 416.405 425.781C419.984 424.841 423.334 423.183 426.252 420.907C427.571 419.844 428.724 418.59 429.674 417.187C430.542 415.83 431.241 414.372 431.758 412.847C432.617 410.021 433.329 407.152 433.891 404.253C434.416 401.826 435.159 399.452 436.11 397.159C436.837 395.404 437.923 393.82 439.297 392.509C440.175 391.686 441.232 391.079 442.385 390.736C442.78 390.601 443.195 390.534 443.613 390.537Z" fill="#FAFAFA"/>
<path d="M410.39 385.366C410.819 386.144 411.041 387.02 411.035 387.908C411.158 390.352 410.46 392.766 409.051 394.766C408.101 396.177 406.825 397.339 405.331 398.151C404.488 398.612 403.581 398.942 402.64 399.131C401.642 399.316 400.623 399.358 399.614 399.255C397.445 399.019 395.385 398.186 393.661 396.849C391.768 395.419 390.413 393.392 389.817 391.095C389.437 389.6 389.416 388.037 389.755 386.532C390.121 385.103 390.799 383.773 391.739 382.638C392.543 381.561 393.453 380.568 394.455 379.674C394.938 379.229 395.466 378.834 396.03 378.496C396.611 378.108 397.281 377.874 397.977 377.814L398.138 378.917L397.53 379.066L397.22 378C399.476 377.36 401.881 377.49 404.053 378.372C405.711 379.007 407.191 380.032 408.369 381.36C409.123 382.197 409.72 383.163 410.13 384.213C410.39 384.944 410.452 385.354 410.403 385.366C409.73 384.08 408.896 382.884 407.922 381.807C406.748 380.647 405.328 379.766 403.768 379.227C401.773 378.503 399.597 378.446 397.568 379.066L397.258 378L397.865 377.826L398.039 378.942C396.975 379.197 396.01 379.758 395.261 380.554C394.347 381.421 393.517 382.372 392.781 383.394C391.92 384.406 391.319 385.612 391.029 386.909C390.74 388.205 390.77 389.553 391.119 390.835C391.653 392.848 392.834 394.63 394.48 395.907C396.019 397.108 397.851 397.875 399.787 398.127C400.683 398.231 401.589 398.21 402.478 398.065C403.314 397.911 404.124 397.639 404.884 397.259C406.262 396.552 407.456 395.533 408.369 394.282C409.749 392.461 410.525 390.254 410.589 387.97C410.551 386.296 410.266 385.403 410.39 385.366Z" fill="#FAFAFA"/>
<path d="M330.367 344.926C330.389 345.037 330.389 345.151 330.367 345.261C330.367 345.509 330.367 345.832 330.367 346.228C330.367 347.134 330.255 348.386 330.181 349.949C329.983 353.198 329.797 357.898 329.536 363.701C329.053 375.321 328.569 391.368 328.197 409.114C327.825 426.86 327.589 442.919 327.416 454.539C327.329 460.318 327.254 465.005 327.205 468.316C327.205 469.891 327.143 471.144 327.13 472.036C327.13 472.433 327.13 472.756 327.13 473.016C327.147 473.127 327.147 473.24 327.13 473.351C327.111 473.24 327.111 473.127 327.13 473.016C327.13 472.756 327.13 472.433 327.13 472.036C327.13 471.131 327.13 469.879 327.13 468.316V454.551C327.13 442.919 327.341 426.86 327.726 409.101C328.11 391.343 328.643 375.309 329.251 363.689C329.573 357.885 329.834 353.185 330.107 349.949C330.231 348.361 330.33 347.109 330.404 346.228C330.404 345.832 330.479 345.509 330.504 345.249C330.445 345.147 330.399 345.039 330.367 344.926Z" fill="#263238"/>
<g opacity="0.2">
<path d="M306.669 460.169C313.589 463.48 322.629 457.118 326.163 450.322C326.163 450.322 328.011 435.317 327.763 427.653C327.279 413.467 328.321 399.416 327.837 385.23C326.751 393.724 323.238 401.724 317.718 408.271C316.193 410.069 314.482 411.855 313.911 414.136C312.894 418.229 316.019 425.582 318.028 429.29C324.229 440.625 310.712 460.293 307.115 459.884" fill="black"/>
</g>
<g opacity="0.2">
<path d="M436.172 367.595C438.429 395.87 440.694 424.148 442.968 452.431C443.034 455.111 443.537 457.762 444.456 460.28C444.926 461.538 445.689 462.666 446.681 463.572C447.672 464.477 448.865 465.134 450.16 465.489C454.178 466.307 458.084 462.847 459.213 458.904C460.341 454.96 459.449 450.756 458.456 446.776C456.77 439.992 454.873 433.271 452.963 426.55C447.432 407.039 441.897 387.532 436.358 368.029" fill="black"/>
</g>
<path d="M358.443 512.427C359.299 511.031 359.939 509.513 360.34 507.925C361.035 504.862 360.601 500.125 358.22 495.003C357.054 492.436 355.405 489.77 353.743 486.843C351.843 483.736 350.43 480.357 349.551 476.823C348.811 472.813 349.11 468.681 350.42 464.819C351.66 460.826 353.458 456.944 354.909 452.877C357.82 445.272 358.039 436.9 355.529 429.154C354.448 425.8 352.863 422.631 350.829 419.754C349.033 417.255 346.929 414.992 344.566 413.02C341.108 410.17 337.163 407.969 332.922 406.522C329.908 405.518 328.147 405.282 328.172 405.133C328.589 405.109 329.007 405.147 329.412 405.245C330.634 405.422 331.84 405.691 333.021 406.051C337.406 407.319 341.503 409.424 345.087 412.251C347.561 414.225 349.767 416.514 351.647 419.059C353.784 422.008 355.457 425.265 356.608 428.72C359.266 436.714 359.073 445.381 356.062 453.249C354.574 457.391 352.763 461.248 351.573 465.129C350.302 468.784 349.986 472.702 350.655 476.513C351.471 479.946 352.809 483.234 354.623 486.26C356.223 489.199 357.848 491.903 359.001 494.569C361.332 499.889 361.655 504.837 360.762 507.987C360.431 509.191 359.916 510.337 359.237 511.385C358.778 512.129 358.48 512.451 358.443 512.427Z" fill="#FAFAFA"/>
<path d="M474.863 308.418C474.622 309.32 474.201 310.164 473.623 310.898C472.212 312.998 470.379 314.78 468.241 316.131C465.053 318.142 461.421 319.343 457.663 319.628C453.092 319.938 448.505 319.353 444.158 317.905C439.729 316.616 435.68 314.267 432.365 311.059C430.941 309.617 429.778 307.939 428.93 306.099C428.211 304.488 427.759 302.77 427.59 301.014C427.308 298.471 427.791 295.902 428.979 293.636C429.161 293.286 429.368 292.95 429.599 292.631C429.757 292.386 429.94 292.157 430.145 291.949C430.455 291.614 430.641 291.441 430.678 291.478C430.715 291.515 430.12 292.296 429.438 293.859C428.495 296.083 428.178 298.523 428.52 300.915C428.731 302.558 429.2 304.156 429.909 305.652C430.754 307.352 431.877 308.899 433.233 310.228C436.442 313.246 440.323 315.456 444.555 316.677C448.75 318.08 453.171 318.682 457.588 318.45C461.178 318.239 464.667 317.181 467.77 315.362C469.862 314.129 471.711 312.523 473.226 310.625C473.733 309.862 474.28 309.125 474.863 308.418Z" fill="#FAFAFA"/>
<path d="M457.887 441.815C457.887 441.815 457.825 441.704 457.75 441.468C457.676 441.233 457.564 440.86 457.428 440.426C457.155 439.472 456.758 438.132 456.25 436.421L452.034 421.627C448.512 409.089 443.675 391.864 438.392 372.767C435.739 363.218 433.221 354.165 430.952 345.844C429.806 341.931 428.924 337.945 428.31 333.914C427.79 330.383 427.79 326.794 428.31 323.262C429.05 318.098 431.525 313.339 435.329 309.77C436.387 308.844 437.558 308.056 438.814 307.426L439.819 307.004C439.927 306.944 440.044 306.902 440.166 306.88C438.468 307.677 436.894 308.712 435.491 309.956C431.814 313.537 429.447 318.249 428.769 323.336C428.294 326.824 428.331 330.363 428.881 333.84C429.51 337.843 430.405 341.799 431.559 345.683C433.866 353.967 436.408 363.044 439.074 372.593C444.345 391.678 449.119 408.953 452.579 421.503C454.278 427.703 455.642 432.8 456.609 436.384C457.056 438.107 457.416 439.472 457.664 440.439C457.775 440.873 457.862 441.22 457.924 441.493C457.925 441.602 457.912 441.71 457.887 441.815Z" fill="#263238"/>
<path d="M407.377 167.195C407.479 166.313 407.479 165.423 407.377 164.541C407 162.136 405.788 159.941 403.954 158.341C401.195 156.009 397.638 154.84 394.033 155.079C389.978 155.079 385.663 156.444 381.198 157.944C378.966 158.676 376.746 159.383 374.564 159.866C372.457 160.332 370.31 160.593 368.152 160.647C364.496 160.743 360.848 160.266 357.339 159.234C354.987 158.525 352.721 157.561 350.58 156.357C349.995 156.042 349.427 155.694 348.881 155.315C348.679 155.198 348.491 155.056 348.323 154.893C348.323 154.893 349.167 155.365 350.704 156.133C352.867 157.238 355.136 158.123 357.475 158.775C360.942 159.73 364.534 160.148 368.128 160.015C370.247 159.944 372.356 159.678 374.427 159.221C376.573 158.738 378.755 157.981 381 157.299C385.452 155.799 389.854 154.447 394.021 154.447C397.749 154.243 401.408 155.507 404.215 157.969C406.083 159.644 407.281 161.939 407.588 164.43C407.735 165.355 407.662 166.303 407.377 167.195Z" fill="#455A64"/>
<path d="M424.441 204.262C424.441 204.262 424.317 204.113 424.144 203.803C423.97 203.493 423.747 203.022 423.462 202.402C422.699 200.651 422.117 198.827 421.725 196.958C421.13 194.172 420.938 191.315 421.155 188.475C421.57 185.036 422.225 181.63 423.114 178.282C423.977 174.981 423.977 171.513 423.114 168.212C422.702 166.798 421.987 165.49 421.019 164.38C420.155 163.444 419.073 162.737 417.869 162.322C416.114 161.656 414.168 161.705 412.449 162.458C411.851 162.79 411.29 163.185 410.775 163.636C411.166 163.042 411.705 162.559 412.338 162.235C413.213 161.8 414.167 161.545 415.143 161.485C416.118 161.426 417.096 161.562 418.018 161.887C419.31 162.304 420.478 163.037 421.415 164.02C422.452 165.176 423.226 166.543 423.685 168.026C424.586 171.431 424.586 175.013 423.685 178.418C422.801 181.74 422.134 185.116 421.688 188.525C421.454 191.309 421.596 194.112 422.11 196.858C422.459 198.714 422.97 200.535 423.635 202.302C424.168 203.555 424.491 204.237 424.441 204.262Z" fill="#455A64"/>
<path d="M409.486 165.422C409.458 165.129 409.458 164.834 409.486 164.542C409.486 163.909 409.485 163.078 409.585 162.061C409.722 158.989 409.379 155.913 408.568 152.947C407.959 150.931 406.965 149.053 405.641 147.416C404.143 145.532 402.084 144.173 399.763 143.534C397.165 142.932 394.453 143.043 391.913 143.857C389.163 144.724 386.528 145.919 384.063 147.416C381.563 148.925 378.961 150.259 376.276 151.409C373.715 152.408 371 152.954 368.252 153.021C365.775 153.084 363.301 152.783 360.911 152.128C358.84 151.527 356.843 150.695 354.958 149.648C352.24 148.113 349.844 146.066 347.902 143.621C347.368 142.966 346.886 142.27 346.464 141.538C346.297 141.296 346.156 141.039 346.042 140.769C346.245 140.98 346.423 141.213 346.575 141.463C347.032 142.163 347.538 142.83 348.088 143.46C350.078 145.8 352.477 147.759 355.169 149.239C357.036 150.235 359.007 151.021 361.047 151.582C363.393 152.198 365.815 152.474 368.24 152.401C370.913 152.32 373.551 151.779 376.04 150.801C378.694 149.65 381.267 148.32 383.741 146.82C386.254 145.307 388.94 144.1 391.74 143.224C394.387 142.392 397.211 142.289 399.912 142.927C402.348 143.61 404.5 145.057 406.05 147.056C407.408 148.754 408.411 150.706 409.002 152.798C409.798 155.808 410.079 158.932 409.833 162.037C409.771 163.14 409.684 163.983 409.61 164.517C409.607 164.823 409.565 165.127 409.486 165.422Z" fill="#455A64"/>
<path d="M376.734 475.509L469.506 461.682L468.017 453.423H517.87L519.32 466.121C520.384 471.64 520.221 477.326 518.844 482.775C517.467 488.224 514.909 493.304 511.352 497.655C507.794 502.007 503.324 505.523 498.257 507.956C493.19 510.388 487.651 511.677 482.031 511.732L373.869 510.492L376.734 475.509Z" fill="#B78876"/>
<path d="M383.431 477.109C382.934 477.27 376.684 474.467 371.092 471.875C365.153 469.115 358.634 467.839 352.093 468.155L326.312 469.47C326.312 469.47 327.899 473.723 330.639 475.236C333.38 476.749 349.402 477.071 349.402 477.071L348.571 477.915C345.197 481.393 340.593 483.41 335.749 483.532L333.269 483.594C331.44 483.449 329.634 483.096 327.886 482.54L321.525 479.973C319.603 479.105 317.569 479.242 316.726 481.213C315.969 482.962 316.527 485.38 321.785 488.021C324.712 489.497 335.6 493.267 335.6 493.267C335.67 494.813 335.882 496.348 336.232 497.855C336.704 499.443 340.982 501.018 340.982 501.018C342.091 503.374 343.359 505.653 344.777 507.838C345.273 508.396 349.154 509.599 353.271 510.765C359.921 512.635 366.965 512.579 373.584 510.604L383.418 507.677V477.753" fill="#B78876"/>
<path d="M348.15 496.652C343.608 496.533 339.155 495.362 335.142 493.23C335.216 493.056 338.031 494.147 341.615 495.078C345.199 496.008 348.175 496.466 348.15 496.652Z" fill="#AA6550"/>
<path d="M347.245 502.692C346.038 502.953 344.781 502.863 343.624 502.431C342.407 502.211 341.276 501.652 340.362 500.819C341.53 501.067 342.678 501.399 343.797 501.811C344.966 502.022 346.118 502.317 347.245 502.692Z" fill="#AA6550"/>
<path d="M493.973 483.309C493.849 483.309 493.241 481.511 491.753 478.795C490.881 477.207 489.886 475.689 488.777 474.256C487.419 472.505 485.913 470.875 484.275 469.383C482.612 467.916 480.829 466.593 478.943 465.427C477.4 464.479 475.787 463.65 474.119 462.947C471.254 461.769 469.357 461.347 469.394 461.223C469.854 461.26 470.308 461.352 470.746 461.496C471.267 461.598 471.78 461.735 472.284 461.905C472.879 462.091 473.524 462.277 474.292 462.575C476.012 463.223 477.672 464.019 479.253 464.956C481.19 466.112 483.016 467.445 484.709 468.936C486.37 470.452 487.893 472.112 489.26 473.897C490.357 475.373 491.324 476.941 492.15 478.584C492.534 479.266 492.782 479.936 493.043 480.506C493.261 480.99 493.447 481.487 493.601 481.995C493.779 482.416 493.904 482.857 493.973 483.309Z" fill="#AA6550"/>
<path d="M351.957 474.79C351.387 475.577 350.721 476.289 349.973 476.91C348.26 478.527 346.377 479.954 344.356 481.164C342.309 482.355 340.087 483.213 337.771 483.706C336.826 483.963 335.846 484.067 334.869 484.016C334.807 483.78 339.333 483.371 344.021 480.606C346.008 479.413 347.895 478.061 349.663 476.563C350.369 475.899 351.137 475.305 351.957 474.79Z" fill="#AA6550"/>
<path d="M85.1734 445.374C87.3808 445.374 68.2833 496.69 63.3601 509.798C62.8144 511.248 62.4424 512.526 62.4424 512.526L196.15 512.749L194.575 388.33C194.581 388.247 194.581 388.164 194.575 388.082L183.414 299.092C183.359 298.661 183.178 298.255 182.893 297.927C182.609 297.598 182.233 297.361 181.814 297.244C176.519 295.818 157.434 290.895 142.838 290.349C125.737 289.717 100.985 293.115 100.985 293.115C100.985 293.115 78.7497 295.322 66.4727 299.787C65.9981 299.956 65.5967 300.285 65.3368 300.716C65.0768 301.148 64.9743 301.656 65.0466 302.155L85.1734 445.374Z" fill="#FF4848"/>
<path d="M146.919 390.19C146.748 390.752 146.524 391.296 146.249 391.814C145.976 392.442 145.661 393.051 145.307 393.637C144.878 394.436 144.406 395.21 143.893 395.956C143.291 396.882 142.637 397.772 141.934 398.623C141.16 399.615 140.332 400.563 139.453 401.462C137.411 403.52 135.167 405.369 132.757 406.981C130.311 408.543 127.72 409.864 125.019 410.924C123.778 411.358 122.538 411.805 121.41 412.09C120.35 412.391 119.273 412.631 118.186 412.809C117.296 412.981 116.398 413.105 115.495 413.181C114.812 413.275 114.125 413.321 113.436 413.318C112.855 413.382 112.269 413.382 111.688 413.318C111.687 413.181 114.168 413.194 118.099 412.4C119.166 412.19 120.221 411.925 121.261 411.606C122.402 411.309 123.568 410.85 124.795 410.366C127.446 409.296 129.991 407.98 132.397 406.435C134.775 404.852 136.996 403.045 139.032 401.041C139.937 400.086 140.83 399.205 141.512 398.275C142.224 397.453 142.891 396.592 143.508 395.696C145.84 392.435 146.795 390.128 146.919 390.19Z" fill="#263238"/>
<g opacity="0.2">
<path d="M66.9814 500.063C73.2474 502.631 80.0701 503.539 86.7895 502.698C93.509 501.857 99.8977 499.296 105.338 495.264C110.162 491.766 114.204 487.19 119.413 484.276C126.63 480.258 135.224 479.874 143.471 479.316C154.495 478.522 165.619 477.171 175.986 473.326C178.149 472.694 180.111 471.51 181.678 469.891C183.104 468.167 183.588 465.452 182.187 463.691C180.785 461.93 178.119 461.806 175.825 461.88C141.251 462.897 109.653 465.662 75.997 473.661" fill="black"/>
</g>
<path d="M104.246 162.334C114.936 151.446 131.801 144.973 145.765 151.173C155.165 155.29 161.539 164.107 169.785 170.196C175.787 174.636 183.203 178.071 186.353 184.842C189.131 190.807 187.792 197.764 187.122 204.311C186.452 210.859 186.924 218.411 191.996 222.615C194.649 224.81 198.196 225.691 201.16 227.402C207.199 230.862 210.783 237.596 212.073 244.429C213.362 251.262 212.668 258.305 211.974 265.237L183.191 270.719L178.466 262.77L176.842 275.233L140.11 278.544L104.246 162.334Z" fill="#263238"/>
<path d="M99.4972 174.214V182.213L97.2278 302.267C97.0294 316.181 110.348 328.024 125.254 328.123C140.296 328.222 146.435 316.962 146.869 302.862C147.315 288.117 148.109 272.591 148.109 272.591C148.109 272.591 167.194 269.962 171.82 245.309C174.114 233.032 174.052 212.806 173.469 196.251C173.346 192.718 172.509 189.247 171.009 186.046C169.51 182.845 167.378 179.981 164.742 177.626C162.106 175.271 159.021 173.473 155.673 172.341C152.324 171.209 148.781 170.766 145.257 171.04L99.4972 174.214Z" fill="#FFBE9D"/>
<path d="M166.822 212.161C166.809 212.989 166.472 213.779 165.883 214.361C165.294 214.943 164.5 215.271 163.672 215.274C163.267 215.296 162.862 215.236 162.48 215.098C162.098 214.961 161.748 214.748 161.45 214.473C161.152 214.198 160.911 213.866 160.744 213.497C160.576 213.127 160.484 212.728 160.473 212.322C160.489 211.494 160.826 210.705 161.414 210.122C162.002 209.538 162.794 209.207 163.623 209.197C164.029 209.176 164.435 209.236 164.818 209.374C165.2 209.512 165.551 209.726 165.849 210.002C166.148 210.279 166.387 210.612 166.555 210.983C166.722 211.354 166.813 211.755 166.822 212.161Z" fill="#263238"/>
<path d="M168.694 206.606C168.285 207.015 165.929 205.155 162.494 205.08C159.059 205.006 156.516 206.63 156.157 206.196C155.983 206.01 156.405 205.279 157.521 204.51C159.026 203.518 160.804 203.023 162.605 203.096C164.403 203.126 166.142 203.734 167.566 204.832C168.558 205.663 168.893 206.42 168.694 206.606Z" fill="#263238"/>
<path d="M133.116 212.161C133.1 212.988 132.762 213.776 132.173 214.357C131.585 214.939 130.793 215.268 129.966 215.274C129.561 215.296 129.156 215.236 128.774 215.098C128.392 214.961 128.042 214.748 127.744 214.473C127.445 214.198 127.205 213.866 127.038 213.497C126.87 213.127 126.778 212.728 126.767 212.322C126.783 211.494 127.12 210.705 127.708 210.122C128.296 209.538 129.088 209.207 129.916 209.197C130.323 209.176 130.729 209.236 131.111 209.374C131.494 209.512 131.845 209.726 132.143 210.002C132.442 210.279 132.681 210.612 132.849 210.983C133.016 211.354 133.107 211.755 133.116 212.161Z" fill="#263238"/>
<path d="M135.038 206.32C134.629 206.717 132.273 204.869 128.837 204.783C125.402 204.696 122.86 206.345 122.501 205.911C122.327 205.725 122.749 204.981 123.865 204.225C125.37 203.233 127.147 202.734 128.949 202.798C130.746 202.831 132.484 203.44 133.909 204.535C134.902 205.378 135.236 206.134 135.038 206.32Z" fill="#263238"/>
<path d="M146.758 232.077C146.758 231.879 148.891 231.569 152.338 231.221C153.218 231.159 154.049 231.011 154.211 230.415C154.312 229.516 154.135 228.607 153.702 227.811C152.946 225.666 152.14 223.434 151.296 221.077C147.973 211.516 145.592 203.716 145.976 203.518C146.361 203.319 149.374 211.045 152.698 220.619C153.504 222.975 154.273 225.219 154.992 227.377C155.519 228.442 155.647 229.661 155.351 230.812C155.217 231.118 155.014 231.389 154.758 231.604C154.502 231.819 154.2 231.972 153.876 232.052C153.389 232.173 152.889 232.227 152.388 232.214C148.915 232.276 146.77 232.226 146.758 232.077Z" fill="#263238"/>
<path d="M148.01 272.591C136.329 272.45 124.918 269.067 115.048 262.819C115.048 262.819 122.625 280.069 147.514 278.432L148.01 272.591Z" fill="#EB996E"/>
<path d="M145.083 240.237C144.456 239.394 143.625 238.724 142.669 238.291C141.712 237.857 140.661 237.673 139.614 237.757C138.857 237.805 138.118 238.006 137.44 238.347C136.763 238.688 136.161 239.162 135.671 239.741C135.2 240.299 134.911 240.988 134.842 241.715C134.773 242.441 134.928 243.172 135.286 243.808C135.824 244.434 136.535 244.885 137.33 245.106C138.125 245.327 138.967 245.307 139.751 245.049C141.378 244.519 142.886 243.676 144.19 242.568C144.586 242.306 144.928 241.969 145.195 241.576C145.316 241.392 145.38 241.177 145.38 240.956C145.38 240.736 145.316 240.52 145.195 240.336" fill="#EB996E"/>
<path d="M136.626 234.123C137.184 234.123 137.084 237.844 140.185 240.547C143.285 243.25 147.266 242.965 147.278 243.486C147.278 243.722 146.373 244.193 144.699 244.181C142.523 244.157 140.427 243.362 138.783 241.936C137.202 240.572 136.214 238.646 136.03 236.566C135.919 235.004 136.365 234.098 136.626 234.123Z" fill="#263238"/>
<path d="M136.129 196.362C135.757 197.28 132.409 196.747 128.329 197.119C124.249 197.491 121.025 198.495 120.516 197.652C120.293 197.243 120.876 196.412 122.215 195.519C123.994 194.465 125.988 193.83 128.049 193.66C130.109 193.49 132.181 193.791 134.108 194.539C135.559 195.172 136.278 195.928 136.129 196.362Z" fill="#263238"/>
<path d="M168.819 199.698C168.062 200.455 165.223 199.562 161.763 199.425C158.303 199.289 155.389 199.773 154.731 198.942C154.446 198.545 154.93 197.776 156.232 197.082C158.022 196.207 160.011 195.822 161.998 195.966C163.977 196.031 165.903 196.622 167.579 197.677C168.769 198.508 169.154 199.326 168.819 199.698Z" fill="#263238"/>
<path d="M73.9137 297.517C73.9137 297.517 34.0321 306.868 26.2938 344.641C22.7348 362.003 17.762 461.793 41.0014 477.332C70.9994 497.347 109.207 479.142 109.207 479.142L104.247 430.878H79.4445L76.1086 378C77.0759 382.129 73.9137 297.517 73.9137 297.517Z" fill="#FF4848"/>
<path d="M215.781 463.616C223.604 462.814 230.825 459.054 235.968 453.104C241.11 447.155 243.786 439.466 243.448 431.609L227.153 362.374C227.153 362.374 216.587 302.974 183.191 297.616L194.576 388.144L193.484 407.229C193.484 407.229 194.005 419.853 195.282 443.514L215.781 463.616Z" fill="#FF4848"/>
<path d="M220.097 420.3C218.083 420.374 216.077 420.593 214.095 420.957C209.309 421.929 204.925 424.313 201.508 427.801C198.09 431.289 195.797 435.721 194.923 440.526C194.599 442.519 194.421 444.533 194.39 446.553C194.259 446.017 194.197 445.467 194.204 444.916C194.137 443.418 194.229 441.917 194.476 440.439C195.269 435.504 197.58 430.94 201.087 427.379C204.594 423.819 209.123 421.44 214.045 420.572C215.521 420.301 217.021 420.176 218.522 420.2C219.049 420.169 219.578 420.202 220.097 420.3Z" fill="#263238"/>
<path d="M117.205 159.569C121.695 165.596 123.828 170.221 126.519 180.948C127.845 186.194 123.567 189.901 119.326 193.113C118.87 193.46 118.334 193.686 117.768 193.771C117.201 193.856 116.623 193.796 116.085 193.599C115.548 193.401 115.069 193.071 114.692 192.64C114.316 192.208 114.054 191.689 113.932 191.129C113.932 191.129 115.395 207.56 109.455 214.927C106.677 218.387 106.553 222.814 107.21 226.546C107.956 230.343 109.801 233.836 112.518 236.591C119.413 243.833 121.323 255.652 116.573 264.531C115.197 266.713 113.934 268.965 112.791 271.277C112.212 272.657 111.945 274.147 112.009 275.642C112.082 276.519 111.819 277.391 111.274 278.082C110.728 278.772 109.941 279.23 109.07 279.362C88.6626 282.314 67.9853 282.934 47.4374 281.21C46.7309 281.153 46.06 280.876 45.5194 280.418C44.9788 279.96 44.5956 279.343 44.4239 278.655C42.8118 271.76 45.5028 264.32 48.9379 258.119C52.7822 251.113 57.6186 244.391 58.9951 236.517C60.2352 229.076 58.2138 221.115 61.1901 214.195C64.9104 205.725 74.8312 201.72 79.7916 193.944C84.4916 186.615 84.1071 177.004 88.3111 169.39C93.7179 159.593 106.999 155.079 117.243 159.556" fill="#263238"/>
<path d="M118.346 168.658C126.147 172.676 129.755 182.213 137.332 186.628C144.227 190.645 152.834 189.591 160.733 188.401C160.448 186.652 160.15 184.891 159.853 183.143C160.563 184.726 161.555 186.167 162.779 187.396C163.401 188.003 164.176 188.43 165.021 188.631C165.866 188.832 166.75 188.799 167.578 188.537C170.232 187.471 170.579 183.825 169.91 181.097C168.697 176.656 166.316 172.622 163.015 169.415C157.116 163.428 149.26 159.765 140.882 159.096C132.505 158.426 124.166 160.795 117.392 165.769" fill="#263238"/>
<path d="M191.475 345.187C191.532 345.51 191.557 345.838 191.55 346.166C191.55 346.861 191.55 347.791 191.636 348.957C191.636 351.437 191.81 354.897 191.996 359.225C192.356 367.905 193.162 379.86 194.141 393.067C195.121 406.274 195.853 418.253 196.088 426.934C196.212 431.274 196.274 434.784 196.237 437.214C196.237 438.38 196.237 439.31 196.237 440.005C196.267 440.331 196.267 440.658 196.237 440.984C196.18 440.661 196.155 440.333 196.163 440.005C196.163 439.31 196.163 438.38 196.076 437.214C196.076 434.734 195.902 431.287 195.716 426.946C195.369 418.266 194.551 406.324 193.583 393.104C192.616 379.885 191.86 367.93 191.624 359.249C191.5 354.909 191.45 351.387 191.475 348.957C191.475 347.791 191.475 346.861 191.475 346.166C191.454 345.84 191.454 345.513 191.475 345.187Z" fill="#263238"/>
<path d="M79.4816 430.89C79.4251 430.663 79.3959 430.43 79.3948 430.196C79.3948 429.662 79.3203 428.955 79.2583 428.199C79.1591 426.376 79.0227 423.908 78.8615 420.882C78.5019 414.682 77.9562 406.162 77.3114 396.725C76.6665 387.288 76.0713 378.843 75.6373 372.58C75.4388 369.567 75.2776 367.087 75.1536 365.264C75.1536 364.458 75.0792 363.801 75.0544 363.28C75.0248 363.045 75.0248 362.808 75.0544 362.573C75.1149 362.8 75.1523 363.033 75.166 363.267C75.166 363.788 75.3024 364.445 75.3892 365.251C75.5628 367.062 75.7985 369.53 76.0837 372.556C76.6293 378.756 77.3238 387.251 77.9438 396.688C78.5639 406.125 79.0599 414.669 79.2955 420.858C79.4072 423.958 79.494 426.463 79.5064 428.187V430.183C79.53 430.419 79.5216 430.657 79.4816 430.89Z" fill="#263238"/>
<path d="M79.4819 430.89C79.4819 431.002 78.2418 431.064 76.2328 431.721C73.6909 432.562 71.4325 434.093 69.7093 436.142C67.9861 438.192 66.8658 440.68 66.4733 443.328C66.1632 445.362 66.3245 446.652 66.2128 446.664C66.1012 446.676 66.0888 446.354 66.0144 445.771C65.9223 444.947 65.9223 444.115 66.0144 443.291C66.3046 440.511 67.4187 437.881 69.2139 435.739C71.0299 433.618 73.4266 432.075 76.1088 431.299C76.9187 431.073 77.7499 430.932 78.589 430.878C79.1595 430.816 79.4819 430.84 79.4819 430.89Z" fill="#263238"/>
<path d="M109.145 479.155C109.066 478.905 109.017 478.647 108.996 478.386C108.922 477.815 108.835 477.084 108.711 476.178C108.488 474.182 108.178 471.441 107.793 468.068C107.061 461.148 106.069 451.711 104.978 441.294C104.618 437.673 104.259 434.164 103.936 430.915L104.246 431.2L84.4048 431.076L78.6383 430.989H77.1006C76.9235 431.01 76.7445 431.01 76.5674 430.989C76.7412 430.943 76.9208 430.922 77.1006 430.927H78.6383L84.4048 430.84L104.246 430.729H104.519V431.014L105.586 441.381C106.603 451.81 107.52 461.223 108.202 468.192C108.5 471.565 108.748 474.318 108.922 476.315C108.996 477.22 109.046 477.964 109.095 478.535C109.129 478.74 109.146 478.947 109.145 479.155Z" fill="#263238"/>
<path d="M109.145 479.155C108.838 479.286 108.523 479.398 108.203 479.49L105.487 480.358C103.118 481.102 99.6831 482.143 95.3924 483.284C90.37 484.657 85.2676 485.717 80.1143 486.459C73.7628 487.318 67.3078 487.011 61.0664 485.554C57.832 484.856 54.6432 483.961 51.5176 482.875C50.0171 482.329 48.5414 481.784 47.1153 481.188C46.4084 480.891 45.7016 480.606 45.0319 480.246L44.015 479.738L43.0602 479.13C40.7288 477.553 38.7035 475.565 37.0829 473.264C35.6572 471.284 34.4121 469.18 33.3626 466.977C31.889 463.792 30.6457 460.506 29.6423 457.143C29.2702 455.903 28.9974 455.035 28.8362 454.402C28.7351 454.082 28.6564 453.754 28.6006 453.423C28.7489 453.725 28.8692 454.041 28.9602 454.365L29.8779 457.069C30.9781 460.38 32.287 463.62 33.7966 466.766C34.854 468.937 36.0988 471.012 37.5169 472.967C39.1174 475.199 41.1089 477.123 43.395 478.646L44.3126 479.229L45.2923 479.725C45.9372 480.072 46.644 480.345 47.3509 480.643C48.7646 481.226 50.2279 481.771 51.7284 482.292C54.8298 483.368 57.9938 484.254 61.2028 484.946C67.3744 486.387 73.7543 486.711 80.0399 485.901C85.1741 485.186 90.2628 484.175 95.2808 482.875C99.5715 481.784 103.019 480.804 105.412 480.147L108.165 479.39C108.483 479.279 108.811 479.2 109.145 479.155Z" fill="#263238"/>
<path d="M88.1005 188.946C89.2917 186.02 89.5823 182.804 88.935 179.711C88.2877 176.618 86.732 173.789 84.467 171.585C82.139 169.457 79.2883 167.985 76.2056 167.318C73.123 166.652 69.9187 166.815 66.9196 167.79C64.1877 168.613 61.7868 170.28 60.0618 172.552C57.0236 176.744 57.5816 182.92 60.7563 187.049C62.4172 189.048 64.4854 190.669 66.8228 191.804C69.1601 192.94 71.7129 193.564 74.3106 193.634C79.516 193.738 84.6781 192.67 89.415 190.509" fill="#263238"/>
<path d="M129.334 385.626C138.015 392.782 158.427 409.721 158.427 409.721L169.848 407.688L135.224 378.558C134.327 377.807 133.178 377.426 132.01 377.493C130.842 377.56 129.743 378.069 128.937 378.917C128.5 379.372 128.161 379.913 127.943 380.505C127.724 381.098 127.631 381.729 127.668 382.359C127.705 382.989 127.873 383.604 128.159 384.167C128.446 384.729 128.846 385.226 129.334 385.626Z" fill="#455A64"/>
<path d="M128.478 381.906L123.989 377.851C123.567 377.468 123.309 376.937 123.27 376.368C123.231 375.799 123.413 375.238 123.778 374.8C123.97 374.576 124.206 374.392 124.47 374.26C124.734 374.128 125.023 374.051 125.317 374.032C125.612 374.014 125.908 374.055 126.187 374.152C126.466 374.25 126.722 374.403 126.941 374.602L131.269 378.57L128.478 381.906Z" fill="#455A64"/>
<path d="M141.797 384.089C141.037 385.354 140.097 386.503 139.007 387.499C138.068 388.637 136.974 389.639 135.758 390.475C136.52 389.207 137.459 388.054 138.548 387.052C139.481 385.912 140.576 384.913 141.797 384.089Z" fill="#263238"/>
<path d="M142.119 398.35C140.898 397.708 139.739 396.952 138.659 396.093C136.601 394.605 133.811 392.447 130.871 389.892C129.366 388.771 128.122 387.337 127.226 385.688C126.591 384.245 126.551 382.61 127.114 381.137C127.49 380.16 128.125 379.303 128.949 378.657C129.532 378.223 129.917 378.087 129.929 378.124C129.941 378.161 129.619 378.372 129.111 378.855C128.39 379.538 127.853 380.391 127.548 381.336C127.088 382.698 127.168 384.185 127.771 385.49C128.666 387.037 129.869 388.383 131.306 389.446C134.22 391.988 136.948 394.195 138.945 395.77C140.055 396.563 141.116 397.425 142.119 398.35Z" fill="#263238"/>
<path d="M104.631 434.747C112.865 431.994 121.595 433.854 129.817 431.088C132.64 430.346 135.285 429.043 137.593 427.257C140.209 424.938 141.536 421.527 143.62 418.725C149.82 410.342 161.465 408.605 171.857 407.564C174.266 407.176 176.725 407.209 179.124 407.663C180.323 407.905 181.439 408.452 182.364 409.251C183.29 410.051 183.993 411.076 184.406 412.227C185.076 414.57 183.563 417.497 181.133 417.745C183.414 417.844 185.002 420.151 185.423 422.395C185.845 424.64 185.423 426.947 185.771 429.203C186.192 432.378 187.928 435.342 187.829 438.541C187.693 442.919 184.109 446.528 180.017 448.214C175.924 449.901 171.497 450.124 167.169 450.694C145.839 453.695 129.718 465.786 109.145 474.926" fill="#FFBE9D"/>
<path d="M185.622 425.31C185.831 425.652 186.109 425.947 186.438 426.177C186.766 426.407 187.139 426.568 187.532 426.648C187.925 426.728 188.33 426.727 188.723 426.644C189.115 426.561 189.486 426.398 189.813 426.165C190.45 425.658 190.936 424.988 191.22 424.225C191.505 423.463 191.575 422.637 191.425 421.837C191.101 420.238 190.395 418.74 189.367 417.472C187.555 415.127 185.565 412.926 183.414 410.887L176.842 416.418L185.622 425.31Z" fill="#FFBE9D"/>
<path d="M183.191 418.092C183.191 418.303 179.148 417.968 174.274 418.725C169.401 419.481 165.594 420.944 165.594 420.758C166.336 420.269 167.147 419.893 168 419.642C170.013 418.928 172.089 418.405 174.2 418.08C176.313 417.76 178.452 417.647 180.587 417.745C181.467 417.734 182.344 417.851 183.191 418.092Z" fill="#EB996E"/>
<path d="M186.093 431.014C186.093 431.212 182.707 430.518 178.528 430.642C174.349 430.766 171.025 431.584 170.988 431.386C175.856 429.661 181.146 429.531 186.093 431.014Z" fill="#EB996E"/>
<path d="M185.398 427.195C185.287 427.195 185.398 426.227 185.212 424.714C184.974 422.751 184.291 420.868 183.216 419.208C182.958 418.807 182.676 418.422 182.373 418.055L182.187 417.819L182.385 417.621C182.951 417.046 183.395 416.364 183.691 415.614C183.987 414.864 184.129 414.062 184.109 413.256C184.109 412.016 183.737 411.321 183.823 411.284C184.267 411.837 184.511 412.523 184.518 413.231C184.613 414.114 184.511 415.006 184.219 415.845C183.928 416.683 183.454 417.447 182.831 418.08V417.646C183.157 418.041 183.459 418.455 183.737 418.886C184.869 420.63 185.528 422.638 185.646 424.714C185.745 425.549 185.66 426.396 185.398 427.195Z" fill="#EB996E"/>
<path d="M185.635 424.603L196.448 434.747L197.825 440.774L187.829 438.517C186.391 433.432 185.337 428.583 185.635 424.603Z" fill="#455A64"/>
<path d="M170.988 437.525C170.765 437.921 112.604 466.592 112.604 466.592V472.793L171.956 441.914L245.58 439.174V434.809L170.988 437.525Z" fill="#F5F5F5"/>
<path d="M112.604 473.649C113.014 473.376 176.817 467.622 176.817 467.622L245.58 439.099L171.956 441.877L112.604 472.756V473.649Z" fill="#263238"/>
<path d="M173.692 458.383C173.184 455.035 176.383 452.183 179.645 451.277C182.906 450.372 186.391 450.744 189.689 450.037C191.783 449.462 193.83 448.732 195.816 447.855C205.984 443.961 217.145 443.75 228.058 443.601C228.692 445.079 228.791 446.732 228.339 448.276C227.886 449.819 226.91 451.157 225.578 452.059C226.479 454.726 226.36 457.633 225.243 460.218C224.118 462.779 222.581 465.138 220.692 467.2C219.266 469.088 217.43 470.627 215.322 471.702C213.117 472.51 210.774 472.872 208.427 472.768C201.111 472.917 193.273 472.929 187.234 468.825C182.534 465.625 179.285 460.144 173.841 458.532H175.081" fill="#FFBE9D"/>
<path d="M222.428 454.328C221.972 454.431 221.506 454.476 221.039 454.464L217.219 454.588C213.995 454.663 209.543 454.712 204.632 454.737H197.688C196.649 454.752 195.614 454.597 194.625 454.278C193.741 453.966 192.969 453.401 192.405 452.654C192.168 452.345 191.995 451.991 191.897 451.614C191.799 451.237 191.778 450.844 191.834 450.459C191.927 449.883 192.196 449.35 192.603 448.933C192.755 448.755 192.946 448.613 193.161 448.518C193.375 448.423 193.609 448.379 193.843 448.388C193.419 448.535 193.037 448.782 192.727 449.107C192.33 449.56 192.11 450.142 192.11 450.744C192.11 451.346 192.33 451.928 192.727 452.381C193.253 453.03 193.955 453.512 194.749 453.77C195.69 454.045 196.67 454.171 197.651 454.142H204.583C209.543 454.142 213.945 454.142 217.17 454.142L220.989 454.216C221.472 454.19 221.955 454.227 222.428 454.328Z" fill="#EB996E"/>
<path d="M218.683 460.454C218.111 460.617 217.526 460.729 216.935 460.789C215.794 460.975 214.144 461.21 212.098 461.409C209.688 461.651 207.262 461.705 204.844 461.57C201.889 461.33 198.96 460.84 196.088 460.107C190.904 458.842 185.589 458.188 180.252 458.16C178.206 458.16 176.532 458.234 175.404 458.296C174.805 458.348 174.204 458.348 173.605 458.296C174.185 458.139 174.779 458.04 175.379 457.999C176.992 457.799 178.615 457.683 180.24 457.651C185.623 457.54 190.997 458.136 196.225 459.425C199.075 460.151 201.977 460.657 204.906 460.938C207.296 461.101 209.695 461.101 212.086 460.938C214.132 460.801 215.806 460.628 216.922 460.528C217.505 460.445 218.095 460.42 218.683 460.454Z" fill="#EB996E"/>
<path d="M212.619 467.002C212.172 467.138 211.71 467.222 211.243 467.25C210.362 467.374 209.072 467.535 207.522 467.671C203.356 468.109 199.15 467.971 195.022 467.262C190.124 466.332 186.341 463.827 183.402 462.674C181.817 462.03 180.178 461.528 178.504 461.173C178.968 461.116 179.438 461.141 179.893 461.248C181.167 461.439 182.416 461.776 183.613 462.252C186.651 463.331 190.434 465.724 195.196 466.63C199.291 467.322 203.455 467.517 207.597 467.213L211.317 467.002C211.75 466.954 212.186 466.954 212.619 467.002Z" fill="#EB996E"/>
<g opacity="0.2">
<path d="M196.125 433.705C196.602 429.158 197.825 424.721 199.746 420.572C201.689 416.425 204.981 413.059 209.084 411.024C211.145 410.039 213.423 409.595 215.704 409.733C217.984 409.872 220.191 410.589 222.117 411.817C223.281 412.567 224.189 413.653 224.722 414.93C224.982 415.567 225.061 416.263 224.949 416.941C224.837 417.62 224.54 418.254 224.089 418.774C222.725 420.237 220.369 420.014 218.41 419.915C213.837 419.79 209.323 420.978 205.405 423.338C201.486 425.699 198.326 429.133 196.299 433.234" fill="black"/>
</g>
<g opacity="0.2">
<path d="M88.435 429.935C93.3954 421.044 91.6097 409.895 87.8274 400.47C84.0451 391.046 78.4026 382.365 75.5132 372.618C74.9695 392.39 77.8432 412.108 84.0079 430.902" fill="black"/>
</g>
<path d="M97.1657 293.933C97.1657 293.933 103.18 308.108 124.882 307.202C146.584 306.297 147.278 289.469 147.278 289.469L161.8 304.908L148.01 333.319L129.483 347.146L104.247 336.779L83.4502 320.657L97.1657 293.933Z" fill="#FF4848"/>
<g opacity="0.5">
<path d="M46.3458 354.525C46.569 354.797 43.7416 357.451 40.0089 360.44C36.2762 363.429 33.0891 365.623 32.8659 365.338C32.6427 365.053 35.4701 362.424 39.1904 359.435C42.9107 356.447 46.1225 354.239 46.3458 354.525Z" fill="#FAFAFA"/>
</g>
<path d="M56.5518 339.234C56.4402 339.557 53.0175 338.589 49.3096 336.295C45.6017 334.001 43.1835 331.409 43.4191 331.161C43.6548 330.913 46.383 333.009 49.9793 335.204C53.5755 337.399 56.651 338.887 56.5518 339.234Z" fill="#FAFAFA"/>
<path d="M75.1541 340.896C75.4517 341.119 72.6739 345.1 69.586 350.16C66.4982 355.219 64.1048 359.435 63.7824 359.274C63.4599 359.113 65.3077 354.599 68.4947 349.477C71.6818 344.356 74.8937 340.673 75.1541 340.896Z" fill="#FAFAFA"/>
<path d="M59.2309 383.989C58.9829 384.213 56.1182 381.286 53.6132 376.958C51.1082 372.63 49.9673 368.699 50.2897 368.587C50.6122 368.476 52.2615 372.097 54.7293 376.301C57.1971 380.505 59.5161 383.741 59.2309 383.989Z" fill="#FAFAFA"/>
<path d="M42.5884 404.835C42.2412 404.835 41.5096 401.735 40.9763 397.792C40.4431 393.848 40.2943 390.611 40.6415 390.562C40.9887 390.512 41.7204 393.675 42.2536 397.618C42.7869 401.562 42.9109 404.786 42.5884 404.835Z" fill="#FAFAFA"/>
<g opacity="0.5">
<path d="M58.264 410.515C57.954 410.342 59.5041 407.018 61.8231 403.075C64.1421 399.131 66.1883 396.118 66.4983 396.291C66.8083 396.465 65.2582 399.801 62.9392 403.732C60.6202 407.663 58.574 410.652 58.264 410.515Z" fill="#FAFAFA"/>
</g>
<path d="M40.0591 432.105C39.7987 432.341 37.0333 429.625 34.3422 425.706C31.6512 421.788 30.1259 418.266 30.4235 418.08C30.7212 417.894 32.7673 421.13 35.3839 424.975C38.0005 428.819 40.3319 431.87 40.0591 432.105Z" fill="#FAFAFA"/>
<path d="M64.7992 428.546C65.0472 428.794 62.195 432.081 58.4375 435.875C54.68 439.67 51.4185 442.559 51.1581 442.311C50.8977 442.063 53.7499 438.777 57.5198 434.97C61.2897 431.163 64.5388 428.298 64.7992 428.546Z" fill="#FAFAFA"/>
<g opacity="0.5">
<path d="M50.7358 473.103C50.5002 473.351 47.7472 471.069 45.2422 467.473C42.7372 463.877 41.5219 460.528 41.8195 460.392C42.1171 460.255 43.8657 463.269 46.3087 466.729C48.7517 470.189 50.9962 472.843 50.7358 473.103Z" fill="#FAFAFA"/>
</g>
<path d="M82.6563 464.088C82.8299 464.398 79.7792 466.469 75.8481 468.713C71.917 470.958 68.5687 472.533 68.4075 472.223C68.2463 471.913 71.2845 469.842 75.2157 467.597C79.1468 465.352 82.4826 463.778 82.6563 464.088Z" fill="#FAFAFA"/>
<path d="M95.095 453.819C94.8718 454.08 91.9823 451.872 89.3533 448.264C86.7243 444.655 85.4966 441.232 85.819 441.108C86.1414 440.984 87.8528 444.035 90.395 447.507C92.9372 450.98 95.3554 453.547 95.095 453.819Z" fill="#FAFAFA"/>
<path d="M117.032 382.402C117.255 382.687 113.969 385.515 109.703 388.702C105.437 391.889 101.816 394.245 101.593 393.96C101.37 393.675 104.668 390.86 108.934 387.673C113.2 384.485 116.821 382.129 117.032 382.402Z" fill="#FAFAFA"/>
<path d="M93.9167 380.889C93.5571 380.889 93.6191 377.454 94.0408 373.3C94.4624 369.145 95.0948 365.859 95.4545 365.859C95.8141 365.859 95.7521 369.294 95.3305 373.449C94.9088 377.603 94.264 380.951 93.9167 380.889Z" fill="#FAFAFA"/>
<g opacity="0.5">
<path d="M115.233 351.858C115.035 352.144 111.191 349.775 106.974 346.166C102.758 342.558 99.8066 339.147 100.055 338.912C100.303 338.676 103.638 341.628 107.818 345.187C111.997 348.746 115.444 351.561 115.233 351.858Z" fill="#FAFAFA"/>
</g>
<path d="M99.2245 315.623C99.4973 315.858 96.7443 319.504 93.1728 323.77C89.6013 328.036 86.4018 331.297 86.129 331.074C85.8562 330.851 88.6092 327.193 92.1807 322.927C95.7522 318.661 98.9516 315.399 99.2245 315.623Z" fill="#FAFAFA"/>
<g opacity="0.5">
<path d="M80.8828 311.741C80.6843 312.064 77.9189 310.637 74.3102 309.435C70.7015 308.232 67.7129 307.649 67.7129 307.277C67.7129 306.905 70.9868 306.93 74.7567 308.207C78.5266 309.484 81.0688 311.444 80.8828 311.741Z" fill="#FAFAFA"/>
</g>
<path d="M127.499 328.445C127.164 328.346 127.747 325.333 128.813 321.712C129.88 318.09 131.021 315.238 131.293 315.337C131.566 315.437 131.058 318.45 130.053 322.071C129.049 325.692 127.846 328.557 127.499 328.445Z" fill="#FAFAFA"/>
<path d="M138.647 356.993C138.288 356.993 138.164 354.016 138.374 350.395C138.585 346.774 139.044 343.86 139.391 343.872C139.738 343.885 139.875 346.848 139.664 350.47C139.453 354.091 138.994 357.017 138.647 356.993Z" fill="#FAFAFA"/>
<path d="M157 378.409C156.777 378.694 154.061 376.884 150.936 374.366C147.811 371.849 145.455 369.592 145.678 369.319C145.901 369.046 148.617 370.844 151.742 373.362C154.867 375.879 157.186 378.136 157 378.409Z" fill="#FAFAFA"/>
<path d="M176.483 348.51C176.718 348.771 174.3 351.3 171.076 354.14C167.851 356.98 165.049 359.101 164.875 358.803C164.702 358.505 167.058 356.013 170.282 353.173C173.506 350.333 176.247 348.237 176.483 348.51Z" fill="#FAFAFA"/>
<g opacity="0.5">
<path d="M167.516 334.385C167.318 334.683 164.255 332.996 160.956 330.256C157.657 327.515 155.425 324.812 155.673 324.576C155.921 324.341 158.525 326.573 161.774 329.251C165.023 331.93 167.714 334.088 167.516 334.385Z" fill="#FAFAFA"/>
</g>
<path d="M190.061 309.211C190.347 309.41 188.821 311.977 186.192 314.457C183.563 316.937 180.897 318.301 180.711 318.004C180.525 317.706 182.757 315.92 185.299 313.527C187.842 311.134 189.764 308.963 190.061 309.211Z" fill="#FAFAFA"/>
<g opacity="0.5">
<path d="M174.56 306.855C174.56 307.202 170.554 306.917 165.879 305.714C161.204 304.511 157.533 302.899 157.657 302.565C157.781 302.23 161.539 303.296 166.202 304.462C170.864 305.628 174.61 306.483 174.56 306.855Z" fill="#FAFAFA"/>
</g>
<g opacity="0.5">
<path d="M203.355 346.935C203.02 346.861 203.789 341.975 205.562 336.246C207.336 330.516 209.382 326.027 209.704 326.151C210.027 326.275 208.538 330.901 206.802 336.618C205.066 342.334 203.714 347.01 203.355 346.935Z" fill="#FAFAFA"/>
</g>
<path d="M209.742 374.292C209.481 374.527 206.418 371.712 202.896 367.98C199.374 364.247 196.696 361.035 197.006 360.787C197.316 360.539 200.317 363.367 203.839 367.099C207.361 370.832 210.002 374.044 209.742 374.292Z" fill="#FAFAFA"/>
<g opacity="0.5">
<path d="M219.625 389.781C219.265 389.781 219.042 385.713 219.129 380.703C219.216 375.693 219.576 371.65 219.935 371.65C220.295 371.65 220.506 375.718 220.419 380.728C220.332 385.738 219.972 389.793 219.625 389.781Z" fill="#FAFAFA"/>
</g>
<path d="M209.593 415.302C209.308 415.5 206.654 412.251 204.199 407.713C201.743 403.174 200.478 399.168 200.788 399.032C201.098 398.895 202.909 402.628 205.339 407.08C207.77 411.532 209.891 415.091 209.593 415.302Z" fill="#FAFAFA"/>
<path d="M235.201 419.965C235.461 420.213 233.738 422.296 231.369 424.615C229 426.934 226.867 428.596 226.619 428.335C226.371 428.075 228.095 425.992 230.464 423.673C232.832 421.354 234.953 419.704 235.201 419.965Z" fill="#FAFAFA"/>
<g opacity="0.5">
<path d="M172.849 390.884C172.526 390.785 173.667 386.718 176.569 382.476C179.471 378.235 182.881 375.718 183.092 375.991C183.303 376.264 180.438 379.116 177.636 383.221C174.833 387.325 173.196 391.021 172.849 390.884Z" fill="#FAFAFA"/>
</g>
<path d="M100.538 424.9C100.191 424.813 100.799 421.18 101.89 416.666C102.981 412.152 104.172 408.643 104.519 408.729C104.866 408.816 104.246 412.512 103.155 416.976C102.063 421.44 100.873 424.987 100.538 424.9Z" fill="#FAFAFA"/>
<path d="M130.958 427.938C130.759 428.236 127.672 426.562 124.063 424.218C120.454 421.874 117.676 419.717 117.862 419.419C118.048 419.121 121.136 420.783 124.757 423.139C128.378 425.495 131.193 427.641 130.958 427.938Z" fill="#FAFAFA"/>
<path d="M129.47 405.964C129.172 406.162 127.721 404.513 126.221 402.244C124.72 399.974 123.74 398.04 124.05 397.841C124.36 397.643 125.799 399.292 127.3 401.562C128.8 403.831 129.718 405.766 129.47 405.964Z" fill="#FAFAFA"/>
<path d="M142.9 410.974C143.099 411.259 141.797 412.524 139.986 413.801C138.176 415.079 136.539 415.872 136.328 415.587C136.117 415.302 137.432 414.025 139.242 412.747C141.053 411.47 142.69 410.652 142.9 410.974Z" fill="#FAFAFA"/>
<g opacity="0.5">
<path d="M107.83 500.125C107.47 500.013 108.053 497.198 108.562 493.726C109.07 490.254 109.355 487.389 109.727 487.389C110.1 487.389 110.372 490.328 109.839 493.912C109.306 497.496 108.153 500.236 107.83 500.125Z" fill="#FAFAFA"/>
</g>
<g opacity="0.5">
<path d="M138.734 490.018C138.423 490.192 136.067 486.632 133.475 482.081C130.884 477.53 129.024 473.673 129.334 473.5C129.644 473.326 132 476.873 134.592 481.436C137.183 486 139.044 489.881 138.734 490.018Z" fill="#FAFAFA"/>
</g>
<g opacity="0.5">
<path d="M171.509 476.24C171.794 476.451 168.694 480.99 164.577 486.372C160.46 491.754 156.888 495.933 156.603 495.722C156.318 495.512 159.431 490.973 163.548 485.591C167.665 480.209 171.236 476.017 171.509 476.24Z" fill="#FAFAFA"/>
</g>
<g opacity="0.5">
<path d="M180.749 502.568C180.749 502.915 176.693 503.808 171.584 504.539C166.475 505.271 162.283 505.594 162.234 505.246C162.184 504.899 166.277 504.006 171.398 503.262C176.52 502.518 180.699 502.208 180.749 502.568Z" fill="#FAFAFA"/>
</g>
<path d="M182.174 489.299C181.815 489.212 182.174 486.57 182.261 483.321C182.348 480.072 182.261 477.406 182.695 477.357C183.129 477.307 183.712 479.986 183.551 483.371C183.39 486.756 182.509 489.385 182.174 489.299Z" fill="#FAFAFA"/>
<path d="M137.915 504.75C137.791 505.06 134.43 503.957 130.933 501.427C127.436 498.897 125.303 496.094 125.563 495.884C125.824 495.673 128.304 497.967 131.69 500.373C135.075 502.779 138.064 504.403 137.915 504.75Z" fill="#FAFAFA"/>
<path d="M85.3226 502.791C84.9754 502.704 85.3227 499.864 86.2403 496.466C87.158 493.069 88.0757 490.365 88.4229 490.452C88.7701 490.539 88.3485 493.366 87.4928 496.777C86.6372 500.187 85.6699 502.878 85.3226 502.791Z" fill="#FAFAFA"/>
<path d="M79.6053 189.12C79.6797 189.021 81.0934 190.236 83.6852 191.6C85.2081 192.421 86.7968 193.114 88.4348 193.671C90.454 194.323 92.5299 194.784 94.6353 195.048C96.7407 195.272 98.8628 195.293 100.972 195.11C102.7 194.952 104.411 194.636 106.081 194.167C108.934 193.374 110.571 192.518 110.633 192.63C110.284 192.893 109.905 193.114 109.504 193.287C109.055 193.528 108.591 193.739 108.115 193.919C107.491 194.184 106.854 194.416 106.205 194.614C104.522 195.147 102.79 195.512 101.034 195.705C98.8822 195.928 96.7129 195.928 94.5609 195.705C92.4155 195.439 90.304 194.949 88.2612 194.242C86.5968 193.655 84.9936 192.907 83.4744 192.01C82.8171 191.65 82.2343 191.241 81.7754 190.906C81.3415 190.62 80.9272 190.305 80.5353 189.963C79.9153 189.467 79.568 189.157 79.6053 189.12Z" fill="#455A64"/>
<path d="M111.638 203.394C111.204 203.58 110.75 203.717 110.286 203.803C109.405 204.026 108.128 204.324 106.566 204.597C102.375 205.416 98.0672 205.441 93.867 204.671C89.632 203.852 85.7792 201.675 82.8921 198.471C82.0464 197.483 81.345 196.381 80.8087 195.197C80.5904 194.777 80.4398 194.325 80.3623 193.857C81.1475 195.405 82.1132 196.853 83.2393 198.173C86.1295 201.21 89.8901 203.277 94.0034 204.088C98.134 204.83 102.36 204.868 106.504 204.2C108.103 203.977 109.393 203.753 110.224 203.605C110.685 203.479 111.16 203.409 111.638 203.394Z" fill="#455A64"/>
<path d="M67.4778 279.288C67.4186 279.235 67.3646 279.177 67.3166 279.114C67.2298 278.99 67.0685 278.817 66.8949 278.556C66.4142 277.799 66.0818 276.957 65.9153 276.076C65.6665 274.435 65.7808 272.76 66.25 271.168C66.7193 269.576 67.5321 268.106 68.6311 266.862C70.1425 265.16 71.8927 263.685 73.8271 262.485C75.8609 261.145 78.1426 259.918 80.3872 258.405C82.7651 256.9 84.7979 254.91 86.3521 252.564C87.1289 251.319 87.6358 249.925 87.8402 248.471C88.0333 246.965 87.9535 245.436 87.6046 243.957C86.7904 241.03 85.7412 238.172 84.4671 235.413C83.2607 232.78 82.5502 229.946 82.3714 227.055C82.2239 222.13 83.7205 217.295 86.6249 213.315C88.5118 210.614 91.0159 208.404 93.9291 206.866L95.318 206.196L96.3845 205.824C96.6737 205.711 96.9725 205.624 97.2774 205.564C97.0075 205.715 96.7254 205.844 96.4341 205.948L95.4048 206.382L94.0531 207.089C91.2364 208.684 88.8226 210.902 86.997 213.575C84.2194 217.499 82.8038 222.225 82.9666 227.03C83.1561 229.847 83.8623 232.604 85.05 235.165C86.3489 237.966 87.4149 240.87 88.2371 243.846C88.5934 245.399 88.6732 247.002 88.4727 248.583C88.2603 250.125 87.7235 251.604 86.8977 252.923C85.2808 255.342 83.167 257.388 80.6972 258.925C78.4155 260.438 76.1213 261.654 74.0999 262.968C72.194 264.118 70.4647 265.539 68.9659 267.185C67.8906 268.376 67.082 269.783 66.5944 271.312C66.1068 272.842 65.9514 274.457 66.1385 276.051C66.364 277.209 66.8194 278.309 67.4778 279.288Z" fill="#455A64"/>
<path d="M100.514 279.734C100.259 279.626 100.017 279.489 99.7943 279.325C99.1486 278.861 98.6043 278.27 98.1945 277.589C97.5558 276.499 97.1741 275.277 97.0784 274.017C96.9468 272.344 97.1319 270.662 97.6241 269.057C98.6286 265.424 101.667 262.113 103.949 257.896C105.191 255.749 105.838 253.309 105.821 250.828C105.695 248.166 105.015 245.56 103.825 243.176C101.468 238.216 97.8473 234.223 95.3423 230.081C94.1116 228.144 93.1284 226.061 92.4157 223.88C91.8152 221.949 91.6086 219.916 91.808 217.903C92 214.957 93.2925 212.19 95.4291 210.152C96.027 209.645 96.6953 209.227 97.4133 208.912C97.6588 208.793 97.9166 208.702 98.1821 208.639C97.2462 209.103 96.3749 209.686 95.5903 210.376C93.5993 212.424 92.4185 215.125 92.2669 217.977C92.1017 219.929 92.3294 221.894 92.9365 223.756C93.6438 225.902 94.6232 227.948 95.8507 229.845C97.0908 231.866 98.6286 233.888 100.154 236.046C101.782 238.229 103.206 240.558 104.407 243.003C105.648 245.468 106.345 248.17 106.454 250.927C106.458 253.509 105.778 256.047 104.482 258.281C102.101 262.509 99.0626 265.721 98.0581 269.243C97.5655 270.784 97.3555 272.402 97.4381 274.017C97.5061 275.231 97.8361 276.416 98.4053 277.49C98.9421 278.378 99.6605 279.143 100.514 279.734Z" fill="#455A64"/>
<path d="M149.448 186.64C149.448 186.64 149.274 186.64 148.976 186.442C148.546 186.209 148.132 185.948 147.736 185.66C146.317 184.561 145.111 183.212 144.177 181.68C142.821 179.415 141.671 177.033 140.742 174.561C140.172 173.197 139.502 171.771 138.808 170.37C138.031 168.922 137.117 167.552 136.079 166.278C132.377 161.783 127.366 158.554 121.744 157.039C119.404 156.475 117.017 156.135 114.613 156.022C115.256 155.914 115.909 155.877 116.56 155.91C118.344 155.956 120.118 156.184 121.855 156.592C127.636 158.012 132.801 161.266 136.575 165.868C137.646 167.176 138.589 168.584 139.39 170.072C140.147 171.511 140.742 172.962 141.3 174.338C142.201 176.79 143.295 179.166 144.574 181.444C145.462 182.954 146.589 184.311 147.91 185.462C148.865 186.268 149.485 186.59 149.448 186.64Z" fill="#455A64"/>
<path d="M166.747 186.541C166.522 186.549 166.296 186.524 166.078 186.466C165.443 186.368 164.82 186.206 164.217 185.983C161.987 185.157 159.967 183.849 158.302 182.151C155.856 179.638 153.792 176.781 152.176 173.668C150.229 170.258 148.344 166.339 145.43 162.929C142.653 159.742 138.986 157.457 134.901 156.369C131.563 155.482 128.125 155.02 124.671 154.993C121.707 154.931 119.313 154.993 117.652 155.117L115.742 155.191C115.52 155.221 115.294 155.221 115.072 155.191C115.285 155.123 115.506 155.085 115.73 155.079L117.639 154.881C119.289 154.745 121.694 154.546 124.671 154.559C128.174 154.511 131.669 154.928 135.063 155.799C139.277 156.888 143.061 159.232 145.914 162.52C148.915 166.029 150.787 169.961 152.684 173.396C154.257 176.473 156.257 179.312 158.625 181.828C160.221 183.523 162.156 184.862 164.304 185.759C165.842 186.355 166.76 186.466 166.747 186.541Z" fill="#455A64"/>
<path d="M196.026 267.023C195.964 267.023 196.348 266.143 196.758 264.543C197.352 262.262 197.603 259.904 197.502 257.549C197.384 254.055 196.485 250.631 194.873 247.529C193.911 245.709 192.719 244.021 191.326 242.506C189.887 240.907 188.238 239.394 186.589 237.806C184.924 236.28 183.385 234.621 181.988 232.846C180.705 231.182 179.595 229.391 178.677 227.501C177.132 224.293 176.142 220.846 175.75 217.308C175.477 214.929 175.502 212.525 175.825 210.152C175.895 209.509 176.007 208.871 176.16 208.242C176.192 208.016 176.255 207.795 176.346 207.585C176.408 207.585 176.209 208.515 176.073 210.189C175.847 212.539 175.889 214.906 176.197 217.246C176.661 220.717 177.678 224.091 179.21 227.241C180.126 229.085 181.223 230.834 182.484 232.462C183.871 234.191 185.389 235.812 187.023 237.31C188.685 238.898 190.334 240.423 191.797 242.06C193.218 243.618 194.428 245.357 195.393 247.231C197.021 250.418 197.899 253.934 197.96 257.512C198.02 259.908 197.698 262.298 197.006 264.593C196.825 265.217 196.597 265.826 196.324 266.416C196.256 266.632 196.155 266.837 196.026 267.023Z" fill="#455A64"/>
<path d="M60.173 185.561C60.17 185.142 60.2243 184.725 60.3342 184.321C60.5849 183.243 60.9812 182.204 61.5123 181.233C62.3987 179.585 63.6235 178.144 65.1064 177.003C66.5893 175.862 68.2967 175.047 70.1166 174.613C71.9364 174.178 73.8276 174.134 75.666 174.482C77.5043 174.83 79.2483 175.563 80.7834 176.632C81.7124 177.249 82.5477 177.997 83.2636 178.852C83.55 179.15 83.7847 179.494 83.9581 179.869C82.9094 178.808 81.7589 177.852 80.523 177.017C79.023 176.041 77.34 175.381 75.5765 175.076C73.8131 174.772 72.0061 174.829 70.2657 175.246C68.5253 175.663 66.888 176.429 65.4534 177.499C64.0188 178.569 62.8171 179.919 61.9215 181.469C61.2079 182.773 60.6223 184.144 60.173 185.561Z" fill="#455A64"/>
<path d="M72.1899 190.782C72.1811 189.832 72.2979 188.886 72.5371 187.967C72.9186 185.666 73.9367 183.518 75.4762 181.766C76.3196 180.922 77.376 180.321 78.5332 180.029C79.6904 179.736 80.9052 179.762 82.0487 180.105C82.7359 180.353 83.3439 180.782 83.8097 181.345C84.1197 181.742 84.2065 182.014 84.1817 182.027C83.5498 181.372 82.7723 180.875 81.9123 180.576C80.8548 180.324 79.7505 180.347 78.7044 180.642C77.6582 180.937 76.7048 181.495 75.935 182.263C74.4827 183.945 73.4689 185.96 72.9836 188.128C72.8005 189.035 72.5348 189.923 72.1899 190.782Z" fill="#455A64"/>
<path d="M87.9521 172.615C86.7085 174.788 85.6186 177.047 84.6906 179.373C83.9733 181.769 83.41 184.209 83.0041 186.677C82.7299 181.518 84.5138 176.46 87.9645 172.615H87.9521Z" fill="#FF4848"/>
<path d="M286.344 202.848C286.344 203.611 286.57 204.357 286.994 204.991C287.418 205.625 288.02 206.119 288.725 206.411C289.429 206.703 290.205 206.78 290.953 206.631C291.701 206.482 292.388 206.115 292.928 205.575C293.467 205.036 293.834 204.349 293.983 203.601C294.132 202.852 294.056 202.077 293.764 201.372C293.472 200.668 292.977 200.065 292.343 199.641C291.709 199.218 290.963 198.991 290.2 198.991C289.694 198.991 289.192 199.091 288.725 199.285C288.257 199.479 287.832 199.763 287.473 200.121C287.115 200.479 286.831 200.904 286.637 201.372C286.444 201.84 286.344 202.342 286.344 202.848Z" fill="#455A64"/>
<path d="M274.748 206.705C276.878 206.705 278.605 204.978 278.605 202.848C278.605 200.718 276.878 198.991 274.748 198.991C272.618 198.991 270.892 200.718 270.892 202.848C270.892 204.978 272.618 206.705 274.748 206.705Z" fill="#455A64"/>
<path d="M255.49 200.914C255.109 201.574 254.933 202.333 254.983 203.094C255.033 203.855 255.308 204.584 255.773 205.189C256.237 205.794 256.871 206.247 257.593 206.492C258.315 206.737 259.094 206.762 259.83 206.565C260.567 206.367 261.229 205.956 261.731 205.382C262.234 204.809 262.556 204.099 262.655 203.343C262.755 202.587 262.628 201.818 262.29 201.134C261.953 200.45 261.421 199.881 260.76 199.5C260.321 199.247 259.837 199.082 259.335 199.016C258.832 198.95 258.322 198.983 257.832 199.115C257.343 199.246 256.884 199.472 256.482 199.781C256.08 200.09 255.743 200.475 255.49 200.914Z" fill="#455A64"/>
<path d="M274.513 157.771C274.253 157.74 273.991 157.74 273.731 157.771L271.437 157.833C270.941 157.833 270.371 157.833 269.751 157.907L267.729 158.192L265.373 158.527L262.732 159.184C258.217 160.331 253.919 162.208 250.008 164.74C244.196 168.438 239.308 173.418 235.716 179.296C232.124 185.175 229.925 191.797 229.286 198.657C229.107 200.718 229.065 202.79 229.162 204.857C229.237 205.911 229.162 206.965 229.361 208.019L229.844 211.206C230.653 215.589 232.099 219.829 234.135 223.793C236.32 227.934 239.089 231.739 242.357 235.091C245.841 238.521 249.836 241.391 254.2 243.598C258.707 245.901 263.585 247.392 268.61 248C269.887 248.193 271.175 248.305 272.467 248.335C273.759 248.403 275.055 248.403 276.348 248.335C278.971 248.23 281.581 247.903 284.148 247.355C289.658 246.176 294.901 243.985 299.612 240.894H299.141L314.94 247.244L315.882 247.616L315.61 246.648C314.022 240.845 312.46 235.202 310.972 229.746L310.885 230.168C315.177 224.486 318.067 217.87 319.318 210.859C319.924 207.589 320.132 204.258 319.938 200.938C319.905 199.346 319.752 197.758 319.479 196.189C319.367 195.408 319.243 194.639 319.132 193.87C319.02 193.101 318.747 192.382 318.573 191.638C315.929 181.249 309.679 172.138 300.939 165.93C297.714 163.612 294.183 161.751 290.448 160.4L288.092 159.556L285.847 158.986L283.789 158.477C283.131 158.341 282.549 158.279 281.904 158.192C280.664 158.031 279.659 157.833 278.741 157.783L276.41 157.708H274.996C274.674 157.708 274.513 157.708 274.513 157.708H274.996L276.41 157.82L278.717 157.969C279.622 158.043 280.664 158.279 281.854 158.453C290.433 159.929 298.398 163.865 304.782 169.783C311.167 175.7 315.695 183.344 317.817 191.786C317.991 192.518 318.214 193.237 318.35 193.981C318.487 194.725 318.573 195.494 318.697 196.251C318.947 197.797 319.084 199.36 319.107 200.926C319.288 204.168 319.076 207.42 318.474 210.611C317.218 217.508 314.354 224.013 310.116 229.597L309.98 229.783L310.042 230.019C311.53 235.475 313.063 241.109 314.642 246.921L315.312 246.326L299.526 239.964L299.278 239.865L299.042 240.014C294.425 243.06 289.282 245.221 283.875 246.388C281.369 246.925 278.822 247.249 276.261 247.355C274.992 247.405 273.721 247.38 272.454 247.281C271.209 247.257 269.966 247.153 268.734 246.971C263.814 246.367 259.038 244.906 254.622 242.655C246.164 238.472 239.271 231.687 234.954 223.297C232.929 219.429 231.484 215.284 230.663 210.996C230.502 209.942 230.34 208.912 230.192 207.871C230.043 206.829 230.055 205.8 229.968 204.77C229.871 202.749 229.904 200.723 230.068 198.706C230.672 191.959 232.804 185.438 236.302 179.637C239.799 173.836 244.571 168.907 250.256 165.223C254.116 162.67 258.362 160.756 262.831 159.556L265.435 158.862L267.779 158.477L269.776 158.143C270.396 158.143 270.954 158.068 271.45 158.019L273.731 157.857C273.994 157.85 274.255 157.821 274.513 157.771Z" fill="#455A64"/>
</svg>
